M48
;DRILL file {KiCad 4.0.7} date 08/08/19 12:55:26
;FORMAT={2:4/ absolute / inch / suppress leading zeros}
FMAT,2
INCH,TZ
T1C0.016
T2C0.024
T3C0.030
T4C0.031
T5C0.039
T6C0.039
T7C0.047
T8C0.138
%
G90
G05
M72
T1
X49500Y-37750
X51750Y-37500
X64500Y-46250
X65250Y-46250
X66750Y-46750
X67250Y-32500
X67250Y-33500
T2
X69250Y-37500
X70037Y-37500
T3
X47250Y-31260
X47250Y-42871
X53274Y-25000
X53510Y-48976
X64967Y-48976
X65006Y-25000
X71266Y-31260
X71266Y-42871
T4
X48500Y-38500
X48500Y-39500
X48500Y-40500
X48500Y-44750
X48500Y-46250
X50500Y-43250
X51250Y-38500
X51250Y-39500
X51250Y-40500
X52469Y-43250
X52500Y-44750
X52500Y-46250
X53500Y-38750
X53500Y-40250
X53500Y-41750
X53500Y-43250
X53500Y-44750
X53500Y-46250
X57500Y-38750
X57500Y-40250
X57500Y-41750
X57500Y-43250
X57500Y-44750
X57500Y-46250
X58750Y-38750
X58750Y-40250
X58750Y-41750
X60719Y-38750
X60719Y-40250
X60719Y-41750
X61000Y-32500
X61000Y-35500
X62000Y-37250
X62000Y-38750
X62000Y-40250
X62000Y-41750
X62500Y-43250
X65500Y-43250
X66000Y-37250
X66000Y-38750
X66000Y-40250
X66000Y-41750
X69250Y-28250
X69250Y-30250
X70234Y-30250
X71219Y-28250
T6
X48500Y-36000
X51533Y-47795
X52533Y-47795
X53533Y-47795
X54533Y-47795
X59000Y-44750
X59000Y-45750
X60500Y-44750
X60500Y-45750
X63894Y-30250
X63974Y-47795
X64894Y-30250
X64974Y-47795
X65894Y-30250
X65974Y-47795
X66974Y-47795
X69250Y-33000
X69250Y-34000
X69250Y-35000
T7
X62925Y-28093
X63909Y-28093
X64894Y-26122
X65878Y-28093
X66862Y-28093
T8
X62691Y-34000
T5
X52500Y-28237G85X52500Y-27764
G05
X54237Y-27000G85X53764Y-27000
G05
X55500Y-28237G85X55500Y-27764
G05
T0
M30
