M48
;DRILL file {KiCad 4.0.7} date 06/26/19 17:19:35
;FORMAT={2:4/ absolute / inch / suppress leading zeros}
FMAT,2
INCH,TZ
T1C0.016
T2C0.030
T3C0.031
T4C0.039
T5C0.039
T6C0.047
%
G90
G05
M72
T1
X49500Y-37750
X51750Y-37500
X66750Y-46500
X69250Y-46000
T2
X47250Y-31260
X47250Y-42871
X53274Y-25000
X53510Y-48976
X64967Y-48976
X65006Y-25000
X71266Y-31260
X71266Y-42871
T3
X48500Y-38500
X48500Y-39500
X48500Y-40500
X48500Y-44750
X48500Y-46250
X50500Y-43250
X51250Y-38500
X51250Y-39500
X51250Y-40500
X52469Y-43250
X52500Y-44750
X52500Y-46250
X53500Y-38750
X53500Y-40250
X53500Y-41750
X53500Y-43250
X53500Y-44750
X53500Y-46250
X57500Y-38750
X57500Y-40250
X57500Y-41750
X57500Y-43250
X57500Y-44750
X57500Y-46250
X58750Y-38750
X58750Y-40250
X58750Y-41750
X60719Y-38750
X60719Y-40250
X60719Y-41750
X62000Y-37250
X62000Y-38750
X62000Y-40250
X62000Y-41750
X62500Y-35750
X62500Y-43250
X65500Y-35750
X65500Y-43250
X66000Y-37250
X66000Y-38750
X66000Y-40250
X66000Y-41750
T5
X51533Y-47795
X52533Y-47795
X53533Y-47795
X54533Y-47795
X63500Y-30250
X63974Y-47795
X64000Y-32750
X64500Y-30250
X64974Y-47795
X65000Y-32750
X65500Y-30250
X65974Y-47795
X66974Y-47795
X68750Y-30250
X69250Y-47795
X70250Y-47841
T6
X62531Y-28093
X63516Y-28093
X64500Y-26122
X65484Y-28093
X66469Y-28093
T4
X52500Y-28237G85X52500Y-27764
G05
X54237Y-27000G85X53764Y-27000
G05
X55500Y-28237G85X55500Y-27764
G05
T0
M30
