G04 #@! TF.FileFunction,Soldermask,Top*
%FSLAX46Y46*%
G04 Gerber Fmt 4.6, Leading zero omitted, Abs format (unit mm)*
G04 Created by KiCad (PCBNEW 4.0.7) date 08/08/19 02:09:58*
%MOMM*%
%LPD*%
G01*
G04 APERTURE LIST*
%ADD10C,0.100000*%
%ADD11O,2.398980X3.597860*%
%ADD12O,3.597860X2.398980*%
%ADD13C,2.000000*%
%ADD14R,2.000000X2.000000*%
%ADD15O,2.000000X2.000000*%
%ADD16R,2.100000X2.100000*%
%ADD17O,2.100000X2.100000*%
%ADD18R,3.900000X2.900000*%
%ADD19O,2.150000X3.900000*%
%ADD20C,1.924000*%
%ADD21C,1.920000*%
%ADD22R,1.920000X1.920000*%
%ADD23R,1.600000X1.600000*%
%ADD24C,1.600000*%
%ADD25O,3.900000X3.900000*%
%ADD26R,2.200000X2.200000*%
%ADD27O,2.200000X2.200000*%
G04 APERTURE END LIST*
D10*
D11*
X133350000Y-71120000D03*
D12*
X138160000Y-68580000D03*
D11*
X140970000Y-71120000D03*
D13*
X149225000Y-102235000D03*
X154225000Y-102235000D03*
X149225000Y-98425000D03*
X154225000Y-98425000D03*
X149225000Y-106045000D03*
X154225000Y-106045000D03*
X128270000Y-109855000D03*
X133270000Y-109855000D03*
D14*
X166370000Y-109855000D03*
D15*
X158750000Y-109855000D03*
D16*
X138515000Y-121400000D03*
D17*
X135975000Y-121400000D03*
X133435000Y-121400000D03*
X130895000Y-121400000D03*
D16*
X170115000Y-121400000D03*
D17*
X167575000Y-121400000D03*
X165035000Y-121400000D03*
X162495000Y-121400000D03*
D16*
X123190000Y-91440000D03*
D18*
X164830000Y-66349000D03*
D19*
X169830000Y-71355000D03*
X159830000Y-71355000D03*
X167330000Y-71355000D03*
X162330000Y-71355000D03*
D16*
X162290000Y-76835000D03*
D17*
X164830000Y-76835000D03*
X167370000Y-76835000D03*
D13*
X167640000Y-102235000D03*
D15*
X157480000Y-102235000D03*
D13*
X146050000Y-102235000D03*
D15*
X135890000Y-102235000D03*
D13*
X167640000Y-106045000D03*
D15*
X157480000Y-106045000D03*
D13*
X157480000Y-94615000D03*
D15*
X167640000Y-94615000D03*
D13*
X157480000Y-98425000D03*
D15*
X167640000Y-98425000D03*
D13*
X133350000Y-117475000D03*
D15*
X123190000Y-117475000D03*
D13*
X133350000Y-113665000D03*
D15*
X123190000Y-113665000D03*
D13*
X135890000Y-98425000D03*
D15*
X146050000Y-98425000D03*
D13*
X135890000Y-117475000D03*
D15*
X146050000Y-117475000D03*
D13*
X135890000Y-106045000D03*
D15*
X146050000Y-106045000D03*
D13*
X135890000Y-109855000D03*
D15*
X146050000Y-109855000D03*
D13*
X135890000Y-113665000D03*
D15*
X146050000Y-113665000D03*
D20*
X135915000Y-124400000D03*
X181015000Y-108892000D03*
X165115000Y-63500000D03*
X181015000Y-79400000D03*
X165015000Y-124400000D03*
X120015000Y-108892000D03*
X135315000Y-63500000D03*
D21*
X123190000Y-100330000D03*
X123190000Y-102870000D03*
D22*
X123190000Y-97790000D03*
D21*
X130175000Y-100330000D03*
X130175000Y-102870000D03*
D22*
X130175000Y-97790000D03*
D23*
X175895000Y-95250000D03*
D24*
X177895000Y-95250000D03*
D14*
X175895000Y-76835000D03*
D13*
X178395000Y-76835000D03*
X175895000Y-71755000D03*
X180895000Y-71755000D03*
D16*
X153670000Y-113665000D03*
D17*
X153670000Y-116205000D03*
D16*
X149860000Y-113665000D03*
D17*
X149860000Y-116205000D03*
D25*
X159235000Y-86360000D03*
D26*
X175895000Y-88900000D03*
D27*
X175895000Y-86360000D03*
X175895000Y-83820000D03*
M02*
