G04 #@! TF.FileFunction,Legend,Bot*
%FSLAX46Y46*%
G04 Gerber Fmt 4.6, Leading zero omitted, Abs format (unit mm)*
G04 Created by KiCad (PCBNEW 4.0.7) date 06/26/19 16:31:47*
%MOMM*%
%LPD*%
G01*
G04 APERTURE LIST*
%ADD10C,0.100000*%
%ADD11C,0.200000*%
%ADD12C,0.150000*%
G04 APERTURE END LIST*
D10*
D11*
X178435000Y-119380000D02*
X178435000Y-120015000D01*
X177800000Y-119380000D02*
X178435000Y-119380000D01*
X175895000Y-119380000D02*
X175895000Y-120015000D01*
X175260000Y-119380000D02*
X175895000Y-119380000D01*
X170180000Y-119380000D02*
X170180000Y-120015000D01*
X169545000Y-119380000D02*
X170180000Y-119380000D01*
X167640000Y-119380000D02*
X167640000Y-120015000D01*
X167005000Y-119380000D02*
X167640000Y-119380000D01*
X165100000Y-119380000D02*
X165100000Y-120015000D01*
X164465000Y-119380000D02*
X165100000Y-119380000D01*
X162560000Y-119380000D02*
X162560000Y-120015000D01*
X161925000Y-119380000D02*
X162560000Y-119380000D01*
X138430000Y-120015000D02*
X137795000Y-119380000D01*
X135890000Y-120015000D02*
X135255000Y-119380000D01*
X133350000Y-120015000D02*
X132715000Y-119380000D01*
X130810000Y-120015000D02*
X130175000Y-119380000D01*
D12*
X169348095Y-119189524D02*
X168700476Y-119189524D01*
X168624286Y-119151429D01*
X168586190Y-119113333D01*
X168548095Y-119037143D01*
X168548095Y-118884762D01*
X168586190Y-118808571D01*
X168624286Y-118770476D01*
X168700476Y-118732381D01*
X169348095Y-118732381D01*
X169081429Y-118351429D02*
X168548095Y-118351429D01*
X169005238Y-118351429D02*
X169043333Y-118313334D01*
X169081429Y-118237143D01*
X169081429Y-118122857D01*
X169043333Y-118046667D01*
X168967143Y-118008572D01*
X168548095Y-118008572D01*
X169081429Y-117284762D02*
X168548095Y-117284762D01*
X169081429Y-117627619D02*
X168662381Y-117627619D01*
X168586190Y-117589524D01*
X168548095Y-117513333D01*
X168548095Y-117399047D01*
X168586190Y-117322857D01*
X168624286Y-117284762D01*
X168586190Y-116941904D02*
X168548095Y-116865714D01*
X168548095Y-116713333D01*
X168586190Y-116637142D01*
X168662381Y-116599047D01*
X168700476Y-116599047D01*
X168776667Y-116637142D01*
X168814762Y-116713333D01*
X168814762Y-116827618D01*
X168852857Y-116903809D01*
X168929048Y-116941904D01*
X168967143Y-116941904D01*
X169043333Y-116903809D01*
X169081429Y-116827618D01*
X169081429Y-116713333D01*
X169043333Y-116637142D01*
X168586190Y-115951428D02*
X168548095Y-116027618D01*
X168548095Y-116179999D01*
X168586190Y-116256190D01*
X168662381Y-116294285D01*
X168967143Y-116294285D01*
X169043333Y-116256190D01*
X169081429Y-116179999D01*
X169081429Y-116027618D01*
X169043333Y-115951428D01*
X168967143Y-115913333D01*
X168890952Y-115913333D01*
X168814762Y-116294285D01*
X168548095Y-115227619D02*
X169348095Y-115227619D01*
X168586190Y-115227619D02*
X168548095Y-115303809D01*
X168548095Y-115456190D01*
X168586190Y-115532381D01*
X168624286Y-115570476D01*
X168700476Y-115608571D01*
X168929048Y-115608571D01*
X169005238Y-115570476D01*
X169043333Y-115532381D01*
X169081429Y-115456190D01*
X169081429Y-115303809D01*
X169043333Y-115227619D01*
X175063095Y-119303810D02*
X174263095Y-119037143D01*
X175063095Y-118770476D01*
X174339286Y-118046667D02*
X174301190Y-118084762D01*
X174263095Y-118199048D01*
X174263095Y-118275238D01*
X174301190Y-118389524D01*
X174377381Y-118465715D01*
X174453571Y-118503810D01*
X174605952Y-118541905D01*
X174720238Y-118541905D01*
X174872619Y-118503810D01*
X174948810Y-118465715D01*
X175025000Y-118389524D01*
X175063095Y-118275238D01*
X175063095Y-118199048D01*
X175025000Y-118084762D01*
X174986905Y-118046667D01*
X174339286Y-117246667D02*
X174301190Y-117284762D01*
X174263095Y-117399048D01*
X174263095Y-117475238D01*
X174301190Y-117589524D01*
X174377381Y-117665715D01*
X174453571Y-117703810D01*
X174605952Y-117741905D01*
X174720238Y-117741905D01*
X174872619Y-117703810D01*
X174948810Y-117665715D01*
X175025000Y-117589524D01*
X175063095Y-117475238D01*
X175063095Y-117399048D01*
X175025000Y-117284762D01*
X174986905Y-117246667D01*
X177565000Y-118770476D02*
X177603095Y-118846667D01*
X177603095Y-118960952D01*
X177565000Y-119075238D01*
X177488810Y-119151429D01*
X177412619Y-119189524D01*
X177260238Y-119227619D01*
X177145952Y-119227619D01*
X176993571Y-119189524D01*
X176917381Y-119151429D01*
X176841190Y-119075238D01*
X176803095Y-118960952D01*
X176803095Y-118884762D01*
X176841190Y-118770476D01*
X176879286Y-118732381D01*
X177145952Y-118732381D01*
X177145952Y-118884762D01*
X176803095Y-118389524D02*
X177603095Y-118389524D01*
X176803095Y-117932381D01*
X177603095Y-117932381D01*
X176803095Y-117551429D02*
X177603095Y-117551429D01*
X177603095Y-117360953D01*
X177565000Y-117246667D01*
X177488810Y-117170476D01*
X177412619Y-117132381D01*
X177260238Y-117094286D01*
X177145952Y-117094286D01*
X176993571Y-117132381D01*
X176917381Y-117170476D01*
X176841190Y-117246667D01*
X176803095Y-117360953D01*
X176803095Y-117551429D01*
X129940000Y-118770476D02*
X129978095Y-118846667D01*
X129978095Y-118960952D01*
X129940000Y-119075238D01*
X129863810Y-119151429D01*
X129787619Y-119189524D01*
X129635238Y-119227619D01*
X129520952Y-119227619D01*
X129368571Y-119189524D01*
X129292381Y-119151429D01*
X129216190Y-119075238D01*
X129178095Y-118960952D01*
X129178095Y-118884762D01*
X129216190Y-118770476D01*
X129254286Y-118732381D01*
X129520952Y-118732381D01*
X129520952Y-118884762D01*
X129178095Y-118389524D02*
X129978095Y-118389524D01*
X129178095Y-117932381D01*
X129978095Y-117932381D01*
X129178095Y-117551429D02*
X129978095Y-117551429D01*
X129978095Y-117360953D01*
X129940000Y-117246667D01*
X129863810Y-117170476D01*
X129787619Y-117132381D01*
X129635238Y-117094286D01*
X129520952Y-117094286D01*
X129368571Y-117132381D01*
X129292381Y-117170476D01*
X129216190Y-117246667D01*
X129178095Y-117360953D01*
X129178095Y-117551429D01*
X131794286Y-118732381D02*
X131756190Y-118770476D01*
X131718095Y-118884762D01*
X131718095Y-118960952D01*
X131756190Y-119075238D01*
X131832381Y-119151429D01*
X131908571Y-119189524D01*
X132060952Y-119227619D01*
X132175238Y-119227619D01*
X132327619Y-119189524D01*
X132403810Y-119151429D01*
X132480000Y-119075238D01*
X132518095Y-118960952D01*
X132518095Y-118884762D01*
X132480000Y-118770476D01*
X132441905Y-118732381D01*
X131718095Y-118389524D02*
X132518095Y-118389524D01*
X131718095Y-118046667D02*
X132137143Y-118046667D01*
X132213333Y-118084762D01*
X132251429Y-118160952D01*
X132251429Y-118275238D01*
X132213333Y-118351429D01*
X132175238Y-118389524D01*
X131718095Y-117665714D02*
X132251429Y-117665714D01*
X132099048Y-117665714D02*
X132175238Y-117627619D01*
X132213333Y-117589523D01*
X132251429Y-117513333D01*
X132251429Y-117437142D01*
X131718095Y-117056190D02*
X131756190Y-117132381D01*
X131794286Y-117170476D01*
X131870476Y-117208571D01*
X132099048Y-117208571D01*
X132175238Y-117170476D01*
X132213333Y-117132381D01*
X132251429Y-117056190D01*
X132251429Y-116941904D01*
X132213333Y-116865714D01*
X132175238Y-116827619D01*
X132099048Y-116789523D01*
X131870476Y-116789523D01*
X131794286Y-116827619D01*
X131756190Y-116865714D01*
X131718095Y-116941904D01*
X131718095Y-117056190D01*
X131718095Y-116446666D02*
X132251429Y-116446666D01*
X132175238Y-116446666D02*
X132213333Y-116408571D01*
X132251429Y-116332380D01*
X132251429Y-116218094D01*
X132213333Y-116141904D01*
X132137143Y-116103809D01*
X131718095Y-116103809D01*
X132137143Y-116103809D02*
X132213333Y-116065713D01*
X132251429Y-115989523D01*
X132251429Y-115875237D01*
X132213333Y-115799047D01*
X132137143Y-115760952D01*
X131718095Y-115760952D01*
X131718095Y-115037142D02*
X132137143Y-115037142D01*
X132213333Y-115075237D01*
X132251429Y-115151427D01*
X132251429Y-115303808D01*
X132213333Y-115379999D01*
X131756190Y-115037142D02*
X131718095Y-115113332D01*
X131718095Y-115303808D01*
X131756190Y-115379999D01*
X131832381Y-115418094D01*
X131908571Y-115418094D01*
X131984762Y-115379999D01*
X132022857Y-115303808D01*
X132022857Y-115113332D01*
X132060952Y-115037142D01*
X132518095Y-113894284D02*
X132518095Y-113741903D01*
X132480000Y-113665712D01*
X132403810Y-113589522D01*
X132251429Y-113551427D01*
X131984762Y-113551427D01*
X131832381Y-113589522D01*
X131756190Y-113665712D01*
X131718095Y-113741903D01*
X131718095Y-113894284D01*
X131756190Y-113970474D01*
X131832381Y-114046665D01*
X131984762Y-114084760D01*
X132251429Y-114084760D01*
X132403810Y-114046665D01*
X132480000Y-113970474D01*
X132518095Y-113894284D01*
X132518095Y-113208570D02*
X131870476Y-113208570D01*
X131794286Y-113170475D01*
X131756190Y-113132379D01*
X131718095Y-113056189D01*
X131718095Y-112903808D01*
X131756190Y-112827617D01*
X131794286Y-112789522D01*
X131870476Y-112751427D01*
X132518095Y-112751427D01*
X132518095Y-112484761D02*
X132518095Y-112027618D01*
X131718095Y-112256189D02*
X132518095Y-112256189D01*
X134258095Y-118808571D02*
X134258095Y-119189524D01*
X135058095Y-119189524D01*
X134791429Y-118199048D02*
X134258095Y-118199048D01*
X134791429Y-118541905D02*
X134372381Y-118541905D01*
X134296190Y-118503810D01*
X134258095Y-118427619D01*
X134258095Y-118313333D01*
X134296190Y-118237143D01*
X134334286Y-118199048D01*
X134258095Y-117818095D02*
X134791429Y-117818095D01*
X134715238Y-117818095D02*
X134753333Y-117780000D01*
X134791429Y-117703809D01*
X134791429Y-117589523D01*
X134753333Y-117513333D01*
X134677143Y-117475238D01*
X134258095Y-117475238D01*
X134677143Y-117475238D02*
X134753333Y-117437142D01*
X134791429Y-117360952D01*
X134791429Y-117246666D01*
X134753333Y-117170476D01*
X134677143Y-117132381D01*
X134258095Y-117132381D01*
X134258095Y-116408571D02*
X134677143Y-116408571D01*
X134753333Y-116446666D01*
X134791429Y-116522856D01*
X134791429Y-116675237D01*
X134753333Y-116751428D01*
X134296190Y-116408571D02*
X134258095Y-116484761D01*
X134258095Y-116675237D01*
X134296190Y-116751428D01*
X134372381Y-116789523D01*
X134448571Y-116789523D01*
X134524762Y-116751428D01*
X134562857Y-116675237D01*
X134562857Y-116484761D01*
X134600952Y-116408571D01*
X135058095Y-115265713D02*
X135058095Y-115113332D01*
X135020000Y-115037141D01*
X134943810Y-114960951D01*
X134791429Y-114922856D01*
X134524762Y-114922856D01*
X134372381Y-114960951D01*
X134296190Y-115037141D01*
X134258095Y-115113332D01*
X134258095Y-115265713D01*
X134296190Y-115341903D01*
X134372381Y-115418094D01*
X134524762Y-115456189D01*
X134791429Y-115456189D01*
X134943810Y-115418094D01*
X135020000Y-115341903D01*
X135058095Y-115265713D01*
X135058095Y-114579999D02*
X134410476Y-114579999D01*
X134334286Y-114541904D01*
X134296190Y-114503808D01*
X134258095Y-114427618D01*
X134258095Y-114275237D01*
X134296190Y-114199046D01*
X134334286Y-114160951D01*
X134410476Y-114122856D01*
X135058095Y-114122856D01*
X135058095Y-113856190D02*
X135058095Y-113399047D01*
X134258095Y-113627618D02*
X135058095Y-113627618D01*
X136874286Y-118732381D02*
X136836190Y-118770476D01*
X136798095Y-118884762D01*
X136798095Y-118960952D01*
X136836190Y-119075238D01*
X136912381Y-119151429D01*
X136988571Y-119189524D01*
X137140952Y-119227619D01*
X137255238Y-119227619D01*
X137407619Y-119189524D01*
X137483810Y-119151429D01*
X137560000Y-119075238D01*
X137598095Y-118960952D01*
X137598095Y-118884762D01*
X137560000Y-118770476D01*
X137521905Y-118732381D01*
X136798095Y-118275238D02*
X136836190Y-118351429D01*
X136874286Y-118389524D01*
X136950476Y-118427619D01*
X137179048Y-118427619D01*
X137255238Y-118389524D01*
X137293333Y-118351429D01*
X137331429Y-118275238D01*
X137331429Y-118160952D01*
X137293333Y-118084762D01*
X137255238Y-118046667D01*
X137179048Y-118008571D01*
X136950476Y-118008571D01*
X136874286Y-118046667D01*
X136836190Y-118084762D01*
X136798095Y-118160952D01*
X136798095Y-118275238D01*
X136798095Y-117665714D02*
X137331429Y-117665714D01*
X137255238Y-117665714D02*
X137293333Y-117627619D01*
X137331429Y-117551428D01*
X137331429Y-117437142D01*
X137293333Y-117360952D01*
X137217143Y-117322857D01*
X136798095Y-117322857D01*
X137217143Y-117322857D02*
X137293333Y-117284761D01*
X137331429Y-117208571D01*
X137331429Y-117094285D01*
X137293333Y-117018095D01*
X137217143Y-116980000D01*
X136798095Y-116980000D01*
X137331429Y-116599047D02*
X136531429Y-116599047D01*
X137293333Y-116599047D02*
X137331429Y-116522856D01*
X137331429Y-116370475D01*
X137293333Y-116294285D01*
X137255238Y-116256190D01*
X137179048Y-116218094D01*
X136950476Y-116218094D01*
X136874286Y-116256190D01*
X136836190Y-116294285D01*
X136798095Y-116370475D01*
X136798095Y-116522856D01*
X136836190Y-116599047D01*
X136798095Y-115760951D02*
X136836190Y-115837142D01*
X136874286Y-115875237D01*
X136950476Y-115913332D01*
X137179048Y-115913332D01*
X137255238Y-115875237D01*
X137293333Y-115837142D01*
X137331429Y-115760951D01*
X137331429Y-115646665D01*
X137293333Y-115570475D01*
X137255238Y-115532380D01*
X137179048Y-115494284D01*
X136950476Y-115494284D01*
X136874286Y-115532380D01*
X136836190Y-115570475D01*
X136798095Y-115646665D01*
X136798095Y-115760951D01*
X136836190Y-115189522D02*
X136798095Y-115113332D01*
X136798095Y-114960951D01*
X136836190Y-114884760D01*
X136912381Y-114846665D01*
X136950476Y-114846665D01*
X137026667Y-114884760D01*
X137064762Y-114960951D01*
X137064762Y-115075236D01*
X137102857Y-115151427D01*
X137179048Y-115189522D01*
X137217143Y-115189522D01*
X137293333Y-115151427D01*
X137331429Y-115075236D01*
X137331429Y-114960951D01*
X137293333Y-114884760D01*
X136798095Y-114503808D02*
X137331429Y-114503808D01*
X137598095Y-114503808D02*
X137560000Y-114541903D01*
X137521905Y-114503808D01*
X137560000Y-114465713D01*
X137598095Y-114503808D01*
X137521905Y-114503808D01*
X137331429Y-114237142D02*
X137331429Y-113932380D01*
X137598095Y-114122856D02*
X136912381Y-114122856D01*
X136836190Y-114084761D01*
X136798095Y-114008570D01*
X136798095Y-113932380D01*
X136836190Y-113360951D02*
X136798095Y-113437141D01*
X136798095Y-113589522D01*
X136836190Y-113665713D01*
X136912381Y-113703808D01*
X137217143Y-113703808D01*
X137293333Y-113665713D01*
X137331429Y-113589522D01*
X137331429Y-113437141D01*
X137293333Y-113360951D01*
X137217143Y-113322856D01*
X137140952Y-113322856D01*
X137064762Y-113703808D01*
X166008095Y-118808571D02*
X166008095Y-119189524D01*
X166808095Y-119189524D01*
X166541429Y-118199048D02*
X166008095Y-118199048D01*
X166541429Y-118541905D02*
X166122381Y-118541905D01*
X166046190Y-118503810D01*
X166008095Y-118427619D01*
X166008095Y-118313333D01*
X166046190Y-118237143D01*
X166084286Y-118199048D01*
X166008095Y-117818095D02*
X166541429Y-117818095D01*
X166465238Y-117818095D02*
X166503333Y-117780000D01*
X166541429Y-117703809D01*
X166541429Y-117589523D01*
X166503333Y-117513333D01*
X166427143Y-117475238D01*
X166008095Y-117475238D01*
X166427143Y-117475238D02*
X166503333Y-117437142D01*
X166541429Y-117360952D01*
X166541429Y-117246666D01*
X166503333Y-117170476D01*
X166427143Y-117132381D01*
X166008095Y-117132381D01*
X166008095Y-116408571D02*
X166427143Y-116408571D01*
X166503333Y-116446666D01*
X166541429Y-116522856D01*
X166541429Y-116675237D01*
X166503333Y-116751428D01*
X166046190Y-116408571D02*
X166008095Y-116484761D01*
X166008095Y-116675237D01*
X166046190Y-116751428D01*
X166122381Y-116789523D01*
X166198571Y-116789523D01*
X166274762Y-116751428D01*
X166312857Y-116675237D01*
X166312857Y-116484761D01*
X166350952Y-116408571D01*
X166008095Y-115418094D02*
X166808095Y-115418094D01*
X166008095Y-115037142D02*
X166808095Y-115037142D01*
X166008095Y-114579999D01*
X166808095Y-114579999D01*
X163544286Y-118732381D02*
X163506190Y-118770476D01*
X163468095Y-118884762D01*
X163468095Y-118960952D01*
X163506190Y-119075238D01*
X163582381Y-119151429D01*
X163658571Y-119189524D01*
X163810952Y-119227619D01*
X163925238Y-119227619D01*
X164077619Y-119189524D01*
X164153810Y-119151429D01*
X164230000Y-119075238D01*
X164268095Y-118960952D01*
X164268095Y-118884762D01*
X164230000Y-118770476D01*
X164191905Y-118732381D01*
X163468095Y-118389524D02*
X164268095Y-118389524D01*
X163468095Y-118046667D02*
X163887143Y-118046667D01*
X163963333Y-118084762D01*
X164001429Y-118160952D01*
X164001429Y-118275238D01*
X163963333Y-118351429D01*
X163925238Y-118389524D01*
X163468095Y-117665714D02*
X164001429Y-117665714D01*
X163849048Y-117665714D02*
X163925238Y-117627619D01*
X163963333Y-117589523D01*
X164001429Y-117513333D01*
X164001429Y-117437142D01*
X163468095Y-117056190D02*
X163506190Y-117132381D01*
X163544286Y-117170476D01*
X163620476Y-117208571D01*
X163849048Y-117208571D01*
X163925238Y-117170476D01*
X163963333Y-117132381D01*
X164001429Y-117056190D01*
X164001429Y-116941904D01*
X163963333Y-116865714D01*
X163925238Y-116827619D01*
X163849048Y-116789523D01*
X163620476Y-116789523D01*
X163544286Y-116827619D01*
X163506190Y-116865714D01*
X163468095Y-116941904D01*
X163468095Y-117056190D01*
X163468095Y-116446666D02*
X164001429Y-116446666D01*
X163925238Y-116446666D02*
X163963333Y-116408571D01*
X164001429Y-116332380D01*
X164001429Y-116218094D01*
X163963333Y-116141904D01*
X163887143Y-116103809D01*
X163468095Y-116103809D01*
X163887143Y-116103809D02*
X163963333Y-116065713D01*
X164001429Y-115989523D01*
X164001429Y-115875237D01*
X163963333Y-115799047D01*
X163887143Y-115760952D01*
X163468095Y-115760952D01*
X163468095Y-115037142D02*
X163887143Y-115037142D01*
X163963333Y-115075237D01*
X164001429Y-115151427D01*
X164001429Y-115303808D01*
X163963333Y-115379999D01*
X163506190Y-115037142D02*
X163468095Y-115113332D01*
X163468095Y-115303808D01*
X163506190Y-115379999D01*
X163582381Y-115418094D01*
X163658571Y-115418094D01*
X163734762Y-115379999D01*
X163772857Y-115303808D01*
X163772857Y-115113332D01*
X163810952Y-115037142D01*
X163468095Y-114046665D02*
X164268095Y-114046665D01*
X163468095Y-113665713D02*
X164268095Y-113665713D01*
X163468095Y-113208570D01*
X164268095Y-113208570D01*
X161156667Y-119227619D02*
X161156667Y-118846667D01*
X160928095Y-119303810D02*
X161728095Y-119037143D01*
X160928095Y-118770476D01*
X161461429Y-118160953D02*
X160928095Y-118160953D01*
X161461429Y-118503810D02*
X161042381Y-118503810D01*
X160966190Y-118465715D01*
X160928095Y-118389524D01*
X160928095Y-118275238D01*
X160966190Y-118199048D01*
X161004286Y-118160953D01*
X160928095Y-117437143D02*
X161728095Y-117437143D01*
X160966190Y-117437143D02*
X160928095Y-117513333D01*
X160928095Y-117665714D01*
X160966190Y-117741905D01*
X161004286Y-117780000D01*
X161080476Y-117818095D01*
X161309048Y-117818095D01*
X161385238Y-117780000D01*
X161423333Y-117741905D01*
X161461429Y-117665714D01*
X161461429Y-117513333D01*
X161423333Y-117437143D01*
X160928095Y-117056190D02*
X161461429Y-117056190D01*
X161728095Y-117056190D02*
X161690000Y-117094285D01*
X161651905Y-117056190D01*
X161690000Y-117018095D01*
X161728095Y-117056190D01*
X161651905Y-117056190D01*
X160928095Y-116560952D02*
X160966190Y-116637143D01*
X161004286Y-116675238D01*
X161080476Y-116713333D01*
X161309048Y-116713333D01*
X161385238Y-116675238D01*
X161423333Y-116637143D01*
X161461429Y-116560952D01*
X161461429Y-116446666D01*
X161423333Y-116370476D01*
X161385238Y-116332381D01*
X161309048Y-116294285D01*
X161080476Y-116294285D01*
X161004286Y-116332381D01*
X160966190Y-116370476D01*
X160928095Y-116446666D01*
X160928095Y-116560952D01*
X160928095Y-115341904D02*
X161728095Y-115341904D01*
X160928095Y-114960952D02*
X161728095Y-114960952D01*
X160928095Y-114503809D01*
X161728095Y-114503809D01*
X153296667Y-102957381D02*
X152677619Y-102957381D01*
X153010953Y-103338333D01*
X152868095Y-103338333D01*
X152772857Y-103385952D01*
X152725238Y-103433571D01*
X152677619Y-103528810D01*
X152677619Y-103766905D01*
X152725238Y-103862143D01*
X152772857Y-103909762D01*
X152868095Y-103957381D01*
X153153810Y-103957381D01*
X153249048Y-103909762D01*
X153296667Y-103862143D01*
X152344286Y-102957381D02*
X151725238Y-102957381D01*
X152058572Y-103338333D01*
X151915714Y-103338333D01*
X151820476Y-103385952D01*
X151772857Y-103433571D01*
X151725238Y-103528810D01*
X151725238Y-103766905D01*
X151772857Y-103862143D01*
X151820476Y-103909762D01*
X151915714Y-103957381D01*
X152201429Y-103957381D01*
X152296667Y-103909762D01*
X152344286Y-103862143D01*
X151106191Y-102957381D02*
X151010952Y-102957381D01*
X150915714Y-103005000D01*
X150868095Y-103052619D01*
X150820476Y-103147857D01*
X150772857Y-103338333D01*
X150772857Y-103576429D01*
X150820476Y-103766905D01*
X150868095Y-103862143D01*
X150915714Y-103909762D01*
X151010952Y-103957381D01*
X151106191Y-103957381D01*
X151201429Y-103909762D01*
X151249048Y-103862143D01*
X151296667Y-103766905D01*
X151344286Y-103576429D01*
X151344286Y-103338333D01*
X151296667Y-103147857D01*
X151249048Y-103052619D01*
X151201429Y-103005000D01*
X151106191Y-102957381D01*
X150344286Y-103290714D02*
X150344286Y-104290714D01*
X150344286Y-103338333D02*
X150249048Y-103290714D01*
X150058571Y-103290714D01*
X149963333Y-103338333D01*
X149915714Y-103385952D01*
X149868095Y-103481190D01*
X149868095Y-103766905D01*
X149915714Y-103862143D01*
X149963333Y-103909762D01*
X150058571Y-103957381D01*
X150249048Y-103957381D01*
X150344286Y-103909762D01*
X149106190Y-103433571D02*
X149439524Y-103433571D01*
X149439524Y-103957381D02*
X149439524Y-102957381D01*
X148963333Y-102957381D01*
X153312619Y-100147381D02*
X153884048Y-100147381D01*
X153598334Y-100147381D02*
X153598334Y-99147381D01*
X153693572Y-99290238D01*
X153788810Y-99385476D01*
X153884048Y-99433095D01*
X152407857Y-99147381D02*
X152884048Y-99147381D01*
X152931667Y-99623571D01*
X152884048Y-99575952D01*
X152788810Y-99528333D01*
X152550714Y-99528333D01*
X152455476Y-99575952D01*
X152407857Y-99623571D01*
X152360238Y-99718810D01*
X152360238Y-99956905D01*
X152407857Y-100052143D01*
X152455476Y-100099762D01*
X152550714Y-100147381D01*
X152788810Y-100147381D01*
X152884048Y-100099762D01*
X152931667Y-100052143D01*
X151741191Y-99147381D02*
X151645952Y-99147381D01*
X151550714Y-99195000D01*
X151503095Y-99242619D01*
X151455476Y-99337857D01*
X151407857Y-99528333D01*
X151407857Y-99766429D01*
X151455476Y-99956905D01*
X151503095Y-100052143D01*
X151550714Y-100099762D01*
X151645952Y-100147381D01*
X151741191Y-100147381D01*
X151836429Y-100099762D01*
X151884048Y-100052143D01*
X151931667Y-99956905D01*
X151979286Y-99766429D01*
X151979286Y-99528333D01*
X151931667Y-99337857D01*
X151884048Y-99242619D01*
X151836429Y-99195000D01*
X151741191Y-99147381D01*
X150979286Y-99480714D02*
X150979286Y-100480714D01*
X150979286Y-99528333D02*
X150884048Y-99480714D01*
X150693571Y-99480714D01*
X150598333Y-99528333D01*
X150550714Y-99575952D01*
X150503095Y-99671190D01*
X150503095Y-99956905D01*
X150550714Y-100052143D01*
X150598333Y-100099762D01*
X150693571Y-100147381D01*
X150884048Y-100147381D01*
X150979286Y-100099762D01*
X149741190Y-99623571D02*
X150074524Y-99623571D01*
X150074524Y-100147381D02*
X150074524Y-99147381D01*
X149598333Y-99147381D01*
X153931667Y-106767381D02*
X153312619Y-106767381D01*
X153645953Y-107148333D01*
X153503095Y-107148333D01*
X153407857Y-107195952D01*
X153360238Y-107243571D01*
X153312619Y-107338810D01*
X153312619Y-107576905D01*
X153360238Y-107672143D01*
X153407857Y-107719762D01*
X153503095Y-107767381D01*
X153788810Y-107767381D01*
X153884048Y-107719762D01*
X153931667Y-107672143D01*
X152979286Y-106767381D02*
X152360238Y-106767381D01*
X152693572Y-107148333D01*
X152550714Y-107148333D01*
X152455476Y-107195952D01*
X152407857Y-107243571D01*
X152360238Y-107338810D01*
X152360238Y-107576905D01*
X152407857Y-107672143D01*
X152455476Y-107719762D01*
X152550714Y-107767381D01*
X152836429Y-107767381D01*
X152931667Y-107719762D01*
X152979286Y-107672143D01*
X151741191Y-106767381D02*
X151645952Y-106767381D01*
X151550714Y-106815000D01*
X151503095Y-106862619D01*
X151455476Y-106957857D01*
X151407857Y-107148333D01*
X151407857Y-107386429D01*
X151455476Y-107576905D01*
X151503095Y-107672143D01*
X151550714Y-107719762D01*
X151645952Y-107767381D01*
X151741191Y-107767381D01*
X151836429Y-107719762D01*
X151884048Y-107672143D01*
X151931667Y-107576905D01*
X151979286Y-107386429D01*
X151979286Y-107148333D01*
X151931667Y-106957857D01*
X151884048Y-106862619D01*
X151836429Y-106815000D01*
X151741191Y-106767381D01*
X150979286Y-107100714D02*
X150979286Y-108100714D01*
X150979286Y-107148333D02*
X150884048Y-107100714D01*
X150693571Y-107100714D01*
X150598333Y-107148333D01*
X150550714Y-107195952D01*
X150503095Y-107291190D01*
X150503095Y-107576905D01*
X150550714Y-107672143D01*
X150598333Y-107719762D01*
X150693571Y-107767381D01*
X150884048Y-107767381D01*
X150979286Y-107719762D01*
X149741190Y-107243571D02*
X150074524Y-107243571D01*
X150074524Y-107767381D02*
X150074524Y-106767381D01*
X149598333Y-106767381D01*
X131976666Y-108037381D02*
X132167143Y-108037381D01*
X132262381Y-108085000D01*
X132310000Y-108132619D01*
X132405238Y-108275476D01*
X132452857Y-108465952D01*
X132452857Y-108846905D01*
X132405238Y-108942143D01*
X132357619Y-108989762D01*
X132262381Y-109037381D01*
X132071904Y-109037381D01*
X131976666Y-108989762D01*
X131929047Y-108942143D01*
X131881428Y-108846905D01*
X131881428Y-108608810D01*
X131929047Y-108513571D01*
X131976666Y-108465952D01*
X132071904Y-108418333D01*
X132262381Y-108418333D01*
X132357619Y-108465952D01*
X132405238Y-108513571D01*
X132452857Y-108608810D01*
X131310000Y-108465952D02*
X131405238Y-108418333D01*
X131452857Y-108370714D01*
X131500476Y-108275476D01*
X131500476Y-108227857D01*
X131452857Y-108132619D01*
X131405238Y-108085000D01*
X131310000Y-108037381D01*
X131119523Y-108037381D01*
X131024285Y-108085000D01*
X130976666Y-108132619D01*
X130929047Y-108227857D01*
X130929047Y-108275476D01*
X130976666Y-108370714D01*
X131024285Y-108418333D01*
X131119523Y-108465952D01*
X131310000Y-108465952D01*
X131405238Y-108513571D01*
X131452857Y-108561190D01*
X131500476Y-108656429D01*
X131500476Y-108846905D01*
X131452857Y-108942143D01*
X131405238Y-108989762D01*
X131310000Y-109037381D01*
X131119523Y-109037381D01*
X131024285Y-108989762D01*
X130976666Y-108942143D01*
X130929047Y-108846905D01*
X130929047Y-108656429D01*
X130976666Y-108561190D01*
X131024285Y-108513571D01*
X131119523Y-108465952D01*
X130500476Y-108370714D02*
X130500476Y-109370714D01*
X130500476Y-108418333D02*
X130405238Y-108370714D01*
X130214761Y-108370714D01*
X130119523Y-108418333D01*
X130071904Y-108465952D01*
X130024285Y-108561190D01*
X130024285Y-108846905D01*
X130071904Y-108942143D01*
X130119523Y-108989762D01*
X130214761Y-109037381D01*
X130405238Y-109037381D01*
X130500476Y-108989762D01*
X129262380Y-108513571D02*
X129595714Y-108513571D01*
X129595714Y-109037381D02*
X129595714Y-108037381D01*
X129119523Y-108037381D01*
X164631428Y-91257381D02*
X165202857Y-91257381D01*
X164917143Y-91257381D02*
X164917143Y-90257381D01*
X165012381Y-90400238D01*
X165107619Y-90495476D01*
X165202857Y-90543095D01*
X164202857Y-90590714D02*
X164202857Y-91257381D01*
X164202857Y-90685952D02*
X164155238Y-90638333D01*
X164060000Y-90590714D01*
X163917142Y-90590714D01*
X163821904Y-90638333D01*
X163774285Y-90733571D01*
X163774285Y-91257381D01*
X162869523Y-90590714D02*
X162869523Y-91257381D01*
X163107619Y-90209762D02*
X163345714Y-90924048D01*
X162726666Y-90924048D01*
X161821904Y-91257381D02*
X162393333Y-91257381D01*
X162107619Y-91257381D02*
X162107619Y-90257381D01*
X162202857Y-90400238D01*
X162298095Y-90495476D01*
X162393333Y-90543095D01*
X160964761Y-90590714D02*
X160964761Y-91257381D01*
X161202857Y-90209762D02*
X161440952Y-90924048D01*
X160821904Y-90924048D01*
X160298095Y-90685952D02*
X160393333Y-90638333D01*
X160440952Y-90590714D01*
X160488571Y-90495476D01*
X160488571Y-90447857D01*
X160440952Y-90352619D01*
X160393333Y-90305000D01*
X160298095Y-90257381D01*
X160107618Y-90257381D01*
X160012380Y-90305000D01*
X159964761Y-90352619D01*
X159917142Y-90447857D01*
X159917142Y-90495476D01*
X159964761Y-90590714D01*
X160012380Y-90638333D01*
X160107618Y-90685952D01*
X160298095Y-90685952D01*
X160393333Y-90733571D01*
X160440952Y-90781190D01*
X160488571Y-90876429D01*
X160488571Y-91066905D01*
X160440952Y-91162143D01*
X160393333Y-91209762D01*
X160298095Y-91257381D01*
X160107618Y-91257381D01*
X160012380Y-91209762D01*
X159964761Y-91162143D01*
X159917142Y-91066905D01*
X159917142Y-90876429D01*
X159964761Y-90781190D01*
X160012380Y-90733571D01*
X160107618Y-90685952D01*
X164631428Y-110307381D02*
X165202857Y-110307381D01*
X164917143Y-110307381D02*
X164917143Y-109307381D01*
X165012381Y-109450238D01*
X165107619Y-109545476D01*
X165202857Y-109593095D01*
X164202857Y-109640714D02*
X164202857Y-110307381D01*
X164202857Y-109735952D02*
X164155238Y-109688333D01*
X164060000Y-109640714D01*
X163917142Y-109640714D01*
X163821904Y-109688333D01*
X163774285Y-109783571D01*
X163774285Y-110307381D01*
X162869523Y-109640714D02*
X162869523Y-110307381D01*
X163107619Y-109259762D02*
X163345714Y-109974048D01*
X162726666Y-109974048D01*
X161821904Y-110307381D02*
X162393333Y-110307381D01*
X162107619Y-110307381D02*
X162107619Y-109307381D01*
X162202857Y-109450238D01*
X162298095Y-109545476D01*
X162393333Y-109593095D01*
X160964761Y-109640714D02*
X160964761Y-110307381D01*
X161202857Y-109259762D02*
X161440952Y-109974048D01*
X160821904Y-109974048D01*
X160298095Y-109735952D02*
X160393333Y-109688333D01*
X160440952Y-109640714D01*
X160488571Y-109545476D01*
X160488571Y-109497857D01*
X160440952Y-109402619D01*
X160393333Y-109355000D01*
X160298095Y-109307381D01*
X160107618Y-109307381D01*
X160012380Y-109355000D01*
X159964761Y-109402619D01*
X159917142Y-109497857D01*
X159917142Y-109545476D01*
X159964761Y-109640714D01*
X160012380Y-109688333D01*
X160107618Y-109735952D01*
X160298095Y-109735952D01*
X160393333Y-109783571D01*
X160440952Y-109831190D01*
X160488571Y-109926429D01*
X160488571Y-110116905D01*
X160440952Y-110212143D01*
X160393333Y-110259762D01*
X160298095Y-110307381D01*
X160107618Y-110307381D01*
X160012380Y-110259762D01*
X159964761Y-110212143D01*
X159917142Y-110116905D01*
X159917142Y-109926429D01*
X159964761Y-109831190D01*
X160012380Y-109783571D01*
X160107618Y-109735952D01*
M02*
