G04 #@! TF.FileFunction,Legend,Top*
%FSLAX46Y46*%
G04 Gerber Fmt 4.6, Leading zero omitted, Abs format (unit mm)*
G04 Created by KiCad (PCBNEW 4.0.7) date 06/26/19 17:19:33*
%MOMM*%
%LPD*%
G01*
G04 APERTURE LIST*
%ADD10C,0.100000*%
%ADD11C,0.150000*%
%ADD12C,0.200000*%
%ADD13C,0.381000*%
%ADD14C,0.120000*%
%ADD15C,0.304800*%
G04 APERTURE END LIST*
D10*
D11*
X177825477Y-123425000D02*
X177749286Y-123386905D01*
X177635001Y-123386905D01*
X177520715Y-123425000D01*
X177444524Y-123501190D01*
X177406429Y-123577381D01*
X177368334Y-123729762D01*
X177368334Y-123844048D01*
X177406429Y-123996429D01*
X177444524Y-124072619D01*
X177520715Y-124148810D01*
X177635001Y-124186905D01*
X177711191Y-124186905D01*
X177825477Y-124148810D01*
X177863572Y-124110714D01*
X177863572Y-123844048D01*
X177711191Y-123844048D01*
X178206429Y-124186905D02*
X178206429Y-123386905D01*
X178663572Y-124186905D01*
X178663572Y-123386905D01*
X179044524Y-124186905D02*
X179044524Y-123386905D01*
X179235000Y-123386905D01*
X179349286Y-123425000D01*
X179425477Y-123501190D01*
X179463572Y-123577381D01*
X179501667Y-123729762D01*
X179501667Y-123844048D01*
X179463572Y-123996429D01*
X179425477Y-124072619D01*
X179349286Y-124148810D01*
X179235000Y-124186905D01*
X179044524Y-124186905D01*
D12*
X163830000Y-74295000D02*
X163830000Y-74930000D01*
X161290000Y-74295000D02*
X163830000Y-74295000D01*
X161290000Y-74930000D02*
X161290000Y-74295000D01*
X165100000Y-80645000D02*
X165100000Y-81280000D01*
X162560000Y-80645000D02*
X165100000Y-80645000D01*
X162560000Y-81280000D02*
X162560000Y-80645000D01*
D11*
X167187619Y-124110714D02*
X167140000Y-124063095D01*
X167092381Y-123967857D01*
X167092381Y-123729761D01*
X167140000Y-123634523D01*
X167187619Y-123586904D01*
X167282857Y-123539285D01*
X167378095Y-123539285D01*
X167520952Y-123586904D01*
X168092381Y-124158333D01*
X168092381Y-123539285D01*
X132802381Y-124158333D02*
X132802381Y-123491666D01*
X133802381Y-123920238D01*
X130690952Y-123920238D02*
X130643333Y-124015476D01*
X130595714Y-124063095D01*
X130500476Y-124110714D01*
X130452857Y-124110714D01*
X130357619Y-124063095D01*
X130310000Y-124015476D01*
X130262381Y-123920238D01*
X130262381Y-123729761D01*
X130310000Y-123634523D01*
X130357619Y-123586904D01*
X130452857Y-123539285D01*
X130500476Y-123539285D01*
X130595714Y-123586904D01*
X130643333Y-123634523D01*
X130690952Y-123729761D01*
X130690952Y-123920238D01*
X130738571Y-124015476D01*
X130786190Y-124063095D01*
X130881429Y-124110714D01*
X131071905Y-124110714D01*
X131167143Y-124063095D01*
X131214762Y-124015476D01*
X131262381Y-123920238D01*
X131262381Y-123729761D01*
X131214762Y-123634523D01*
X131167143Y-123586904D01*
X131071905Y-123539285D01*
X130881429Y-123539285D01*
X130786190Y-123586904D01*
X130738571Y-123634523D01*
X130690952Y-123729761D01*
X137882381Y-123586904D02*
X137882381Y-124063095D01*
X138358571Y-124110714D01*
X138310952Y-124063095D01*
X138263333Y-123967857D01*
X138263333Y-123729761D01*
X138310952Y-123634523D01*
X138358571Y-123586904D01*
X138453810Y-123539285D01*
X138691905Y-123539285D01*
X138787143Y-123586904D01*
X138834762Y-123634523D01*
X138882381Y-123729761D01*
X138882381Y-123967857D01*
X138834762Y-124063095D01*
X138787143Y-124110714D01*
X162345714Y-123634523D02*
X163012381Y-123634523D01*
X161964762Y-123872619D02*
X162679048Y-124110714D01*
X162679048Y-123491666D01*
X170632381Y-123539285D02*
X170632381Y-124110714D01*
X170632381Y-123825000D02*
X169632381Y-123825000D01*
X169775238Y-123920238D01*
X169870476Y-124015476D01*
X169918095Y-124110714D01*
X156376667Y-68508333D02*
X156376667Y-68032142D01*
X156662381Y-68603571D02*
X155662381Y-68270238D01*
X156662381Y-67936904D01*
X155995714Y-67174999D02*
X156662381Y-67174999D01*
X155995714Y-67603571D02*
X156519524Y-67603571D01*
X156614762Y-67555952D01*
X156662381Y-67460714D01*
X156662381Y-67317856D01*
X156614762Y-67222618D01*
X156567143Y-67174999D01*
X156662381Y-66270237D02*
X155662381Y-66270237D01*
X156614762Y-66270237D02*
X156662381Y-66365475D01*
X156662381Y-66555952D01*
X156614762Y-66651190D01*
X156567143Y-66698809D01*
X156471905Y-66746428D01*
X156186190Y-66746428D01*
X156090952Y-66698809D01*
X156043333Y-66651190D01*
X155995714Y-66555952D01*
X155995714Y-66365475D01*
X156043333Y-66270237D01*
X156662381Y-65794047D02*
X155995714Y-65794047D01*
X155662381Y-65794047D02*
X155710000Y-65841666D01*
X155757619Y-65794047D01*
X155710000Y-65746428D01*
X155662381Y-65794047D01*
X155757619Y-65794047D01*
X156662381Y-65175000D02*
X156614762Y-65270238D01*
X156567143Y-65317857D01*
X156471905Y-65365476D01*
X156186190Y-65365476D01*
X156090952Y-65317857D01*
X156043333Y-65270238D01*
X155995714Y-65175000D01*
X155995714Y-65032142D01*
X156043333Y-64936904D01*
X156090952Y-64889285D01*
X156186190Y-64841666D01*
X156471905Y-64841666D01*
X156567143Y-64889285D01*
X156614762Y-64936904D01*
X156662381Y-65032142D01*
X156662381Y-65175000D01*
X131167143Y-69746428D02*
X131214762Y-69794047D01*
X131262381Y-69936904D01*
X131262381Y-70032142D01*
X131214762Y-70175000D01*
X131119524Y-70270238D01*
X131024286Y-70317857D01*
X130833810Y-70365476D01*
X130690952Y-70365476D01*
X130500476Y-70317857D01*
X130405238Y-70270238D01*
X130310000Y-70175000D01*
X130262381Y-70032142D01*
X130262381Y-69936904D01*
X130310000Y-69794047D01*
X130357619Y-69746428D01*
X131262381Y-69175000D02*
X131214762Y-69270238D01*
X131167143Y-69317857D01*
X131071905Y-69365476D01*
X130786190Y-69365476D01*
X130690952Y-69317857D01*
X130643333Y-69270238D01*
X130595714Y-69175000D01*
X130595714Y-69032142D01*
X130643333Y-68936904D01*
X130690952Y-68889285D01*
X130786190Y-68841666D01*
X131071905Y-68841666D01*
X131167143Y-68889285D01*
X131214762Y-68936904D01*
X131262381Y-69032142D01*
X131262381Y-69175000D01*
X131262381Y-68413095D02*
X130595714Y-68413095D01*
X130690952Y-68413095D02*
X130643333Y-68365476D01*
X130595714Y-68270238D01*
X130595714Y-68127380D01*
X130643333Y-68032142D01*
X130738571Y-67984523D01*
X131262381Y-67984523D01*
X130738571Y-67984523D02*
X130643333Y-67936904D01*
X130595714Y-67841666D01*
X130595714Y-67698809D01*
X130643333Y-67603571D01*
X130738571Y-67555952D01*
X131262381Y-67555952D01*
X130595714Y-67079762D02*
X131595714Y-67079762D01*
X130643333Y-67079762D02*
X130595714Y-66984524D01*
X130595714Y-66794047D01*
X130643333Y-66698809D01*
X130690952Y-66651190D01*
X130786190Y-66603571D01*
X131071905Y-66603571D01*
X131167143Y-66651190D01*
X131214762Y-66698809D01*
X131262381Y-66794047D01*
X131262381Y-66984524D01*
X131214762Y-67079762D01*
X131262381Y-66032143D02*
X131214762Y-66127381D01*
X131167143Y-66175000D01*
X131071905Y-66222619D01*
X130786190Y-66222619D01*
X130690952Y-66175000D01*
X130643333Y-66127381D01*
X130595714Y-66032143D01*
X130595714Y-65889285D01*
X130643333Y-65794047D01*
X130690952Y-65746428D01*
X130786190Y-65698809D01*
X131071905Y-65698809D01*
X131167143Y-65746428D01*
X131214762Y-65794047D01*
X131262381Y-65889285D01*
X131262381Y-66032143D01*
X131214762Y-65317857D02*
X131262381Y-65222619D01*
X131262381Y-65032143D01*
X131214762Y-64936904D01*
X131119524Y-64889285D01*
X131071905Y-64889285D01*
X130976667Y-64936904D01*
X130929048Y-65032143D01*
X130929048Y-65175000D01*
X130881429Y-65270238D01*
X130786190Y-65317857D01*
X130738571Y-65317857D01*
X130643333Y-65270238D01*
X130595714Y-65175000D01*
X130595714Y-65032143D01*
X130643333Y-64936904D01*
X131262381Y-64460714D02*
X130595714Y-64460714D01*
X130262381Y-64460714D02*
X130310000Y-64508333D01*
X130357619Y-64460714D01*
X130310000Y-64413095D01*
X130262381Y-64460714D01*
X130357619Y-64460714D01*
X130595714Y-64127381D02*
X130595714Y-63746429D01*
X130262381Y-63984524D02*
X131119524Y-63984524D01*
X131214762Y-63936905D01*
X131262381Y-63841667D01*
X131262381Y-63746429D01*
X131214762Y-63032142D02*
X131262381Y-63127380D01*
X131262381Y-63317857D01*
X131214762Y-63413095D01*
X131119524Y-63460714D01*
X130738571Y-63460714D01*
X130643333Y-63413095D01*
X130595714Y-63317857D01*
X130595714Y-63127380D01*
X130643333Y-63032142D01*
X130738571Y-62984523D01*
X130833810Y-62984523D01*
X130929048Y-63460714D01*
X174828333Y-123386905D02*
X175095000Y-124186905D01*
X175361667Y-123386905D01*
X176085476Y-124110714D02*
X176047381Y-124148810D01*
X175933095Y-124186905D01*
X175856905Y-124186905D01*
X175742619Y-124148810D01*
X175666428Y-124072619D01*
X175628333Y-123996429D01*
X175590238Y-123844048D01*
X175590238Y-123729762D01*
X175628333Y-123577381D01*
X175666428Y-123501190D01*
X175742619Y-123425000D01*
X175856905Y-123386905D01*
X175933095Y-123386905D01*
X176047381Y-123425000D01*
X176085476Y-123463095D01*
X176885476Y-124110714D02*
X176847381Y-124148810D01*
X176733095Y-124186905D01*
X176656905Y-124186905D01*
X176542619Y-124148810D01*
X176466428Y-124072619D01*
X176428333Y-123996429D01*
X176390238Y-123844048D01*
X176390238Y-123729762D01*
X176428333Y-123577381D01*
X176466428Y-123501190D01*
X176542619Y-123425000D01*
X176656905Y-123386905D01*
X176733095Y-123386905D01*
X176847381Y-123425000D01*
X176885476Y-123463095D01*
X133612858Y-82590714D02*
X133541429Y-82662143D01*
X133327143Y-82733571D01*
X133184286Y-82733571D01*
X132970001Y-82662143D01*
X132827143Y-82519286D01*
X132755715Y-82376429D01*
X132684286Y-82090714D01*
X132684286Y-81876429D01*
X132755715Y-81590714D01*
X132827143Y-81447857D01*
X132970001Y-81305000D01*
X133184286Y-81233571D01*
X133327143Y-81233571D01*
X133541429Y-81305000D01*
X133612858Y-81376429D01*
X134470001Y-82733571D02*
X134327143Y-82662143D01*
X134255715Y-82590714D01*
X134184286Y-82447857D01*
X134184286Y-82019286D01*
X134255715Y-81876429D01*
X134327143Y-81805000D01*
X134470001Y-81733571D01*
X134684286Y-81733571D01*
X134827143Y-81805000D01*
X134898572Y-81876429D01*
X134970001Y-82019286D01*
X134970001Y-82447857D01*
X134898572Y-82590714D01*
X134827143Y-82662143D01*
X134684286Y-82733571D01*
X134470001Y-82733571D01*
X135612858Y-82733571D02*
X135612858Y-81733571D01*
X135612858Y-81876429D02*
X135684286Y-81805000D01*
X135827144Y-81733571D01*
X136041429Y-81733571D01*
X136184286Y-81805000D01*
X136255715Y-81947857D01*
X136255715Y-82733571D01*
X136255715Y-81947857D02*
X136327144Y-81805000D01*
X136470001Y-81733571D01*
X136684286Y-81733571D01*
X136827144Y-81805000D01*
X136898572Y-81947857D01*
X136898572Y-82733571D01*
X137612858Y-82733571D02*
X137612858Y-81733571D01*
X137612858Y-81876429D02*
X137684286Y-81805000D01*
X137827144Y-81733571D01*
X138041429Y-81733571D01*
X138184286Y-81805000D01*
X138255715Y-81947857D01*
X138255715Y-82733571D01*
X138255715Y-81947857D02*
X138327144Y-81805000D01*
X138470001Y-81733571D01*
X138684286Y-81733571D01*
X138827144Y-81805000D01*
X138898572Y-81947857D01*
X138898572Y-82733571D01*
X139827144Y-82733571D02*
X139684286Y-82662143D01*
X139612858Y-82590714D01*
X139541429Y-82447857D01*
X139541429Y-82019286D01*
X139612858Y-81876429D01*
X139684286Y-81805000D01*
X139827144Y-81733571D01*
X140041429Y-81733571D01*
X140184286Y-81805000D01*
X140255715Y-81876429D01*
X140327144Y-82019286D01*
X140327144Y-82447857D01*
X140255715Y-82590714D01*
X140184286Y-82662143D01*
X140041429Y-82733571D01*
X139827144Y-82733571D01*
X141612858Y-82733571D02*
X141612858Y-81233571D01*
X141612858Y-82662143D02*
X141470001Y-82733571D01*
X141184287Y-82733571D01*
X141041429Y-82662143D01*
X140970001Y-82590714D01*
X140898572Y-82447857D01*
X140898572Y-82019286D01*
X140970001Y-81876429D01*
X141041429Y-81805000D01*
X141184287Y-81733571D01*
X141470001Y-81733571D01*
X141612858Y-81805000D01*
X142541430Y-82733571D02*
X142398572Y-82662143D01*
X142327144Y-82590714D01*
X142255715Y-82447857D01*
X142255715Y-82019286D01*
X142327144Y-81876429D01*
X142398572Y-81805000D01*
X142541430Y-81733571D01*
X142755715Y-81733571D01*
X142898572Y-81805000D01*
X142970001Y-81876429D01*
X143041430Y-82019286D01*
X143041430Y-82447857D01*
X142970001Y-82590714D01*
X142898572Y-82662143D01*
X142755715Y-82733571D01*
X142541430Y-82733571D01*
X143684287Y-82733571D02*
X143684287Y-81733571D01*
X143684287Y-82019286D02*
X143755715Y-81876429D01*
X143827144Y-81805000D01*
X143970001Y-81733571D01*
X144112858Y-81733571D01*
X145184286Y-82662143D02*
X145041429Y-82733571D01*
X144755715Y-82733571D01*
X144612858Y-82662143D01*
X144541429Y-82519286D01*
X144541429Y-81947857D01*
X144612858Y-81805000D01*
X144755715Y-81733571D01*
X145041429Y-81733571D01*
X145184286Y-81805000D01*
X145255715Y-81947857D01*
X145255715Y-82090714D01*
X144541429Y-82233571D01*
X147684286Y-81233571D02*
X147398572Y-81233571D01*
X147255715Y-81305000D01*
X147184286Y-81376429D01*
X147041429Y-81590714D01*
X146970000Y-81876429D01*
X146970000Y-82447857D01*
X147041429Y-82590714D01*
X147112857Y-82662143D01*
X147255715Y-82733571D01*
X147541429Y-82733571D01*
X147684286Y-82662143D01*
X147755715Y-82590714D01*
X147827143Y-82447857D01*
X147827143Y-82090714D01*
X147755715Y-81947857D01*
X147684286Y-81876429D01*
X147541429Y-81805000D01*
X147255715Y-81805000D01*
X147112857Y-81876429D01*
X147041429Y-81947857D01*
X146970000Y-82090714D01*
X149112857Y-81733571D02*
X149112857Y-82733571D01*
X148755714Y-81162143D02*
X148398571Y-82233571D01*
X149327143Y-82233571D01*
X128041429Y-85133571D02*
X128041429Y-83633571D01*
X128541429Y-84705000D01*
X129041429Y-83633571D01*
X129041429Y-85133571D01*
X129970001Y-85133571D02*
X129827143Y-85062143D01*
X129755715Y-84990714D01*
X129684286Y-84847857D01*
X129684286Y-84419286D01*
X129755715Y-84276429D01*
X129827143Y-84205000D01*
X129970001Y-84133571D01*
X130184286Y-84133571D01*
X130327143Y-84205000D01*
X130398572Y-84276429D01*
X130470001Y-84419286D01*
X130470001Y-84847857D01*
X130398572Y-84990714D01*
X130327143Y-85062143D01*
X130184286Y-85133571D01*
X129970001Y-85133571D01*
X131755715Y-85133571D02*
X131755715Y-83633571D01*
X131755715Y-85062143D02*
X131612858Y-85133571D01*
X131327144Y-85133571D01*
X131184286Y-85062143D01*
X131112858Y-84990714D01*
X131041429Y-84847857D01*
X131041429Y-84419286D01*
X131112858Y-84276429D01*
X131184286Y-84205000D01*
X131327144Y-84133571D01*
X131612858Y-84133571D01*
X131755715Y-84205000D01*
X133112858Y-84133571D02*
X133112858Y-85133571D01*
X132470001Y-84133571D02*
X132470001Y-84919286D01*
X132541429Y-85062143D01*
X132684287Y-85133571D01*
X132898572Y-85133571D01*
X133041429Y-85062143D01*
X133112858Y-84990714D01*
X134041430Y-85133571D02*
X133898572Y-85062143D01*
X133827144Y-84919286D01*
X133827144Y-83633571D01*
X135255715Y-85133571D02*
X135255715Y-84347857D01*
X135184286Y-84205000D01*
X135041429Y-84133571D01*
X134755715Y-84133571D01*
X134612858Y-84205000D01*
X135255715Y-85062143D02*
X135112858Y-85133571D01*
X134755715Y-85133571D01*
X134612858Y-85062143D01*
X134541429Y-84919286D01*
X134541429Y-84776429D01*
X134612858Y-84633571D01*
X134755715Y-84562143D01*
X135112858Y-84562143D01*
X135255715Y-84490714D01*
X135755715Y-84133571D02*
X136327144Y-84133571D01*
X135970001Y-83633571D02*
X135970001Y-84919286D01*
X136041429Y-85062143D01*
X136184287Y-85133571D01*
X136327144Y-85133571D01*
X137041430Y-85133571D02*
X136898572Y-85062143D01*
X136827144Y-84990714D01*
X136755715Y-84847857D01*
X136755715Y-84419286D01*
X136827144Y-84276429D01*
X136898572Y-84205000D01*
X137041430Y-84133571D01*
X137255715Y-84133571D01*
X137398572Y-84205000D01*
X137470001Y-84276429D01*
X137541430Y-84419286D01*
X137541430Y-84847857D01*
X137470001Y-84990714D01*
X137398572Y-85062143D01*
X137255715Y-85133571D01*
X137041430Y-85133571D01*
X138184287Y-85133571D02*
X138184287Y-84133571D01*
X138184287Y-84419286D02*
X138255715Y-84276429D01*
X138327144Y-84205000D01*
X138470001Y-84133571D01*
X138612858Y-84133571D01*
X141112858Y-85133571D02*
X140612858Y-84419286D01*
X140255715Y-85133571D02*
X140255715Y-83633571D01*
X140827143Y-83633571D01*
X140970001Y-83705000D01*
X141041429Y-83776429D01*
X141112858Y-83919286D01*
X141112858Y-84133571D01*
X141041429Y-84276429D01*
X140970001Y-84347857D01*
X140827143Y-84419286D01*
X140255715Y-84419286D01*
X142327143Y-85062143D02*
X142184286Y-85133571D01*
X141898572Y-85133571D01*
X141755715Y-85062143D01*
X141684286Y-84919286D01*
X141684286Y-84347857D01*
X141755715Y-84205000D01*
X141898572Y-84133571D01*
X142184286Y-84133571D01*
X142327143Y-84205000D01*
X142398572Y-84347857D01*
X142398572Y-84490714D01*
X141684286Y-84633571D01*
X143041429Y-84133571D02*
X143041429Y-85633571D01*
X143041429Y-84205000D02*
X143184286Y-84133571D01*
X143470000Y-84133571D01*
X143612857Y-84205000D01*
X143684286Y-84276429D01*
X143755715Y-84419286D01*
X143755715Y-84847857D01*
X143684286Y-84990714D01*
X143612857Y-85062143D01*
X143470000Y-85133571D01*
X143184286Y-85133571D01*
X143041429Y-85062143D01*
X144612858Y-85133571D02*
X144470000Y-85062143D01*
X144398572Y-84919286D01*
X144398572Y-83633571D01*
X145827143Y-85133571D02*
X145827143Y-84347857D01*
X145755714Y-84205000D01*
X145612857Y-84133571D01*
X145327143Y-84133571D01*
X145184286Y-84205000D01*
X145827143Y-85062143D02*
X145684286Y-85133571D01*
X145327143Y-85133571D01*
X145184286Y-85062143D01*
X145112857Y-84919286D01*
X145112857Y-84776429D01*
X145184286Y-84633571D01*
X145327143Y-84562143D01*
X145684286Y-84562143D01*
X145827143Y-84490714D01*
X147184286Y-85062143D02*
X147041429Y-85133571D01*
X146755715Y-85133571D01*
X146612857Y-85062143D01*
X146541429Y-84990714D01*
X146470000Y-84847857D01*
X146470000Y-84419286D01*
X146541429Y-84276429D01*
X146612857Y-84205000D01*
X146755715Y-84133571D01*
X147041429Y-84133571D01*
X147184286Y-84205000D01*
X148398571Y-85062143D02*
X148255714Y-85133571D01*
X147970000Y-85133571D01*
X147827143Y-85062143D01*
X147755714Y-84919286D01*
X147755714Y-84347857D01*
X147827143Y-84205000D01*
X147970000Y-84133571D01*
X148255714Y-84133571D01*
X148398571Y-84205000D01*
X148470000Y-84347857D01*
X148470000Y-84490714D01*
X147755714Y-84633571D01*
X149112857Y-85133571D02*
X149112857Y-84133571D01*
X149112857Y-84276429D02*
X149184285Y-84205000D01*
X149327143Y-84133571D01*
X149541428Y-84133571D01*
X149684285Y-84205000D01*
X149755714Y-84347857D01*
X149755714Y-85133571D01*
X149755714Y-84347857D02*
X149827143Y-84205000D01*
X149970000Y-84133571D01*
X150184285Y-84133571D01*
X150327143Y-84205000D01*
X150398571Y-84347857D01*
X150398571Y-85133571D01*
X151684285Y-85062143D02*
X151541428Y-85133571D01*
X151255714Y-85133571D01*
X151112857Y-85062143D01*
X151041428Y-84919286D01*
X151041428Y-84347857D01*
X151112857Y-84205000D01*
X151255714Y-84133571D01*
X151541428Y-84133571D01*
X151684285Y-84205000D01*
X151755714Y-84347857D01*
X151755714Y-84490714D01*
X151041428Y-84633571D01*
X152398571Y-84133571D02*
X152398571Y-85133571D01*
X152398571Y-84276429D02*
X152469999Y-84205000D01*
X152612857Y-84133571D01*
X152827142Y-84133571D01*
X152969999Y-84205000D01*
X153041428Y-84347857D01*
X153041428Y-85133571D01*
X153541428Y-84133571D02*
X154112857Y-84133571D01*
X153755714Y-83633571D02*
X153755714Y-84919286D01*
X153827142Y-85062143D01*
X153970000Y-85133571D01*
X154112857Y-85133571D01*
X129398571Y-88105000D02*
X129327143Y-88033571D01*
X129184286Y-87819286D01*
X129112857Y-87676429D01*
X129041428Y-87462143D01*
X128970000Y-87105000D01*
X128970000Y-86819286D01*
X129041428Y-86462143D01*
X129112857Y-86247857D01*
X129184286Y-86105000D01*
X129327143Y-85890714D01*
X129398571Y-85819286D01*
X129898571Y-86033571D02*
X129898571Y-86319286D01*
X130470000Y-86033571D02*
X130470000Y-86319286D01*
X131827143Y-87533571D02*
X131112857Y-87533571D01*
X131112857Y-86033571D01*
X132541429Y-87533571D02*
X132398571Y-87462143D01*
X132327143Y-87390714D01*
X132255714Y-87247857D01*
X132255714Y-86819286D01*
X132327143Y-86676429D01*
X132398571Y-86605000D01*
X132541429Y-86533571D01*
X132755714Y-86533571D01*
X132898571Y-86605000D01*
X132970000Y-86676429D01*
X133041429Y-86819286D01*
X133041429Y-87247857D01*
X132970000Y-87390714D01*
X132898571Y-87462143D01*
X132755714Y-87533571D01*
X132541429Y-87533571D01*
X133684286Y-86533571D02*
X133684286Y-87533571D01*
X133684286Y-86676429D02*
X133755714Y-86605000D01*
X133898572Y-86533571D01*
X134112857Y-86533571D01*
X134255714Y-86605000D01*
X134327143Y-86747857D01*
X134327143Y-87533571D01*
X135684286Y-86533571D02*
X135684286Y-87747857D01*
X135612857Y-87890714D01*
X135541429Y-87962143D01*
X135398572Y-88033571D01*
X135184286Y-88033571D01*
X135041429Y-87962143D01*
X135684286Y-87462143D02*
X135541429Y-87533571D01*
X135255715Y-87533571D01*
X135112857Y-87462143D01*
X135041429Y-87390714D01*
X134970000Y-87247857D01*
X134970000Y-86819286D01*
X135041429Y-86676429D01*
X135112857Y-86605000D01*
X135255715Y-86533571D01*
X135541429Y-86533571D01*
X135684286Y-86605000D01*
X136398572Y-87533571D02*
X136398572Y-86033571D01*
X136398572Y-86605000D02*
X136541429Y-86533571D01*
X136827143Y-86533571D01*
X136970000Y-86605000D01*
X137041429Y-86676429D01*
X137112858Y-86819286D01*
X137112858Y-87247857D01*
X137041429Y-87390714D01*
X136970000Y-87462143D01*
X136827143Y-87533571D01*
X136541429Y-87533571D01*
X136398572Y-87462143D01*
X137970001Y-87533571D02*
X137827143Y-87462143D01*
X137755715Y-87390714D01*
X137684286Y-87247857D01*
X137684286Y-86819286D01*
X137755715Y-86676429D01*
X137827143Y-86605000D01*
X137970001Y-86533571D01*
X138184286Y-86533571D01*
X138327143Y-86605000D01*
X138398572Y-86676429D01*
X138470001Y-86819286D01*
X138470001Y-87247857D01*
X138398572Y-87390714D01*
X138327143Y-87462143D01*
X138184286Y-87533571D01*
X137970001Y-87533571D01*
X139755715Y-87533571D02*
X139755715Y-86747857D01*
X139684286Y-86605000D01*
X139541429Y-86533571D01*
X139255715Y-86533571D01*
X139112858Y-86605000D01*
X139755715Y-87462143D02*
X139612858Y-87533571D01*
X139255715Y-87533571D01*
X139112858Y-87462143D01*
X139041429Y-87319286D01*
X139041429Y-87176429D01*
X139112858Y-87033571D01*
X139255715Y-86962143D01*
X139612858Y-86962143D01*
X139755715Y-86890714D01*
X140470001Y-87533571D02*
X140470001Y-86533571D01*
X140470001Y-86819286D02*
X140541429Y-86676429D01*
X140612858Y-86605000D01*
X140755715Y-86533571D01*
X140898572Y-86533571D01*
X142041429Y-87533571D02*
X142041429Y-86033571D01*
X142041429Y-87462143D02*
X141898572Y-87533571D01*
X141612858Y-87533571D01*
X141470000Y-87462143D01*
X141398572Y-87390714D01*
X141327143Y-87247857D01*
X141327143Y-86819286D01*
X141398572Y-86676429D01*
X141470000Y-86605000D01*
X141612858Y-86533571D01*
X141898572Y-86533571D01*
X142041429Y-86605000D01*
X142684286Y-86033571D02*
X142684286Y-86319286D01*
X143255715Y-86033571D02*
X143255715Y-86319286D01*
X145612857Y-87462143D02*
X145470000Y-87533571D01*
X145184286Y-87533571D01*
X145041429Y-87462143D01*
X144970000Y-87319286D01*
X144970000Y-86747857D01*
X145041429Y-86605000D01*
X145184286Y-86533571D01*
X145470000Y-86533571D01*
X145612857Y-86605000D01*
X145684286Y-86747857D01*
X145684286Y-86890714D01*
X144970000Y-87033571D01*
X146970000Y-87533571D02*
X146970000Y-86033571D01*
X146970000Y-87462143D02*
X146827143Y-87533571D01*
X146541429Y-87533571D01*
X146398571Y-87462143D01*
X146327143Y-87390714D01*
X146255714Y-87247857D01*
X146255714Y-86819286D01*
X146327143Y-86676429D01*
X146398571Y-86605000D01*
X146541429Y-86533571D01*
X146827143Y-86533571D01*
X146970000Y-86605000D01*
X147684286Y-87533571D02*
X147684286Y-86533571D01*
X147684286Y-86033571D02*
X147612857Y-86105000D01*
X147684286Y-86176429D01*
X147755714Y-86105000D01*
X147684286Y-86033571D01*
X147684286Y-86176429D01*
X148184286Y-86533571D02*
X148755715Y-86533571D01*
X148398572Y-86033571D02*
X148398572Y-87319286D01*
X148470000Y-87462143D01*
X148612858Y-87533571D01*
X148755715Y-87533571D01*
X149255715Y-87533571D02*
X149255715Y-86533571D01*
X149255715Y-86033571D02*
X149184286Y-86105000D01*
X149255715Y-86176429D01*
X149327143Y-86105000D01*
X149255715Y-86033571D01*
X149255715Y-86176429D01*
X150184287Y-87533571D02*
X150041429Y-87462143D01*
X149970001Y-87390714D01*
X149898572Y-87247857D01*
X149898572Y-86819286D01*
X149970001Y-86676429D01*
X150041429Y-86605000D01*
X150184287Y-86533571D01*
X150398572Y-86533571D01*
X150541429Y-86605000D01*
X150612858Y-86676429D01*
X150684287Y-86819286D01*
X150684287Y-87247857D01*
X150612858Y-87390714D01*
X150541429Y-87462143D01*
X150398572Y-87533571D01*
X150184287Y-87533571D01*
X151327144Y-86533571D02*
X151327144Y-87533571D01*
X151327144Y-86676429D02*
X151398572Y-86605000D01*
X151541430Y-86533571D01*
X151755715Y-86533571D01*
X151898572Y-86605000D01*
X151970001Y-86747857D01*
X151970001Y-87533571D01*
X152541430Y-88105000D02*
X152612858Y-88033571D01*
X152755715Y-87819286D01*
X152827144Y-87676429D01*
X152898573Y-87462143D01*
X152970001Y-87105000D01*
X152970001Y-86819286D01*
X152898573Y-86462143D01*
X152827144Y-86247857D01*
X152755715Y-86105000D01*
X152612858Y-85890714D01*
X152541430Y-85819286D01*
X170863096Y-79827381D02*
X170529762Y-79351190D01*
X170291667Y-79827381D02*
X170291667Y-78827381D01*
X170672620Y-78827381D01*
X170767858Y-78875000D01*
X170815477Y-78922619D01*
X170863096Y-79017857D01*
X170863096Y-79160714D01*
X170815477Y-79255952D01*
X170767858Y-79303571D01*
X170672620Y-79351190D01*
X170291667Y-79351190D01*
X171291667Y-79827381D02*
X171291667Y-79160714D01*
X171291667Y-78827381D02*
X171244048Y-78875000D01*
X171291667Y-78922619D01*
X171339286Y-78875000D01*
X171291667Y-78827381D01*
X171291667Y-78922619D01*
X172196429Y-79160714D02*
X172196429Y-79970238D01*
X172148810Y-80065476D01*
X172101191Y-80113095D01*
X172005952Y-80160714D01*
X171863095Y-80160714D01*
X171767857Y-80113095D01*
X172196429Y-79779762D02*
X172101191Y-79827381D01*
X171910714Y-79827381D01*
X171815476Y-79779762D01*
X171767857Y-79732143D01*
X171720238Y-79636905D01*
X171720238Y-79351190D01*
X171767857Y-79255952D01*
X171815476Y-79208333D01*
X171910714Y-79160714D01*
X172101191Y-79160714D01*
X172196429Y-79208333D01*
X172672619Y-79827381D02*
X172672619Y-78827381D01*
X173101191Y-79827381D02*
X173101191Y-79303571D01*
X173053572Y-79208333D01*
X172958334Y-79160714D01*
X172815476Y-79160714D01*
X172720238Y-79208333D01*
X172672619Y-79255952D01*
X173434524Y-79160714D02*
X173815476Y-79160714D01*
X173577381Y-78827381D02*
X173577381Y-79684524D01*
X173625000Y-79779762D01*
X173720238Y-79827381D01*
X173815476Y-79827381D01*
X175339287Y-79779762D02*
X175244049Y-79827381D01*
X175053572Y-79827381D01*
X174958334Y-79779762D01*
X174910715Y-79732143D01*
X174863096Y-79636905D01*
X174863096Y-79351190D01*
X174910715Y-79255952D01*
X174958334Y-79208333D01*
X175053572Y-79160714D01*
X175244049Y-79160714D01*
X175339287Y-79208333D01*
X175767858Y-79827381D02*
X175767858Y-78827381D01*
X176196430Y-79827381D02*
X176196430Y-79303571D01*
X176148811Y-79208333D01*
X176053573Y-79160714D01*
X175910715Y-79160714D01*
X175815477Y-79208333D01*
X175767858Y-79255952D01*
X176672620Y-79732143D02*
X176720239Y-79779762D01*
X176672620Y-79827381D01*
X176625001Y-79779762D01*
X176672620Y-79732143D01*
X176672620Y-79827381D01*
X177910715Y-79827381D02*
X177910715Y-78827381D01*
X178386905Y-79827381D02*
X178386905Y-78827381D01*
X178958334Y-79827381D01*
X178958334Y-78827381D01*
X160853810Y-85891667D02*
X161330001Y-85891667D01*
X160758572Y-86177381D02*
X161091905Y-85177381D01*
X161425239Y-86177381D01*
X162187144Y-85510714D02*
X162187144Y-86177381D01*
X161758572Y-85510714D02*
X161758572Y-86034524D01*
X161806191Y-86129762D01*
X161901429Y-86177381D01*
X162044287Y-86177381D01*
X162139525Y-86129762D01*
X162187144Y-86082143D01*
X163091906Y-86177381D02*
X163091906Y-85177381D01*
X163091906Y-86129762D02*
X162996668Y-86177381D01*
X162806191Y-86177381D01*
X162710953Y-86129762D01*
X162663334Y-86082143D01*
X162615715Y-85986905D01*
X162615715Y-85701190D01*
X162663334Y-85605952D01*
X162710953Y-85558333D01*
X162806191Y-85510714D01*
X162996668Y-85510714D01*
X163091906Y-85558333D01*
X163568096Y-86177381D02*
X163568096Y-85510714D01*
X163568096Y-85177381D02*
X163520477Y-85225000D01*
X163568096Y-85272619D01*
X163615715Y-85225000D01*
X163568096Y-85177381D01*
X163568096Y-85272619D01*
X164187143Y-86177381D02*
X164091905Y-86129762D01*
X164044286Y-86082143D01*
X163996667Y-85986905D01*
X163996667Y-85701190D01*
X164044286Y-85605952D01*
X164091905Y-85558333D01*
X164187143Y-85510714D01*
X164330001Y-85510714D01*
X164425239Y-85558333D01*
X164472858Y-85605952D01*
X164520477Y-85701190D01*
X164520477Y-85986905D01*
X164472858Y-86082143D01*
X164425239Y-86129762D01*
X164330001Y-86177381D01*
X164187143Y-86177381D01*
X165710953Y-86177381D02*
X165710953Y-85177381D01*
X166187143Y-86177381D02*
X166187143Y-85177381D01*
X166758572Y-86177381D01*
X166758572Y-85177381D01*
X159234761Y-79827381D02*
X159234761Y-78827381D01*
X159568095Y-79541667D01*
X159901428Y-78827381D01*
X159901428Y-79827381D01*
X160520475Y-79827381D02*
X160425237Y-79779762D01*
X160377618Y-79732143D01*
X160329999Y-79636905D01*
X160329999Y-79351190D01*
X160377618Y-79255952D01*
X160425237Y-79208333D01*
X160520475Y-79160714D01*
X160663333Y-79160714D01*
X160758571Y-79208333D01*
X160806190Y-79255952D01*
X160853809Y-79351190D01*
X160853809Y-79636905D01*
X160806190Y-79732143D01*
X160758571Y-79779762D01*
X160663333Y-79827381D01*
X160520475Y-79827381D01*
X161282380Y-79160714D02*
X161282380Y-79827381D01*
X161282380Y-79255952D02*
X161329999Y-79208333D01*
X161425237Y-79160714D01*
X161568095Y-79160714D01*
X161663333Y-79208333D01*
X161710952Y-79303571D01*
X161710952Y-79827381D01*
X162329999Y-79827381D02*
X162234761Y-79779762D01*
X162187142Y-79732143D01*
X162139523Y-79636905D01*
X162139523Y-79351190D01*
X162187142Y-79255952D01*
X162234761Y-79208333D01*
X162329999Y-79160714D01*
X162472857Y-79160714D01*
X162568095Y-79208333D01*
X162615714Y-79255952D01*
X162663333Y-79351190D01*
X162663333Y-79636905D01*
X162615714Y-79732143D01*
X162568095Y-79779762D01*
X162472857Y-79827381D01*
X162329999Y-79827381D01*
X163806190Y-78779762D02*
X162949047Y-80065476D01*
X164091904Y-79779762D02*
X164234761Y-79827381D01*
X164472857Y-79827381D01*
X164568095Y-79779762D01*
X164615714Y-79732143D01*
X164663333Y-79636905D01*
X164663333Y-79541667D01*
X164615714Y-79446429D01*
X164568095Y-79398810D01*
X164472857Y-79351190D01*
X164282380Y-79303571D01*
X164187142Y-79255952D01*
X164139523Y-79208333D01*
X164091904Y-79113095D01*
X164091904Y-79017857D01*
X164139523Y-78922619D01*
X164187142Y-78875000D01*
X164282380Y-78827381D01*
X164520476Y-78827381D01*
X164663333Y-78875000D01*
X164949047Y-79160714D02*
X165329999Y-79160714D01*
X165091904Y-78827381D02*
X165091904Y-79684524D01*
X165139523Y-79779762D01*
X165234761Y-79827381D01*
X165329999Y-79827381D01*
X166044286Y-79779762D02*
X165949048Y-79827381D01*
X165758571Y-79827381D01*
X165663333Y-79779762D01*
X165615714Y-79684524D01*
X165615714Y-79303571D01*
X165663333Y-79208333D01*
X165758571Y-79160714D01*
X165949048Y-79160714D01*
X166044286Y-79208333D01*
X166091905Y-79303571D01*
X166091905Y-79398810D01*
X165615714Y-79494048D01*
X166520476Y-79827381D02*
X166520476Y-79160714D01*
X166520476Y-79351190D02*
X166568095Y-79255952D01*
X166615714Y-79208333D01*
X166710952Y-79160714D01*
X166806191Y-79160714D01*
X167520477Y-79779762D02*
X167425239Y-79827381D01*
X167234762Y-79827381D01*
X167139524Y-79779762D01*
X167091905Y-79684524D01*
X167091905Y-79303571D01*
X167139524Y-79208333D01*
X167234762Y-79160714D01*
X167425239Y-79160714D01*
X167520477Y-79208333D01*
X167568096Y-79303571D01*
X167568096Y-79398810D01*
X167091905Y-79494048D01*
X168139524Y-79827381D02*
X168044286Y-79779762D01*
X167996667Y-79732143D01*
X167949048Y-79636905D01*
X167949048Y-79351190D01*
X167996667Y-79255952D01*
X168044286Y-79208333D01*
X168139524Y-79160714D01*
X168282382Y-79160714D01*
X168377620Y-79208333D01*
X168425239Y-79255952D01*
X168472858Y-79351190D01*
X168472858Y-79636905D01*
X168425239Y-79732143D01*
X168377620Y-79779762D01*
X168282382Y-79827381D01*
X168139524Y-79827381D01*
D13*
X140959840Y-73108820D02*
G75*
G03X140959840Y-73108820I-548640J0D01*
G01*
X134462316Y-73108820D02*
G75*
G03X134462316Y-73108820I-553516J0D01*
G01*
X134462089Y-63309500D02*
G75*
G03X134462089Y-63309500I-553289J0D01*
G01*
X140962187Y-63309500D02*
G75*
G03X140962187Y-63309500I-550987J0D01*
G01*
X140959840Y-67310000D02*
G75*
G03X140959840Y-67310000I-548640J0D01*
G01*
X134462316Y-67310000D02*
G75*
G03X134462316Y-67310000I-553516J0D01*
G01*
X141460220Y-62308740D02*
X141460220Y-53309520D01*
X141460220Y-53309520D02*
X132859780Y-53309520D01*
X132859780Y-53309520D02*
X132859780Y-62308740D01*
X132359400Y-72209660D02*
X131759960Y-72209660D01*
X131759960Y-72209660D02*
X131759960Y-70408800D01*
X131759960Y-70408800D02*
X132359400Y-70408800D01*
X142560040Y-72209660D02*
X141960600Y-72209660D01*
X141960600Y-70408800D02*
X142560040Y-70408800D01*
X142560040Y-70408800D02*
X142560040Y-72209660D01*
X141960600Y-74109580D02*
X138960860Y-74109580D01*
X138960860Y-74109580D02*
X138960860Y-73309480D01*
X138960860Y-73309480D02*
X135359140Y-73309480D01*
X135359140Y-73309480D02*
X135359140Y-74109580D01*
X135359140Y-74109580D02*
X132359400Y-74109580D01*
X132359400Y-62308740D02*
X141960600Y-62308740D01*
X141960600Y-62311280D02*
X141960600Y-74112120D01*
X132359400Y-74109580D02*
X132359400Y-62308740D01*
D14*
X149315000Y-100925000D02*
X154135000Y-100925000D01*
X149315000Y-103545000D02*
X154135000Y-103545000D01*
X149315000Y-100925000D02*
X149315000Y-101239000D01*
X149315000Y-103231000D02*
X149315000Y-103545000D01*
X154135000Y-100925000D02*
X154135000Y-101239000D01*
X154135000Y-103231000D02*
X154135000Y-103545000D01*
X149315000Y-97115000D02*
X154135000Y-97115000D01*
X149315000Y-99735000D02*
X154135000Y-99735000D01*
X149315000Y-97115000D02*
X149315000Y-97429000D01*
X149315000Y-99421000D02*
X149315000Y-99735000D01*
X154135000Y-97115000D02*
X154135000Y-97429000D01*
X154135000Y-99421000D02*
X154135000Y-99735000D01*
X149315000Y-104735000D02*
X154135000Y-104735000D01*
X149315000Y-107355000D02*
X154135000Y-107355000D01*
X149315000Y-104735000D02*
X149315000Y-105049000D01*
X149315000Y-107041000D02*
X149315000Y-107355000D01*
X154135000Y-104735000D02*
X154135000Y-105049000D01*
X154135000Y-107041000D02*
X154135000Y-107355000D01*
X128360000Y-108545000D02*
X133180000Y-108545000D01*
X128360000Y-111165000D02*
X133180000Y-111165000D01*
X128360000Y-108545000D02*
X128360000Y-108859000D01*
X128360000Y-110851000D02*
X128360000Y-111165000D01*
X133180000Y-108545000D02*
X133180000Y-108859000D01*
X133180000Y-110851000D02*
X133180000Y-111165000D01*
X160500000Y-89745000D02*
X160500000Y-91865000D01*
X160500000Y-91865000D02*
X164620000Y-91865000D01*
X164620000Y-91865000D02*
X164620000Y-89745000D01*
X164620000Y-89745000D02*
X160500000Y-89745000D01*
X159730000Y-90805000D02*
X160500000Y-90805000D01*
X165390000Y-90805000D02*
X164620000Y-90805000D01*
X161160000Y-89745000D02*
X161160000Y-91865000D01*
X164620000Y-110915000D02*
X164620000Y-108795000D01*
X164620000Y-108795000D02*
X160500000Y-108795000D01*
X160500000Y-108795000D02*
X160500000Y-110915000D01*
X160500000Y-110915000D02*
X164620000Y-110915000D01*
X165390000Y-109855000D02*
X164620000Y-109855000D01*
X159730000Y-109855000D02*
X160500000Y-109855000D01*
X163960000Y-110915000D02*
X163960000Y-108795000D01*
X174565000Y-120070000D02*
X174565000Y-122730000D01*
X177165000Y-120070000D02*
X174565000Y-120070000D01*
X177165000Y-122730000D02*
X174565000Y-122730000D01*
X177165000Y-120070000D02*
X177165000Y-122730000D01*
X178435000Y-120070000D02*
X179765000Y-120070000D01*
X179765000Y-120070000D02*
X179765000Y-121400000D01*
X129565000Y-120070000D02*
X129565000Y-122730000D01*
X137245000Y-120070000D02*
X129565000Y-120070000D01*
X137245000Y-122730000D02*
X129565000Y-122730000D01*
X137245000Y-120070000D02*
X137245000Y-122730000D01*
X138515000Y-120070000D02*
X139845000Y-120070000D01*
X139845000Y-120070000D02*
X139845000Y-121400000D01*
X161165000Y-120070000D02*
X161165000Y-122730000D01*
X168845000Y-120070000D02*
X161165000Y-120070000D01*
X168845000Y-122730000D02*
X161165000Y-122730000D01*
X168845000Y-120070000D02*
X168845000Y-122730000D01*
X170115000Y-120070000D02*
X171445000Y-120070000D01*
X171445000Y-120070000D02*
X171445000Y-121400000D01*
X173295000Y-78165000D02*
X175955000Y-78165000D01*
X173295000Y-78105000D02*
X173295000Y-78165000D01*
X175955000Y-78105000D02*
X175955000Y-78165000D01*
X173295000Y-78105000D02*
X175955000Y-78105000D01*
X173295000Y-76835000D02*
X173295000Y-75505000D01*
X173295000Y-75505000D02*
X174625000Y-75505000D01*
D11*
X162052000Y-66421000D02*
X160020000Y-66421000D01*
X160020000Y-66421000D02*
X160020000Y-62865000D01*
X160020000Y-62865000D02*
X167640000Y-62865000D01*
X167640000Y-62865000D02*
X167640000Y-66421000D01*
X167640000Y-66421000D02*
X165608000Y-66421000D01*
X158750000Y-61849000D02*
X157734000Y-61849000D01*
X169926000Y-61849000D02*
X168910000Y-61849000D01*
X161290000Y-59817000D02*
X161290000Y-61341000D01*
X166370000Y-61341000D02*
X166370000Y-59817000D01*
X161290000Y-60579000D02*
X166370000Y-60579000D01*
X158750000Y-61849000D02*
X158750000Y-61595000D01*
X158750000Y-61595000D02*
X158750000Y-61341000D01*
X158750000Y-61341000D02*
X168910000Y-61341000D01*
X168910000Y-61341000D02*
X168910000Y-61849000D01*
X161290000Y-59817000D02*
X166370000Y-59817000D01*
X157734000Y-74041000D02*
X157734000Y-61849000D01*
X169926000Y-61849000D02*
X169926000Y-74041000D01*
X169926000Y-74041000D02*
X157734000Y-74041000D01*
D14*
X166430000Y-84515000D02*
X166430000Y-81855000D01*
X163830000Y-84515000D02*
X166430000Y-84515000D01*
X163830000Y-81855000D02*
X166430000Y-81855000D01*
X163830000Y-84515000D02*
X163830000Y-81855000D01*
X162560000Y-84515000D02*
X161230000Y-84515000D01*
X161230000Y-84515000D02*
X161230000Y-83185000D01*
X167700000Y-78165000D02*
X167700000Y-75505000D01*
X162560000Y-78165000D02*
X167700000Y-78165000D01*
X162560000Y-75505000D02*
X167700000Y-75505000D01*
X162560000Y-78165000D02*
X162560000Y-75505000D01*
X161290000Y-78165000D02*
X159960000Y-78165000D01*
X159960000Y-78165000D02*
X159960000Y-76835000D01*
X165920000Y-103645000D02*
X165920000Y-100825000D01*
X165920000Y-100825000D02*
X159200000Y-100825000D01*
X159200000Y-100825000D02*
X159200000Y-103645000D01*
X159200000Y-103645000D02*
X165920000Y-103645000D01*
X166660000Y-102235000D02*
X165920000Y-102235000D01*
X158460000Y-102235000D02*
X159200000Y-102235000D01*
X144330000Y-103645000D02*
X144330000Y-100825000D01*
X144330000Y-100825000D02*
X137610000Y-100825000D01*
X137610000Y-100825000D02*
X137610000Y-103645000D01*
X137610000Y-103645000D02*
X144330000Y-103645000D01*
X145070000Y-102235000D02*
X144330000Y-102235000D01*
X136870000Y-102235000D02*
X137610000Y-102235000D01*
X165770000Y-107355000D02*
X165770000Y-104735000D01*
X165770000Y-104735000D02*
X159350000Y-104735000D01*
X159350000Y-104735000D02*
X159350000Y-107355000D01*
X159350000Y-107355000D02*
X165770000Y-107355000D01*
X166660000Y-106045000D02*
X165770000Y-106045000D01*
X158460000Y-106045000D02*
X159350000Y-106045000D01*
X159350000Y-93305000D02*
X159350000Y-95925000D01*
X159350000Y-95925000D02*
X165770000Y-95925000D01*
X165770000Y-95925000D02*
X165770000Y-93305000D01*
X165770000Y-93305000D02*
X159350000Y-93305000D01*
X158460000Y-94615000D02*
X159350000Y-94615000D01*
X166660000Y-94615000D02*
X165770000Y-94615000D01*
X159350000Y-97115000D02*
X159350000Y-99735000D01*
X159350000Y-99735000D02*
X165770000Y-99735000D01*
X165770000Y-99735000D02*
X165770000Y-97115000D01*
X165770000Y-97115000D02*
X159350000Y-97115000D01*
X158460000Y-98425000D02*
X159350000Y-98425000D01*
X166660000Y-98425000D02*
X165770000Y-98425000D01*
X131480000Y-118785000D02*
X131480000Y-116165000D01*
X131480000Y-116165000D02*
X125060000Y-116165000D01*
X125060000Y-116165000D02*
X125060000Y-118785000D01*
X125060000Y-118785000D02*
X131480000Y-118785000D01*
X132370000Y-117475000D02*
X131480000Y-117475000D01*
X124170000Y-117475000D02*
X125060000Y-117475000D01*
X131480000Y-114975000D02*
X131480000Y-112355000D01*
X131480000Y-112355000D02*
X125060000Y-112355000D01*
X125060000Y-112355000D02*
X125060000Y-114975000D01*
X125060000Y-114975000D02*
X131480000Y-114975000D01*
X132370000Y-113665000D02*
X131480000Y-113665000D01*
X124170000Y-113665000D02*
X125060000Y-113665000D01*
X137760000Y-97115000D02*
X137760000Y-99735000D01*
X137760000Y-99735000D02*
X144180000Y-99735000D01*
X144180000Y-99735000D02*
X144180000Y-97115000D01*
X144180000Y-97115000D02*
X137760000Y-97115000D01*
X136870000Y-98425000D02*
X137760000Y-98425000D01*
X145070000Y-98425000D02*
X144180000Y-98425000D01*
X137760000Y-116165000D02*
X137760000Y-118785000D01*
X137760000Y-118785000D02*
X144180000Y-118785000D01*
X144180000Y-118785000D02*
X144180000Y-116165000D01*
X144180000Y-116165000D02*
X137760000Y-116165000D01*
X136870000Y-117475000D02*
X137760000Y-117475000D01*
X145070000Y-117475000D02*
X144180000Y-117475000D01*
X137760000Y-104735000D02*
X137760000Y-107355000D01*
X137760000Y-107355000D02*
X144180000Y-107355000D01*
X144180000Y-107355000D02*
X144180000Y-104735000D01*
X144180000Y-104735000D02*
X137760000Y-104735000D01*
X136870000Y-106045000D02*
X137760000Y-106045000D01*
X145070000Y-106045000D02*
X144180000Y-106045000D01*
X137760000Y-108545000D02*
X137760000Y-111165000D01*
X137760000Y-111165000D02*
X144180000Y-111165000D01*
X144180000Y-111165000D02*
X144180000Y-108545000D01*
X144180000Y-108545000D02*
X137760000Y-108545000D01*
X136870000Y-109855000D02*
X137760000Y-109855000D01*
X145070000Y-109855000D02*
X144180000Y-109855000D01*
X137760000Y-112355000D02*
X137760000Y-114975000D01*
X137760000Y-114975000D02*
X144180000Y-114975000D01*
X144180000Y-114975000D02*
X144180000Y-112355000D01*
X144180000Y-112355000D02*
X137760000Y-112355000D01*
X136870000Y-113665000D02*
X137760000Y-113665000D01*
X145070000Y-113665000D02*
X144180000Y-113665000D01*
X121340000Y-98530000D02*
X121340000Y-102130000D01*
X122067205Y-98005816D02*
G75*
G03X121340000Y-98530000I1122795J-2324184D01*
G01*
X124288807Y-97973600D02*
G75*
G02X125790000Y-100330000I-1098807J-2356400D01*
G01*
X124288807Y-102686400D02*
G75*
G03X125790000Y-100330000I-1098807J2356400D01*
G01*
X122067205Y-102654184D02*
G75*
G02X121340000Y-102130000I1122795J2324184D01*
G01*
X128325000Y-98530000D02*
X128325000Y-102130000D01*
X129052205Y-98005816D02*
G75*
G03X128325000Y-98530000I1122795J-2324184D01*
G01*
X131273807Y-97973600D02*
G75*
G02X132775000Y-100330000I-1098807J-2356400D01*
G01*
X131273807Y-102686400D02*
G75*
G03X132775000Y-100330000I-1098807J2356400D01*
G01*
X129052205Y-102654184D02*
G75*
G02X128325000Y-102130000I1122795J2324184D01*
G01*
D15*
X136652000Y-50676629D02*
X136652000Y-51765200D01*
X136579428Y-51982914D01*
X136434285Y-52128057D01*
X136216571Y-52200629D01*
X136071428Y-52200629D01*
X138030857Y-50676629D02*
X137740571Y-50676629D01*
X137595428Y-50749200D01*
X137522857Y-50821771D01*
X137377714Y-51039486D01*
X137305143Y-51329771D01*
X137305143Y-51910343D01*
X137377714Y-52055486D01*
X137450286Y-52128057D01*
X137595428Y-52200629D01*
X137885714Y-52200629D01*
X138030857Y-52128057D01*
X138103428Y-52055486D01*
X138176000Y-51910343D01*
X138176000Y-51547486D01*
X138103428Y-51402343D01*
X138030857Y-51329771D01*
X137885714Y-51257200D01*
X137595428Y-51257200D01*
X137450286Y-51329771D01*
X137377714Y-51402343D01*
X137305143Y-51547486D01*
D11*
X151598334Y-102592143D02*
X151550715Y-102639762D01*
X151407858Y-102687381D01*
X151312620Y-102687381D01*
X151169762Y-102639762D01*
X151074524Y-102544524D01*
X151026905Y-102449286D01*
X150979286Y-102258810D01*
X150979286Y-102115952D01*
X151026905Y-101925476D01*
X151074524Y-101830238D01*
X151169762Y-101735000D01*
X151312620Y-101687381D01*
X151407858Y-101687381D01*
X151550715Y-101735000D01*
X151598334Y-101782619D01*
X152550715Y-102687381D02*
X151979286Y-102687381D01*
X152265000Y-102687381D02*
X152265000Y-101687381D01*
X152169762Y-101830238D01*
X152074524Y-101925476D01*
X151979286Y-101973095D01*
X151598334Y-98782143D02*
X151550715Y-98829762D01*
X151407858Y-98877381D01*
X151312620Y-98877381D01*
X151169762Y-98829762D01*
X151074524Y-98734524D01*
X151026905Y-98639286D01*
X150979286Y-98448810D01*
X150979286Y-98305952D01*
X151026905Y-98115476D01*
X151074524Y-98020238D01*
X151169762Y-97925000D01*
X151312620Y-97877381D01*
X151407858Y-97877381D01*
X151550715Y-97925000D01*
X151598334Y-97972619D01*
X151979286Y-97972619D02*
X152026905Y-97925000D01*
X152122143Y-97877381D01*
X152360239Y-97877381D01*
X152455477Y-97925000D01*
X152503096Y-97972619D01*
X152550715Y-98067857D01*
X152550715Y-98163095D01*
X152503096Y-98305952D01*
X151931667Y-98877381D01*
X152550715Y-98877381D01*
X151598334Y-106402143D02*
X151550715Y-106449762D01*
X151407858Y-106497381D01*
X151312620Y-106497381D01*
X151169762Y-106449762D01*
X151074524Y-106354524D01*
X151026905Y-106259286D01*
X150979286Y-106068810D01*
X150979286Y-105925952D01*
X151026905Y-105735476D01*
X151074524Y-105640238D01*
X151169762Y-105545000D01*
X151312620Y-105497381D01*
X151407858Y-105497381D01*
X151550715Y-105545000D01*
X151598334Y-105592619D01*
X151931667Y-105497381D02*
X152550715Y-105497381D01*
X152217381Y-105878333D01*
X152360239Y-105878333D01*
X152455477Y-105925952D01*
X152503096Y-105973571D01*
X152550715Y-106068810D01*
X152550715Y-106306905D01*
X152503096Y-106402143D01*
X152455477Y-106449762D01*
X152360239Y-106497381D01*
X152074524Y-106497381D01*
X151979286Y-106449762D01*
X151931667Y-106402143D01*
X130643334Y-110212143D02*
X130595715Y-110259762D01*
X130452858Y-110307381D01*
X130357620Y-110307381D01*
X130214762Y-110259762D01*
X130119524Y-110164524D01*
X130071905Y-110069286D01*
X130024286Y-109878810D01*
X130024286Y-109735952D01*
X130071905Y-109545476D01*
X130119524Y-109450238D01*
X130214762Y-109355000D01*
X130357620Y-109307381D01*
X130452858Y-109307381D01*
X130595715Y-109355000D01*
X130643334Y-109402619D01*
X131500477Y-109307381D02*
X131310000Y-109307381D01*
X131214762Y-109355000D01*
X131167143Y-109402619D01*
X131071905Y-109545476D01*
X131024286Y-109735952D01*
X131024286Y-110116905D01*
X131071905Y-110212143D01*
X131119524Y-110259762D01*
X131214762Y-110307381D01*
X131405239Y-110307381D01*
X131500477Y-110259762D01*
X131548096Y-110212143D01*
X131595715Y-110116905D01*
X131595715Y-109878810D01*
X131548096Y-109783571D01*
X131500477Y-109735952D01*
X131405239Y-109688333D01*
X131214762Y-109688333D01*
X131119524Y-109735952D01*
X131071905Y-109783571D01*
X131024286Y-109878810D01*
X161821905Y-91257381D02*
X161821905Y-90257381D01*
X162060000Y-90257381D01*
X162202858Y-90305000D01*
X162298096Y-90400238D01*
X162345715Y-90495476D01*
X162393334Y-90685952D01*
X162393334Y-90828810D01*
X162345715Y-91019286D01*
X162298096Y-91114524D01*
X162202858Y-91209762D01*
X162060000Y-91257381D01*
X161821905Y-91257381D01*
X163345715Y-91257381D02*
X162774286Y-91257381D01*
X163060000Y-91257381D02*
X163060000Y-90257381D01*
X162964762Y-90400238D01*
X162869524Y-90495476D01*
X162774286Y-90543095D01*
X161821905Y-110307381D02*
X161821905Y-109307381D01*
X162060000Y-109307381D01*
X162202858Y-109355000D01*
X162298096Y-109450238D01*
X162345715Y-109545476D01*
X162393334Y-109735952D01*
X162393334Y-109878810D01*
X162345715Y-110069286D01*
X162298096Y-110164524D01*
X162202858Y-110259762D01*
X162060000Y-110307381D01*
X161821905Y-110307381D01*
X162774286Y-109402619D02*
X162821905Y-109355000D01*
X162917143Y-109307381D01*
X163155239Y-109307381D01*
X163250477Y-109355000D01*
X163298096Y-109402619D01*
X163345715Y-109497857D01*
X163345715Y-109593095D01*
X163298096Y-109735952D01*
X162726667Y-110307381D01*
X163345715Y-110307381D01*
D10*
X161330000Y-58726429D02*
X161672857Y-58726429D01*
X161501428Y-59326429D02*
X161501428Y-58726429D01*
X162215714Y-59326429D02*
X162015714Y-59040714D01*
X161872857Y-59326429D02*
X161872857Y-58726429D01*
X162101429Y-58726429D01*
X162158571Y-58755000D01*
X162187143Y-58783571D01*
X162215714Y-58840714D01*
X162215714Y-58926429D01*
X162187143Y-58983571D01*
X162158571Y-59012143D01*
X162101429Y-59040714D01*
X161872857Y-59040714D01*
X162444286Y-59297857D02*
X162530000Y-59326429D01*
X162672857Y-59326429D01*
X162730000Y-59297857D01*
X162758571Y-59269286D01*
X162787143Y-59212143D01*
X162787143Y-59155000D01*
X162758571Y-59097857D01*
X162730000Y-59069286D01*
X162672857Y-59040714D01*
X162558571Y-59012143D01*
X162501429Y-58983571D01*
X162472857Y-58955000D01*
X162444286Y-58897857D01*
X162444286Y-58840714D01*
X162472857Y-58783571D01*
X162501429Y-58755000D01*
X162558571Y-58726429D01*
X162701429Y-58726429D01*
X162787143Y-58755000D01*
X162901429Y-59383571D02*
X163358572Y-59383571D01*
X163444286Y-58726429D02*
X163815715Y-58726429D01*
X163615715Y-58955000D01*
X163701429Y-58955000D01*
X163758572Y-58983571D01*
X163787143Y-59012143D01*
X163815715Y-59069286D01*
X163815715Y-59212143D01*
X163787143Y-59269286D01*
X163758572Y-59297857D01*
X163701429Y-59326429D01*
X163530001Y-59326429D01*
X163472858Y-59297857D01*
X163444286Y-59269286D01*
X164072858Y-59269286D02*
X164101430Y-59297857D01*
X164072858Y-59326429D01*
X164044287Y-59297857D01*
X164072858Y-59269286D01*
X164072858Y-59326429D01*
X164644286Y-58726429D02*
X164358572Y-58726429D01*
X164330001Y-59012143D01*
X164358572Y-58983571D01*
X164415715Y-58955000D01*
X164558572Y-58955000D01*
X164615715Y-58983571D01*
X164644286Y-59012143D01*
X164672858Y-59069286D01*
X164672858Y-59212143D01*
X164644286Y-59269286D01*
X164615715Y-59297857D01*
X164558572Y-59326429D01*
X164415715Y-59326429D01*
X164358572Y-59297857D01*
X164330001Y-59269286D01*
X164930001Y-59326429D02*
X164930001Y-58926429D01*
X164930001Y-58983571D02*
X164958573Y-58955000D01*
X165015715Y-58926429D01*
X165101430Y-58926429D01*
X165158573Y-58955000D01*
X165187144Y-59012143D01*
X165187144Y-59326429D01*
X165187144Y-59012143D02*
X165215715Y-58955000D01*
X165272858Y-58926429D01*
X165358573Y-58926429D01*
X165415715Y-58955000D01*
X165444287Y-59012143D01*
X165444287Y-59326429D01*
X165730001Y-59326429D02*
X165730001Y-58926429D01*
X165730001Y-58983571D02*
X165758573Y-58955000D01*
X165815715Y-58926429D01*
X165901430Y-58926429D01*
X165958573Y-58955000D01*
X165987144Y-59012143D01*
X165987144Y-59326429D01*
X165987144Y-59012143D02*
X166015715Y-58955000D01*
X166072858Y-58926429D01*
X166158573Y-58926429D01*
X166215715Y-58955000D01*
X166244287Y-59012143D01*
X166244287Y-59326429D01*
D11*
X161107381Y-102401666D02*
X161107381Y-102877857D01*
X160107381Y-102877857D01*
X161107381Y-101544523D02*
X161107381Y-102115952D01*
X161107381Y-101830238D02*
X160107381Y-101830238D01*
X160250238Y-101925476D01*
X160345476Y-102020714D01*
X160393095Y-102115952D01*
X162091905Y-101782619D02*
X162139524Y-101735000D01*
X162234762Y-101687381D01*
X162472858Y-101687381D01*
X162568096Y-101735000D01*
X162615715Y-101782619D01*
X162663334Y-101877857D01*
X162663334Y-101973095D01*
X162615715Y-102115952D01*
X162044286Y-102687381D01*
X162663334Y-102687381D01*
X163044286Y-101782619D02*
X163091905Y-101735000D01*
X163187143Y-101687381D01*
X163425239Y-101687381D01*
X163520477Y-101735000D01*
X163568096Y-101782619D01*
X163615715Y-101877857D01*
X163615715Y-101973095D01*
X163568096Y-102115952D01*
X162996667Y-102687381D01*
X163615715Y-102687381D01*
X164472858Y-102020714D02*
X164472858Y-102687381D01*
X164044286Y-102020714D02*
X164044286Y-102544524D01*
X164091905Y-102639762D01*
X164187143Y-102687381D01*
X164330001Y-102687381D01*
X164425239Y-102639762D01*
X164472858Y-102592143D01*
X164949048Y-102687381D02*
X164949048Y-101687381D01*
X164949048Y-102163571D02*
X165520477Y-102163571D01*
X165520477Y-102687381D02*
X165520477Y-101687381D01*
X139517381Y-102401666D02*
X139517381Y-102877857D01*
X138517381Y-102877857D01*
X138612619Y-102115952D02*
X138565000Y-102068333D01*
X138517381Y-101973095D01*
X138517381Y-101734999D01*
X138565000Y-101639761D01*
X138612619Y-101592142D01*
X138707857Y-101544523D01*
X138803095Y-101544523D01*
X138945952Y-101592142D01*
X139517381Y-102163571D01*
X139517381Y-101544523D01*
X141073334Y-102687381D02*
X140501905Y-102687381D01*
X140787619Y-102687381D02*
X140787619Y-101687381D01*
X140692381Y-101830238D01*
X140597143Y-101925476D01*
X140501905Y-101973095D01*
X141692381Y-101687381D02*
X141787620Y-101687381D01*
X141882858Y-101735000D01*
X141930477Y-101782619D01*
X141978096Y-101877857D01*
X142025715Y-102068333D01*
X142025715Y-102306429D01*
X141978096Y-102496905D01*
X141930477Y-102592143D01*
X141882858Y-102639762D01*
X141787620Y-102687381D01*
X141692381Y-102687381D01*
X141597143Y-102639762D01*
X141549524Y-102592143D01*
X141501905Y-102496905D01*
X141454286Y-102306429D01*
X141454286Y-102068333D01*
X141501905Y-101877857D01*
X141549524Y-101782619D01*
X141597143Y-101735000D01*
X141692381Y-101687381D01*
X142882858Y-102020714D02*
X142882858Y-102687381D01*
X142454286Y-102020714D02*
X142454286Y-102544524D01*
X142501905Y-102639762D01*
X142597143Y-102687381D01*
X142740001Y-102687381D01*
X142835239Y-102639762D01*
X142882858Y-102592143D01*
X143359048Y-102687381D02*
X143359048Y-101687381D01*
X143359048Y-102163571D02*
X143930477Y-102163571D01*
X143930477Y-102687381D02*
X143930477Y-101687381D01*
X161107381Y-106211666D02*
X160631190Y-106545000D01*
X161107381Y-106783095D02*
X160107381Y-106783095D01*
X160107381Y-106402142D01*
X160155000Y-106306904D01*
X160202619Y-106259285D01*
X160297857Y-106211666D01*
X160440714Y-106211666D01*
X160535952Y-106259285D01*
X160583571Y-106306904D01*
X160631190Y-106402142D01*
X160631190Y-106783095D01*
X161107381Y-105259285D02*
X161107381Y-105830714D01*
X161107381Y-105545000D02*
X160107381Y-105545000D01*
X160250238Y-105640238D01*
X160345476Y-105735476D01*
X160393095Y-105830714D01*
X163710953Y-106497381D02*
X163139524Y-106497381D01*
X163425238Y-106497381D02*
X163425238Y-105497381D01*
X163330000Y-105640238D01*
X163234762Y-105735476D01*
X163139524Y-105783095D01*
X164139524Y-106497381D02*
X164139524Y-105497381D01*
X164234762Y-106116429D02*
X164520477Y-106497381D01*
X164520477Y-105830714D02*
X164139524Y-106211667D01*
X161107381Y-94781666D02*
X160631190Y-95115000D01*
X161107381Y-95353095D02*
X160107381Y-95353095D01*
X160107381Y-94972142D01*
X160155000Y-94876904D01*
X160202619Y-94829285D01*
X160297857Y-94781666D01*
X160440714Y-94781666D01*
X160535952Y-94829285D01*
X160583571Y-94876904D01*
X160631190Y-94972142D01*
X160631190Y-95353095D01*
X160202619Y-94400714D02*
X160155000Y-94353095D01*
X160107381Y-94257857D01*
X160107381Y-94019761D01*
X160155000Y-93924523D01*
X160202619Y-93876904D01*
X160297857Y-93829285D01*
X160393095Y-93829285D01*
X160535952Y-93876904D01*
X161107381Y-94448333D01*
X161107381Y-93829285D01*
X162615714Y-94067381D02*
X163234762Y-94067381D01*
X162901428Y-94448333D01*
X163044286Y-94448333D01*
X163139524Y-94495952D01*
X163187143Y-94543571D01*
X163234762Y-94638810D01*
X163234762Y-94876905D01*
X163187143Y-94972143D01*
X163139524Y-95019762D01*
X163044286Y-95067381D01*
X162758571Y-95067381D01*
X162663333Y-95019762D01*
X162615714Y-94972143D01*
X163663333Y-95067381D02*
X163663333Y-94067381D01*
X163758571Y-94686429D02*
X164044286Y-95067381D01*
X164044286Y-94400714D02*
X163663333Y-94781667D01*
X164377619Y-94067381D02*
X164996667Y-94067381D01*
X164663333Y-94448333D01*
X164806191Y-94448333D01*
X164901429Y-94495952D01*
X164949048Y-94543571D01*
X164996667Y-94638810D01*
X164996667Y-94876905D01*
X164949048Y-94972143D01*
X164901429Y-95019762D01*
X164806191Y-95067381D01*
X164520476Y-95067381D01*
X164425238Y-95019762D01*
X164377619Y-94972143D01*
X161107381Y-98591666D02*
X160631190Y-98925000D01*
X161107381Y-99163095D02*
X160107381Y-99163095D01*
X160107381Y-98782142D01*
X160155000Y-98686904D01*
X160202619Y-98639285D01*
X160297857Y-98591666D01*
X160440714Y-98591666D01*
X160535952Y-98639285D01*
X160583571Y-98686904D01*
X160631190Y-98782142D01*
X160631190Y-99163095D01*
X160107381Y-98258333D02*
X160107381Y-97639285D01*
X160488333Y-97972619D01*
X160488333Y-97829761D01*
X160535952Y-97734523D01*
X160583571Y-97686904D01*
X160678810Y-97639285D01*
X160916905Y-97639285D01*
X161012143Y-97686904D01*
X161059762Y-97734523D01*
X161107381Y-97829761D01*
X161107381Y-98115476D01*
X161059762Y-98210714D01*
X161012143Y-98258333D01*
X163187143Y-97877381D02*
X162710952Y-97877381D01*
X162663333Y-98353571D01*
X162710952Y-98305952D01*
X162806190Y-98258333D01*
X163044286Y-98258333D01*
X163139524Y-98305952D01*
X163187143Y-98353571D01*
X163234762Y-98448810D01*
X163234762Y-98686905D01*
X163187143Y-98782143D01*
X163139524Y-98829762D01*
X163044286Y-98877381D01*
X162806190Y-98877381D01*
X162710952Y-98829762D01*
X162663333Y-98782143D01*
X163663333Y-98877381D02*
X163663333Y-97877381D01*
X163758571Y-98496429D02*
X164044286Y-98877381D01*
X164044286Y-98210714D02*
X163663333Y-98591667D01*
X164901429Y-97877381D02*
X164710952Y-97877381D01*
X164615714Y-97925000D01*
X164568095Y-97972619D01*
X164472857Y-98115476D01*
X164425238Y-98305952D01*
X164425238Y-98686905D01*
X164472857Y-98782143D01*
X164520476Y-98829762D01*
X164615714Y-98877381D01*
X164806191Y-98877381D01*
X164901429Y-98829762D01*
X164949048Y-98782143D01*
X164996667Y-98686905D01*
X164996667Y-98448810D01*
X164949048Y-98353571D01*
X164901429Y-98305952D01*
X164806191Y-98258333D01*
X164615714Y-98258333D01*
X164520476Y-98305952D01*
X164472857Y-98353571D01*
X164425238Y-98448810D01*
X126817381Y-117641666D02*
X126341190Y-117975000D01*
X126817381Y-118213095D02*
X125817381Y-118213095D01*
X125817381Y-117832142D01*
X125865000Y-117736904D01*
X125912619Y-117689285D01*
X126007857Y-117641666D01*
X126150714Y-117641666D01*
X126245952Y-117689285D01*
X126293571Y-117736904D01*
X126341190Y-117832142D01*
X126341190Y-118213095D01*
X126150714Y-116784523D02*
X126817381Y-116784523D01*
X125769762Y-117022619D02*
X126484048Y-117260714D01*
X126484048Y-116641666D01*
X129254286Y-116927381D02*
X129063809Y-116927381D01*
X128968571Y-116975000D01*
X128920952Y-117022619D01*
X128825714Y-117165476D01*
X128778095Y-117355952D01*
X128778095Y-117736905D01*
X128825714Y-117832143D01*
X128873333Y-117879762D01*
X128968571Y-117927381D01*
X129159048Y-117927381D01*
X129254286Y-117879762D01*
X129301905Y-117832143D01*
X129349524Y-117736905D01*
X129349524Y-117498810D01*
X129301905Y-117403571D01*
X129254286Y-117355952D01*
X129159048Y-117308333D01*
X128968571Y-117308333D01*
X128873333Y-117355952D01*
X128825714Y-117403571D01*
X128778095Y-117498810D01*
X129920952Y-117355952D02*
X129825714Y-117308333D01*
X129778095Y-117260714D01*
X129730476Y-117165476D01*
X129730476Y-117117857D01*
X129778095Y-117022619D01*
X129825714Y-116975000D01*
X129920952Y-116927381D01*
X130111429Y-116927381D01*
X130206667Y-116975000D01*
X130254286Y-117022619D01*
X130301905Y-117117857D01*
X130301905Y-117165476D01*
X130254286Y-117260714D01*
X130206667Y-117308333D01*
X130111429Y-117355952D01*
X129920952Y-117355952D01*
X129825714Y-117403571D01*
X129778095Y-117451190D01*
X129730476Y-117546429D01*
X129730476Y-117736905D01*
X129778095Y-117832143D01*
X129825714Y-117879762D01*
X129920952Y-117927381D01*
X130111429Y-117927381D01*
X130206667Y-117879762D01*
X130254286Y-117832143D01*
X130301905Y-117736905D01*
X130301905Y-117546429D01*
X130254286Y-117451190D01*
X130206667Y-117403571D01*
X130111429Y-117355952D01*
X126817381Y-113831666D02*
X126341190Y-114165000D01*
X126817381Y-114403095D02*
X125817381Y-114403095D01*
X125817381Y-114022142D01*
X125865000Y-113926904D01*
X125912619Y-113879285D01*
X126007857Y-113831666D01*
X126150714Y-113831666D01*
X126245952Y-113879285D01*
X126293571Y-113926904D01*
X126341190Y-114022142D01*
X126341190Y-114403095D01*
X125817381Y-112926904D02*
X125817381Y-113403095D01*
X126293571Y-113450714D01*
X126245952Y-113403095D01*
X126198333Y-113307857D01*
X126198333Y-113069761D01*
X126245952Y-112974523D01*
X126293571Y-112926904D01*
X126388810Y-112879285D01*
X126626905Y-112879285D01*
X126722143Y-112926904D01*
X126769762Y-112974523D01*
X126817381Y-113069761D01*
X126817381Y-113307857D01*
X126769762Y-113403095D01*
X126722143Y-113450714D01*
X128301905Y-113212619D02*
X128349524Y-113165000D01*
X128444762Y-113117381D01*
X128682858Y-113117381D01*
X128778096Y-113165000D01*
X128825715Y-113212619D01*
X128873334Y-113307857D01*
X128873334Y-113403095D01*
X128825715Y-113545952D01*
X128254286Y-114117381D01*
X128873334Y-114117381D01*
X129254286Y-113212619D02*
X129301905Y-113165000D01*
X129397143Y-113117381D01*
X129635239Y-113117381D01*
X129730477Y-113165000D01*
X129778096Y-113212619D01*
X129825715Y-113307857D01*
X129825715Y-113403095D01*
X129778096Y-113545952D01*
X129206667Y-114117381D01*
X129825715Y-114117381D01*
X130444762Y-113117381D02*
X130540001Y-113117381D01*
X130635239Y-113165000D01*
X130682858Y-113212619D01*
X130730477Y-113307857D01*
X130778096Y-113498333D01*
X130778096Y-113736429D01*
X130730477Y-113926905D01*
X130682858Y-114022143D01*
X130635239Y-114069762D01*
X130540001Y-114117381D01*
X130444762Y-114117381D01*
X130349524Y-114069762D01*
X130301905Y-114022143D01*
X130254286Y-113926905D01*
X130206667Y-113736429D01*
X130206667Y-113498333D01*
X130254286Y-113307857D01*
X130301905Y-113212619D01*
X130349524Y-113165000D01*
X130444762Y-113117381D01*
X139517381Y-98591666D02*
X139041190Y-98925000D01*
X139517381Y-99163095D02*
X138517381Y-99163095D01*
X138517381Y-98782142D01*
X138565000Y-98686904D01*
X138612619Y-98639285D01*
X138707857Y-98591666D01*
X138850714Y-98591666D01*
X138945952Y-98639285D01*
X138993571Y-98686904D01*
X139041190Y-98782142D01*
X139041190Y-99163095D01*
X138517381Y-97734523D02*
X138517381Y-97925000D01*
X138565000Y-98020238D01*
X138612619Y-98067857D01*
X138755476Y-98163095D01*
X138945952Y-98210714D01*
X139326905Y-98210714D01*
X139422143Y-98163095D01*
X139469762Y-98115476D01*
X139517381Y-98020238D01*
X139517381Y-97829761D01*
X139469762Y-97734523D01*
X139422143Y-97686904D01*
X139326905Y-97639285D01*
X139088810Y-97639285D01*
X138993571Y-97686904D01*
X138945952Y-97734523D01*
X138898333Y-97829761D01*
X138898333Y-98020238D01*
X138945952Y-98115476D01*
X138993571Y-98163095D01*
X139088810Y-98210714D01*
X141478096Y-98210714D02*
X141478096Y-98877381D01*
X141240000Y-97829762D02*
X141001905Y-98544048D01*
X141620953Y-98544048D01*
X141906667Y-97877381D02*
X142573334Y-97877381D01*
X142144762Y-98877381D01*
X143144762Y-97877381D02*
X143240001Y-97877381D01*
X143335239Y-97925000D01*
X143382858Y-97972619D01*
X143430477Y-98067857D01*
X143478096Y-98258333D01*
X143478096Y-98496429D01*
X143430477Y-98686905D01*
X143382858Y-98782143D01*
X143335239Y-98829762D01*
X143240001Y-98877381D01*
X143144762Y-98877381D01*
X143049524Y-98829762D01*
X143001905Y-98782143D01*
X142954286Y-98686905D01*
X142906667Y-98496429D01*
X142906667Y-98258333D01*
X142954286Y-98067857D01*
X143001905Y-97972619D01*
X143049524Y-97925000D01*
X143144762Y-97877381D01*
X139517381Y-117641666D02*
X139041190Y-117975000D01*
X139517381Y-118213095D02*
X138517381Y-118213095D01*
X138517381Y-117832142D01*
X138565000Y-117736904D01*
X138612619Y-117689285D01*
X138707857Y-117641666D01*
X138850714Y-117641666D01*
X138945952Y-117689285D01*
X138993571Y-117736904D01*
X139041190Y-117832142D01*
X139041190Y-118213095D01*
X138517381Y-117308333D02*
X138517381Y-116641666D01*
X139517381Y-117070238D01*
X141573334Y-117927381D02*
X141001905Y-117927381D01*
X141287619Y-117927381D02*
X141287619Y-116927381D01*
X141192381Y-117070238D01*
X141097143Y-117165476D01*
X141001905Y-117213095D01*
X142478096Y-116927381D02*
X142001905Y-116927381D01*
X141954286Y-117403571D01*
X142001905Y-117355952D01*
X142097143Y-117308333D01*
X142335239Y-117308333D01*
X142430477Y-117355952D01*
X142478096Y-117403571D01*
X142525715Y-117498810D01*
X142525715Y-117736905D01*
X142478096Y-117832143D01*
X142430477Y-117879762D01*
X142335239Y-117927381D01*
X142097143Y-117927381D01*
X142001905Y-117879762D01*
X141954286Y-117832143D01*
X143144762Y-116927381D02*
X143240001Y-116927381D01*
X143335239Y-116975000D01*
X143382858Y-117022619D01*
X143430477Y-117117857D01*
X143478096Y-117308333D01*
X143478096Y-117546429D01*
X143430477Y-117736905D01*
X143382858Y-117832143D01*
X143335239Y-117879762D01*
X143240001Y-117927381D01*
X143144762Y-117927381D01*
X143049524Y-117879762D01*
X143001905Y-117832143D01*
X142954286Y-117736905D01*
X142906667Y-117546429D01*
X142906667Y-117308333D01*
X142954286Y-117117857D01*
X143001905Y-117022619D01*
X143049524Y-116975000D01*
X143144762Y-116927381D01*
X139517381Y-106211666D02*
X139041190Y-106545000D01*
X139517381Y-106783095D02*
X138517381Y-106783095D01*
X138517381Y-106402142D01*
X138565000Y-106306904D01*
X138612619Y-106259285D01*
X138707857Y-106211666D01*
X138850714Y-106211666D01*
X138945952Y-106259285D01*
X138993571Y-106306904D01*
X139041190Y-106402142D01*
X139041190Y-106783095D01*
X138945952Y-105640238D02*
X138898333Y-105735476D01*
X138850714Y-105783095D01*
X138755476Y-105830714D01*
X138707857Y-105830714D01*
X138612619Y-105783095D01*
X138565000Y-105735476D01*
X138517381Y-105640238D01*
X138517381Y-105449761D01*
X138565000Y-105354523D01*
X138612619Y-105306904D01*
X138707857Y-105259285D01*
X138755476Y-105259285D01*
X138850714Y-105306904D01*
X138898333Y-105354523D01*
X138945952Y-105449761D01*
X138945952Y-105640238D01*
X138993571Y-105735476D01*
X139041190Y-105783095D01*
X139136429Y-105830714D01*
X139326905Y-105830714D01*
X139422143Y-105783095D01*
X139469762Y-105735476D01*
X139517381Y-105640238D01*
X139517381Y-105449761D01*
X139469762Y-105354523D01*
X139422143Y-105306904D01*
X139326905Y-105259285D01*
X139136429Y-105259285D01*
X139041190Y-105306904D01*
X138993571Y-105354523D01*
X138945952Y-105449761D01*
X141573334Y-106497381D02*
X141001905Y-106497381D01*
X141287619Y-106497381D02*
X141287619Y-105497381D01*
X141192381Y-105640238D01*
X141097143Y-105735476D01*
X141001905Y-105783095D01*
X142478096Y-105497381D02*
X142001905Y-105497381D01*
X141954286Y-105973571D01*
X142001905Y-105925952D01*
X142097143Y-105878333D01*
X142335239Y-105878333D01*
X142430477Y-105925952D01*
X142478096Y-105973571D01*
X142525715Y-106068810D01*
X142525715Y-106306905D01*
X142478096Y-106402143D01*
X142430477Y-106449762D01*
X142335239Y-106497381D01*
X142097143Y-106497381D01*
X142001905Y-106449762D01*
X141954286Y-106402143D01*
X143144762Y-105497381D02*
X143240001Y-105497381D01*
X143335239Y-105545000D01*
X143382858Y-105592619D01*
X143430477Y-105687857D01*
X143478096Y-105878333D01*
X143478096Y-106116429D01*
X143430477Y-106306905D01*
X143382858Y-106402143D01*
X143335239Y-106449762D01*
X143240001Y-106497381D01*
X143144762Y-106497381D01*
X143049524Y-106449762D01*
X143001905Y-106402143D01*
X142954286Y-106306905D01*
X142906667Y-106116429D01*
X142906667Y-105878333D01*
X142954286Y-105687857D01*
X143001905Y-105592619D01*
X143049524Y-105545000D01*
X143144762Y-105497381D01*
X139517381Y-110497857D02*
X139041190Y-110831191D01*
X139517381Y-111069286D02*
X138517381Y-111069286D01*
X138517381Y-110688333D01*
X138565000Y-110593095D01*
X138612619Y-110545476D01*
X138707857Y-110497857D01*
X138850714Y-110497857D01*
X138945952Y-110545476D01*
X138993571Y-110593095D01*
X139041190Y-110688333D01*
X139041190Y-111069286D01*
X139517381Y-109545476D02*
X139517381Y-110116905D01*
X139517381Y-109831191D02*
X138517381Y-109831191D01*
X138660238Y-109926429D01*
X138755476Y-110021667D01*
X138803095Y-110116905D01*
X139517381Y-108593095D02*
X139517381Y-109164524D01*
X139517381Y-108878810D02*
X138517381Y-108878810D01*
X138660238Y-108974048D01*
X138755476Y-109069286D01*
X138803095Y-109164524D01*
X141573334Y-110307381D02*
X141001905Y-110307381D01*
X141287619Y-110307381D02*
X141287619Y-109307381D01*
X141192381Y-109450238D01*
X141097143Y-109545476D01*
X141001905Y-109593095D01*
X142478096Y-109307381D02*
X142001905Y-109307381D01*
X141954286Y-109783571D01*
X142001905Y-109735952D01*
X142097143Y-109688333D01*
X142335239Y-109688333D01*
X142430477Y-109735952D01*
X142478096Y-109783571D01*
X142525715Y-109878810D01*
X142525715Y-110116905D01*
X142478096Y-110212143D01*
X142430477Y-110259762D01*
X142335239Y-110307381D01*
X142097143Y-110307381D01*
X142001905Y-110259762D01*
X141954286Y-110212143D01*
X143144762Y-109307381D02*
X143240001Y-109307381D01*
X143335239Y-109355000D01*
X143382858Y-109402619D01*
X143430477Y-109497857D01*
X143478096Y-109688333D01*
X143478096Y-109926429D01*
X143430477Y-110116905D01*
X143382858Y-110212143D01*
X143335239Y-110259762D01*
X143240001Y-110307381D01*
X143144762Y-110307381D01*
X143049524Y-110259762D01*
X143001905Y-110212143D01*
X142954286Y-110116905D01*
X142906667Y-109926429D01*
X142906667Y-109688333D01*
X142954286Y-109497857D01*
X143001905Y-109402619D01*
X143049524Y-109355000D01*
X143144762Y-109307381D01*
X139517381Y-114307857D02*
X139041190Y-114641191D01*
X139517381Y-114879286D02*
X138517381Y-114879286D01*
X138517381Y-114498333D01*
X138565000Y-114403095D01*
X138612619Y-114355476D01*
X138707857Y-114307857D01*
X138850714Y-114307857D01*
X138945952Y-114355476D01*
X138993571Y-114403095D01*
X139041190Y-114498333D01*
X139041190Y-114879286D01*
X139517381Y-113355476D02*
X139517381Y-113926905D01*
X139517381Y-113641191D02*
X138517381Y-113641191D01*
X138660238Y-113736429D01*
X138755476Y-113831667D01*
X138803095Y-113926905D01*
X138612619Y-112974524D02*
X138565000Y-112926905D01*
X138517381Y-112831667D01*
X138517381Y-112593571D01*
X138565000Y-112498333D01*
X138612619Y-112450714D01*
X138707857Y-112403095D01*
X138803095Y-112403095D01*
X138945952Y-112450714D01*
X139517381Y-113022143D01*
X139517381Y-112403095D01*
X141573334Y-114117381D02*
X141001905Y-114117381D01*
X141287619Y-114117381D02*
X141287619Y-113117381D01*
X141192381Y-113260238D01*
X141097143Y-113355476D01*
X141001905Y-113403095D01*
X142478096Y-113117381D02*
X142001905Y-113117381D01*
X141954286Y-113593571D01*
X142001905Y-113545952D01*
X142097143Y-113498333D01*
X142335239Y-113498333D01*
X142430477Y-113545952D01*
X142478096Y-113593571D01*
X142525715Y-113688810D01*
X142525715Y-113926905D01*
X142478096Y-114022143D01*
X142430477Y-114069762D01*
X142335239Y-114117381D01*
X142097143Y-114117381D01*
X142001905Y-114069762D01*
X141954286Y-114022143D01*
X143144762Y-113117381D02*
X143240001Y-113117381D01*
X143335239Y-113165000D01*
X143382858Y-113212619D01*
X143430477Y-113307857D01*
X143478096Y-113498333D01*
X143478096Y-113736429D01*
X143430477Y-113926905D01*
X143382858Y-114022143D01*
X143335239Y-114069762D01*
X143240001Y-114117381D01*
X143144762Y-114117381D01*
X143049524Y-114069762D01*
X143001905Y-114022143D01*
X142954286Y-113926905D01*
X142906667Y-113736429D01*
X142906667Y-113498333D01*
X142954286Y-113307857D01*
X143001905Y-113212619D01*
X143049524Y-113165000D01*
X143144762Y-113117381D01*
X123094762Y-96432619D02*
X122999524Y-96385000D01*
X122904286Y-96289762D01*
X122761429Y-96146905D01*
X122666190Y-96099286D01*
X122570952Y-96099286D01*
X122618571Y-96337381D02*
X122523333Y-96289762D01*
X122428095Y-96194524D01*
X122380476Y-96004048D01*
X122380476Y-95670714D01*
X122428095Y-95480238D01*
X122523333Y-95385000D01*
X122618571Y-95337381D01*
X122809048Y-95337381D01*
X122904286Y-95385000D01*
X122999524Y-95480238D01*
X123047143Y-95670714D01*
X123047143Y-96004048D01*
X122999524Y-96194524D01*
X122904286Y-96289762D01*
X122809048Y-96337381D01*
X122618571Y-96337381D01*
X123999524Y-96337381D02*
X123428095Y-96337381D01*
X123713809Y-96337381D02*
X123713809Y-95337381D01*
X123618571Y-95480238D01*
X123523333Y-95575476D01*
X123428095Y-95623095D01*
X120328571Y-102187142D02*
X120376190Y-102044285D01*
X120423810Y-101996666D01*
X120519048Y-101949047D01*
X120661905Y-101949047D01*
X120757143Y-101996666D01*
X120804762Y-102044285D01*
X120852381Y-102139523D01*
X120852381Y-102520476D01*
X119852381Y-102520476D01*
X119852381Y-102187142D01*
X119900000Y-102091904D01*
X119947619Y-102044285D01*
X120042857Y-101996666D01*
X120138095Y-101996666D01*
X120233333Y-102044285D01*
X120280952Y-102091904D01*
X120328571Y-102187142D01*
X120328571Y-102520476D01*
X120757143Y-100949047D02*
X120804762Y-100996666D01*
X120852381Y-101139523D01*
X120852381Y-101234761D01*
X120804762Y-101377619D01*
X120709524Y-101472857D01*
X120614286Y-101520476D01*
X120423810Y-101568095D01*
X120280952Y-101568095D01*
X120090476Y-101520476D01*
X119995238Y-101472857D01*
X119900000Y-101377619D01*
X119852381Y-101234761D01*
X119852381Y-101139523D01*
X119900000Y-100996666D01*
X119947619Y-100949047D01*
X119852381Y-100044285D02*
X119852381Y-100520476D01*
X120328571Y-100568095D01*
X120280952Y-100520476D01*
X120233333Y-100425238D01*
X120233333Y-100187142D01*
X120280952Y-100091904D01*
X120328571Y-100044285D01*
X120423810Y-99996666D01*
X120661905Y-99996666D01*
X120757143Y-100044285D01*
X120804762Y-100091904D01*
X120852381Y-100187142D01*
X120852381Y-100425238D01*
X120804762Y-100520476D01*
X120757143Y-100568095D01*
X120185714Y-99139523D02*
X120852381Y-99139523D01*
X119804762Y-99377619D02*
X120519048Y-99615714D01*
X120519048Y-98996666D01*
X120852381Y-98568095D02*
X120852381Y-98377619D01*
X120804762Y-98282380D01*
X120757143Y-98234761D01*
X120614286Y-98139523D01*
X120423810Y-98091904D01*
X120042857Y-98091904D01*
X119947619Y-98139523D01*
X119900000Y-98187142D01*
X119852381Y-98282380D01*
X119852381Y-98472857D01*
X119900000Y-98568095D01*
X119947619Y-98615714D01*
X120042857Y-98663333D01*
X120280952Y-98663333D01*
X120376190Y-98615714D01*
X120423810Y-98568095D01*
X120471429Y-98472857D01*
X120471429Y-98282380D01*
X120423810Y-98187142D01*
X120376190Y-98139523D01*
X120280952Y-98091904D01*
X130079762Y-96432619D02*
X129984524Y-96385000D01*
X129889286Y-96289762D01*
X129746429Y-96146905D01*
X129651190Y-96099286D01*
X129555952Y-96099286D01*
X129603571Y-96337381D02*
X129508333Y-96289762D01*
X129413095Y-96194524D01*
X129365476Y-96004048D01*
X129365476Y-95670714D01*
X129413095Y-95480238D01*
X129508333Y-95385000D01*
X129603571Y-95337381D01*
X129794048Y-95337381D01*
X129889286Y-95385000D01*
X129984524Y-95480238D01*
X130032143Y-95670714D01*
X130032143Y-96004048D01*
X129984524Y-96194524D01*
X129889286Y-96289762D01*
X129794048Y-96337381D01*
X129603571Y-96337381D01*
X130413095Y-95432619D02*
X130460714Y-95385000D01*
X130555952Y-95337381D01*
X130794048Y-95337381D01*
X130889286Y-95385000D01*
X130936905Y-95432619D01*
X130984524Y-95527857D01*
X130984524Y-95623095D01*
X130936905Y-95765952D01*
X130365476Y-96337381D01*
X130984524Y-96337381D01*
X127313571Y-102187142D02*
X127361190Y-102044285D01*
X127408810Y-101996666D01*
X127504048Y-101949047D01*
X127646905Y-101949047D01*
X127742143Y-101996666D01*
X127789762Y-102044285D01*
X127837381Y-102139523D01*
X127837381Y-102520476D01*
X126837381Y-102520476D01*
X126837381Y-102187142D01*
X126885000Y-102091904D01*
X126932619Y-102044285D01*
X127027857Y-101996666D01*
X127123095Y-101996666D01*
X127218333Y-102044285D01*
X127265952Y-102091904D01*
X127313571Y-102187142D01*
X127313571Y-102520476D01*
X127742143Y-100949047D02*
X127789762Y-100996666D01*
X127837381Y-101139523D01*
X127837381Y-101234761D01*
X127789762Y-101377619D01*
X127694524Y-101472857D01*
X127599286Y-101520476D01*
X127408810Y-101568095D01*
X127265952Y-101568095D01*
X127075476Y-101520476D01*
X126980238Y-101472857D01*
X126885000Y-101377619D01*
X126837381Y-101234761D01*
X126837381Y-101139523D01*
X126885000Y-100996666D01*
X126932619Y-100949047D01*
X126837381Y-100044285D02*
X126837381Y-100520476D01*
X127313571Y-100568095D01*
X127265952Y-100520476D01*
X127218333Y-100425238D01*
X127218333Y-100187142D01*
X127265952Y-100091904D01*
X127313571Y-100044285D01*
X127408810Y-99996666D01*
X127646905Y-99996666D01*
X127742143Y-100044285D01*
X127789762Y-100091904D01*
X127837381Y-100187142D01*
X127837381Y-100425238D01*
X127789762Y-100520476D01*
X127742143Y-100568095D01*
X127170714Y-99139523D02*
X127837381Y-99139523D01*
X126789762Y-99377619D02*
X127504048Y-99615714D01*
X127504048Y-98996666D01*
X127837381Y-98568095D02*
X127837381Y-98377619D01*
X127789762Y-98282380D01*
X127742143Y-98234761D01*
X127599286Y-98139523D01*
X127408810Y-98091904D01*
X127027857Y-98091904D01*
X126932619Y-98139523D01*
X126885000Y-98187142D01*
X126837381Y-98282380D01*
X126837381Y-98472857D01*
X126885000Y-98568095D01*
X126932619Y-98615714D01*
X127027857Y-98663333D01*
X127265952Y-98663333D01*
X127361190Y-98615714D01*
X127408810Y-98568095D01*
X127456429Y-98472857D01*
X127456429Y-98282380D01*
X127408810Y-98187142D01*
X127361190Y-98139523D01*
X127265952Y-98091904D01*
M02*
