G04 #@! TF.FileFunction,Legend,Bot*
%FSLAX46Y46*%
G04 Gerber Fmt 4.6, Leading zero omitted, Abs format (unit mm)*
G04 Created by KiCad (PCBNEW 4.0.7) date 10/18/19 22:45:26*
%MOMM*%
%LPD*%
G01*
G04 APERTURE LIST*
%ADD10C,0.100000*%
%ADD11C,0.200000*%
%ADD12C,0.150000*%
G04 APERTURE END LIST*
D10*
D11*
X165100000Y-78740000D02*
X165100000Y-76835000D01*
X162560000Y-78740000D02*
X165100000Y-78740000D01*
X162560000Y-76835000D02*
X162560000Y-78740000D01*
X155575000Y-113665000D02*
X153670000Y-113665000D01*
X155575000Y-116205000D02*
X155575000Y-113665000D01*
X153670000Y-116205000D02*
X155575000Y-116205000D01*
X147955000Y-116205000D02*
X149860000Y-116205000D01*
X147955000Y-113665000D02*
X147955000Y-116205000D01*
X149860000Y-113665000D02*
X147955000Y-113665000D01*
X165735000Y-102235000D02*
X165100000Y-102235000D01*
X165100000Y-101600000D02*
X165735000Y-101600000D01*
X161925000Y-102235000D02*
X161290000Y-102235000D01*
X161290000Y-101600000D02*
X161925000Y-101600000D01*
X163830000Y-102235000D02*
X164465000Y-102235000D01*
X163830000Y-101600000D02*
X164465000Y-101600000D01*
X162560000Y-101600000D02*
X163195000Y-101600000D01*
X151765000Y-90805000D02*
X151765000Y-91440000D01*
X151765000Y-89535000D02*
X151765000Y-90170000D01*
X151130000Y-90805000D02*
X151130000Y-91440000D01*
X151130000Y-89535000D02*
X151130000Y-90170000D01*
X159385000Y-101600000D02*
X160020000Y-102235000D01*
X159385000Y-102235000D02*
X160020000Y-101600000D01*
X151765000Y-86995000D02*
X151130000Y-87630000D01*
X151130000Y-86995000D02*
X151765000Y-87630000D01*
X151130000Y-80645000D02*
X151765000Y-81280000D01*
X151765000Y-80645000D02*
X151130000Y-80645000D01*
X151130000Y-81280000D02*
X151765000Y-80645000D01*
X151765000Y-80645000D02*
X151130000Y-80645000D01*
X151765000Y-81280000D02*
X151765000Y-80645000D01*
X151130000Y-81280000D02*
X151765000Y-81280000D01*
X151130000Y-80645000D02*
X151130000Y-81280000D01*
X137795000Y-101600000D02*
X138430000Y-102235000D01*
X138430000Y-101600000D02*
X137795000Y-102235000D01*
X137795000Y-105410000D02*
X138430000Y-106045000D01*
X137795000Y-106045000D02*
X138430000Y-105410000D01*
X129540000Y-109220000D02*
X130175000Y-109855000D01*
X129540000Y-109855000D02*
X130175000Y-109220000D01*
X137795000Y-109220000D02*
X138430000Y-109855000D01*
X137795000Y-109855000D02*
X138430000Y-109220000D01*
X138430000Y-109855000D02*
X137795000Y-109855000D01*
X138430000Y-109220000D02*
X138430000Y-109855000D01*
X137795000Y-109220000D02*
X138430000Y-109220000D01*
X137795000Y-109855000D02*
X137795000Y-109220000D01*
X138430000Y-106045000D02*
X137795000Y-106045000D01*
X138430000Y-105410000D02*
X138430000Y-106045000D01*
X137795000Y-105410000D02*
X138430000Y-105410000D01*
X137795000Y-106045000D02*
X137795000Y-105410000D01*
X130175000Y-109855000D02*
X129540000Y-109855000D01*
X130175000Y-109220000D02*
X130175000Y-109855000D01*
X129540000Y-109220000D02*
X130175000Y-109220000D01*
X129540000Y-109855000D02*
X129540000Y-109220000D01*
X138430000Y-102235000D02*
X137795000Y-102235000D01*
X138430000Y-101600000D02*
X138430000Y-102235000D01*
X137795000Y-101600000D02*
X138430000Y-101600000D01*
X137795000Y-102235000D02*
X137795000Y-101600000D01*
X150495000Y-105410000D02*
X151130000Y-106045000D01*
X151130000Y-105410000D02*
X150495000Y-106045000D01*
X151130000Y-97790000D02*
X150495000Y-98425000D01*
X150495000Y-97790000D02*
X151130000Y-98425000D01*
X163195000Y-102235000D02*
X162560000Y-102235000D01*
X120015000Y-92075000D02*
X120015000Y-86995000D01*
X150495000Y-92075000D02*
X120015000Y-92075000D01*
X150495000Y-86995000D02*
X150495000Y-92075000D01*
X120015000Y-86995000D02*
X150495000Y-86995000D01*
X150495000Y-85725000D02*
X120015000Y-85725000D01*
X150495000Y-80645000D02*
X120015000Y-80645000D01*
X150495000Y-80645000D02*
X150495000Y-85725000D01*
X120015000Y-81280000D02*
X120015000Y-80645000D01*
X120015000Y-85725000D02*
X120015000Y-81280000D01*
X120015000Y-81280000D02*
X120015000Y-85725000D01*
D12*
X148731191Y-89162381D02*
X149207382Y-89162381D01*
X149207382Y-88162381D01*
X147874048Y-89162381D02*
X148445477Y-89162381D01*
X148159763Y-89162381D02*
X148159763Y-88162381D01*
X148255001Y-88305238D01*
X148350239Y-88400476D01*
X148445477Y-88448095D01*
X147397858Y-89114762D02*
X147397858Y-89162381D01*
X147445477Y-89257619D01*
X147493096Y-89305238D01*
X145635953Y-89067143D02*
X145683572Y-89114762D01*
X145826429Y-89162381D01*
X145921667Y-89162381D01*
X146064525Y-89114762D01*
X146159763Y-89019524D01*
X146207382Y-88924286D01*
X146255001Y-88733810D01*
X146255001Y-88590952D01*
X146207382Y-88400476D01*
X146159763Y-88305238D01*
X146064525Y-88210000D01*
X145921667Y-88162381D01*
X145826429Y-88162381D01*
X145683572Y-88210000D01*
X145635953Y-88257619D01*
X145064525Y-88590952D02*
X145159763Y-88543333D01*
X145207382Y-88495714D01*
X145255001Y-88400476D01*
X145255001Y-88352857D01*
X145207382Y-88257619D01*
X145159763Y-88210000D01*
X145064525Y-88162381D01*
X144874048Y-88162381D01*
X144778810Y-88210000D01*
X144731191Y-88257619D01*
X144683572Y-88352857D01*
X144683572Y-88400476D01*
X144731191Y-88495714D01*
X144778810Y-88543333D01*
X144874048Y-88590952D01*
X145064525Y-88590952D01*
X145159763Y-88638571D01*
X145207382Y-88686190D01*
X145255001Y-88781429D01*
X145255001Y-88971905D01*
X145207382Y-89067143D01*
X145159763Y-89114762D01*
X145064525Y-89162381D01*
X144874048Y-89162381D01*
X144778810Y-89114762D01*
X144731191Y-89067143D01*
X144683572Y-88971905D01*
X144683572Y-88781429D01*
X144731191Y-88686190D01*
X144778810Y-88638571D01*
X144874048Y-88590952D01*
X144207382Y-89114762D02*
X144207382Y-89162381D01*
X144255001Y-89257619D01*
X144302620Y-89305238D01*
X142445477Y-89067143D02*
X142493096Y-89114762D01*
X142635953Y-89162381D01*
X142731191Y-89162381D01*
X142874049Y-89114762D01*
X142969287Y-89019524D01*
X143016906Y-88924286D01*
X143064525Y-88733810D01*
X143064525Y-88590952D01*
X143016906Y-88400476D01*
X142969287Y-88305238D01*
X142874049Y-88210000D01*
X142731191Y-88162381D01*
X142635953Y-88162381D01*
X142493096Y-88210000D01*
X142445477Y-88257619D01*
X141969287Y-89162381D02*
X141778811Y-89162381D01*
X141683572Y-89114762D01*
X141635953Y-89067143D01*
X141540715Y-88924286D01*
X141493096Y-88733810D01*
X141493096Y-88352857D01*
X141540715Y-88257619D01*
X141588334Y-88210000D01*
X141683572Y-88162381D01*
X141874049Y-88162381D01*
X141969287Y-88210000D01*
X142016906Y-88257619D01*
X142064525Y-88352857D01*
X142064525Y-88590952D01*
X142016906Y-88686190D01*
X141969287Y-88733810D01*
X141874049Y-88781429D01*
X141683572Y-88781429D01*
X141588334Y-88733810D01*
X141540715Y-88686190D01*
X141493096Y-88590952D01*
X141016906Y-89114762D02*
X141016906Y-89162381D01*
X141064525Y-89257619D01*
X141112144Y-89305238D01*
X139826430Y-89162381D02*
X139826430Y-88162381D01*
X139588335Y-88162381D01*
X139445477Y-88210000D01*
X139350239Y-88305238D01*
X139302620Y-88400476D01*
X139255001Y-88590952D01*
X139255001Y-88733810D01*
X139302620Y-88924286D01*
X139350239Y-89019524D01*
X139445477Y-89114762D01*
X139588335Y-89162381D01*
X139826430Y-89162381D01*
X138302620Y-89162381D02*
X138874049Y-89162381D01*
X138588335Y-89162381D02*
X138588335Y-88162381D01*
X138683573Y-88305238D01*
X138778811Y-88400476D01*
X138874049Y-88448095D01*
X137112144Y-88495714D02*
X137112144Y-89495714D01*
X137112144Y-88543333D02*
X137016906Y-88495714D01*
X136826429Y-88495714D01*
X136731191Y-88543333D01*
X136683572Y-88590952D01*
X136635953Y-88686190D01*
X136635953Y-88971905D01*
X136683572Y-89067143D01*
X136731191Y-89114762D01*
X136826429Y-89162381D01*
X137016906Y-89162381D01*
X137112144Y-89114762D01*
X135778810Y-89162381D02*
X135778810Y-88638571D01*
X135826429Y-88543333D01*
X135921667Y-88495714D01*
X136112144Y-88495714D01*
X136207382Y-88543333D01*
X135778810Y-89114762D02*
X135874048Y-89162381D01*
X136112144Y-89162381D01*
X136207382Y-89114762D01*
X136255001Y-89019524D01*
X136255001Y-88924286D01*
X136207382Y-88829048D01*
X136112144Y-88781429D01*
X135874048Y-88781429D01*
X135778810Y-88733810D01*
X134874048Y-89162381D02*
X134874048Y-88162381D01*
X134874048Y-89114762D02*
X134969286Y-89162381D01*
X135159763Y-89162381D01*
X135255001Y-89114762D01*
X135302620Y-89067143D01*
X135350239Y-88971905D01*
X135350239Y-88686190D01*
X135302620Y-88590952D01*
X135255001Y-88543333D01*
X135159763Y-88495714D01*
X134969286Y-88495714D01*
X134874048Y-88543333D01*
X134445477Y-89114762D02*
X134350239Y-89162381D01*
X134159763Y-89162381D01*
X134064524Y-89114762D01*
X134016905Y-89019524D01*
X134016905Y-88971905D01*
X134064524Y-88876667D01*
X134159763Y-88829048D01*
X134302620Y-88829048D01*
X134397858Y-88781429D01*
X134445477Y-88686190D01*
X134445477Y-88638571D01*
X134397858Y-88543333D01*
X134302620Y-88495714D01*
X134159763Y-88495714D01*
X134064524Y-88543333D01*
X132397857Y-89114762D02*
X132493095Y-89162381D01*
X132683572Y-89162381D01*
X132778810Y-89114762D01*
X132826429Y-89067143D01*
X132874048Y-88971905D01*
X132874048Y-88686190D01*
X132826429Y-88590952D01*
X132778810Y-88543333D01*
X132683572Y-88495714D01*
X132493095Y-88495714D01*
X132397857Y-88543333D01*
X131540714Y-89162381D02*
X131540714Y-88638571D01*
X131588333Y-88543333D01*
X131683571Y-88495714D01*
X131874048Y-88495714D01*
X131969286Y-88543333D01*
X131540714Y-89114762D02*
X131635952Y-89162381D01*
X131874048Y-89162381D01*
X131969286Y-89114762D01*
X132016905Y-89019524D01*
X132016905Y-88924286D01*
X131969286Y-88829048D01*
X131874048Y-88781429D01*
X131635952Y-88781429D01*
X131540714Y-88733810D01*
X131064524Y-88495714D02*
X131064524Y-89162381D01*
X131064524Y-88590952D02*
X131016905Y-88543333D01*
X130921667Y-88495714D01*
X130778809Y-88495714D01*
X130683571Y-88543333D01*
X130635952Y-88638571D01*
X130635952Y-89162381D01*
X129397857Y-89162381D02*
X129397857Y-88162381D01*
X129397857Y-88543333D02*
X129302619Y-88495714D01*
X129112142Y-88495714D01*
X129016904Y-88543333D01*
X128969285Y-88590952D01*
X128921666Y-88686190D01*
X128921666Y-88971905D01*
X128969285Y-89067143D01*
X129016904Y-89114762D01*
X129112142Y-89162381D01*
X129302619Y-89162381D01*
X129397857Y-89114762D01*
X128112142Y-89114762D02*
X128207380Y-89162381D01*
X128397857Y-89162381D01*
X128493095Y-89114762D01*
X128540714Y-89019524D01*
X128540714Y-88638571D01*
X128493095Y-88543333D01*
X128397857Y-88495714D01*
X128207380Y-88495714D01*
X128112142Y-88543333D01*
X128064523Y-88638571D01*
X128064523Y-88733810D01*
X128540714Y-88829048D01*
X126921666Y-89114762D02*
X126826428Y-89162381D01*
X126635952Y-89162381D01*
X126540713Y-89114762D01*
X126493094Y-89019524D01*
X126493094Y-88971905D01*
X126540713Y-88876667D01*
X126635952Y-88829048D01*
X126778809Y-88829048D01*
X126874047Y-88781429D01*
X126921666Y-88686190D01*
X126921666Y-88638571D01*
X126874047Y-88543333D01*
X126778809Y-88495714D01*
X126635952Y-88495714D01*
X126540713Y-88543333D01*
X126064523Y-89162381D02*
X126064523Y-88162381D01*
X125635951Y-89162381D02*
X125635951Y-88638571D01*
X125683570Y-88543333D01*
X125778808Y-88495714D01*
X125921666Y-88495714D01*
X126016904Y-88543333D01*
X126064523Y-88590952D01*
X125016904Y-89162381D02*
X125112142Y-89114762D01*
X125159761Y-89067143D01*
X125207380Y-88971905D01*
X125207380Y-88686190D01*
X125159761Y-88590952D01*
X125112142Y-88543333D01*
X125016904Y-88495714D01*
X124874046Y-88495714D01*
X124778808Y-88543333D01*
X124731189Y-88590952D01*
X124683570Y-88686190D01*
X124683570Y-88971905D01*
X124731189Y-89067143D01*
X124778808Y-89114762D01*
X124874046Y-89162381D01*
X125016904Y-89162381D01*
X124254999Y-89162381D02*
X124254999Y-88495714D01*
X124254999Y-88686190D02*
X124207380Y-88590952D01*
X124159761Y-88543333D01*
X124064523Y-88495714D01*
X123969284Y-88495714D01*
X123778808Y-88495714D02*
X123397856Y-88495714D01*
X123635951Y-88162381D02*
X123635951Y-89019524D01*
X123588332Y-89114762D01*
X123493094Y-89162381D01*
X123397856Y-89162381D01*
X122683569Y-89114762D02*
X122778807Y-89162381D01*
X122969284Y-89162381D01*
X123064522Y-89114762D01*
X123112141Y-89019524D01*
X123112141Y-88638571D01*
X123064522Y-88543333D01*
X122969284Y-88495714D01*
X122778807Y-88495714D01*
X122683569Y-88543333D01*
X122635950Y-88638571D01*
X122635950Y-88733810D01*
X123112141Y-88829048D01*
X121778807Y-89162381D02*
X121778807Y-88162381D01*
X121778807Y-89114762D02*
X121874045Y-89162381D01*
X122064522Y-89162381D01*
X122159760Y-89114762D01*
X122207379Y-89067143D01*
X122254998Y-88971905D01*
X122254998Y-88686190D01*
X122207379Y-88590952D01*
X122159760Y-88543333D01*
X122064522Y-88495714D01*
X121874045Y-88495714D01*
X121778807Y-88543333D01*
X121254998Y-89114762D02*
X121254998Y-89162381D01*
X121302617Y-89257619D01*
X121350236Y-89305238D01*
X144207382Y-90717143D02*
X144255001Y-90764762D01*
X144397858Y-90812381D01*
X144493096Y-90812381D01*
X144635954Y-90764762D01*
X144731192Y-90669524D01*
X144778811Y-90574286D01*
X144826430Y-90383810D01*
X144826430Y-90240952D01*
X144778811Y-90050476D01*
X144731192Y-89955238D01*
X144635954Y-89860000D01*
X144493096Y-89812381D01*
X144397858Y-89812381D01*
X144255001Y-89860000D01*
X144207382Y-89907619D01*
X143826430Y-89907619D02*
X143778811Y-89860000D01*
X143683573Y-89812381D01*
X143445477Y-89812381D01*
X143350239Y-89860000D01*
X143302620Y-89907619D01*
X143255001Y-90002857D01*
X143255001Y-90098095D01*
X143302620Y-90240952D01*
X143874049Y-90812381D01*
X143255001Y-90812381D01*
X141255001Y-90812381D02*
X141302620Y-90812381D01*
X141397858Y-90764762D01*
X141540715Y-90621905D01*
X141778810Y-90336190D01*
X141874049Y-90193333D01*
X141921668Y-90050476D01*
X141921668Y-89955238D01*
X141874049Y-89860000D01*
X141778810Y-89812381D01*
X141731191Y-89812381D01*
X141635953Y-89860000D01*
X141588334Y-89955238D01*
X141588334Y-90002857D01*
X141635953Y-90098095D01*
X141683572Y-90145714D01*
X141969287Y-90336190D01*
X142016906Y-90383810D01*
X142064525Y-90479048D01*
X142064525Y-90621905D01*
X142016906Y-90717143D01*
X141969287Y-90764762D01*
X141874049Y-90812381D01*
X141731191Y-90812381D01*
X141635953Y-90764762D01*
X141588334Y-90717143D01*
X141445477Y-90526667D01*
X141397858Y-90383810D01*
X141397858Y-90288571D01*
X139493096Y-90717143D02*
X139540715Y-90764762D01*
X139683572Y-90812381D01*
X139778810Y-90812381D01*
X139921668Y-90764762D01*
X140016906Y-90669524D01*
X140064525Y-90574286D01*
X140112144Y-90383810D01*
X140112144Y-90240952D01*
X140064525Y-90050476D01*
X140016906Y-89955238D01*
X139921668Y-89860000D01*
X139778810Y-89812381D01*
X139683572Y-89812381D01*
X139540715Y-89860000D01*
X139493096Y-89907619D01*
X139159763Y-89812381D02*
X138540715Y-89812381D01*
X138874049Y-90193333D01*
X138731191Y-90193333D01*
X138635953Y-90240952D01*
X138588334Y-90288571D01*
X138540715Y-90383810D01*
X138540715Y-90621905D01*
X138588334Y-90717143D01*
X138635953Y-90764762D01*
X138731191Y-90812381D01*
X139016906Y-90812381D01*
X139112144Y-90764762D01*
X139159763Y-90717143D01*
X136921667Y-90764762D02*
X137016905Y-90812381D01*
X137207382Y-90812381D01*
X137302620Y-90764762D01*
X137350239Y-90717143D01*
X137397858Y-90621905D01*
X137397858Y-90336190D01*
X137350239Y-90240952D01*
X137302620Y-90193333D01*
X137207382Y-90145714D01*
X137016905Y-90145714D01*
X136921667Y-90193333D01*
X136064524Y-90812381D02*
X136064524Y-90288571D01*
X136112143Y-90193333D01*
X136207381Y-90145714D01*
X136397858Y-90145714D01*
X136493096Y-90193333D01*
X136064524Y-90764762D02*
X136159762Y-90812381D01*
X136397858Y-90812381D01*
X136493096Y-90764762D01*
X136540715Y-90669524D01*
X136540715Y-90574286D01*
X136493096Y-90479048D01*
X136397858Y-90431429D01*
X136159762Y-90431429D01*
X136064524Y-90383810D01*
X135588334Y-90145714D02*
X135588334Y-90812381D01*
X135588334Y-90240952D02*
X135540715Y-90193333D01*
X135445477Y-90145714D01*
X135302619Y-90145714D01*
X135207381Y-90193333D01*
X135159762Y-90288571D01*
X135159762Y-90812381D01*
X133921667Y-90812381D02*
X133921667Y-89812381D01*
X133921667Y-90193333D02*
X133826429Y-90145714D01*
X133635952Y-90145714D01*
X133540714Y-90193333D01*
X133493095Y-90240952D01*
X133445476Y-90336190D01*
X133445476Y-90621905D01*
X133493095Y-90717143D01*
X133540714Y-90764762D01*
X133635952Y-90812381D01*
X133826429Y-90812381D01*
X133921667Y-90764762D01*
X132635952Y-90764762D02*
X132731190Y-90812381D01*
X132921667Y-90812381D01*
X133016905Y-90764762D01*
X133064524Y-90669524D01*
X133064524Y-90288571D01*
X133016905Y-90193333D01*
X132921667Y-90145714D01*
X132731190Y-90145714D01*
X132635952Y-90193333D01*
X132588333Y-90288571D01*
X132588333Y-90383810D01*
X133064524Y-90479048D01*
X131255000Y-90812381D02*
X131350238Y-90764762D01*
X131397857Y-90669524D01*
X131397857Y-89812381D01*
X130493094Y-90764762D02*
X130588332Y-90812381D01*
X130778809Y-90812381D01*
X130874047Y-90764762D01*
X130921666Y-90669524D01*
X130921666Y-90288571D01*
X130874047Y-90193333D01*
X130778809Y-90145714D01*
X130588332Y-90145714D01*
X130493094Y-90193333D01*
X130445475Y-90288571D01*
X130445475Y-90383810D01*
X130921666Y-90479048D01*
X130159761Y-90145714D02*
X129778809Y-90145714D01*
X130016904Y-90812381D02*
X130016904Y-89955238D01*
X129969285Y-89860000D01*
X129874047Y-89812381D01*
X129778809Y-89812381D01*
X129588332Y-90145714D02*
X129207380Y-90145714D01*
X129445475Y-89812381D02*
X129445475Y-90669524D01*
X129397856Y-90764762D01*
X129302618Y-90812381D01*
X129207380Y-90812381D01*
X127969284Y-90812381D02*
X128064522Y-90764762D01*
X128112141Y-90717143D01*
X128159760Y-90621905D01*
X128159760Y-90336190D01*
X128112141Y-90240952D01*
X128064522Y-90193333D01*
X127969284Y-90145714D01*
X127826426Y-90145714D01*
X127731188Y-90193333D01*
X127683569Y-90240952D01*
X127635950Y-90336190D01*
X127635950Y-90621905D01*
X127683569Y-90717143D01*
X127731188Y-90764762D01*
X127826426Y-90812381D01*
X127969284Y-90812381D01*
X126778807Y-90145714D02*
X126778807Y-90812381D01*
X127207379Y-90145714D02*
X127207379Y-90669524D01*
X127159760Y-90764762D01*
X127064522Y-90812381D01*
X126921664Y-90812381D01*
X126826426Y-90764762D01*
X126778807Y-90717143D01*
X126445474Y-90145714D02*
X126064522Y-90145714D01*
X126302617Y-89812381D02*
X126302617Y-90669524D01*
X126254998Y-90764762D01*
X126159760Y-90812381D01*
X126064522Y-90812381D01*
X125731188Y-90717143D02*
X125683569Y-90764762D01*
X125731188Y-90812381D01*
X125778807Y-90764762D01*
X125731188Y-90717143D01*
X125731188Y-90812381D01*
X148112144Y-82812381D02*
X148588335Y-82812381D01*
X148588335Y-81812381D01*
X147826430Y-81907619D02*
X147778811Y-81860000D01*
X147683573Y-81812381D01*
X147445477Y-81812381D01*
X147350239Y-81860000D01*
X147302620Y-81907619D01*
X147255001Y-82002857D01*
X147255001Y-82098095D01*
X147302620Y-82240952D01*
X147874049Y-82812381D01*
X147255001Y-82812381D01*
X146778811Y-82764762D02*
X146778811Y-82812381D01*
X146826430Y-82907619D01*
X146874049Y-82955238D01*
X145016906Y-82717143D02*
X145064525Y-82764762D01*
X145207382Y-82812381D01*
X145302620Y-82812381D01*
X145445478Y-82764762D01*
X145540716Y-82669524D01*
X145588335Y-82574286D01*
X145635954Y-82383810D01*
X145635954Y-82240952D01*
X145588335Y-82050476D01*
X145540716Y-81955238D01*
X145445478Y-81860000D01*
X145302620Y-81812381D01*
X145207382Y-81812381D01*
X145064525Y-81860000D01*
X145016906Y-81907619D01*
X144159763Y-81812381D02*
X144350240Y-81812381D01*
X144445478Y-81860000D01*
X144493097Y-81907619D01*
X144588335Y-82050476D01*
X144635954Y-82240952D01*
X144635954Y-82621905D01*
X144588335Y-82717143D01*
X144540716Y-82764762D01*
X144445478Y-82812381D01*
X144255001Y-82812381D01*
X144159763Y-82764762D01*
X144112144Y-82717143D01*
X144064525Y-82621905D01*
X144064525Y-82383810D01*
X144112144Y-82288571D01*
X144159763Y-82240952D01*
X144255001Y-82193333D01*
X144445478Y-82193333D01*
X144540716Y-82240952D01*
X144588335Y-82288571D01*
X144635954Y-82383810D01*
X143588335Y-82764762D02*
X143588335Y-82812381D01*
X143635954Y-82907619D01*
X143683573Y-82955238D01*
X141826430Y-82812381D02*
X142159764Y-82336190D01*
X142397859Y-82812381D02*
X142397859Y-81812381D01*
X142016906Y-81812381D01*
X141921668Y-81860000D01*
X141874049Y-81907619D01*
X141826430Y-82002857D01*
X141826430Y-82145714D01*
X141874049Y-82240952D01*
X141921668Y-82288571D01*
X142016906Y-82336190D01*
X142397859Y-82336190D01*
X141255002Y-82240952D02*
X141350240Y-82193333D01*
X141397859Y-82145714D01*
X141445478Y-82050476D01*
X141445478Y-82002857D01*
X141397859Y-81907619D01*
X141350240Y-81860000D01*
X141255002Y-81812381D01*
X141064525Y-81812381D01*
X140969287Y-81860000D01*
X140921668Y-81907619D01*
X140874049Y-82002857D01*
X140874049Y-82050476D01*
X140921668Y-82145714D01*
X140969287Y-82193333D01*
X141064525Y-82240952D01*
X141255002Y-82240952D01*
X141350240Y-82288571D01*
X141397859Y-82336190D01*
X141445478Y-82431429D01*
X141445478Y-82621905D01*
X141397859Y-82717143D01*
X141350240Y-82764762D01*
X141255002Y-82812381D01*
X141064525Y-82812381D01*
X140969287Y-82764762D01*
X140921668Y-82717143D01*
X140874049Y-82621905D01*
X140874049Y-82431429D01*
X140921668Y-82336190D01*
X140969287Y-82288571D01*
X141064525Y-82240952D01*
X140397859Y-82764762D02*
X140397859Y-82812381D01*
X140445478Y-82907619D01*
X140493097Y-82955238D01*
X138635954Y-82812381D02*
X138969288Y-82336190D01*
X139207383Y-82812381D02*
X139207383Y-81812381D01*
X138826430Y-81812381D01*
X138731192Y-81860000D01*
X138683573Y-81907619D01*
X138635954Y-82002857D01*
X138635954Y-82145714D01*
X138683573Y-82240952D01*
X138731192Y-82288571D01*
X138826430Y-82336190D01*
X139207383Y-82336190D01*
X137683573Y-82812381D02*
X138255002Y-82812381D01*
X137969288Y-82812381D02*
X137969288Y-81812381D01*
X138064526Y-81955238D01*
X138159764Y-82050476D01*
X138255002Y-82098095D01*
X136731192Y-82812381D02*
X137302621Y-82812381D01*
X137016907Y-82812381D02*
X137016907Y-81812381D01*
X137112145Y-81955238D01*
X137207383Y-82050476D01*
X137302621Y-82098095D01*
X134731192Y-82812381D02*
X134778811Y-82812381D01*
X134874049Y-82764762D01*
X135016906Y-82621905D01*
X135255001Y-82336190D01*
X135350240Y-82193333D01*
X135397859Y-82050476D01*
X135397859Y-81955238D01*
X135350240Y-81860000D01*
X135255001Y-81812381D01*
X135207382Y-81812381D01*
X135112144Y-81860000D01*
X135064525Y-81955238D01*
X135064525Y-82002857D01*
X135112144Y-82098095D01*
X135159763Y-82145714D01*
X135445478Y-82336190D01*
X135493097Y-82383810D01*
X135540716Y-82479048D01*
X135540716Y-82621905D01*
X135493097Y-82717143D01*
X135445478Y-82764762D01*
X135350240Y-82812381D01*
X135207382Y-82812381D01*
X135112144Y-82764762D01*
X135064525Y-82717143D01*
X134921668Y-82526667D01*
X134874049Y-82383810D01*
X134874049Y-82288571D01*
X132969287Y-82812381D02*
X133302621Y-82336190D01*
X133540716Y-82812381D02*
X133540716Y-81812381D01*
X133159763Y-81812381D01*
X133064525Y-81860000D01*
X133016906Y-81907619D01*
X132969287Y-82002857D01*
X132969287Y-82145714D01*
X133016906Y-82240952D01*
X133064525Y-82288571D01*
X133159763Y-82336190D01*
X133540716Y-82336190D01*
X131969287Y-82717143D02*
X132016906Y-82764762D01*
X132159763Y-82812381D01*
X132255001Y-82812381D01*
X132397859Y-82764762D01*
X132493097Y-82669524D01*
X132540716Y-82574286D01*
X132588335Y-82383810D01*
X132588335Y-82240952D01*
X132540716Y-82050476D01*
X132493097Y-81955238D01*
X132397859Y-81860000D01*
X132255001Y-81812381D01*
X132159763Y-81812381D01*
X132016906Y-81860000D01*
X131969287Y-81907619D01*
X131588335Y-82526667D02*
X131112144Y-82526667D01*
X131683573Y-82812381D02*
X131350240Y-81812381D01*
X131016906Y-82812381D01*
X129493096Y-82764762D02*
X129588334Y-82812381D01*
X129778811Y-82812381D01*
X129874049Y-82764762D01*
X129921668Y-82717143D01*
X129969287Y-82621905D01*
X129969287Y-82336190D01*
X129921668Y-82240952D01*
X129874049Y-82193333D01*
X129778811Y-82145714D01*
X129588334Y-82145714D01*
X129493096Y-82193333D01*
X128635953Y-82812381D02*
X128635953Y-82288571D01*
X128683572Y-82193333D01*
X128778810Y-82145714D01*
X128969287Y-82145714D01*
X129064525Y-82193333D01*
X128635953Y-82764762D02*
X128731191Y-82812381D01*
X128969287Y-82812381D01*
X129064525Y-82764762D01*
X129112144Y-82669524D01*
X129112144Y-82574286D01*
X129064525Y-82479048D01*
X128969287Y-82431429D01*
X128731191Y-82431429D01*
X128635953Y-82383810D01*
X128159763Y-82145714D02*
X128159763Y-82812381D01*
X128159763Y-82240952D02*
X128112144Y-82193333D01*
X128016906Y-82145714D01*
X127874048Y-82145714D01*
X127778810Y-82193333D01*
X127731191Y-82288571D01*
X127731191Y-82812381D01*
X126493096Y-82812381D02*
X126493096Y-81812381D01*
X126493096Y-82193333D02*
X126397858Y-82145714D01*
X126207381Y-82145714D01*
X126112143Y-82193333D01*
X126064524Y-82240952D01*
X126016905Y-82336190D01*
X126016905Y-82621905D01*
X126064524Y-82717143D01*
X126112143Y-82764762D01*
X126207381Y-82812381D01*
X126397858Y-82812381D01*
X126493096Y-82764762D01*
X125207381Y-82764762D02*
X125302619Y-82812381D01*
X125493096Y-82812381D01*
X125588334Y-82764762D01*
X125635953Y-82669524D01*
X125635953Y-82288571D01*
X125588334Y-82193333D01*
X125493096Y-82145714D01*
X125302619Y-82145714D01*
X125207381Y-82193333D01*
X125159762Y-82288571D01*
X125159762Y-82383810D01*
X125635953Y-82479048D01*
X123826429Y-82812381D02*
X123921667Y-82764762D01*
X123969286Y-82669524D01*
X123969286Y-81812381D01*
X123064523Y-82764762D02*
X123159761Y-82812381D01*
X123350238Y-82812381D01*
X123445476Y-82764762D01*
X123493095Y-82669524D01*
X123493095Y-82288571D01*
X123445476Y-82193333D01*
X123350238Y-82145714D01*
X123159761Y-82145714D01*
X123064523Y-82193333D01*
X123016904Y-82288571D01*
X123016904Y-82383810D01*
X123493095Y-82479048D01*
X122731190Y-82145714D02*
X122350238Y-82145714D01*
X122588333Y-82812381D02*
X122588333Y-81955238D01*
X122540714Y-81860000D01*
X122445476Y-81812381D01*
X122350238Y-81812381D01*
X122159761Y-82145714D02*
X121778809Y-82145714D01*
X122016904Y-81812381D02*
X122016904Y-82669524D01*
X121969285Y-82764762D01*
X121874047Y-82812381D01*
X121778809Y-82812381D01*
X149778811Y-84462381D02*
X149874049Y-84414762D01*
X149921668Y-84367143D01*
X149969287Y-84271905D01*
X149969287Y-83986190D01*
X149921668Y-83890952D01*
X149874049Y-83843333D01*
X149778811Y-83795714D01*
X149635953Y-83795714D01*
X149540715Y-83843333D01*
X149493096Y-83890952D01*
X149445477Y-83986190D01*
X149445477Y-84271905D01*
X149493096Y-84367143D01*
X149540715Y-84414762D01*
X149635953Y-84462381D01*
X149778811Y-84462381D01*
X148588334Y-83795714D02*
X148588334Y-84462381D01*
X149016906Y-83795714D02*
X149016906Y-84319524D01*
X148969287Y-84414762D01*
X148874049Y-84462381D01*
X148731191Y-84462381D01*
X148635953Y-84414762D01*
X148588334Y-84367143D01*
X148255001Y-83795714D02*
X147874049Y-83795714D01*
X148112144Y-83462381D02*
X148112144Y-84319524D01*
X148064525Y-84414762D01*
X147969287Y-84462381D01*
X147874049Y-84462381D01*
X146778810Y-84462381D02*
X146778810Y-83795714D01*
X146778810Y-83462381D02*
X146826429Y-83510000D01*
X146778810Y-83557619D01*
X146731191Y-83510000D01*
X146778810Y-83462381D01*
X146778810Y-83557619D01*
X146445477Y-83795714D02*
X146064525Y-83795714D01*
X146302620Y-84462381D02*
X146302620Y-83605238D01*
X146255001Y-83510000D01*
X146159763Y-83462381D01*
X146064525Y-83462381D01*
X144540714Y-84414762D02*
X144635952Y-84462381D01*
X144826429Y-84462381D01*
X144921667Y-84414762D01*
X144969286Y-84367143D01*
X145016905Y-84271905D01*
X145016905Y-83986190D01*
X144969286Y-83890952D01*
X144921667Y-83843333D01*
X144826429Y-83795714D01*
X144635952Y-83795714D01*
X144540714Y-83843333D01*
X143969286Y-84462381D02*
X144064524Y-84414762D01*
X144112143Y-84367143D01*
X144159762Y-84271905D01*
X144159762Y-83986190D01*
X144112143Y-83890952D01*
X144064524Y-83843333D01*
X143969286Y-83795714D01*
X143826428Y-83795714D01*
X143731190Y-83843333D01*
X143683571Y-83890952D01*
X143635952Y-83986190D01*
X143635952Y-84271905D01*
X143683571Y-84367143D01*
X143731190Y-84414762D01*
X143826428Y-84462381D01*
X143969286Y-84462381D01*
X143207381Y-84462381D02*
X143207381Y-83795714D01*
X143207381Y-83890952D02*
X143159762Y-83843333D01*
X143064524Y-83795714D01*
X142921666Y-83795714D01*
X142826428Y-83843333D01*
X142778809Y-83938571D01*
X142778809Y-84462381D01*
X142778809Y-83938571D02*
X142731190Y-83843333D01*
X142635952Y-83795714D01*
X142493095Y-83795714D01*
X142397857Y-83843333D01*
X142350238Y-83938571D01*
X142350238Y-84462381D01*
X141874048Y-83795714D02*
X141874048Y-84795714D01*
X141874048Y-83843333D02*
X141778810Y-83795714D01*
X141588333Y-83795714D01*
X141493095Y-83843333D01*
X141445476Y-83890952D01*
X141397857Y-83986190D01*
X141397857Y-84271905D01*
X141445476Y-84367143D01*
X141493095Y-84414762D01*
X141588333Y-84462381D01*
X141778810Y-84462381D01*
X141874048Y-84414762D01*
X140826429Y-84462381D02*
X140921667Y-84414762D01*
X140969286Y-84367143D01*
X141016905Y-84271905D01*
X141016905Y-83986190D01*
X140969286Y-83890952D01*
X140921667Y-83843333D01*
X140826429Y-83795714D01*
X140683571Y-83795714D01*
X140588333Y-83843333D01*
X140540714Y-83890952D01*
X140493095Y-83986190D01*
X140493095Y-84271905D01*
X140540714Y-84367143D01*
X140588333Y-84414762D01*
X140683571Y-84462381D01*
X140826429Y-84462381D01*
X140112143Y-84414762D02*
X140016905Y-84462381D01*
X139826429Y-84462381D01*
X139731190Y-84414762D01*
X139683571Y-84319524D01*
X139683571Y-84271905D01*
X139731190Y-84176667D01*
X139826429Y-84129048D01*
X139969286Y-84129048D01*
X140064524Y-84081429D01*
X140112143Y-83986190D01*
X140112143Y-83938571D01*
X140064524Y-83843333D01*
X139969286Y-83795714D01*
X139826429Y-83795714D01*
X139731190Y-83843333D01*
X139255000Y-84462381D02*
X139255000Y-83795714D01*
X139255000Y-83462381D02*
X139302619Y-83510000D01*
X139255000Y-83557619D01*
X139207381Y-83510000D01*
X139255000Y-83462381D01*
X139255000Y-83557619D01*
X138921667Y-83795714D02*
X138540715Y-83795714D01*
X138778810Y-83462381D02*
X138778810Y-84319524D01*
X138731191Y-84414762D01*
X138635953Y-84462381D01*
X138540715Y-84462381D01*
X137826428Y-84414762D02*
X137921666Y-84462381D01*
X138112143Y-84462381D01*
X138207381Y-84414762D01*
X138255000Y-84319524D01*
X138255000Y-83938571D01*
X138207381Y-83843333D01*
X138112143Y-83795714D01*
X137921666Y-83795714D01*
X137826428Y-83843333D01*
X137778809Y-83938571D01*
X137778809Y-84033810D01*
X138255000Y-84129048D01*
X136683571Y-83795714D02*
X136445476Y-84462381D01*
X136207380Y-83795714D01*
X135826428Y-84462381D02*
X135826428Y-83795714D01*
X135826428Y-83462381D02*
X135874047Y-83510000D01*
X135826428Y-83557619D01*
X135778809Y-83510000D01*
X135826428Y-83462381D01*
X135826428Y-83557619D01*
X134921666Y-84462381D02*
X134921666Y-83462381D01*
X134921666Y-84414762D02*
X135016904Y-84462381D01*
X135207381Y-84462381D01*
X135302619Y-84414762D01*
X135350238Y-84367143D01*
X135397857Y-84271905D01*
X135397857Y-83986190D01*
X135350238Y-83890952D01*
X135302619Y-83843333D01*
X135207381Y-83795714D01*
X135016904Y-83795714D01*
X134921666Y-83843333D01*
X134064523Y-84414762D02*
X134159761Y-84462381D01*
X134350238Y-84462381D01*
X134445476Y-84414762D01*
X134493095Y-84319524D01*
X134493095Y-83938571D01*
X134445476Y-83843333D01*
X134350238Y-83795714D01*
X134159761Y-83795714D01*
X134064523Y-83843333D01*
X134016904Y-83938571D01*
X134016904Y-84033810D01*
X134493095Y-84129048D01*
X133445476Y-84462381D02*
X133540714Y-84414762D01*
X133588333Y-84367143D01*
X133635952Y-84271905D01*
X133635952Y-83986190D01*
X133588333Y-83890952D01*
X133540714Y-83843333D01*
X133445476Y-83795714D01*
X133302618Y-83795714D01*
X133207380Y-83843333D01*
X133159761Y-83890952D01*
X133112142Y-83986190D01*
X133112142Y-84271905D01*
X133159761Y-84367143D01*
X133207380Y-84414762D01*
X133302618Y-84462381D01*
X133445476Y-84462381D01*
X131921666Y-84462381D02*
X131921666Y-83795714D01*
X131921666Y-83462381D02*
X131969285Y-83510000D01*
X131921666Y-83557619D01*
X131874047Y-83510000D01*
X131921666Y-83462381D01*
X131921666Y-83557619D01*
X131493095Y-84414762D02*
X131397857Y-84462381D01*
X131207381Y-84462381D01*
X131112142Y-84414762D01*
X131064523Y-84319524D01*
X131064523Y-84271905D01*
X131112142Y-84176667D01*
X131207381Y-84129048D01*
X131350238Y-84129048D01*
X131445476Y-84081429D01*
X131493095Y-83986190D01*
X131493095Y-83938571D01*
X131445476Y-83843333D01*
X131350238Y-83795714D01*
X131207381Y-83795714D01*
X131112142Y-83843333D01*
X129874047Y-83795714D02*
X129874047Y-84462381D01*
X129874047Y-83890952D02*
X129826428Y-83843333D01*
X129731190Y-83795714D01*
X129588332Y-83795714D01*
X129493094Y-83843333D01*
X129445475Y-83938571D01*
X129445475Y-84462381D01*
X128826428Y-84462381D02*
X128921666Y-84414762D01*
X128969285Y-84367143D01*
X129016904Y-84271905D01*
X129016904Y-83986190D01*
X128969285Y-83890952D01*
X128921666Y-83843333D01*
X128826428Y-83795714D01*
X128683570Y-83795714D01*
X128588332Y-83843333D01*
X128540713Y-83890952D01*
X128493094Y-83986190D01*
X128493094Y-84271905D01*
X128540713Y-84367143D01*
X128588332Y-84414762D01*
X128683570Y-84462381D01*
X128826428Y-84462381D01*
X128207380Y-83795714D02*
X127826428Y-83795714D01*
X128064523Y-83462381D02*
X128064523Y-84319524D01*
X128016904Y-84414762D01*
X127921666Y-84462381D01*
X127826428Y-84462381D01*
X126731189Y-84462381D02*
X126731189Y-83795714D01*
X126731189Y-83986190D02*
X126683570Y-83890952D01*
X126635951Y-83843333D01*
X126540713Y-83795714D01*
X126445474Y-83795714D01*
X125731188Y-84414762D02*
X125826426Y-84462381D01*
X126016903Y-84462381D01*
X126112141Y-84414762D01*
X126159760Y-84319524D01*
X126159760Y-83938571D01*
X126112141Y-83843333D01*
X126016903Y-83795714D01*
X125826426Y-83795714D01*
X125731188Y-83843333D01*
X125683569Y-83938571D01*
X125683569Y-84033810D01*
X126159760Y-84129048D01*
X124826426Y-83795714D02*
X124826426Y-84795714D01*
X124826426Y-84414762D02*
X124921664Y-84462381D01*
X125112141Y-84462381D01*
X125207379Y-84414762D01*
X125254998Y-84367143D01*
X125302617Y-84271905D01*
X125302617Y-83986190D01*
X125254998Y-83890952D01*
X125207379Y-83843333D01*
X125112141Y-83795714D01*
X124921664Y-83795714D01*
X124826426Y-83843333D01*
X123921664Y-83795714D02*
X123921664Y-84462381D01*
X124350236Y-83795714D02*
X124350236Y-84319524D01*
X124302617Y-84414762D01*
X124207379Y-84462381D01*
X124064521Y-84462381D01*
X123969283Y-84414762D01*
X123921664Y-84367143D01*
X123445474Y-84462381D02*
X123445474Y-83795714D01*
X123445474Y-83462381D02*
X123493093Y-83510000D01*
X123445474Y-83557619D01*
X123397855Y-83510000D01*
X123445474Y-83462381D01*
X123445474Y-83557619D01*
X122969284Y-84462381D02*
X122969284Y-83795714D01*
X122969284Y-83986190D02*
X122921665Y-83890952D01*
X122874046Y-83843333D01*
X122778808Y-83795714D01*
X122683569Y-83795714D01*
X121969283Y-84414762D02*
X122064521Y-84462381D01*
X122254998Y-84462381D01*
X122350236Y-84414762D01*
X122397855Y-84319524D01*
X122397855Y-83938571D01*
X122350236Y-83843333D01*
X122254998Y-83795714D01*
X122064521Y-83795714D01*
X121969283Y-83843333D01*
X121921664Y-83938571D01*
X121921664Y-84033810D01*
X122397855Y-84129048D01*
X121064521Y-84462381D02*
X121064521Y-83462381D01*
X121064521Y-84414762D02*
X121159759Y-84462381D01*
X121350236Y-84462381D01*
X121445474Y-84414762D01*
X121493093Y-84367143D01*
X121540712Y-84271905D01*
X121540712Y-83986190D01*
X121493093Y-83890952D01*
X121445474Y-83843333D01*
X121350236Y-83795714D01*
X121159759Y-83795714D01*
X121064521Y-83843333D01*
X120588331Y-84367143D02*
X120540712Y-84414762D01*
X120588331Y-84462381D01*
X120635950Y-84414762D01*
X120588331Y-84367143D01*
X120588331Y-84462381D01*
D11*
X170180000Y-119380000D02*
X170180000Y-120015000D01*
X169545000Y-119380000D02*
X170180000Y-119380000D01*
X167640000Y-119380000D02*
X167640000Y-120015000D01*
X167005000Y-119380000D02*
X167640000Y-119380000D01*
X165100000Y-119380000D02*
X165100000Y-120015000D01*
X164465000Y-119380000D02*
X165100000Y-119380000D01*
X162560000Y-119380000D02*
X162560000Y-120015000D01*
X161925000Y-119380000D02*
X162560000Y-119380000D01*
X138430000Y-120015000D02*
X137795000Y-119380000D01*
X135890000Y-120015000D02*
X135255000Y-119380000D01*
X133350000Y-120015000D02*
X132715000Y-119380000D01*
X130810000Y-120015000D02*
X130175000Y-119380000D01*
D12*
X168548095Y-119151429D02*
X168548095Y-118999048D01*
X168586190Y-118922857D01*
X168624286Y-118884762D01*
X168738571Y-118808571D01*
X168890952Y-118770476D01*
X169195714Y-118770476D01*
X169271905Y-118808571D01*
X169310000Y-118846667D01*
X169348095Y-118922857D01*
X169348095Y-119075238D01*
X169310000Y-119151429D01*
X169271905Y-119189524D01*
X169195714Y-119227619D01*
X169005238Y-119227619D01*
X168929048Y-119189524D01*
X168890952Y-119151429D01*
X168852857Y-119075238D01*
X168852857Y-118922857D01*
X168890952Y-118846667D01*
X168929048Y-118808571D01*
X169005238Y-118770476D01*
X169081429Y-118503809D02*
X168548095Y-118313333D01*
X169081429Y-118122857D01*
X169348095Y-117208571D02*
X168700476Y-117208571D01*
X168624286Y-117170476D01*
X168586190Y-117132380D01*
X168548095Y-117056190D01*
X168548095Y-116903809D01*
X168586190Y-116827618D01*
X168624286Y-116789523D01*
X168700476Y-116751428D01*
X169348095Y-116751428D01*
X169081429Y-116370476D02*
X168548095Y-116370476D01*
X169005238Y-116370476D02*
X169043333Y-116332381D01*
X169081429Y-116256190D01*
X169081429Y-116141904D01*
X169043333Y-116065714D01*
X168967143Y-116027619D01*
X168548095Y-116027619D01*
X168624286Y-115646666D02*
X168586190Y-115608571D01*
X168548095Y-115646666D01*
X168586190Y-115684761D01*
X168624286Y-115646666D01*
X168548095Y-115646666D01*
X129940000Y-118770476D02*
X129978095Y-118846667D01*
X129978095Y-118960952D01*
X129940000Y-119075238D01*
X129863810Y-119151429D01*
X129787619Y-119189524D01*
X129635238Y-119227619D01*
X129520952Y-119227619D01*
X129368571Y-119189524D01*
X129292381Y-119151429D01*
X129216190Y-119075238D01*
X129178095Y-118960952D01*
X129178095Y-118884762D01*
X129216190Y-118770476D01*
X129254286Y-118732381D01*
X129520952Y-118732381D01*
X129520952Y-118884762D01*
X129178095Y-118389524D02*
X129978095Y-118389524D01*
X129178095Y-117932381D01*
X129978095Y-117932381D01*
X129178095Y-117551429D02*
X129978095Y-117551429D01*
X129978095Y-117360953D01*
X129940000Y-117246667D01*
X129863810Y-117170476D01*
X129787619Y-117132381D01*
X129635238Y-117094286D01*
X129520952Y-117094286D01*
X129368571Y-117132381D01*
X129292381Y-117170476D01*
X129216190Y-117246667D01*
X129178095Y-117360953D01*
X129178095Y-117551429D01*
X131794286Y-118732381D02*
X131756190Y-118770476D01*
X131718095Y-118884762D01*
X131718095Y-118960952D01*
X131756190Y-119075238D01*
X131832381Y-119151429D01*
X131908571Y-119189524D01*
X132060952Y-119227619D01*
X132175238Y-119227619D01*
X132327619Y-119189524D01*
X132403810Y-119151429D01*
X132480000Y-119075238D01*
X132518095Y-118960952D01*
X132518095Y-118884762D01*
X132480000Y-118770476D01*
X132441905Y-118732381D01*
X131718095Y-118389524D02*
X132518095Y-118389524D01*
X131718095Y-118046667D02*
X132137143Y-118046667D01*
X132213333Y-118084762D01*
X132251429Y-118160952D01*
X132251429Y-118275238D01*
X132213333Y-118351429D01*
X132175238Y-118389524D01*
X131718095Y-117665714D02*
X132251429Y-117665714D01*
X132099048Y-117665714D02*
X132175238Y-117627619D01*
X132213333Y-117589523D01*
X132251429Y-117513333D01*
X132251429Y-117437142D01*
X131718095Y-117056190D02*
X131756190Y-117132381D01*
X131794286Y-117170476D01*
X131870476Y-117208571D01*
X132099048Y-117208571D01*
X132175238Y-117170476D01*
X132213333Y-117132381D01*
X132251429Y-117056190D01*
X132251429Y-116941904D01*
X132213333Y-116865714D01*
X132175238Y-116827619D01*
X132099048Y-116789523D01*
X131870476Y-116789523D01*
X131794286Y-116827619D01*
X131756190Y-116865714D01*
X131718095Y-116941904D01*
X131718095Y-117056190D01*
X131718095Y-116446666D02*
X132251429Y-116446666D01*
X132175238Y-116446666D02*
X132213333Y-116408571D01*
X132251429Y-116332380D01*
X132251429Y-116218094D01*
X132213333Y-116141904D01*
X132137143Y-116103809D01*
X131718095Y-116103809D01*
X132137143Y-116103809D02*
X132213333Y-116065713D01*
X132251429Y-115989523D01*
X132251429Y-115875237D01*
X132213333Y-115799047D01*
X132137143Y-115760952D01*
X131718095Y-115760952D01*
X131718095Y-115037142D02*
X132137143Y-115037142D01*
X132213333Y-115075237D01*
X132251429Y-115151427D01*
X132251429Y-115303808D01*
X132213333Y-115379999D01*
X131756190Y-115037142D02*
X131718095Y-115113332D01*
X131718095Y-115303808D01*
X131756190Y-115379999D01*
X131832381Y-115418094D01*
X131908571Y-115418094D01*
X131984762Y-115379999D01*
X132022857Y-115303808D01*
X132022857Y-115113332D01*
X132060952Y-115037142D01*
X132518095Y-113894284D02*
X132518095Y-113741903D01*
X132480000Y-113665712D01*
X132403810Y-113589522D01*
X132251429Y-113551427D01*
X131984762Y-113551427D01*
X131832381Y-113589522D01*
X131756190Y-113665712D01*
X131718095Y-113741903D01*
X131718095Y-113894284D01*
X131756190Y-113970474D01*
X131832381Y-114046665D01*
X131984762Y-114084760D01*
X132251429Y-114084760D01*
X132403810Y-114046665D01*
X132480000Y-113970474D01*
X132518095Y-113894284D01*
X132518095Y-113208570D02*
X131870476Y-113208570D01*
X131794286Y-113170475D01*
X131756190Y-113132379D01*
X131718095Y-113056189D01*
X131718095Y-112903808D01*
X131756190Y-112827617D01*
X131794286Y-112789522D01*
X131870476Y-112751427D01*
X132518095Y-112751427D01*
X132518095Y-112484761D02*
X132518095Y-112027618D01*
X131718095Y-112256189D02*
X132518095Y-112256189D01*
X134258095Y-118808571D02*
X134258095Y-119189524D01*
X135058095Y-119189524D01*
X134791429Y-118199048D02*
X134258095Y-118199048D01*
X134791429Y-118541905D02*
X134372381Y-118541905D01*
X134296190Y-118503810D01*
X134258095Y-118427619D01*
X134258095Y-118313333D01*
X134296190Y-118237143D01*
X134334286Y-118199048D01*
X134258095Y-117818095D02*
X134791429Y-117818095D01*
X134715238Y-117818095D02*
X134753333Y-117780000D01*
X134791429Y-117703809D01*
X134791429Y-117589523D01*
X134753333Y-117513333D01*
X134677143Y-117475238D01*
X134258095Y-117475238D01*
X134677143Y-117475238D02*
X134753333Y-117437142D01*
X134791429Y-117360952D01*
X134791429Y-117246666D01*
X134753333Y-117170476D01*
X134677143Y-117132381D01*
X134258095Y-117132381D01*
X134258095Y-116408571D02*
X134677143Y-116408571D01*
X134753333Y-116446666D01*
X134791429Y-116522856D01*
X134791429Y-116675237D01*
X134753333Y-116751428D01*
X134296190Y-116408571D02*
X134258095Y-116484761D01*
X134258095Y-116675237D01*
X134296190Y-116751428D01*
X134372381Y-116789523D01*
X134448571Y-116789523D01*
X134524762Y-116751428D01*
X134562857Y-116675237D01*
X134562857Y-116484761D01*
X134600952Y-116408571D01*
X135058095Y-115265713D02*
X135058095Y-115113332D01*
X135020000Y-115037141D01*
X134943810Y-114960951D01*
X134791429Y-114922856D01*
X134524762Y-114922856D01*
X134372381Y-114960951D01*
X134296190Y-115037141D01*
X134258095Y-115113332D01*
X134258095Y-115265713D01*
X134296190Y-115341903D01*
X134372381Y-115418094D01*
X134524762Y-115456189D01*
X134791429Y-115456189D01*
X134943810Y-115418094D01*
X135020000Y-115341903D01*
X135058095Y-115265713D01*
X135058095Y-114579999D02*
X134410476Y-114579999D01*
X134334286Y-114541904D01*
X134296190Y-114503808D01*
X134258095Y-114427618D01*
X134258095Y-114275237D01*
X134296190Y-114199046D01*
X134334286Y-114160951D01*
X134410476Y-114122856D01*
X135058095Y-114122856D01*
X135058095Y-113856190D02*
X135058095Y-113399047D01*
X134258095Y-113627618D02*
X135058095Y-113627618D01*
X136874286Y-118732381D02*
X136836190Y-118770476D01*
X136798095Y-118884762D01*
X136798095Y-118960952D01*
X136836190Y-119075238D01*
X136912381Y-119151429D01*
X136988571Y-119189524D01*
X137140952Y-119227619D01*
X137255238Y-119227619D01*
X137407619Y-119189524D01*
X137483810Y-119151429D01*
X137560000Y-119075238D01*
X137598095Y-118960952D01*
X137598095Y-118884762D01*
X137560000Y-118770476D01*
X137521905Y-118732381D01*
X136798095Y-118275238D02*
X136836190Y-118351429D01*
X136874286Y-118389524D01*
X136950476Y-118427619D01*
X137179048Y-118427619D01*
X137255238Y-118389524D01*
X137293333Y-118351429D01*
X137331429Y-118275238D01*
X137331429Y-118160952D01*
X137293333Y-118084762D01*
X137255238Y-118046667D01*
X137179048Y-118008571D01*
X136950476Y-118008571D01*
X136874286Y-118046667D01*
X136836190Y-118084762D01*
X136798095Y-118160952D01*
X136798095Y-118275238D01*
X136798095Y-117665714D02*
X137331429Y-117665714D01*
X137255238Y-117665714D02*
X137293333Y-117627619D01*
X137331429Y-117551428D01*
X137331429Y-117437142D01*
X137293333Y-117360952D01*
X137217143Y-117322857D01*
X136798095Y-117322857D01*
X137217143Y-117322857D02*
X137293333Y-117284761D01*
X137331429Y-117208571D01*
X137331429Y-117094285D01*
X137293333Y-117018095D01*
X137217143Y-116980000D01*
X136798095Y-116980000D01*
X137331429Y-116599047D02*
X136531429Y-116599047D01*
X137293333Y-116599047D02*
X137331429Y-116522856D01*
X137331429Y-116370475D01*
X137293333Y-116294285D01*
X137255238Y-116256190D01*
X137179048Y-116218094D01*
X136950476Y-116218094D01*
X136874286Y-116256190D01*
X136836190Y-116294285D01*
X136798095Y-116370475D01*
X136798095Y-116522856D01*
X136836190Y-116599047D01*
X136798095Y-115760951D02*
X136836190Y-115837142D01*
X136874286Y-115875237D01*
X136950476Y-115913332D01*
X137179048Y-115913332D01*
X137255238Y-115875237D01*
X137293333Y-115837142D01*
X137331429Y-115760951D01*
X137331429Y-115646665D01*
X137293333Y-115570475D01*
X137255238Y-115532380D01*
X137179048Y-115494284D01*
X136950476Y-115494284D01*
X136874286Y-115532380D01*
X136836190Y-115570475D01*
X136798095Y-115646665D01*
X136798095Y-115760951D01*
X136836190Y-115189522D02*
X136798095Y-115113332D01*
X136798095Y-114960951D01*
X136836190Y-114884760D01*
X136912381Y-114846665D01*
X136950476Y-114846665D01*
X137026667Y-114884760D01*
X137064762Y-114960951D01*
X137064762Y-115075236D01*
X137102857Y-115151427D01*
X137179048Y-115189522D01*
X137217143Y-115189522D01*
X137293333Y-115151427D01*
X137331429Y-115075236D01*
X137331429Y-114960951D01*
X137293333Y-114884760D01*
X136798095Y-114503808D02*
X137331429Y-114503808D01*
X137598095Y-114503808D02*
X137560000Y-114541903D01*
X137521905Y-114503808D01*
X137560000Y-114465713D01*
X137598095Y-114503808D01*
X137521905Y-114503808D01*
X137331429Y-114237142D02*
X137331429Y-113932380D01*
X137598095Y-114122856D02*
X136912381Y-114122856D01*
X136836190Y-114084761D01*
X136798095Y-114008570D01*
X136798095Y-113932380D01*
X136836190Y-113360951D02*
X136798095Y-113437141D01*
X136798095Y-113589522D01*
X136836190Y-113665713D01*
X136912381Y-113703808D01*
X137217143Y-113703808D01*
X137293333Y-113665713D01*
X137331429Y-113589522D01*
X137331429Y-113437141D01*
X137293333Y-113360951D01*
X137217143Y-113322856D01*
X137140952Y-113322856D01*
X137064762Y-113703808D01*
X166008095Y-118808571D02*
X166008095Y-119189524D01*
X166808095Y-119189524D01*
X166541429Y-118199048D02*
X166008095Y-118199048D01*
X166541429Y-118541905D02*
X166122381Y-118541905D01*
X166046190Y-118503810D01*
X166008095Y-118427619D01*
X166008095Y-118313333D01*
X166046190Y-118237143D01*
X166084286Y-118199048D01*
X166008095Y-117818095D02*
X166541429Y-117818095D01*
X166465238Y-117818095D02*
X166503333Y-117780000D01*
X166541429Y-117703809D01*
X166541429Y-117589523D01*
X166503333Y-117513333D01*
X166427143Y-117475238D01*
X166008095Y-117475238D01*
X166427143Y-117475238D02*
X166503333Y-117437142D01*
X166541429Y-117360952D01*
X166541429Y-117246666D01*
X166503333Y-117170476D01*
X166427143Y-117132381D01*
X166008095Y-117132381D01*
X166008095Y-116408571D02*
X166427143Y-116408571D01*
X166503333Y-116446666D01*
X166541429Y-116522856D01*
X166541429Y-116675237D01*
X166503333Y-116751428D01*
X166046190Y-116408571D02*
X166008095Y-116484761D01*
X166008095Y-116675237D01*
X166046190Y-116751428D01*
X166122381Y-116789523D01*
X166198571Y-116789523D01*
X166274762Y-116751428D01*
X166312857Y-116675237D01*
X166312857Y-116484761D01*
X166350952Y-116408571D01*
X166008095Y-115418094D02*
X166808095Y-115418094D01*
X166008095Y-115037142D02*
X166808095Y-115037142D01*
X166008095Y-114579999D01*
X166808095Y-114579999D01*
X163544286Y-118732381D02*
X163506190Y-118770476D01*
X163468095Y-118884762D01*
X163468095Y-118960952D01*
X163506190Y-119075238D01*
X163582381Y-119151429D01*
X163658571Y-119189524D01*
X163810952Y-119227619D01*
X163925238Y-119227619D01*
X164077619Y-119189524D01*
X164153810Y-119151429D01*
X164230000Y-119075238D01*
X164268095Y-118960952D01*
X164268095Y-118884762D01*
X164230000Y-118770476D01*
X164191905Y-118732381D01*
X163468095Y-118389524D02*
X164268095Y-118389524D01*
X163468095Y-118046667D02*
X163887143Y-118046667D01*
X163963333Y-118084762D01*
X164001429Y-118160952D01*
X164001429Y-118275238D01*
X163963333Y-118351429D01*
X163925238Y-118389524D01*
X163468095Y-117665714D02*
X164001429Y-117665714D01*
X163849048Y-117665714D02*
X163925238Y-117627619D01*
X163963333Y-117589523D01*
X164001429Y-117513333D01*
X164001429Y-117437142D01*
X163468095Y-117056190D02*
X163506190Y-117132381D01*
X163544286Y-117170476D01*
X163620476Y-117208571D01*
X163849048Y-117208571D01*
X163925238Y-117170476D01*
X163963333Y-117132381D01*
X164001429Y-117056190D01*
X164001429Y-116941904D01*
X163963333Y-116865714D01*
X163925238Y-116827619D01*
X163849048Y-116789523D01*
X163620476Y-116789523D01*
X163544286Y-116827619D01*
X163506190Y-116865714D01*
X163468095Y-116941904D01*
X163468095Y-117056190D01*
X163468095Y-116446666D02*
X164001429Y-116446666D01*
X163925238Y-116446666D02*
X163963333Y-116408571D01*
X164001429Y-116332380D01*
X164001429Y-116218094D01*
X163963333Y-116141904D01*
X163887143Y-116103809D01*
X163468095Y-116103809D01*
X163887143Y-116103809D02*
X163963333Y-116065713D01*
X164001429Y-115989523D01*
X164001429Y-115875237D01*
X163963333Y-115799047D01*
X163887143Y-115760952D01*
X163468095Y-115760952D01*
X163468095Y-115037142D02*
X163887143Y-115037142D01*
X163963333Y-115075237D01*
X164001429Y-115151427D01*
X164001429Y-115303808D01*
X163963333Y-115379999D01*
X163506190Y-115037142D02*
X163468095Y-115113332D01*
X163468095Y-115303808D01*
X163506190Y-115379999D01*
X163582381Y-115418094D01*
X163658571Y-115418094D01*
X163734762Y-115379999D01*
X163772857Y-115303808D01*
X163772857Y-115113332D01*
X163810952Y-115037142D01*
X163468095Y-114046665D02*
X164268095Y-114046665D01*
X163468095Y-113665713D02*
X164268095Y-113665713D01*
X163468095Y-113208570D01*
X164268095Y-113208570D01*
X161156667Y-119227619D02*
X161156667Y-118846667D01*
X160928095Y-119303810D02*
X161728095Y-119037143D01*
X160928095Y-118770476D01*
X161461429Y-118160953D02*
X160928095Y-118160953D01*
X161461429Y-118503810D02*
X161042381Y-118503810D01*
X160966190Y-118465715D01*
X160928095Y-118389524D01*
X160928095Y-118275238D01*
X160966190Y-118199048D01*
X161004286Y-118160953D01*
X160928095Y-117437143D02*
X161728095Y-117437143D01*
X160966190Y-117437143D02*
X160928095Y-117513333D01*
X160928095Y-117665714D01*
X160966190Y-117741905D01*
X161004286Y-117780000D01*
X161080476Y-117818095D01*
X161309048Y-117818095D01*
X161385238Y-117780000D01*
X161423333Y-117741905D01*
X161461429Y-117665714D01*
X161461429Y-117513333D01*
X161423333Y-117437143D01*
X160928095Y-117056190D02*
X161461429Y-117056190D01*
X161728095Y-117056190D02*
X161690000Y-117094285D01*
X161651905Y-117056190D01*
X161690000Y-117018095D01*
X161728095Y-117056190D01*
X161651905Y-117056190D01*
X160928095Y-116560952D02*
X160966190Y-116637143D01*
X161004286Y-116675238D01*
X161080476Y-116713333D01*
X161309048Y-116713333D01*
X161385238Y-116675238D01*
X161423333Y-116637143D01*
X161461429Y-116560952D01*
X161461429Y-116446666D01*
X161423333Y-116370476D01*
X161385238Y-116332381D01*
X161309048Y-116294285D01*
X161080476Y-116294285D01*
X161004286Y-116332381D01*
X160966190Y-116370476D01*
X160928095Y-116446666D01*
X160928095Y-116560952D01*
X160928095Y-115341904D02*
X161728095Y-115341904D01*
X160928095Y-114960952D02*
X161728095Y-114960952D01*
X160928095Y-114503809D01*
X161728095Y-114503809D01*
X153296667Y-102957381D02*
X152677619Y-102957381D01*
X153010953Y-103338333D01*
X152868095Y-103338333D01*
X152772857Y-103385952D01*
X152725238Y-103433571D01*
X152677619Y-103528810D01*
X152677619Y-103766905D01*
X152725238Y-103862143D01*
X152772857Y-103909762D01*
X152868095Y-103957381D01*
X153153810Y-103957381D01*
X153249048Y-103909762D01*
X153296667Y-103862143D01*
X152344286Y-102957381D02*
X151725238Y-102957381D01*
X152058572Y-103338333D01*
X151915714Y-103338333D01*
X151820476Y-103385952D01*
X151772857Y-103433571D01*
X151725238Y-103528810D01*
X151725238Y-103766905D01*
X151772857Y-103862143D01*
X151820476Y-103909762D01*
X151915714Y-103957381D01*
X152201429Y-103957381D01*
X152296667Y-103909762D01*
X152344286Y-103862143D01*
X151106191Y-102957381D02*
X151010952Y-102957381D01*
X150915714Y-103005000D01*
X150868095Y-103052619D01*
X150820476Y-103147857D01*
X150772857Y-103338333D01*
X150772857Y-103576429D01*
X150820476Y-103766905D01*
X150868095Y-103862143D01*
X150915714Y-103909762D01*
X151010952Y-103957381D01*
X151106191Y-103957381D01*
X151201429Y-103909762D01*
X151249048Y-103862143D01*
X151296667Y-103766905D01*
X151344286Y-103576429D01*
X151344286Y-103338333D01*
X151296667Y-103147857D01*
X151249048Y-103052619D01*
X151201429Y-103005000D01*
X151106191Y-102957381D01*
X150344286Y-103290714D02*
X150344286Y-104290714D01*
X150344286Y-103338333D02*
X150249048Y-103290714D01*
X150058571Y-103290714D01*
X149963333Y-103338333D01*
X149915714Y-103385952D01*
X149868095Y-103481190D01*
X149868095Y-103766905D01*
X149915714Y-103862143D01*
X149963333Y-103909762D01*
X150058571Y-103957381D01*
X150249048Y-103957381D01*
X150344286Y-103909762D01*
X149106190Y-103433571D02*
X149439524Y-103433571D01*
X149439524Y-103957381D02*
X149439524Y-102957381D01*
X148963333Y-102957381D01*
X153312619Y-100147381D02*
X153884048Y-100147381D01*
X153598334Y-100147381D02*
X153598334Y-99147381D01*
X153693572Y-99290238D01*
X153788810Y-99385476D01*
X153884048Y-99433095D01*
X152407857Y-99147381D02*
X152884048Y-99147381D01*
X152931667Y-99623571D01*
X152884048Y-99575952D01*
X152788810Y-99528333D01*
X152550714Y-99528333D01*
X152455476Y-99575952D01*
X152407857Y-99623571D01*
X152360238Y-99718810D01*
X152360238Y-99956905D01*
X152407857Y-100052143D01*
X152455476Y-100099762D01*
X152550714Y-100147381D01*
X152788810Y-100147381D01*
X152884048Y-100099762D01*
X152931667Y-100052143D01*
X151741191Y-99147381D02*
X151645952Y-99147381D01*
X151550714Y-99195000D01*
X151503095Y-99242619D01*
X151455476Y-99337857D01*
X151407857Y-99528333D01*
X151407857Y-99766429D01*
X151455476Y-99956905D01*
X151503095Y-100052143D01*
X151550714Y-100099762D01*
X151645952Y-100147381D01*
X151741191Y-100147381D01*
X151836429Y-100099762D01*
X151884048Y-100052143D01*
X151931667Y-99956905D01*
X151979286Y-99766429D01*
X151979286Y-99528333D01*
X151931667Y-99337857D01*
X151884048Y-99242619D01*
X151836429Y-99195000D01*
X151741191Y-99147381D01*
X150979286Y-99480714D02*
X150979286Y-100480714D01*
X150979286Y-99528333D02*
X150884048Y-99480714D01*
X150693571Y-99480714D01*
X150598333Y-99528333D01*
X150550714Y-99575952D01*
X150503095Y-99671190D01*
X150503095Y-99956905D01*
X150550714Y-100052143D01*
X150598333Y-100099762D01*
X150693571Y-100147381D01*
X150884048Y-100147381D01*
X150979286Y-100099762D01*
X149741190Y-99623571D02*
X150074524Y-99623571D01*
X150074524Y-100147381D02*
X150074524Y-99147381D01*
X149598333Y-99147381D01*
X153931667Y-106767381D02*
X153312619Y-106767381D01*
X153645953Y-107148333D01*
X153503095Y-107148333D01*
X153407857Y-107195952D01*
X153360238Y-107243571D01*
X153312619Y-107338810D01*
X153312619Y-107576905D01*
X153360238Y-107672143D01*
X153407857Y-107719762D01*
X153503095Y-107767381D01*
X153788810Y-107767381D01*
X153884048Y-107719762D01*
X153931667Y-107672143D01*
X152979286Y-106767381D02*
X152360238Y-106767381D01*
X152693572Y-107148333D01*
X152550714Y-107148333D01*
X152455476Y-107195952D01*
X152407857Y-107243571D01*
X152360238Y-107338810D01*
X152360238Y-107576905D01*
X152407857Y-107672143D01*
X152455476Y-107719762D01*
X152550714Y-107767381D01*
X152836429Y-107767381D01*
X152931667Y-107719762D01*
X152979286Y-107672143D01*
X151741191Y-106767381D02*
X151645952Y-106767381D01*
X151550714Y-106815000D01*
X151503095Y-106862619D01*
X151455476Y-106957857D01*
X151407857Y-107148333D01*
X151407857Y-107386429D01*
X151455476Y-107576905D01*
X151503095Y-107672143D01*
X151550714Y-107719762D01*
X151645952Y-107767381D01*
X151741191Y-107767381D01*
X151836429Y-107719762D01*
X151884048Y-107672143D01*
X151931667Y-107576905D01*
X151979286Y-107386429D01*
X151979286Y-107148333D01*
X151931667Y-106957857D01*
X151884048Y-106862619D01*
X151836429Y-106815000D01*
X151741191Y-106767381D01*
X150979286Y-107100714D02*
X150979286Y-108100714D01*
X150979286Y-107148333D02*
X150884048Y-107100714D01*
X150693571Y-107100714D01*
X150598333Y-107148333D01*
X150550714Y-107195952D01*
X150503095Y-107291190D01*
X150503095Y-107576905D01*
X150550714Y-107672143D01*
X150598333Y-107719762D01*
X150693571Y-107767381D01*
X150884048Y-107767381D01*
X150979286Y-107719762D01*
X149741190Y-107243571D02*
X150074524Y-107243571D01*
X150074524Y-107767381D02*
X150074524Y-106767381D01*
X149598333Y-106767381D01*
X131976666Y-107402381D02*
X132167143Y-107402381D01*
X132262381Y-107450000D01*
X132310000Y-107497619D01*
X132405238Y-107640476D01*
X132452857Y-107830952D01*
X132452857Y-108211905D01*
X132405238Y-108307143D01*
X132357619Y-108354762D01*
X132262381Y-108402381D01*
X132071904Y-108402381D01*
X131976666Y-108354762D01*
X131929047Y-108307143D01*
X131881428Y-108211905D01*
X131881428Y-107973810D01*
X131929047Y-107878571D01*
X131976666Y-107830952D01*
X132071904Y-107783333D01*
X132262381Y-107783333D01*
X132357619Y-107830952D01*
X132405238Y-107878571D01*
X132452857Y-107973810D01*
X131310000Y-107830952D02*
X131405238Y-107783333D01*
X131452857Y-107735714D01*
X131500476Y-107640476D01*
X131500476Y-107592857D01*
X131452857Y-107497619D01*
X131405238Y-107450000D01*
X131310000Y-107402381D01*
X131119523Y-107402381D01*
X131024285Y-107450000D01*
X130976666Y-107497619D01*
X130929047Y-107592857D01*
X130929047Y-107640476D01*
X130976666Y-107735714D01*
X131024285Y-107783333D01*
X131119523Y-107830952D01*
X131310000Y-107830952D01*
X131405238Y-107878571D01*
X131452857Y-107926190D01*
X131500476Y-108021429D01*
X131500476Y-108211905D01*
X131452857Y-108307143D01*
X131405238Y-108354762D01*
X131310000Y-108402381D01*
X131119523Y-108402381D01*
X131024285Y-108354762D01*
X130976666Y-108307143D01*
X130929047Y-108211905D01*
X130929047Y-108021429D01*
X130976666Y-107926190D01*
X131024285Y-107878571D01*
X131119523Y-107830952D01*
X130500476Y-107735714D02*
X130500476Y-108735714D01*
X130500476Y-107783333D02*
X130405238Y-107735714D01*
X130214761Y-107735714D01*
X130119523Y-107783333D01*
X130071904Y-107830952D01*
X130024285Y-107926190D01*
X130024285Y-108211905D01*
X130071904Y-108307143D01*
X130119523Y-108354762D01*
X130214761Y-108402381D01*
X130405238Y-108402381D01*
X130500476Y-108354762D01*
X129262380Y-107878571D02*
X129595714Y-107878571D01*
X129595714Y-108402381D02*
X129595714Y-107402381D01*
X129119523Y-107402381D01*
X164631428Y-111577381D02*
X165202857Y-111577381D01*
X164917143Y-111577381D02*
X164917143Y-110577381D01*
X165012381Y-110720238D01*
X165107619Y-110815476D01*
X165202857Y-110863095D01*
X164202857Y-110910714D02*
X164202857Y-111577381D01*
X164202857Y-111005952D02*
X164155238Y-110958333D01*
X164060000Y-110910714D01*
X163917142Y-110910714D01*
X163821904Y-110958333D01*
X163774285Y-111053571D01*
X163774285Y-111577381D01*
X162869523Y-110910714D02*
X162869523Y-111577381D01*
X163107619Y-110529762D02*
X163345714Y-111244048D01*
X162726666Y-111244048D01*
X161821904Y-111577381D02*
X162393333Y-111577381D01*
X162107619Y-111577381D02*
X162107619Y-110577381D01*
X162202857Y-110720238D01*
X162298095Y-110815476D01*
X162393333Y-110863095D01*
X160964761Y-110910714D02*
X160964761Y-111577381D01*
X161202857Y-110529762D02*
X161440952Y-111244048D01*
X160821904Y-111244048D01*
X160298095Y-111005952D02*
X160393333Y-110958333D01*
X160440952Y-110910714D01*
X160488571Y-110815476D01*
X160488571Y-110767857D01*
X160440952Y-110672619D01*
X160393333Y-110625000D01*
X160298095Y-110577381D01*
X160107618Y-110577381D01*
X160012380Y-110625000D01*
X159964761Y-110672619D01*
X159917142Y-110767857D01*
X159917142Y-110815476D01*
X159964761Y-110910714D01*
X160012380Y-110958333D01*
X160107618Y-111005952D01*
X160298095Y-111005952D01*
X160393333Y-111053571D01*
X160440952Y-111101190D01*
X160488571Y-111196429D01*
X160488571Y-111386905D01*
X160440952Y-111482143D01*
X160393333Y-111529762D01*
X160298095Y-111577381D01*
X160107618Y-111577381D01*
X160012380Y-111529762D01*
X159964761Y-111482143D01*
X159917142Y-111386905D01*
X159917142Y-111196429D01*
X159964761Y-111101190D01*
X160012380Y-111053571D01*
X160107618Y-111005952D01*
X178403095Y-79736905D02*
X178860238Y-79736905D01*
X178631667Y-79736905D02*
X178631667Y-78936905D01*
X178707857Y-79051190D01*
X178784048Y-79127381D01*
X178860238Y-79165476D01*
X177907857Y-78936905D02*
X177831666Y-78936905D01*
X177755476Y-78975000D01*
X177717381Y-79013095D01*
X177679285Y-79089286D01*
X177641190Y-79241667D01*
X177641190Y-79432143D01*
X177679285Y-79584524D01*
X177717381Y-79660714D01*
X177755476Y-79698810D01*
X177831666Y-79736905D01*
X177907857Y-79736905D01*
X177984047Y-79698810D01*
X178022143Y-79660714D01*
X178060238Y-79584524D01*
X178098333Y-79432143D01*
X178098333Y-79241667D01*
X178060238Y-79089286D01*
X178022143Y-79013095D01*
X177984047Y-78975000D01*
X177907857Y-78936905D01*
X177145952Y-78936905D02*
X177069761Y-78936905D01*
X176993571Y-78975000D01*
X176955476Y-79013095D01*
X176917380Y-79089286D01*
X176879285Y-79241667D01*
X176879285Y-79432143D01*
X176917380Y-79584524D01*
X176955476Y-79660714D01*
X176993571Y-79698810D01*
X177069761Y-79736905D01*
X177145952Y-79736905D01*
X177222142Y-79698810D01*
X177260238Y-79660714D01*
X177298333Y-79584524D01*
X177336428Y-79432143D01*
X177336428Y-79241667D01*
X177298333Y-79089286D01*
X177260238Y-79013095D01*
X177222142Y-78975000D01*
X177145952Y-78936905D01*
X176193571Y-79203571D02*
X176193571Y-79736905D01*
X176536428Y-79203571D02*
X176536428Y-79622619D01*
X176498333Y-79698810D01*
X176422142Y-79736905D01*
X176307856Y-79736905D01*
X176231666Y-79698810D01*
X176193571Y-79660714D01*
X175545951Y-79317857D02*
X175812618Y-79317857D01*
X175812618Y-79736905D02*
X175812618Y-78936905D01*
X175431665Y-78936905D01*
X178236428Y-97607381D02*
X178807857Y-97607381D01*
X178522143Y-97607381D02*
X178522143Y-96607381D01*
X178617381Y-96750238D01*
X178712619Y-96845476D01*
X178807857Y-96893095D01*
X177617381Y-96607381D02*
X177522142Y-96607381D01*
X177426904Y-96655000D01*
X177379285Y-96702619D01*
X177331666Y-96797857D01*
X177284047Y-96988333D01*
X177284047Y-97226429D01*
X177331666Y-97416905D01*
X177379285Y-97512143D01*
X177426904Y-97559762D01*
X177522142Y-97607381D01*
X177617381Y-97607381D01*
X177712619Y-97559762D01*
X177760238Y-97512143D01*
X177807857Y-97416905D01*
X177855476Y-97226429D01*
X177855476Y-96988333D01*
X177807857Y-96797857D01*
X177760238Y-96702619D01*
X177712619Y-96655000D01*
X177617381Y-96607381D01*
X176426904Y-96940714D02*
X176426904Y-97607381D01*
X176855476Y-96940714D02*
X176855476Y-97464524D01*
X176807857Y-97559762D01*
X176712619Y-97607381D01*
X176569761Y-97607381D01*
X176474523Y-97559762D01*
X176426904Y-97512143D01*
X175617380Y-97083571D02*
X175950714Y-97083571D01*
X175950714Y-97607381D02*
X175950714Y-96607381D01*
X175474523Y-96607381D01*
M02*
