G04 #@! TF.FileFunction,Legend,Top*
%FSLAX46Y46*%
G04 Gerber Fmt 4.6, Leading zero omitted, Abs format (unit mm)*
G04 Created by KiCad (PCBNEW 4.0.7) date 10/18/19 22:45:26*
%MOMM*%
%LPD*%
G01*
G04 APERTURE LIST*
%ADD10C,0.100000*%
%ADD11C,0.150000*%
%ADD12C,0.381000*%
%ADD13C,0.120000*%
%ADD14C,0.304800*%
G04 APERTURE END LIST*
D10*
D11*
X152425715Y-79698810D02*
X152540001Y-79736905D01*
X152730477Y-79736905D01*
X152806667Y-79698810D01*
X152844763Y-79660714D01*
X152882858Y-79584524D01*
X152882858Y-79508333D01*
X152844763Y-79432143D01*
X152806667Y-79394048D01*
X152730477Y-79355952D01*
X152578096Y-79317857D01*
X152501905Y-79279762D01*
X152463810Y-79241667D01*
X152425715Y-79165476D01*
X152425715Y-79089286D01*
X152463810Y-79013095D01*
X152501905Y-78975000D01*
X152578096Y-78936905D01*
X152768572Y-78936905D01*
X152882858Y-78975000D01*
X153225715Y-79736905D02*
X153225715Y-78936905D01*
X153606667Y-79736905D02*
X153606667Y-78936905D01*
X153797143Y-78936905D01*
X153911429Y-78975000D01*
X153987620Y-79051190D01*
X154025715Y-79127381D01*
X154063810Y-79279762D01*
X154063810Y-79394048D01*
X154025715Y-79546429D01*
X153987620Y-79622619D01*
X153911429Y-79698810D01*
X153797143Y-79736905D01*
X153606667Y-79736905D01*
X154368572Y-79203571D02*
X154940001Y-79203571D01*
X154597143Y-78860714D02*
X154368572Y-79889286D01*
X154863810Y-79546429D02*
X154292381Y-79546429D01*
X154635239Y-79889286D02*
X154863810Y-78860714D01*
X155168572Y-79013095D02*
X155206667Y-78975000D01*
X155282858Y-78936905D01*
X155473334Y-78936905D01*
X155549524Y-78975000D01*
X155587620Y-79013095D01*
X155625715Y-79089286D01*
X155625715Y-79165476D01*
X155587620Y-79279762D01*
X155130477Y-79736905D01*
X155625715Y-79736905D01*
X156578096Y-79736905D02*
X156578096Y-78936905D01*
X156959048Y-79736905D02*
X156959048Y-78936905D01*
X157416191Y-79736905D01*
X157416191Y-78936905D01*
X173998334Y-63952381D02*
X173665000Y-63476190D01*
X173426905Y-63952381D02*
X173426905Y-62952381D01*
X173807858Y-62952381D01*
X173903096Y-63000000D01*
X173950715Y-63047619D01*
X173998334Y-63142857D01*
X173998334Y-63285714D01*
X173950715Y-63380952D01*
X173903096Y-63428571D01*
X173807858Y-63476190D01*
X173426905Y-63476190D01*
X174807858Y-63904762D02*
X174712620Y-63952381D01*
X174522143Y-63952381D01*
X174426905Y-63904762D01*
X174379286Y-63809524D01*
X174379286Y-63428571D01*
X174426905Y-63333333D01*
X174522143Y-63285714D01*
X174712620Y-63285714D01*
X174807858Y-63333333D01*
X174855477Y-63428571D01*
X174855477Y-63523810D01*
X174379286Y-63619048D01*
X175188810Y-63285714D02*
X175426905Y-63952381D01*
X175665001Y-63285714D01*
X176045953Y-63952381D02*
X176045953Y-63285714D01*
X176045953Y-62952381D02*
X175998334Y-63000000D01*
X176045953Y-63047619D01*
X176093572Y-63000000D01*
X176045953Y-62952381D01*
X176045953Y-63047619D01*
X176474524Y-63904762D02*
X176569762Y-63952381D01*
X176760238Y-63952381D01*
X176855477Y-63904762D01*
X176903096Y-63809524D01*
X176903096Y-63761905D01*
X176855477Y-63666667D01*
X176760238Y-63619048D01*
X176617381Y-63619048D01*
X176522143Y-63571429D01*
X176474524Y-63476190D01*
X176474524Y-63428571D01*
X176522143Y-63333333D01*
X176617381Y-63285714D01*
X176760238Y-63285714D01*
X176855477Y-63333333D01*
X177331667Y-63952381D02*
X177331667Y-63285714D01*
X177331667Y-62952381D02*
X177284048Y-63000000D01*
X177331667Y-63047619D01*
X177379286Y-63000000D01*
X177331667Y-62952381D01*
X177331667Y-63047619D01*
X177950714Y-63952381D02*
X177855476Y-63904762D01*
X177807857Y-63857143D01*
X177760238Y-63761905D01*
X177760238Y-63476190D01*
X177807857Y-63380952D01*
X177855476Y-63333333D01*
X177950714Y-63285714D01*
X178093572Y-63285714D01*
X178188810Y-63333333D01*
X178236429Y-63380952D01*
X178284048Y-63476190D01*
X178284048Y-63761905D01*
X178236429Y-63857143D01*
X178188810Y-63904762D01*
X178093572Y-63952381D01*
X177950714Y-63952381D01*
X178712619Y-63285714D02*
X178712619Y-63952381D01*
X178712619Y-63380952D02*
X178760238Y-63333333D01*
X178855476Y-63285714D01*
X178998334Y-63285714D01*
X179093572Y-63333333D01*
X179141191Y-63428571D01*
X179141191Y-63952381D01*
X180712620Y-63428571D02*
X180855477Y-63476190D01*
X180903096Y-63523810D01*
X180950715Y-63619048D01*
X180950715Y-63761905D01*
X180903096Y-63857143D01*
X180855477Y-63904762D01*
X180760239Y-63952381D01*
X180379286Y-63952381D01*
X180379286Y-62952381D01*
X180712620Y-62952381D01*
X180807858Y-63000000D01*
X180855477Y-63047619D01*
X180903096Y-63142857D01*
X180903096Y-63238095D01*
X180855477Y-63333333D01*
X180807858Y-63380952D01*
X180712620Y-63428571D01*
X180379286Y-63428571D01*
X129850238Y-88050714D02*
X129850238Y-88860238D01*
X129802619Y-88955476D01*
X129755000Y-89003095D01*
X129659761Y-89050714D01*
X129516904Y-89050714D01*
X129421666Y-89003095D01*
X129850238Y-88669762D02*
X129755000Y-88717381D01*
X129564523Y-88717381D01*
X129469285Y-88669762D01*
X129421666Y-88622143D01*
X129374047Y-88526905D01*
X129374047Y-88241190D01*
X129421666Y-88145952D01*
X129469285Y-88098333D01*
X129564523Y-88050714D01*
X129755000Y-88050714D01*
X129850238Y-88098333D01*
X130326428Y-88717381D02*
X130326428Y-88050714D01*
X130326428Y-87717381D02*
X130278809Y-87765000D01*
X130326428Y-87812619D01*
X130374047Y-87765000D01*
X130326428Y-87717381D01*
X130326428Y-87812619D01*
X130659761Y-88050714D02*
X131040713Y-88050714D01*
X130802618Y-87717381D02*
X130802618Y-88574524D01*
X130850237Y-88669762D01*
X130945475Y-88717381D01*
X131040713Y-88717381D01*
X131374047Y-88717381D02*
X131374047Y-87717381D01*
X131802619Y-88717381D02*
X131802619Y-88193571D01*
X131755000Y-88098333D01*
X131659762Y-88050714D01*
X131516904Y-88050714D01*
X131421666Y-88098333D01*
X131374047Y-88145952D01*
X132707381Y-88050714D02*
X132707381Y-88717381D01*
X132278809Y-88050714D02*
X132278809Y-88574524D01*
X132326428Y-88669762D01*
X132421666Y-88717381D01*
X132564524Y-88717381D01*
X132659762Y-88669762D01*
X132707381Y-88622143D01*
X133183571Y-88717381D02*
X133183571Y-87717381D01*
X133183571Y-88098333D02*
X133278809Y-88050714D01*
X133469286Y-88050714D01*
X133564524Y-88098333D01*
X133612143Y-88145952D01*
X133659762Y-88241190D01*
X133659762Y-88526905D01*
X133612143Y-88622143D01*
X133564524Y-88669762D01*
X133469286Y-88717381D01*
X133278809Y-88717381D01*
X133183571Y-88669762D01*
X134088333Y-88622143D02*
X134135952Y-88669762D01*
X134088333Y-88717381D01*
X134040714Y-88669762D01*
X134088333Y-88622143D01*
X134088333Y-88717381D01*
X134993095Y-88669762D02*
X134897857Y-88717381D01*
X134707380Y-88717381D01*
X134612142Y-88669762D01*
X134564523Y-88622143D01*
X134516904Y-88526905D01*
X134516904Y-88241190D01*
X134564523Y-88145952D01*
X134612142Y-88098333D01*
X134707380Y-88050714D01*
X134897857Y-88050714D01*
X134993095Y-88098333D01*
X135564523Y-88717381D02*
X135469285Y-88669762D01*
X135421666Y-88622143D01*
X135374047Y-88526905D01*
X135374047Y-88241190D01*
X135421666Y-88145952D01*
X135469285Y-88098333D01*
X135564523Y-88050714D01*
X135707381Y-88050714D01*
X135802619Y-88098333D01*
X135850238Y-88145952D01*
X135897857Y-88241190D01*
X135897857Y-88526905D01*
X135850238Y-88622143D01*
X135802619Y-88669762D01*
X135707381Y-88717381D01*
X135564523Y-88717381D01*
X136326428Y-88717381D02*
X136326428Y-88050714D01*
X136326428Y-88145952D02*
X136374047Y-88098333D01*
X136469285Y-88050714D01*
X136612143Y-88050714D01*
X136707381Y-88098333D01*
X136755000Y-88193571D01*
X136755000Y-88717381D01*
X136755000Y-88193571D02*
X136802619Y-88098333D01*
X136897857Y-88050714D01*
X137040714Y-88050714D01*
X137135952Y-88098333D01*
X137183571Y-88193571D01*
X137183571Y-88717381D01*
X138374047Y-87669762D02*
X137516904Y-88955476D01*
X138564523Y-88050714D02*
X138945475Y-88050714D01*
X138707380Y-87717381D02*
X138707380Y-88574524D01*
X138754999Y-88669762D01*
X138850237Y-88717381D01*
X138945475Y-88717381D01*
X139659762Y-88669762D02*
X139564524Y-88717381D01*
X139374047Y-88717381D01*
X139278809Y-88669762D01*
X139231190Y-88574524D01*
X139231190Y-88193571D01*
X139278809Y-88098333D01*
X139374047Y-88050714D01*
X139564524Y-88050714D01*
X139659762Y-88098333D01*
X139707381Y-88193571D01*
X139707381Y-88288810D01*
X139231190Y-88384048D01*
X140135952Y-88717381D02*
X140135952Y-87717381D01*
X140135952Y-88098333D02*
X140231190Y-88050714D01*
X140421667Y-88050714D01*
X140516905Y-88098333D01*
X140564524Y-88145952D01*
X140612143Y-88241190D01*
X140612143Y-88526905D01*
X140564524Y-88622143D01*
X140516905Y-88669762D01*
X140421667Y-88717381D01*
X140231190Y-88717381D01*
X140135952Y-88669762D01*
X141183571Y-88717381D02*
X141088333Y-88669762D01*
X141040714Y-88574524D01*
X141040714Y-87717381D01*
X167187619Y-124110714D02*
X167140000Y-124063095D01*
X167092381Y-123967857D01*
X167092381Y-123729761D01*
X167140000Y-123634523D01*
X167187619Y-123586904D01*
X167282857Y-123539285D01*
X167378095Y-123539285D01*
X167520952Y-123586904D01*
X168092381Y-124158333D01*
X168092381Y-123539285D01*
X132802381Y-124158333D02*
X132802381Y-123491666D01*
X133802381Y-123920238D01*
X130690952Y-123920238D02*
X130643333Y-124015476D01*
X130595714Y-124063095D01*
X130500476Y-124110714D01*
X130452857Y-124110714D01*
X130357619Y-124063095D01*
X130310000Y-124015476D01*
X130262381Y-123920238D01*
X130262381Y-123729761D01*
X130310000Y-123634523D01*
X130357619Y-123586904D01*
X130452857Y-123539285D01*
X130500476Y-123539285D01*
X130595714Y-123586904D01*
X130643333Y-123634523D01*
X130690952Y-123729761D01*
X130690952Y-123920238D01*
X130738571Y-124015476D01*
X130786190Y-124063095D01*
X130881429Y-124110714D01*
X131071905Y-124110714D01*
X131167143Y-124063095D01*
X131214762Y-124015476D01*
X131262381Y-123920238D01*
X131262381Y-123729761D01*
X131214762Y-123634523D01*
X131167143Y-123586904D01*
X131071905Y-123539285D01*
X130881429Y-123539285D01*
X130786190Y-123586904D01*
X130738571Y-123634523D01*
X130690952Y-123729761D01*
X137882381Y-123586904D02*
X137882381Y-124063095D01*
X138358571Y-124110714D01*
X138310952Y-124063095D01*
X138263333Y-123967857D01*
X138263333Y-123729761D01*
X138310952Y-123634523D01*
X138358571Y-123586904D01*
X138453810Y-123539285D01*
X138691905Y-123539285D01*
X138787143Y-123586904D01*
X138834762Y-123634523D01*
X138882381Y-123729761D01*
X138882381Y-123967857D01*
X138834762Y-124063095D01*
X138787143Y-124110714D01*
X162345714Y-123634523D02*
X163012381Y-123634523D01*
X161964762Y-123872619D02*
X162679048Y-124110714D01*
X162679048Y-123491666D01*
X170632381Y-123539285D02*
X170632381Y-124110714D01*
X170632381Y-123825000D02*
X169632381Y-123825000D01*
X169775238Y-123920238D01*
X169870476Y-124015476D01*
X169918095Y-124110714D01*
X163266667Y-68746667D02*
X163742858Y-68746667D01*
X163171429Y-69032381D02*
X163504762Y-68032381D01*
X163838096Y-69032381D01*
X164600001Y-68365714D02*
X164600001Y-69032381D01*
X164171429Y-68365714D02*
X164171429Y-68889524D01*
X164219048Y-68984762D01*
X164314286Y-69032381D01*
X164457144Y-69032381D01*
X164552382Y-68984762D01*
X164600001Y-68937143D01*
X165504763Y-69032381D02*
X165504763Y-68032381D01*
X165504763Y-68984762D02*
X165409525Y-69032381D01*
X165219048Y-69032381D01*
X165123810Y-68984762D01*
X165076191Y-68937143D01*
X165028572Y-68841905D01*
X165028572Y-68556190D01*
X165076191Y-68460952D01*
X165123810Y-68413333D01*
X165219048Y-68365714D01*
X165409525Y-68365714D01*
X165504763Y-68413333D01*
X165980953Y-69032381D02*
X165980953Y-68365714D01*
X165980953Y-68032381D02*
X165933334Y-68080000D01*
X165980953Y-68127619D01*
X166028572Y-68080000D01*
X165980953Y-68032381D01*
X165980953Y-68127619D01*
X166600000Y-69032381D02*
X166504762Y-68984762D01*
X166457143Y-68937143D01*
X166409524Y-68841905D01*
X166409524Y-68556190D01*
X166457143Y-68460952D01*
X166504762Y-68413333D01*
X166600000Y-68365714D01*
X166742858Y-68365714D01*
X166838096Y-68413333D01*
X166885715Y-68460952D01*
X166933334Y-68556190D01*
X166933334Y-68841905D01*
X166885715Y-68937143D01*
X166838096Y-68984762D01*
X166742858Y-69032381D01*
X166600000Y-69032381D01*
X134088572Y-65762143D02*
X134040953Y-65809762D01*
X133898096Y-65857381D01*
X133802858Y-65857381D01*
X133660000Y-65809762D01*
X133564762Y-65714524D01*
X133517143Y-65619286D01*
X133469524Y-65428810D01*
X133469524Y-65285952D01*
X133517143Y-65095476D01*
X133564762Y-65000238D01*
X133660000Y-64905000D01*
X133802858Y-64857381D01*
X133898096Y-64857381D01*
X134040953Y-64905000D01*
X134088572Y-64952619D01*
X134660000Y-65857381D02*
X134564762Y-65809762D01*
X134517143Y-65762143D01*
X134469524Y-65666905D01*
X134469524Y-65381190D01*
X134517143Y-65285952D01*
X134564762Y-65238333D01*
X134660000Y-65190714D01*
X134802858Y-65190714D01*
X134898096Y-65238333D01*
X134945715Y-65285952D01*
X134993334Y-65381190D01*
X134993334Y-65666905D01*
X134945715Y-65762143D01*
X134898096Y-65809762D01*
X134802858Y-65857381D01*
X134660000Y-65857381D01*
X135421905Y-65857381D02*
X135421905Y-65190714D01*
X135421905Y-65285952D02*
X135469524Y-65238333D01*
X135564762Y-65190714D01*
X135707620Y-65190714D01*
X135802858Y-65238333D01*
X135850477Y-65333571D01*
X135850477Y-65857381D01*
X135850477Y-65333571D02*
X135898096Y-65238333D01*
X135993334Y-65190714D01*
X136136191Y-65190714D01*
X136231429Y-65238333D01*
X136279048Y-65333571D01*
X136279048Y-65857381D01*
X136755238Y-65190714D02*
X136755238Y-66190714D01*
X136755238Y-65238333D02*
X136850476Y-65190714D01*
X137040953Y-65190714D01*
X137136191Y-65238333D01*
X137183810Y-65285952D01*
X137231429Y-65381190D01*
X137231429Y-65666905D01*
X137183810Y-65762143D01*
X137136191Y-65809762D01*
X137040953Y-65857381D01*
X136850476Y-65857381D01*
X136755238Y-65809762D01*
X137802857Y-65857381D02*
X137707619Y-65809762D01*
X137660000Y-65762143D01*
X137612381Y-65666905D01*
X137612381Y-65381190D01*
X137660000Y-65285952D01*
X137707619Y-65238333D01*
X137802857Y-65190714D01*
X137945715Y-65190714D01*
X138040953Y-65238333D01*
X138088572Y-65285952D01*
X138136191Y-65381190D01*
X138136191Y-65666905D01*
X138088572Y-65762143D01*
X138040953Y-65809762D01*
X137945715Y-65857381D01*
X137802857Y-65857381D01*
X138517143Y-65809762D02*
X138612381Y-65857381D01*
X138802857Y-65857381D01*
X138898096Y-65809762D01*
X138945715Y-65714524D01*
X138945715Y-65666905D01*
X138898096Y-65571667D01*
X138802857Y-65524048D01*
X138660000Y-65524048D01*
X138564762Y-65476429D01*
X138517143Y-65381190D01*
X138517143Y-65333571D01*
X138564762Y-65238333D01*
X138660000Y-65190714D01*
X138802857Y-65190714D01*
X138898096Y-65238333D01*
X139374286Y-65857381D02*
X139374286Y-65190714D01*
X139374286Y-64857381D02*
X139326667Y-64905000D01*
X139374286Y-64952619D01*
X139421905Y-64905000D01*
X139374286Y-64857381D01*
X139374286Y-64952619D01*
X139707619Y-65190714D02*
X140088571Y-65190714D01*
X139850476Y-64857381D02*
X139850476Y-65714524D01*
X139898095Y-65809762D01*
X139993333Y-65857381D01*
X140088571Y-65857381D01*
X140802858Y-65809762D02*
X140707620Y-65857381D01*
X140517143Y-65857381D01*
X140421905Y-65809762D01*
X140374286Y-65714524D01*
X140374286Y-65333571D01*
X140421905Y-65238333D01*
X140517143Y-65190714D01*
X140707620Y-65190714D01*
X140802858Y-65238333D01*
X140850477Y-65333571D01*
X140850477Y-65428810D01*
X140374286Y-65524048D01*
X128532858Y-80685714D02*
X128461429Y-80757143D01*
X128247143Y-80828571D01*
X128104286Y-80828571D01*
X127890001Y-80757143D01*
X127747143Y-80614286D01*
X127675715Y-80471429D01*
X127604286Y-80185714D01*
X127604286Y-79971429D01*
X127675715Y-79685714D01*
X127747143Y-79542857D01*
X127890001Y-79400000D01*
X128104286Y-79328571D01*
X128247143Y-79328571D01*
X128461429Y-79400000D01*
X128532858Y-79471429D01*
X129390001Y-80828571D02*
X129247143Y-80757143D01*
X129175715Y-80685714D01*
X129104286Y-80542857D01*
X129104286Y-80114286D01*
X129175715Y-79971429D01*
X129247143Y-79900000D01*
X129390001Y-79828571D01*
X129604286Y-79828571D01*
X129747143Y-79900000D01*
X129818572Y-79971429D01*
X129890001Y-80114286D01*
X129890001Y-80542857D01*
X129818572Y-80685714D01*
X129747143Y-80757143D01*
X129604286Y-80828571D01*
X129390001Y-80828571D01*
X130532858Y-80828571D02*
X130532858Y-79828571D01*
X130532858Y-79971429D02*
X130604286Y-79900000D01*
X130747144Y-79828571D01*
X130961429Y-79828571D01*
X131104286Y-79900000D01*
X131175715Y-80042857D01*
X131175715Y-80828571D01*
X131175715Y-80042857D02*
X131247144Y-79900000D01*
X131390001Y-79828571D01*
X131604286Y-79828571D01*
X131747144Y-79900000D01*
X131818572Y-80042857D01*
X131818572Y-80828571D01*
X132532858Y-80828571D02*
X132532858Y-79828571D01*
X132532858Y-79971429D02*
X132604286Y-79900000D01*
X132747144Y-79828571D01*
X132961429Y-79828571D01*
X133104286Y-79900000D01*
X133175715Y-80042857D01*
X133175715Y-80828571D01*
X133175715Y-80042857D02*
X133247144Y-79900000D01*
X133390001Y-79828571D01*
X133604286Y-79828571D01*
X133747144Y-79900000D01*
X133818572Y-80042857D01*
X133818572Y-80828571D01*
X134747144Y-80828571D02*
X134604286Y-80757143D01*
X134532858Y-80685714D01*
X134461429Y-80542857D01*
X134461429Y-80114286D01*
X134532858Y-79971429D01*
X134604286Y-79900000D01*
X134747144Y-79828571D01*
X134961429Y-79828571D01*
X135104286Y-79900000D01*
X135175715Y-79971429D01*
X135247144Y-80114286D01*
X135247144Y-80542857D01*
X135175715Y-80685714D01*
X135104286Y-80757143D01*
X134961429Y-80828571D01*
X134747144Y-80828571D01*
X136532858Y-80828571D02*
X136532858Y-79328571D01*
X136532858Y-80757143D02*
X136390001Y-80828571D01*
X136104287Y-80828571D01*
X135961429Y-80757143D01*
X135890001Y-80685714D01*
X135818572Y-80542857D01*
X135818572Y-80114286D01*
X135890001Y-79971429D01*
X135961429Y-79900000D01*
X136104287Y-79828571D01*
X136390001Y-79828571D01*
X136532858Y-79900000D01*
X137461430Y-80828571D02*
X137318572Y-80757143D01*
X137247144Y-80685714D01*
X137175715Y-80542857D01*
X137175715Y-80114286D01*
X137247144Y-79971429D01*
X137318572Y-79900000D01*
X137461430Y-79828571D01*
X137675715Y-79828571D01*
X137818572Y-79900000D01*
X137890001Y-79971429D01*
X137961430Y-80114286D01*
X137961430Y-80542857D01*
X137890001Y-80685714D01*
X137818572Y-80757143D01*
X137675715Y-80828571D01*
X137461430Y-80828571D01*
X138604287Y-80828571D02*
X138604287Y-79828571D01*
X138604287Y-80114286D02*
X138675715Y-79971429D01*
X138747144Y-79900000D01*
X138890001Y-79828571D01*
X139032858Y-79828571D01*
X140104286Y-80757143D02*
X139961429Y-80828571D01*
X139675715Y-80828571D01*
X139532858Y-80757143D01*
X139461429Y-80614286D01*
X139461429Y-80042857D01*
X139532858Y-79900000D01*
X139675715Y-79828571D01*
X139961429Y-79828571D01*
X140104286Y-79900000D01*
X140175715Y-80042857D01*
X140175715Y-80185714D01*
X139461429Y-80328571D01*
X142604286Y-79328571D02*
X142318572Y-79328571D01*
X142175715Y-79400000D01*
X142104286Y-79471429D01*
X141961429Y-79685714D01*
X141890000Y-79971429D01*
X141890000Y-80542857D01*
X141961429Y-80685714D01*
X142032857Y-80757143D01*
X142175715Y-80828571D01*
X142461429Y-80828571D01*
X142604286Y-80757143D01*
X142675715Y-80685714D01*
X142747143Y-80542857D01*
X142747143Y-80185714D01*
X142675715Y-80042857D01*
X142604286Y-79971429D01*
X142461429Y-79900000D01*
X142175715Y-79900000D01*
X142032857Y-79971429D01*
X141961429Y-80042857D01*
X141890000Y-80185714D01*
X144032857Y-79828571D02*
X144032857Y-80828571D01*
X143675714Y-79257143D02*
X143318571Y-80328571D01*
X144247143Y-80328571D01*
X122961429Y-83228571D02*
X122961429Y-81728571D01*
X123461429Y-82800000D01*
X123961429Y-81728571D01*
X123961429Y-83228571D01*
X124890001Y-83228571D02*
X124747143Y-83157143D01*
X124675715Y-83085714D01*
X124604286Y-82942857D01*
X124604286Y-82514286D01*
X124675715Y-82371429D01*
X124747143Y-82300000D01*
X124890001Y-82228571D01*
X125104286Y-82228571D01*
X125247143Y-82300000D01*
X125318572Y-82371429D01*
X125390001Y-82514286D01*
X125390001Y-82942857D01*
X125318572Y-83085714D01*
X125247143Y-83157143D01*
X125104286Y-83228571D01*
X124890001Y-83228571D01*
X126675715Y-83228571D02*
X126675715Y-81728571D01*
X126675715Y-83157143D02*
X126532858Y-83228571D01*
X126247144Y-83228571D01*
X126104286Y-83157143D01*
X126032858Y-83085714D01*
X125961429Y-82942857D01*
X125961429Y-82514286D01*
X126032858Y-82371429D01*
X126104286Y-82300000D01*
X126247144Y-82228571D01*
X126532858Y-82228571D01*
X126675715Y-82300000D01*
X128032858Y-82228571D02*
X128032858Y-83228571D01*
X127390001Y-82228571D02*
X127390001Y-83014286D01*
X127461429Y-83157143D01*
X127604287Y-83228571D01*
X127818572Y-83228571D01*
X127961429Y-83157143D01*
X128032858Y-83085714D01*
X128961430Y-83228571D02*
X128818572Y-83157143D01*
X128747144Y-83014286D01*
X128747144Y-81728571D01*
X130175715Y-83228571D02*
X130175715Y-82442857D01*
X130104286Y-82300000D01*
X129961429Y-82228571D01*
X129675715Y-82228571D01*
X129532858Y-82300000D01*
X130175715Y-83157143D02*
X130032858Y-83228571D01*
X129675715Y-83228571D01*
X129532858Y-83157143D01*
X129461429Y-83014286D01*
X129461429Y-82871429D01*
X129532858Y-82728571D01*
X129675715Y-82657143D01*
X130032858Y-82657143D01*
X130175715Y-82585714D01*
X130675715Y-82228571D02*
X131247144Y-82228571D01*
X130890001Y-81728571D02*
X130890001Y-83014286D01*
X130961429Y-83157143D01*
X131104287Y-83228571D01*
X131247144Y-83228571D01*
X131961430Y-83228571D02*
X131818572Y-83157143D01*
X131747144Y-83085714D01*
X131675715Y-82942857D01*
X131675715Y-82514286D01*
X131747144Y-82371429D01*
X131818572Y-82300000D01*
X131961430Y-82228571D01*
X132175715Y-82228571D01*
X132318572Y-82300000D01*
X132390001Y-82371429D01*
X132461430Y-82514286D01*
X132461430Y-82942857D01*
X132390001Y-83085714D01*
X132318572Y-83157143D01*
X132175715Y-83228571D01*
X131961430Y-83228571D01*
X133104287Y-83228571D02*
X133104287Y-82228571D01*
X133104287Y-82514286D02*
X133175715Y-82371429D01*
X133247144Y-82300000D01*
X133390001Y-82228571D01*
X133532858Y-82228571D01*
X136032858Y-83228571D02*
X135532858Y-82514286D01*
X135175715Y-83228571D02*
X135175715Y-81728571D01*
X135747143Y-81728571D01*
X135890001Y-81800000D01*
X135961429Y-81871429D01*
X136032858Y-82014286D01*
X136032858Y-82228571D01*
X135961429Y-82371429D01*
X135890001Y-82442857D01*
X135747143Y-82514286D01*
X135175715Y-82514286D01*
X137247143Y-83157143D02*
X137104286Y-83228571D01*
X136818572Y-83228571D01*
X136675715Y-83157143D01*
X136604286Y-83014286D01*
X136604286Y-82442857D01*
X136675715Y-82300000D01*
X136818572Y-82228571D01*
X137104286Y-82228571D01*
X137247143Y-82300000D01*
X137318572Y-82442857D01*
X137318572Y-82585714D01*
X136604286Y-82728571D01*
X137961429Y-82228571D02*
X137961429Y-83728571D01*
X137961429Y-82300000D02*
X138104286Y-82228571D01*
X138390000Y-82228571D01*
X138532857Y-82300000D01*
X138604286Y-82371429D01*
X138675715Y-82514286D01*
X138675715Y-82942857D01*
X138604286Y-83085714D01*
X138532857Y-83157143D01*
X138390000Y-83228571D01*
X138104286Y-83228571D01*
X137961429Y-83157143D01*
X139532858Y-83228571D02*
X139390000Y-83157143D01*
X139318572Y-83014286D01*
X139318572Y-81728571D01*
X140747143Y-83228571D02*
X140747143Y-82442857D01*
X140675714Y-82300000D01*
X140532857Y-82228571D01*
X140247143Y-82228571D01*
X140104286Y-82300000D01*
X140747143Y-83157143D02*
X140604286Y-83228571D01*
X140247143Y-83228571D01*
X140104286Y-83157143D01*
X140032857Y-83014286D01*
X140032857Y-82871429D01*
X140104286Y-82728571D01*
X140247143Y-82657143D01*
X140604286Y-82657143D01*
X140747143Y-82585714D01*
X142104286Y-83157143D02*
X141961429Y-83228571D01*
X141675715Y-83228571D01*
X141532857Y-83157143D01*
X141461429Y-83085714D01*
X141390000Y-82942857D01*
X141390000Y-82514286D01*
X141461429Y-82371429D01*
X141532857Y-82300000D01*
X141675715Y-82228571D01*
X141961429Y-82228571D01*
X142104286Y-82300000D01*
X143318571Y-83157143D02*
X143175714Y-83228571D01*
X142890000Y-83228571D01*
X142747143Y-83157143D01*
X142675714Y-83014286D01*
X142675714Y-82442857D01*
X142747143Y-82300000D01*
X142890000Y-82228571D01*
X143175714Y-82228571D01*
X143318571Y-82300000D01*
X143390000Y-82442857D01*
X143390000Y-82585714D01*
X142675714Y-82728571D01*
X144032857Y-83228571D02*
X144032857Y-82228571D01*
X144032857Y-82371429D02*
X144104285Y-82300000D01*
X144247143Y-82228571D01*
X144461428Y-82228571D01*
X144604285Y-82300000D01*
X144675714Y-82442857D01*
X144675714Y-83228571D01*
X144675714Y-82442857D02*
X144747143Y-82300000D01*
X144890000Y-82228571D01*
X145104285Y-82228571D01*
X145247143Y-82300000D01*
X145318571Y-82442857D01*
X145318571Y-83228571D01*
X146604285Y-83157143D02*
X146461428Y-83228571D01*
X146175714Y-83228571D01*
X146032857Y-83157143D01*
X145961428Y-83014286D01*
X145961428Y-82442857D01*
X146032857Y-82300000D01*
X146175714Y-82228571D01*
X146461428Y-82228571D01*
X146604285Y-82300000D01*
X146675714Y-82442857D01*
X146675714Y-82585714D01*
X145961428Y-82728571D01*
X147318571Y-82228571D02*
X147318571Y-83228571D01*
X147318571Y-82371429D02*
X147389999Y-82300000D01*
X147532857Y-82228571D01*
X147747142Y-82228571D01*
X147889999Y-82300000D01*
X147961428Y-82442857D01*
X147961428Y-83228571D01*
X148461428Y-82228571D02*
X149032857Y-82228571D01*
X148675714Y-81728571D02*
X148675714Y-83014286D01*
X148747142Y-83157143D01*
X148890000Y-83228571D01*
X149032857Y-83228571D01*
X124318571Y-86200000D02*
X124247143Y-86128571D01*
X124104286Y-85914286D01*
X124032857Y-85771429D01*
X123961428Y-85557143D01*
X123890000Y-85200000D01*
X123890000Y-84914286D01*
X123961428Y-84557143D01*
X124032857Y-84342857D01*
X124104286Y-84200000D01*
X124247143Y-83985714D01*
X124318571Y-83914286D01*
X124818571Y-84128571D02*
X124818571Y-84414286D01*
X125390000Y-84128571D02*
X125390000Y-84414286D01*
X126747143Y-85628571D02*
X126032857Y-85628571D01*
X126032857Y-84128571D01*
X127461429Y-85628571D02*
X127318571Y-85557143D01*
X127247143Y-85485714D01*
X127175714Y-85342857D01*
X127175714Y-84914286D01*
X127247143Y-84771429D01*
X127318571Y-84700000D01*
X127461429Y-84628571D01*
X127675714Y-84628571D01*
X127818571Y-84700000D01*
X127890000Y-84771429D01*
X127961429Y-84914286D01*
X127961429Y-85342857D01*
X127890000Y-85485714D01*
X127818571Y-85557143D01*
X127675714Y-85628571D01*
X127461429Y-85628571D01*
X128604286Y-84628571D02*
X128604286Y-85628571D01*
X128604286Y-84771429D02*
X128675714Y-84700000D01*
X128818572Y-84628571D01*
X129032857Y-84628571D01*
X129175714Y-84700000D01*
X129247143Y-84842857D01*
X129247143Y-85628571D01*
X130604286Y-84628571D02*
X130604286Y-85842857D01*
X130532857Y-85985714D01*
X130461429Y-86057143D01*
X130318572Y-86128571D01*
X130104286Y-86128571D01*
X129961429Y-86057143D01*
X130604286Y-85557143D02*
X130461429Y-85628571D01*
X130175715Y-85628571D01*
X130032857Y-85557143D01*
X129961429Y-85485714D01*
X129890000Y-85342857D01*
X129890000Y-84914286D01*
X129961429Y-84771429D01*
X130032857Y-84700000D01*
X130175715Y-84628571D01*
X130461429Y-84628571D01*
X130604286Y-84700000D01*
X131318572Y-85628571D02*
X131318572Y-84128571D01*
X131318572Y-84700000D02*
X131461429Y-84628571D01*
X131747143Y-84628571D01*
X131890000Y-84700000D01*
X131961429Y-84771429D01*
X132032858Y-84914286D01*
X132032858Y-85342857D01*
X131961429Y-85485714D01*
X131890000Y-85557143D01*
X131747143Y-85628571D01*
X131461429Y-85628571D01*
X131318572Y-85557143D01*
X132890001Y-85628571D02*
X132747143Y-85557143D01*
X132675715Y-85485714D01*
X132604286Y-85342857D01*
X132604286Y-84914286D01*
X132675715Y-84771429D01*
X132747143Y-84700000D01*
X132890001Y-84628571D01*
X133104286Y-84628571D01*
X133247143Y-84700000D01*
X133318572Y-84771429D01*
X133390001Y-84914286D01*
X133390001Y-85342857D01*
X133318572Y-85485714D01*
X133247143Y-85557143D01*
X133104286Y-85628571D01*
X132890001Y-85628571D01*
X134675715Y-85628571D02*
X134675715Y-84842857D01*
X134604286Y-84700000D01*
X134461429Y-84628571D01*
X134175715Y-84628571D01*
X134032858Y-84700000D01*
X134675715Y-85557143D02*
X134532858Y-85628571D01*
X134175715Y-85628571D01*
X134032858Y-85557143D01*
X133961429Y-85414286D01*
X133961429Y-85271429D01*
X134032858Y-85128571D01*
X134175715Y-85057143D01*
X134532858Y-85057143D01*
X134675715Y-84985714D01*
X135390001Y-85628571D02*
X135390001Y-84628571D01*
X135390001Y-84914286D02*
X135461429Y-84771429D01*
X135532858Y-84700000D01*
X135675715Y-84628571D01*
X135818572Y-84628571D01*
X136961429Y-85628571D02*
X136961429Y-84128571D01*
X136961429Y-85557143D02*
X136818572Y-85628571D01*
X136532858Y-85628571D01*
X136390000Y-85557143D01*
X136318572Y-85485714D01*
X136247143Y-85342857D01*
X136247143Y-84914286D01*
X136318572Y-84771429D01*
X136390000Y-84700000D01*
X136532858Y-84628571D01*
X136818572Y-84628571D01*
X136961429Y-84700000D01*
X137604286Y-84128571D02*
X137604286Y-84414286D01*
X138175715Y-84128571D02*
X138175715Y-84414286D01*
X140532857Y-85557143D02*
X140390000Y-85628571D01*
X140104286Y-85628571D01*
X139961429Y-85557143D01*
X139890000Y-85414286D01*
X139890000Y-84842857D01*
X139961429Y-84700000D01*
X140104286Y-84628571D01*
X140390000Y-84628571D01*
X140532857Y-84700000D01*
X140604286Y-84842857D01*
X140604286Y-84985714D01*
X139890000Y-85128571D01*
X141890000Y-85628571D02*
X141890000Y-84128571D01*
X141890000Y-85557143D02*
X141747143Y-85628571D01*
X141461429Y-85628571D01*
X141318571Y-85557143D01*
X141247143Y-85485714D01*
X141175714Y-85342857D01*
X141175714Y-84914286D01*
X141247143Y-84771429D01*
X141318571Y-84700000D01*
X141461429Y-84628571D01*
X141747143Y-84628571D01*
X141890000Y-84700000D01*
X142604286Y-85628571D02*
X142604286Y-84628571D01*
X142604286Y-84128571D02*
X142532857Y-84200000D01*
X142604286Y-84271429D01*
X142675714Y-84200000D01*
X142604286Y-84128571D01*
X142604286Y-84271429D01*
X143104286Y-84628571D02*
X143675715Y-84628571D01*
X143318572Y-84128571D02*
X143318572Y-85414286D01*
X143390000Y-85557143D01*
X143532858Y-85628571D01*
X143675715Y-85628571D01*
X144175715Y-85628571D02*
X144175715Y-84628571D01*
X144175715Y-84128571D02*
X144104286Y-84200000D01*
X144175715Y-84271429D01*
X144247143Y-84200000D01*
X144175715Y-84128571D01*
X144175715Y-84271429D01*
X145104287Y-85628571D02*
X144961429Y-85557143D01*
X144890001Y-85485714D01*
X144818572Y-85342857D01*
X144818572Y-84914286D01*
X144890001Y-84771429D01*
X144961429Y-84700000D01*
X145104287Y-84628571D01*
X145318572Y-84628571D01*
X145461429Y-84700000D01*
X145532858Y-84771429D01*
X145604287Y-84914286D01*
X145604287Y-85342857D01*
X145532858Y-85485714D01*
X145461429Y-85557143D01*
X145318572Y-85628571D01*
X145104287Y-85628571D01*
X146247144Y-84628571D02*
X146247144Y-85628571D01*
X146247144Y-84771429D02*
X146318572Y-84700000D01*
X146461430Y-84628571D01*
X146675715Y-84628571D01*
X146818572Y-84700000D01*
X146890001Y-84842857D01*
X146890001Y-85628571D01*
X147461430Y-86200000D02*
X147532858Y-86128571D01*
X147675715Y-85914286D01*
X147747144Y-85771429D01*
X147818573Y-85557143D01*
X147890001Y-85200000D01*
X147890001Y-84914286D01*
X147818573Y-84557143D01*
X147747144Y-84342857D01*
X147675715Y-84200000D01*
X147532858Y-83985714D01*
X147461430Y-83914286D01*
X161423809Y-79736905D02*
X161423809Y-78936905D01*
X161690476Y-79508333D01*
X161957143Y-78936905D01*
X161957143Y-79736905D01*
X162452381Y-79736905D02*
X162376190Y-79698810D01*
X162338095Y-79660714D01*
X162300000Y-79584524D01*
X162300000Y-79355952D01*
X162338095Y-79279762D01*
X162376190Y-79241667D01*
X162452381Y-79203571D01*
X162566667Y-79203571D01*
X162642857Y-79241667D01*
X162680952Y-79279762D01*
X162719048Y-79355952D01*
X162719048Y-79584524D01*
X162680952Y-79660714D01*
X162642857Y-79698810D01*
X162566667Y-79736905D01*
X162452381Y-79736905D01*
X163061905Y-79203571D02*
X163061905Y-79736905D01*
X163061905Y-79279762D02*
X163100000Y-79241667D01*
X163176191Y-79203571D01*
X163290477Y-79203571D01*
X163366667Y-79241667D01*
X163404762Y-79317857D01*
X163404762Y-79736905D01*
X163900001Y-79736905D02*
X163823810Y-79698810D01*
X163785715Y-79660714D01*
X163747620Y-79584524D01*
X163747620Y-79355952D01*
X163785715Y-79279762D01*
X163823810Y-79241667D01*
X163900001Y-79203571D01*
X164014287Y-79203571D01*
X164090477Y-79241667D01*
X164128572Y-79279762D01*
X164166668Y-79355952D01*
X164166668Y-79584524D01*
X164128572Y-79660714D01*
X164090477Y-79698810D01*
X164014287Y-79736905D01*
X163900001Y-79736905D01*
X165080954Y-78898810D02*
X164395239Y-79927381D01*
X165309525Y-79698810D02*
X165423811Y-79736905D01*
X165614287Y-79736905D01*
X165690477Y-79698810D01*
X165728573Y-79660714D01*
X165766668Y-79584524D01*
X165766668Y-79508333D01*
X165728573Y-79432143D01*
X165690477Y-79394048D01*
X165614287Y-79355952D01*
X165461906Y-79317857D01*
X165385715Y-79279762D01*
X165347620Y-79241667D01*
X165309525Y-79165476D01*
X165309525Y-79089286D01*
X165347620Y-79013095D01*
X165385715Y-78975000D01*
X165461906Y-78936905D01*
X165652382Y-78936905D01*
X165766668Y-78975000D01*
X165995239Y-79203571D02*
X166300001Y-79203571D01*
X166109525Y-78936905D02*
X166109525Y-79622619D01*
X166147620Y-79698810D01*
X166223811Y-79736905D01*
X166300001Y-79736905D01*
X166871430Y-79698810D02*
X166795240Y-79736905D01*
X166642859Y-79736905D01*
X166566668Y-79698810D01*
X166528573Y-79622619D01*
X166528573Y-79317857D01*
X166566668Y-79241667D01*
X166642859Y-79203571D01*
X166795240Y-79203571D01*
X166871430Y-79241667D01*
X166909525Y-79317857D01*
X166909525Y-79394048D01*
X166528573Y-79470238D01*
X167252382Y-79736905D02*
X167252382Y-79203571D01*
X167252382Y-79355952D02*
X167290477Y-79279762D01*
X167328573Y-79241667D01*
X167404763Y-79203571D01*
X167480954Y-79203571D01*
X168052382Y-79698810D02*
X167976192Y-79736905D01*
X167823811Y-79736905D01*
X167747620Y-79698810D01*
X167709525Y-79622619D01*
X167709525Y-79317857D01*
X167747620Y-79241667D01*
X167823811Y-79203571D01*
X167976192Y-79203571D01*
X168052382Y-79241667D01*
X168090477Y-79317857D01*
X168090477Y-79394048D01*
X167709525Y-79470238D01*
X168547620Y-79736905D02*
X168471429Y-79698810D01*
X168433334Y-79660714D01*
X168395239Y-79584524D01*
X168395239Y-79355952D01*
X168433334Y-79279762D01*
X168471429Y-79241667D01*
X168547620Y-79203571D01*
X168661906Y-79203571D01*
X168738096Y-79241667D01*
X168776191Y-79279762D01*
X168814287Y-79355952D01*
X168814287Y-79584524D01*
X168776191Y-79660714D01*
X168738096Y-79698810D01*
X168661906Y-79736905D01*
X168547620Y-79736905D01*
X163052000Y-66421000D02*
X161020000Y-66421000D01*
X161020000Y-66421000D02*
X161020000Y-62865000D01*
X161020000Y-62865000D02*
X168640000Y-62865000D01*
X168640000Y-62865000D02*
X168640000Y-66421000D01*
X168640000Y-66421000D02*
X166608000Y-66421000D01*
X159750000Y-61849000D02*
X158734000Y-61849000D01*
X170926000Y-61849000D02*
X169910000Y-61849000D01*
X162290000Y-59817000D02*
X162290000Y-61341000D01*
X167370000Y-61341000D02*
X167370000Y-59817000D01*
X162290000Y-60579000D02*
X167370000Y-60579000D01*
X159750000Y-61849000D02*
X159750000Y-61595000D01*
X159750000Y-61595000D02*
X159750000Y-61341000D01*
X159750000Y-61341000D02*
X169910000Y-61341000D01*
X169910000Y-61341000D02*
X169910000Y-61849000D01*
X162290000Y-59817000D02*
X167370000Y-59817000D01*
X158734000Y-74041000D02*
X158734000Y-61849000D01*
X170926000Y-61849000D02*
X170926000Y-74041000D01*
X170926000Y-74041000D02*
X158734000Y-74041000D01*
D12*
X140959840Y-73108820D02*
G75*
G03X140959840Y-73108820I-548640J0D01*
G01*
X134462316Y-73108820D02*
G75*
G03X134462316Y-73108820I-553516J0D01*
G01*
X134462089Y-63309500D02*
G75*
G03X134462089Y-63309500I-553289J0D01*
G01*
X140962187Y-63309500D02*
G75*
G03X140962187Y-63309500I-550987J0D01*
G01*
X140959840Y-67310000D02*
G75*
G03X140959840Y-67310000I-548640J0D01*
G01*
X134462316Y-67310000D02*
G75*
G03X134462316Y-67310000I-553516J0D01*
G01*
X141460220Y-62308740D02*
X141460220Y-53309520D01*
X141460220Y-53309520D02*
X132859780Y-53309520D01*
X132859780Y-53309520D02*
X132859780Y-62308740D01*
X132359400Y-72209660D02*
X131759960Y-72209660D01*
X131759960Y-72209660D02*
X131759960Y-70408800D01*
X131759960Y-70408800D02*
X132359400Y-70408800D01*
X142560040Y-72209660D02*
X141960600Y-72209660D01*
X141960600Y-70408800D02*
X142560040Y-70408800D01*
X142560040Y-70408800D02*
X142560040Y-72209660D01*
X141960600Y-74109580D02*
X138960860Y-74109580D01*
X138960860Y-74109580D02*
X138960860Y-73309480D01*
X138960860Y-73309480D02*
X135359140Y-73309480D01*
X135359140Y-73309480D02*
X135359140Y-74109580D01*
X135359140Y-74109580D02*
X132359400Y-74109580D01*
X132359400Y-62308740D02*
X141960600Y-62308740D01*
X141960600Y-62311280D02*
X141960600Y-74112120D01*
X132359400Y-74109580D02*
X132359400Y-62308740D01*
D13*
X149315000Y-100925000D02*
X154135000Y-100925000D01*
X149315000Y-103545000D02*
X154135000Y-103545000D01*
X149315000Y-100925000D02*
X149315000Y-101239000D01*
X149315000Y-103231000D02*
X149315000Y-103545000D01*
X154135000Y-100925000D02*
X154135000Y-101239000D01*
X154135000Y-103231000D02*
X154135000Y-103545000D01*
X149315000Y-97115000D02*
X154135000Y-97115000D01*
X149315000Y-99735000D02*
X154135000Y-99735000D01*
X149315000Y-97115000D02*
X149315000Y-97429000D01*
X149315000Y-99421000D02*
X149315000Y-99735000D01*
X154135000Y-97115000D02*
X154135000Y-97429000D01*
X154135000Y-99421000D02*
X154135000Y-99735000D01*
X149315000Y-104735000D02*
X154135000Y-104735000D01*
X149315000Y-107355000D02*
X154135000Y-107355000D01*
X149315000Y-104735000D02*
X149315000Y-105049000D01*
X149315000Y-107041000D02*
X149315000Y-107355000D01*
X154135000Y-104735000D02*
X154135000Y-105049000D01*
X154135000Y-107041000D02*
X154135000Y-107355000D01*
X128360000Y-108545000D02*
X133180000Y-108545000D01*
X128360000Y-111165000D02*
X133180000Y-111165000D01*
X128360000Y-108545000D02*
X128360000Y-108859000D01*
X128360000Y-110851000D02*
X128360000Y-111165000D01*
X133180000Y-108545000D02*
X133180000Y-108859000D01*
X133180000Y-110851000D02*
X133180000Y-111165000D01*
X164620000Y-110915000D02*
X164620000Y-108795000D01*
X164620000Y-108795000D02*
X160500000Y-108795000D01*
X160500000Y-108795000D02*
X160500000Y-110915000D01*
X160500000Y-110915000D02*
X164620000Y-110915000D01*
X165390000Y-109855000D02*
X164620000Y-109855000D01*
X159730000Y-109855000D02*
X160500000Y-109855000D01*
X163960000Y-110915000D02*
X163960000Y-108795000D01*
X129565000Y-120070000D02*
X129565000Y-122730000D01*
X137245000Y-120070000D02*
X129565000Y-120070000D01*
X137245000Y-122730000D02*
X129565000Y-122730000D01*
X137245000Y-120070000D02*
X137245000Y-122730000D01*
X138515000Y-120070000D02*
X139845000Y-120070000D01*
X139845000Y-120070000D02*
X139845000Y-121400000D01*
X161165000Y-120070000D02*
X161165000Y-122730000D01*
X168845000Y-120070000D02*
X161165000Y-120070000D01*
X168845000Y-122730000D02*
X161165000Y-122730000D01*
X168845000Y-120070000D02*
X168845000Y-122730000D01*
X170115000Y-120070000D02*
X171445000Y-120070000D01*
X171445000Y-120070000D02*
X171445000Y-121400000D01*
X168700000Y-78165000D02*
X168700000Y-75505000D01*
X163560000Y-78165000D02*
X168700000Y-78165000D01*
X163560000Y-75505000D02*
X168700000Y-75505000D01*
X163560000Y-78165000D02*
X163560000Y-75505000D01*
X162290000Y-78165000D02*
X160960000Y-78165000D01*
X160960000Y-78165000D02*
X160960000Y-76835000D01*
X165920000Y-103645000D02*
X165920000Y-100825000D01*
X165920000Y-100825000D02*
X159200000Y-100825000D01*
X159200000Y-100825000D02*
X159200000Y-103645000D01*
X159200000Y-103645000D02*
X165920000Y-103645000D01*
X166660000Y-102235000D02*
X165920000Y-102235000D01*
X158460000Y-102235000D02*
X159200000Y-102235000D01*
X144330000Y-103645000D02*
X144330000Y-100825000D01*
X144330000Y-100825000D02*
X137610000Y-100825000D01*
X137610000Y-100825000D02*
X137610000Y-103645000D01*
X137610000Y-103645000D02*
X144330000Y-103645000D01*
X145070000Y-102235000D02*
X144330000Y-102235000D01*
X136870000Y-102235000D02*
X137610000Y-102235000D01*
X165770000Y-107355000D02*
X165770000Y-104735000D01*
X165770000Y-104735000D02*
X159350000Y-104735000D01*
X159350000Y-104735000D02*
X159350000Y-107355000D01*
X159350000Y-107355000D02*
X165770000Y-107355000D01*
X166660000Y-106045000D02*
X165770000Y-106045000D01*
X158460000Y-106045000D02*
X159350000Y-106045000D01*
X159350000Y-93305000D02*
X159350000Y-95925000D01*
X159350000Y-95925000D02*
X165770000Y-95925000D01*
X165770000Y-95925000D02*
X165770000Y-93305000D01*
X165770000Y-93305000D02*
X159350000Y-93305000D01*
X158460000Y-94615000D02*
X159350000Y-94615000D01*
X166660000Y-94615000D02*
X165770000Y-94615000D01*
X159350000Y-97115000D02*
X159350000Y-99735000D01*
X159350000Y-99735000D02*
X165770000Y-99735000D01*
X165770000Y-99735000D02*
X165770000Y-97115000D01*
X165770000Y-97115000D02*
X159350000Y-97115000D01*
X158460000Y-98425000D02*
X159350000Y-98425000D01*
X166660000Y-98425000D02*
X165770000Y-98425000D01*
X131480000Y-118785000D02*
X131480000Y-116165000D01*
X131480000Y-116165000D02*
X125060000Y-116165000D01*
X125060000Y-116165000D02*
X125060000Y-118785000D01*
X125060000Y-118785000D02*
X131480000Y-118785000D01*
X132370000Y-117475000D02*
X131480000Y-117475000D01*
X124170000Y-117475000D02*
X125060000Y-117475000D01*
X131480000Y-114975000D02*
X131480000Y-112355000D01*
X131480000Y-112355000D02*
X125060000Y-112355000D01*
X125060000Y-112355000D02*
X125060000Y-114975000D01*
X125060000Y-114975000D02*
X131480000Y-114975000D01*
X132370000Y-113665000D02*
X131480000Y-113665000D01*
X124170000Y-113665000D02*
X125060000Y-113665000D01*
X137760000Y-97115000D02*
X137760000Y-99735000D01*
X137760000Y-99735000D02*
X144180000Y-99735000D01*
X144180000Y-99735000D02*
X144180000Y-97115000D01*
X144180000Y-97115000D02*
X137760000Y-97115000D01*
X136870000Y-98425000D02*
X137760000Y-98425000D01*
X145070000Y-98425000D02*
X144180000Y-98425000D01*
X137760000Y-116165000D02*
X137760000Y-118785000D01*
X137760000Y-118785000D02*
X144180000Y-118785000D01*
X144180000Y-118785000D02*
X144180000Y-116165000D01*
X144180000Y-116165000D02*
X137760000Y-116165000D01*
X136870000Y-117475000D02*
X137760000Y-117475000D01*
X145070000Y-117475000D02*
X144180000Y-117475000D01*
X137760000Y-104735000D02*
X137760000Y-107355000D01*
X137760000Y-107355000D02*
X144180000Y-107355000D01*
X144180000Y-107355000D02*
X144180000Y-104735000D01*
X144180000Y-104735000D02*
X137760000Y-104735000D01*
X136870000Y-106045000D02*
X137760000Y-106045000D01*
X145070000Y-106045000D02*
X144180000Y-106045000D01*
X137760000Y-108545000D02*
X137760000Y-111165000D01*
X137760000Y-111165000D02*
X144180000Y-111165000D01*
X144180000Y-111165000D02*
X144180000Y-108545000D01*
X144180000Y-108545000D02*
X137760000Y-108545000D01*
X136870000Y-109855000D02*
X137760000Y-109855000D01*
X145070000Y-109855000D02*
X144180000Y-109855000D01*
X137760000Y-112355000D02*
X137760000Y-114975000D01*
X137760000Y-114975000D02*
X144180000Y-114975000D01*
X144180000Y-114975000D02*
X144180000Y-112355000D01*
X144180000Y-112355000D02*
X137760000Y-112355000D01*
X136870000Y-113665000D02*
X137760000Y-113665000D01*
X145070000Y-113665000D02*
X144180000Y-113665000D01*
X121340000Y-98530000D02*
X121340000Y-102130000D01*
X122067205Y-98005816D02*
G75*
G03X121340000Y-98530000I1122795J-2324184D01*
G01*
X124288807Y-97973600D02*
G75*
G02X125790000Y-100330000I-1098807J-2356400D01*
G01*
X124288807Y-102686400D02*
G75*
G03X125790000Y-100330000I-1098807J2356400D01*
G01*
X122067205Y-102654184D02*
G75*
G02X121340000Y-102130000I1122795J2324184D01*
G01*
X128325000Y-98530000D02*
X128325000Y-102130000D01*
X129052205Y-98005816D02*
G75*
G03X128325000Y-98530000I1122795J-2324184D01*
G01*
X131273807Y-97973600D02*
G75*
G02X132775000Y-100330000I-1098807J-2356400D01*
G01*
X131273807Y-102686400D02*
G75*
G03X132775000Y-100330000I-1098807J2356400D01*
G01*
X129052205Y-102654184D02*
G75*
G02X128325000Y-102130000I1122795J2324184D01*
G01*
X174879278Y-78649723D02*
G75*
G03X179490580Y-78650000I2305722J1179723D01*
G01*
X174879278Y-76290277D02*
G75*
G02X179490580Y-76290000I2305722J-1179723D01*
G01*
X174879278Y-76290277D02*
G75*
G03X174879420Y-78650000I2305722J-1179723D01*
G01*
X177185000Y-80020000D02*
X177185000Y-74920000D01*
X177145000Y-80020000D02*
X177145000Y-74920000D01*
X177105000Y-80019000D02*
X177105000Y-74921000D01*
X177065000Y-80018000D02*
X177065000Y-74922000D01*
X177025000Y-80016000D02*
X177025000Y-74924000D01*
X176985000Y-80013000D02*
X176985000Y-74927000D01*
X176945000Y-80009000D02*
X176945000Y-74931000D01*
X176905000Y-80005000D02*
X176905000Y-78450000D01*
X176905000Y-76490000D02*
X176905000Y-74935000D01*
X176865000Y-80001000D02*
X176865000Y-78450000D01*
X176865000Y-76490000D02*
X176865000Y-74939000D01*
X176825000Y-79995000D02*
X176825000Y-78450000D01*
X176825000Y-76490000D02*
X176825000Y-74945000D01*
X176785000Y-79989000D02*
X176785000Y-78450000D01*
X176785000Y-76490000D02*
X176785000Y-74951000D01*
X176745000Y-79983000D02*
X176745000Y-78450000D01*
X176745000Y-76490000D02*
X176745000Y-74957000D01*
X176705000Y-79976000D02*
X176705000Y-78450000D01*
X176705000Y-76490000D02*
X176705000Y-74964000D01*
X176665000Y-79968000D02*
X176665000Y-78450000D01*
X176665000Y-76490000D02*
X176665000Y-74972000D01*
X176625000Y-79959000D02*
X176625000Y-78450000D01*
X176625000Y-76490000D02*
X176625000Y-74981000D01*
X176585000Y-79950000D02*
X176585000Y-78450000D01*
X176585000Y-76490000D02*
X176585000Y-74990000D01*
X176545000Y-79940000D02*
X176545000Y-78450000D01*
X176545000Y-76490000D02*
X176545000Y-75000000D01*
X176505000Y-79930000D02*
X176505000Y-78450000D01*
X176505000Y-76490000D02*
X176505000Y-75010000D01*
X176464000Y-79918000D02*
X176464000Y-78450000D01*
X176464000Y-76490000D02*
X176464000Y-75022000D01*
X176424000Y-79906000D02*
X176424000Y-78450000D01*
X176424000Y-76490000D02*
X176424000Y-75034000D01*
X176384000Y-79894000D02*
X176384000Y-78450000D01*
X176384000Y-76490000D02*
X176384000Y-75046000D01*
X176344000Y-79880000D02*
X176344000Y-78450000D01*
X176344000Y-76490000D02*
X176344000Y-75060000D01*
X176304000Y-79866000D02*
X176304000Y-78450000D01*
X176304000Y-76490000D02*
X176304000Y-75074000D01*
X176264000Y-79852000D02*
X176264000Y-78450000D01*
X176264000Y-76490000D02*
X176264000Y-75088000D01*
X176224000Y-79836000D02*
X176224000Y-78450000D01*
X176224000Y-76490000D02*
X176224000Y-75104000D01*
X176184000Y-79820000D02*
X176184000Y-78450000D01*
X176184000Y-76490000D02*
X176184000Y-75120000D01*
X176144000Y-79803000D02*
X176144000Y-78450000D01*
X176144000Y-76490000D02*
X176144000Y-75137000D01*
X176104000Y-79785000D02*
X176104000Y-78450000D01*
X176104000Y-76490000D02*
X176104000Y-75155000D01*
X176064000Y-79766000D02*
X176064000Y-78450000D01*
X176064000Y-76490000D02*
X176064000Y-75174000D01*
X176024000Y-79746000D02*
X176024000Y-78450000D01*
X176024000Y-76490000D02*
X176024000Y-75194000D01*
X175984000Y-79726000D02*
X175984000Y-78450000D01*
X175984000Y-76490000D02*
X175984000Y-75214000D01*
X175944000Y-79704000D02*
X175944000Y-78450000D01*
X175944000Y-76490000D02*
X175944000Y-75236000D01*
X175904000Y-79682000D02*
X175904000Y-78450000D01*
X175904000Y-76490000D02*
X175904000Y-75258000D01*
X175864000Y-79659000D02*
X175864000Y-78450000D01*
X175864000Y-76490000D02*
X175864000Y-75281000D01*
X175824000Y-79635000D02*
X175824000Y-78450000D01*
X175824000Y-76490000D02*
X175824000Y-75305000D01*
X175784000Y-79610000D02*
X175784000Y-78450000D01*
X175784000Y-76490000D02*
X175784000Y-75330000D01*
X175744000Y-79583000D02*
X175744000Y-78450000D01*
X175744000Y-76490000D02*
X175744000Y-75357000D01*
X175704000Y-79556000D02*
X175704000Y-78450000D01*
X175704000Y-76490000D02*
X175704000Y-75384000D01*
X175664000Y-79528000D02*
X175664000Y-78450000D01*
X175664000Y-76490000D02*
X175664000Y-75412000D01*
X175624000Y-79498000D02*
X175624000Y-78450000D01*
X175624000Y-76490000D02*
X175624000Y-75442000D01*
X175584000Y-79467000D02*
X175584000Y-78450000D01*
X175584000Y-76490000D02*
X175584000Y-75473000D01*
X175544000Y-79435000D02*
X175544000Y-78450000D01*
X175544000Y-76490000D02*
X175544000Y-75505000D01*
X175504000Y-79402000D02*
X175504000Y-78450000D01*
X175504000Y-76490000D02*
X175504000Y-75538000D01*
X175464000Y-79367000D02*
X175464000Y-78450000D01*
X175464000Y-76490000D02*
X175464000Y-75573000D01*
X175424000Y-79331000D02*
X175424000Y-78450000D01*
X175424000Y-76490000D02*
X175424000Y-75609000D01*
X175384000Y-79293000D02*
X175384000Y-78450000D01*
X175384000Y-76490000D02*
X175384000Y-75647000D01*
X175344000Y-79253000D02*
X175344000Y-78450000D01*
X175344000Y-76490000D02*
X175344000Y-75687000D01*
X175304000Y-79212000D02*
X175304000Y-78450000D01*
X175304000Y-76490000D02*
X175304000Y-75728000D01*
X175264000Y-79169000D02*
X175264000Y-78450000D01*
X175264000Y-76490000D02*
X175264000Y-75771000D01*
X175224000Y-79124000D02*
X175224000Y-78450000D01*
X175224000Y-76490000D02*
X175224000Y-75816000D01*
X175184000Y-79076000D02*
X175184000Y-78450000D01*
X175184000Y-76490000D02*
X175184000Y-75864000D01*
X175144000Y-79026000D02*
X175144000Y-78450000D01*
X175144000Y-76490000D02*
X175144000Y-75914000D01*
X175104000Y-78974000D02*
X175104000Y-78450000D01*
X175104000Y-76490000D02*
X175104000Y-75966000D01*
X175064000Y-78918000D02*
X175064000Y-78450000D01*
X175064000Y-76490000D02*
X175064000Y-76022000D01*
X175024000Y-78860000D02*
X175024000Y-78450000D01*
X175024000Y-76490000D02*
X175024000Y-76080000D01*
X174984000Y-78797000D02*
X174984000Y-78450000D01*
X174984000Y-76490000D02*
X174984000Y-76143000D01*
X174944000Y-78731000D02*
X174944000Y-76209000D01*
X174904000Y-78659000D02*
X174904000Y-76281000D01*
X174864000Y-78582000D02*
X174864000Y-76358000D01*
X174824000Y-78498000D02*
X174824000Y-76442000D01*
X174784000Y-78404000D02*
X174784000Y-76536000D01*
X174744000Y-78299000D02*
X174744000Y-76641000D01*
X174704000Y-78177000D02*
X174704000Y-76763000D01*
X174664000Y-78029000D02*
X174664000Y-76911000D01*
X174624000Y-77824000D02*
X174624000Y-77116000D01*
X180635000Y-77470000D02*
X179435000Y-77470000D01*
X180035000Y-78120000D02*
X180035000Y-76820000D01*
X178395000Y-72935000D02*
X178395000Y-68115000D01*
X181015000Y-72935000D02*
X181015000Y-68115000D01*
X178395000Y-72935000D02*
X178709000Y-72935000D01*
X180701000Y-72935000D02*
X181015000Y-72935000D01*
X178395000Y-68115000D02*
X178709000Y-68115000D01*
X180701000Y-68115000D02*
X181015000Y-68115000D01*
X152340000Y-117535000D02*
X155000000Y-117535000D01*
X152340000Y-114935000D02*
X152340000Y-117535000D01*
X155000000Y-114935000D02*
X155000000Y-117535000D01*
X152340000Y-114935000D02*
X155000000Y-114935000D01*
X152340000Y-113665000D02*
X152340000Y-112335000D01*
X152340000Y-112335000D02*
X153670000Y-112335000D01*
X148530000Y-117535000D02*
X151190000Y-117535000D01*
X148530000Y-114935000D02*
X148530000Y-117535000D01*
X151190000Y-114935000D02*
X151190000Y-117535000D01*
X148530000Y-114935000D02*
X151190000Y-114935000D01*
X148530000Y-113665000D02*
X148530000Y-112335000D01*
X148530000Y-112335000D02*
X149860000Y-112335000D01*
X174745000Y-91480000D02*
X174745000Y-81240000D01*
X158855000Y-91480000D02*
X158855000Y-81240000D01*
X158855000Y-91480000D02*
X174745000Y-91480000D01*
X158855000Y-81240000D02*
X174745000Y-81240000D01*
X174745000Y-88900000D02*
X177385000Y-88900000D01*
X174745000Y-86360000D02*
X177369000Y-86360000D01*
X174745000Y-83820000D02*
X177369000Y-83820000D01*
X155785000Y-88420000D02*
X157905000Y-88420000D01*
X157905000Y-88420000D02*
X157905000Y-84300000D01*
X157905000Y-84300000D02*
X155785000Y-84300000D01*
X155785000Y-84300000D02*
X155785000Y-88420000D01*
X156845000Y-89190000D02*
X156845000Y-88420000D01*
X156845000Y-83530000D02*
X156845000Y-84300000D01*
X155785000Y-87760000D02*
X157905000Y-87760000D01*
X174879278Y-96429723D02*
G75*
G03X179490580Y-96430000I2305722J1179723D01*
G01*
X174879278Y-94070277D02*
G75*
G02X179490580Y-94070000I2305722J-1179723D01*
G01*
X174879278Y-94070277D02*
G75*
G03X174879420Y-96430000I2305722J-1179723D01*
G01*
X177185000Y-97800000D02*
X177185000Y-92700000D01*
X177145000Y-97800000D02*
X177145000Y-92700000D01*
X177105000Y-97799000D02*
X177105000Y-92701000D01*
X177065000Y-97798000D02*
X177065000Y-92702000D01*
X177025000Y-97796000D02*
X177025000Y-92704000D01*
X176985000Y-97793000D02*
X176985000Y-92707000D01*
X176945000Y-97789000D02*
X176945000Y-92711000D01*
X176905000Y-97785000D02*
X176905000Y-96230000D01*
X176905000Y-94270000D02*
X176905000Y-92715000D01*
X176865000Y-97781000D02*
X176865000Y-96230000D01*
X176865000Y-94270000D02*
X176865000Y-92719000D01*
X176825000Y-97775000D02*
X176825000Y-96230000D01*
X176825000Y-94270000D02*
X176825000Y-92725000D01*
X176785000Y-97769000D02*
X176785000Y-96230000D01*
X176785000Y-94270000D02*
X176785000Y-92731000D01*
X176745000Y-97763000D02*
X176745000Y-96230000D01*
X176745000Y-94270000D02*
X176745000Y-92737000D01*
X176705000Y-97756000D02*
X176705000Y-96230000D01*
X176705000Y-94270000D02*
X176705000Y-92744000D01*
X176665000Y-97748000D02*
X176665000Y-96230000D01*
X176665000Y-94270000D02*
X176665000Y-92752000D01*
X176625000Y-97739000D02*
X176625000Y-96230000D01*
X176625000Y-94270000D02*
X176625000Y-92761000D01*
X176585000Y-97730000D02*
X176585000Y-96230000D01*
X176585000Y-94270000D02*
X176585000Y-92770000D01*
X176545000Y-97720000D02*
X176545000Y-96230000D01*
X176545000Y-94270000D02*
X176545000Y-92780000D01*
X176505000Y-97710000D02*
X176505000Y-96230000D01*
X176505000Y-94270000D02*
X176505000Y-92790000D01*
X176464000Y-97698000D02*
X176464000Y-96230000D01*
X176464000Y-94270000D02*
X176464000Y-92802000D01*
X176424000Y-97686000D02*
X176424000Y-96230000D01*
X176424000Y-94270000D02*
X176424000Y-92814000D01*
X176384000Y-97674000D02*
X176384000Y-96230000D01*
X176384000Y-94270000D02*
X176384000Y-92826000D01*
X176344000Y-97660000D02*
X176344000Y-96230000D01*
X176344000Y-94270000D02*
X176344000Y-92840000D01*
X176304000Y-97646000D02*
X176304000Y-96230000D01*
X176304000Y-94270000D02*
X176304000Y-92854000D01*
X176264000Y-97632000D02*
X176264000Y-96230000D01*
X176264000Y-94270000D02*
X176264000Y-92868000D01*
X176224000Y-97616000D02*
X176224000Y-96230000D01*
X176224000Y-94270000D02*
X176224000Y-92884000D01*
X176184000Y-97600000D02*
X176184000Y-96230000D01*
X176184000Y-94270000D02*
X176184000Y-92900000D01*
X176144000Y-97583000D02*
X176144000Y-96230000D01*
X176144000Y-94270000D02*
X176144000Y-92917000D01*
X176104000Y-97565000D02*
X176104000Y-96230000D01*
X176104000Y-94270000D02*
X176104000Y-92935000D01*
X176064000Y-97546000D02*
X176064000Y-96230000D01*
X176064000Y-94270000D02*
X176064000Y-92954000D01*
X176024000Y-97526000D02*
X176024000Y-96230000D01*
X176024000Y-94270000D02*
X176024000Y-92974000D01*
X175984000Y-97506000D02*
X175984000Y-96230000D01*
X175984000Y-94270000D02*
X175984000Y-92994000D01*
X175944000Y-97484000D02*
X175944000Y-96230000D01*
X175944000Y-94270000D02*
X175944000Y-93016000D01*
X175904000Y-97462000D02*
X175904000Y-96230000D01*
X175904000Y-94270000D02*
X175904000Y-93038000D01*
X175864000Y-97439000D02*
X175864000Y-96230000D01*
X175864000Y-94270000D02*
X175864000Y-93061000D01*
X175824000Y-97415000D02*
X175824000Y-96230000D01*
X175824000Y-94270000D02*
X175824000Y-93085000D01*
X175784000Y-97390000D02*
X175784000Y-96230000D01*
X175784000Y-94270000D02*
X175784000Y-93110000D01*
X175744000Y-97363000D02*
X175744000Y-96230000D01*
X175744000Y-94270000D02*
X175744000Y-93137000D01*
X175704000Y-97336000D02*
X175704000Y-96230000D01*
X175704000Y-94270000D02*
X175704000Y-93164000D01*
X175664000Y-97308000D02*
X175664000Y-96230000D01*
X175664000Y-94270000D02*
X175664000Y-93192000D01*
X175624000Y-97278000D02*
X175624000Y-96230000D01*
X175624000Y-94270000D02*
X175624000Y-93222000D01*
X175584000Y-97247000D02*
X175584000Y-96230000D01*
X175584000Y-94270000D02*
X175584000Y-93253000D01*
X175544000Y-97215000D02*
X175544000Y-96230000D01*
X175544000Y-94270000D02*
X175544000Y-93285000D01*
X175504000Y-97182000D02*
X175504000Y-96230000D01*
X175504000Y-94270000D02*
X175504000Y-93318000D01*
X175464000Y-97147000D02*
X175464000Y-96230000D01*
X175464000Y-94270000D02*
X175464000Y-93353000D01*
X175424000Y-97111000D02*
X175424000Y-96230000D01*
X175424000Y-94270000D02*
X175424000Y-93389000D01*
X175384000Y-97073000D02*
X175384000Y-96230000D01*
X175384000Y-94270000D02*
X175384000Y-93427000D01*
X175344000Y-97033000D02*
X175344000Y-96230000D01*
X175344000Y-94270000D02*
X175344000Y-93467000D01*
X175304000Y-96992000D02*
X175304000Y-96230000D01*
X175304000Y-94270000D02*
X175304000Y-93508000D01*
X175264000Y-96949000D02*
X175264000Y-96230000D01*
X175264000Y-94270000D02*
X175264000Y-93551000D01*
X175224000Y-96904000D02*
X175224000Y-96230000D01*
X175224000Y-94270000D02*
X175224000Y-93596000D01*
X175184000Y-96856000D02*
X175184000Y-96230000D01*
X175184000Y-94270000D02*
X175184000Y-93644000D01*
X175144000Y-96806000D02*
X175144000Y-96230000D01*
X175144000Y-94270000D02*
X175144000Y-93694000D01*
X175104000Y-96754000D02*
X175104000Y-96230000D01*
X175104000Y-94270000D02*
X175104000Y-93746000D01*
X175064000Y-96698000D02*
X175064000Y-96230000D01*
X175064000Y-94270000D02*
X175064000Y-93802000D01*
X175024000Y-96640000D02*
X175024000Y-96230000D01*
X175024000Y-94270000D02*
X175024000Y-93860000D01*
X174984000Y-96577000D02*
X174984000Y-96230000D01*
X174984000Y-94270000D02*
X174984000Y-93923000D01*
X174944000Y-96511000D02*
X174944000Y-93989000D01*
X174904000Y-96439000D02*
X174904000Y-94061000D01*
X174864000Y-96362000D02*
X174864000Y-94138000D01*
X174824000Y-96278000D02*
X174824000Y-94222000D01*
X174784000Y-96184000D02*
X174784000Y-94316000D01*
X174744000Y-96079000D02*
X174744000Y-94421000D01*
X174704000Y-95957000D02*
X174704000Y-94543000D01*
X174664000Y-95809000D02*
X174664000Y-94691000D01*
X174624000Y-95604000D02*
X174624000Y-94896000D01*
X180635000Y-95250000D02*
X179435000Y-95250000D01*
X180035000Y-95900000D02*
X180035000Y-94600000D01*
X157540000Y-78165000D02*
X157540000Y-75505000D01*
X154940000Y-78165000D02*
X157540000Y-78165000D01*
X154940000Y-75505000D02*
X157540000Y-75505000D01*
X154940000Y-78165000D02*
X154940000Y-75505000D01*
X153670000Y-78165000D02*
X152340000Y-78165000D01*
X152340000Y-78165000D02*
X152340000Y-76835000D01*
D10*
X162330000Y-58726429D02*
X162672857Y-58726429D01*
X162501428Y-59326429D02*
X162501428Y-58726429D01*
X163215714Y-59326429D02*
X163015714Y-59040714D01*
X162872857Y-59326429D02*
X162872857Y-58726429D01*
X163101429Y-58726429D01*
X163158571Y-58755000D01*
X163187143Y-58783571D01*
X163215714Y-58840714D01*
X163215714Y-58926429D01*
X163187143Y-58983571D01*
X163158571Y-59012143D01*
X163101429Y-59040714D01*
X162872857Y-59040714D01*
X163444286Y-59297857D02*
X163530000Y-59326429D01*
X163672857Y-59326429D01*
X163730000Y-59297857D01*
X163758571Y-59269286D01*
X163787143Y-59212143D01*
X163787143Y-59155000D01*
X163758571Y-59097857D01*
X163730000Y-59069286D01*
X163672857Y-59040714D01*
X163558571Y-59012143D01*
X163501429Y-58983571D01*
X163472857Y-58955000D01*
X163444286Y-58897857D01*
X163444286Y-58840714D01*
X163472857Y-58783571D01*
X163501429Y-58755000D01*
X163558571Y-58726429D01*
X163701429Y-58726429D01*
X163787143Y-58755000D01*
X163901429Y-59383571D02*
X164358572Y-59383571D01*
X164444286Y-58726429D02*
X164815715Y-58726429D01*
X164615715Y-58955000D01*
X164701429Y-58955000D01*
X164758572Y-58983571D01*
X164787143Y-59012143D01*
X164815715Y-59069286D01*
X164815715Y-59212143D01*
X164787143Y-59269286D01*
X164758572Y-59297857D01*
X164701429Y-59326429D01*
X164530001Y-59326429D01*
X164472858Y-59297857D01*
X164444286Y-59269286D01*
X165072858Y-59269286D02*
X165101430Y-59297857D01*
X165072858Y-59326429D01*
X165044287Y-59297857D01*
X165072858Y-59269286D01*
X165072858Y-59326429D01*
X165644286Y-58726429D02*
X165358572Y-58726429D01*
X165330001Y-59012143D01*
X165358572Y-58983571D01*
X165415715Y-58955000D01*
X165558572Y-58955000D01*
X165615715Y-58983571D01*
X165644286Y-59012143D01*
X165672858Y-59069286D01*
X165672858Y-59212143D01*
X165644286Y-59269286D01*
X165615715Y-59297857D01*
X165558572Y-59326429D01*
X165415715Y-59326429D01*
X165358572Y-59297857D01*
X165330001Y-59269286D01*
X165930001Y-59326429D02*
X165930001Y-58926429D01*
X165930001Y-58983571D02*
X165958573Y-58955000D01*
X166015715Y-58926429D01*
X166101430Y-58926429D01*
X166158573Y-58955000D01*
X166187144Y-59012143D01*
X166187144Y-59326429D01*
X166187144Y-59012143D02*
X166215715Y-58955000D01*
X166272858Y-58926429D01*
X166358573Y-58926429D01*
X166415715Y-58955000D01*
X166444287Y-59012143D01*
X166444287Y-59326429D01*
X166730001Y-59326429D02*
X166730001Y-58926429D01*
X166730001Y-58983571D02*
X166758573Y-58955000D01*
X166815715Y-58926429D01*
X166901430Y-58926429D01*
X166958573Y-58955000D01*
X166987144Y-59012143D01*
X166987144Y-59326429D01*
X166987144Y-59012143D02*
X167015715Y-58955000D01*
X167072858Y-58926429D01*
X167158573Y-58926429D01*
X167215715Y-58955000D01*
X167244287Y-59012143D01*
X167244287Y-59326429D01*
D14*
X136652000Y-50676629D02*
X136652000Y-51765200D01*
X136579428Y-51982914D01*
X136434285Y-52128057D01*
X136216571Y-52200629D01*
X136071428Y-52200629D01*
X138030857Y-50676629D02*
X137740571Y-50676629D01*
X137595428Y-50749200D01*
X137522857Y-50821771D01*
X137377714Y-51039486D01*
X137305143Y-51329771D01*
X137305143Y-51910343D01*
X137377714Y-52055486D01*
X137450286Y-52128057D01*
X137595428Y-52200629D01*
X137885714Y-52200629D01*
X138030857Y-52128057D01*
X138103428Y-52055486D01*
X138176000Y-51910343D01*
X138176000Y-51547486D01*
X138103428Y-51402343D01*
X138030857Y-51329771D01*
X137885714Y-51257200D01*
X137595428Y-51257200D01*
X137450286Y-51329771D01*
X137377714Y-51402343D01*
X137305143Y-51547486D01*
D11*
X151598334Y-102592143D02*
X151550715Y-102639762D01*
X151407858Y-102687381D01*
X151312620Y-102687381D01*
X151169762Y-102639762D01*
X151074524Y-102544524D01*
X151026905Y-102449286D01*
X150979286Y-102258810D01*
X150979286Y-102115952D01*
X151026905Y-101925476D01*
X151074524Y-101830238D01*
X151169762Y-101735000D01*
X151312620Y-101687381D01*
X151407858Y-101687381D01*
X151550715Y-101735000D01*
X151598334Y-101782619D01*
X152550715Y-102687381D02*
X151979286Y-102687381D01*
X152265000Y-102687381D02*
X152265000Y-101687381D01*
X152169762Y-101830238D01*
X152074524Y-101925476D01*
X151979286Y-101973095D01*
X151598334Y-98782143D02*
X151550715Y-98829762D01*
X151407858Y-98877381D01*
X151312620Y-98877381D01*
X151169762Y-98829762D01*
X151074524Y-98734524D01*
X151026905Y-98639286D01*
X150979286Y-98448810D01*
X150979286Y-98305952D01*
X151026905Y-98115476D01*
X151074524Y-98020238D01*
X151169762Y-97925000D01*
X151312620Y-97877381D01*
X151407858Y-97877381D01*
X151550715Y-97925000D01*
X151598334Y-97972619D01*
X151979286Y-97972619D02*
X152026905Y-97925000D01*
X152122143Y-97877381D01*
X152360239Y-97877381D01*
X152455477Y-97925000D01*
X152503096Y-97972619D01*
X152550715Y-98067857D01*
X152550715Y-98163095D01*
X152503096Y-98305952D01*
X151931667Y-98877381D01*
X152550715Y-98877381D01*
X151598334Y-106402143D02*
X151550715Y-106449762D01*
X151407858Y-106497381D01*
X151312620Y-106497381D01*
X151169762Y-106449762D01*
X151074524Y-106354524D01*
X151026905Y-106259286D01*
X150979286Y-106068810D01*
X150979286Y-105925952D01*
X151026905Y-105735476D01*
X151074524Y-105640238D01*
X151169762Y-105545000D01*
X151312620Y-105497381D01*
X151407858Y-105497381D01*
X151550715Y-105545000D01*
X151598334Y-105592619D01*
X151931667Y-105497381D02*
X152550715Y-105497381D01*
X152217381Y-105878333D01*
X152360239Y-105878333D01*
X152455477Y-105925952D01*
X152503096Y-105973571D01*
X152550715Y-106068810D01*
X152550715Y-106306905D01*
X152503096Y-106402143D01*
X152455477Y-106449762D01*
X152360239Y-106497381D01*
X152074524Y-106497381D01*
X151979286Y-106449762D01*
X151931667Y-106402143D01*
X130643334Y-110212143D02*
X130595715Y-110259762D01*
X130452858Y-110307381D01*
X130357620Y-110307381D01*
X130214762Y-110259762D01*
X130119524Y-110164524D01*
X130071905Y-110069286D01*
X130024286Y-109878810D01*
X130024286Y-109735952D01*
X130071905Y-109545476D01*
X130119524Y-109450238D01*
X130214762Y-109355000D01*
X130357620Y-109307381D01*
X130452858Y-109307381D01*
X130595715Y-109355000D01*
X130643334Y-109402619D01*
X131500477Y-109307381D02*
X131310000Y-109307381D01*
X131214762Y-109355000D01*
X131167143Y-109402619D01*
X131071905Y-109545476D01*
X131024286Y-109735952D01*
X131024286Y-110116905D01*
X131071905Y-110212143D01*
X131119524Y-110259762D01*
X131214762Y-110307381D01*
X131405239Y-110307381D01*
X131500477Y-110259762D01*
X131548096Y-110212143D01*
X131595715Y-110116905D01*
X131595715Y-109878810D01*
X131548096Y-109783571D01*
X131500477Y-109735952D01*
X131405239Y-109688333D01*
X131214762Y-109688333D01*
X131119524Y-109735952D01*
X131071905Y-109783571D01*
X131024286Y-109878810D01*
X161821905Y-110307381D02*
X161821905Y-109307381D01*
X162060000Y-109307381D01*
X162202858Y-109355000D01*
X162298096Y-109450238D01*
X162345715Y-109545476D01*
X162393334Y-109735952D01*
X162393334Y-109878810D01*
X162345715Y-110069286D01*
X162298096Y-110164524D01*
X162202858Y-110259762D01*
X162060000Y-110307381D01*
X161821905Y-110307381D01*
X162774286Y-109402619D02*
X162821905Y-109355000D01*
X162917143Y-109307381D01*
X163155239Y-109307381D01*
X163250477Y-109355000D01*
X163298096Y-109402619D01*
X163345715Y-109497857D01*
X163345715Y-109593095D01*
X163298096Y-109735952D01*
X162726667Y-110307381D01*
X163345715Y-110307381D01*
X161107381Y-102401666D02*
X161107381Y-102877857D01*
X160107381Y-102877857D01*
X161107381Y-101544523D02*
X161107381Y-102115952D01*
X161107381Y-101830238D02*
X160107381Y-101830238D01*
X160250238Y-101925476D01*
X160345476Y-102020714D01*
X160393095Y-102115952D01*
X162091905Y-101782619D02*
X162139524Y-101735000D01*
X162234762Y-101687381D01*
X162472858Y-101687381D01*
X162568096Y-101735000D01*
X162615715Y-101782619D01*
X162663334Y-101877857D01*
X162663334Y-101973095D01*
X162615715Y-102115952D01*
X162044286Y-102687381D01*
X162663334Y-102687381D01*
X163044286Y-101782619D02*
X163091905Y-101735000D01*
X163187143Y-101687381D01*
X163425239Y-101687381D01*
X163520477Y-101735000D01*
X163568096Y-101782619D01*
X163615715Y-101877857D01*
X163615715Y-101973095D01*
X163568096Y-102115952D01*
X162996667Y-102687381D01*
X163615715Y-102687381D01*
X164472858Y-102020714D02*
X164472858Y-102687381D01*
X164044286Y-102020714D02*
X164044286Y-102544524D01*
X164091905Y-102639762D01*
X164187143Y-102687381D01*
X164330001Y-102687381D01*
X164425239Y-102639762D01*
X164472858Y-102592143D01*
X164949048Y-102687381D02*
X164949048Y-101687381D01*
X164949048Y-102163571D02*
X165520477Y-102163571D01*
X165520477Y-102687381D02*
X165520477Y-101687381D01*
X139517381Y-102401666D02*
X139517381Y-102877857D01*
X138517381Y-102877857D01*
X138612619Y-102115952D02*
X138565000Y-102068333D01*
X138517381Y-101973095D01*
X138517381Y-101734999D01*
X138565000Y-101639761D01*
X138612619Y-101592142D01*
X138707857Y-101544523D01*
X138803095Y-101544523D01*
X138945952Y-101592142D01*
X139517381Y-102163571D01*
X139517381Y-101544523D01*
X141073334Y-102687381D02*
X140501905Y-102687381D01*
X140787619Y-102687381D02*
X140787619Y-101687381D01*
X140692381Y-101830238D01*
X140597143Y-101925476D01*
X140501905Y-101973095D01*
X141692381Y-101687381D02*
X141787620Y-101687381D01*
X141882858Y-101735000D01*
X141930477Y-101782619D01*
X141978096Y-101877857D01*
X142025715Y-102068333D01*
X142025715Y-102306429D01*
X141978096Y-102496905D01*
X141930477Y-102592143D01*
X141882858Y-102639762D01*
X141787620Y-102687381D01*
X141692381Y-102687381D01*
X141597143Y-102639762D01*
X141549524Y-102592143D01*
X141501905Y-102496905D01*
X141454286Y-102306429D01*
X141454286Y-102068333D01*
X141501905Y-101877857D01*
X141549524Y-101782619D01*
X141597143Y-101735000D01*
X141692381Y-101687381D01*
X142882858Y-102020714D02*
X142882858Y-102687381D01*
X142454286Y-102020714D02*
X142454286Y-102544524D01*
X142501905Y-102639762D01*
X142597143Y-102687381D01*
X142740001Y-102687381D01*
X142835239Y-102639762D01*
X142882858Y-102592143D01*
X143359048Y-102687381D02*
X143359048Y-101687381D01*
X143359048Y-102163571D02*
X143930477Y-102163571D01*
X143930477Y-102687381D02*
X143930477Y-101687381D01*
X161107381Y-106211666D02*
X160631190Y-106545000D01*
X161107381Y-106783095D02*
X160107381Y-106783095D01*
X160107381Y-106402142D01*
X160155000Y-106306904D01*
X160202619Y-106259285D01*
X160297857Y-106211666D01*
X160440714Y-106211666D01*
X160535952Y-106259285D01*
X160583571Y-106306904D01*
X160631190Y-106402142D01*
X160631190Y-106783095D01*
X161107381Y-105259285D02*
X161107381Y-105830714D01*
X161107381Y-105545000D02*
X160107381Y-105545000D01*
X160250238Y-105640238D01*
X160345476Y-105735476D01*
X160393095Y-105830714D01*
X163710953Y-106497381D02*
X163139524Y-106497381D01*
X163425238Y-106497381D02*
X163425238Y-105497381D01*
X163330000Y-105640238D01*
X163234762Y-105735476D01*
X163139524Y-105783095D01*
X164139524Y-106497381D02*
X164139524Y-105497381D01*
X164234762Y-106116429D02*
X164520477Y-106497381D01*
X164520477Y-105830714D02*
X164139524Y-106211667D01*
X161107381Y-94781666D02*
X160631190Y-95115000D01*
X161107381Y-95353095D02*
X160107381Y-95353095D01*
X160107381Y-94972142D01*
X160155000Y-94876904D01*
X160202619Y-94829285D01*
X160297857Y-94781666D01*
X160440714Y-94781666D01*
X160535952Y-94829285D01*
X160583571Y-94876904D01*
X160631190Y-94972142D01*
X160631190Y-95353095D01*
X160202619Y-94400714D02*
X160155000Y-94353095D01*
X160107381Y-94257857D01*
X160107381Y-94019761D01*
X160155000Y-93924523D01*
X160202619Y-93876904D01*
X160297857Y-93829285D01*
X160393095Y-93829285D01*
X160535952Y-93876904D01*
X161107381Y-94448333D01*
X161107381Y-93829285D01*
X162615714Y-94067381D02*
X163234762Y-94067381D01*
X162901428Y-94448333D01*
X163044286Y-94448333D01*
X163139524Y-94495952D01*
X163187143Y-94543571D01*
X163234762Y-94638810D01*
X163234762Y-94876905D01*
X163187143Y-94972143D01*
X163139524Y-95019762D01*
X163044286Y-95067381D01*
X162758571Y-95067381D01*
X162663333Y-95019762D01*
X162615714Y-94972143D01*
X163663333Y-95067381D02*
X163663333Y-94067381D01*
X163758571Y-94686429D02*
X164044286Y-95067381D01*
X164044286Y-94400714D02*
X163663333Y-94781667D01*
X164377619Y-94067381D02*
X164996667Y-94067381D01*
X164663333Y-94448333D01*
X164806191Y-94448333D01*
X164901429Y-94495952D01*
X164949048Y-94543571D01*
X164996667Y-94638810D01*
X164996667Y-94876905D01*
X164949048Y-94972143D01*
X164901429Y-95019762D01*
X164806191Y-95067381D01*
X164520476Y-95067381D01*
X164425238Y-95019762D01*
X164377619Y-94972143D01*
X161107381Y-98591666D02*
X160631190Y-98925000D01*
X161107381Y-99163095D02*
X160107381Y-99163095D01*
X160107381Y-98782142D01*
X160155000Y-98686904D01*
X160202619Y-98639285D01*
X160297857Y-98591666D01*
X160440714Y-98591666D01*
X160535952Y-98639285D01*
X160583571Y-98686904D01*
X160631190Y-98782142D01*
X160631190Y-99163095D01*
X160107381Y-98258333D02*
X160107381Y-97639285D01*
X160488333Y-97972619D01*
X160488333Y-97829761D01*
X160535952Y-97734523D01*
X160583571Y-97686904D01*
X160678810Y-97639285D01*
X160916905Y-97639285D01*
X161012143Y-97686904D01*
X161059762Y-97734523D01*
X161107381Y-97829761D01*
X161107381Y-98115476D01*
X161059762Y-98210714D01*
X161012143Y-98258333D01*
X163187143Y-97877381D02*
X162710952Y-97877381D01*
X162663333Y-98353571D01*
X162710952Y-98305952D01*
X162806190Y-98258333D01*
X163044286Y-98258333D01*
X163139524Y-98305952D01*
X163187143Y-98353571D01*
X163234762Y-98448810D01*
X163234762Y-98686905D01*
X163187143Y-98782143D01*
X163139524Y-98829762D01*
X163044286Y-98877381D01*
X162806190Y-98877381D01*
X162710952Y-98829762D01*
X162663333Y-98782143D01*
X163663333Y-98877381D02*
X163663333Y-97877381D01*
X163758571Y-98496429D02*
X164044286Y-98877381D01*
X164044286Y-98210714D02*
X163663333Y-98591667D01*
X164901429Y-97877381D02*
X164710952Y-97877381D01*
X164615714Y-97925000D01*
X164568095Y-97972619D01*
X164472857Y-98115476D01*
X164425238Y-98305952D01*
X164425238Y-98686905D01*
X164472857Y-98782143D01*
X164520476Y-98829762D01*
X164615714Y-98877381D01*
X164806191Y-98877381D01*
X164901429Y-98829762D01*
X164949048Y-98782143D01*
X164996667Y-98686905D01*
X164996667Y-98448810D01*
X164949048Y-98353571D01*
X164901429Y-98305952D01*
X164806191Y-98258333D01*
X164615714Y-98258333D01*
X164520476Y-98305952D01*
X164472857Y-98353571D01*
X164425238Y-98448810D01*
X126817381Y-117641666D02*
X126341190Y-117975000D01*
X126817381Y-118213095D02*
X125817381Y-118213095D01*
X125817381Y-117832142D01*
X125865000Y-117736904D01*
X125912619Y-117689285D01*
X126007857Y-117641666D01*
X126150714Y-117641666D01*
X126245952Y-117689285D01*
X126293571Y-117736904D01*
X126341190Y-117832142D01*
X126341190Y-118213095D01*
X126150714Y-116784523D02*
X126817381Y-116784523D01*
X125769762Y-117022619D02*
X126484048Y-117260714D01*
X126484048Y-116641666D01*
X129254286Y-116927381D02*
X129063809Y-116927381D01*
X128968571Y-116975000D01*
X128920952Y-117022619D01*
X128825714Y-117165476D01*
X128778095Y-117355952D01*
X128778095Y-117736905D01*
X128825714Y-117832143D01*
X128873333Y-117879762D01*
X128968571Y-117927381D01*
X129159048Y-117927381D01*
X129254286Y-117879762D01*
X129301905Y-117832143D01*
X129349524Y-117736905D01*
X129349524Y-117498810D01*
X129301905Y-117403571D01*
X129254286Y-117355952D01*
X129159048Y-117308333D01*
X128968571Y-117308333D01*
X128873333Y-117355952D01*
X128825714Y-117403571D01*
X128778095Y-117498810D01*
X129920952Y-117355952D02*
X129825714Y-117308333D01*
X129778095Y-117260714D01*
X129730476Y-117165476D01*
X129730476Y-117117857D01*
X129778095Y-117022619D01*
X129825714Y-116975000D01*
X129920952Y-116927381D01*
X130111429Y-116927381D01*
X130206667Y-116975000D01*
X130254286Y-117022619D01*
X130301905Y-117117857D01*
X130301905Y-117165476D01*
X130254286Y-117260714D01*
X130206667Y-117308333D01*
X130111429Y-117355952D01*
X129920952Y-117355952D01*
X129825714Y-117403571D01*
X129778095Y-117451190D01*
X129730476Y-117546429D01*
X129730476Y-117736905D01*
X129778095Y-117832143D01*
X129825714Y-117879762D01*
X129920952Y-117927381D01*
X130111429Y-117927381D01*
X130206667Y-117879762D01*
X130254286Y-117832143D01*
X130301905Y-117736905D01*
X130301905Y-117546429D01*
X130254286Y-117451190D01*
X130206667Y-117403571D01*
X130111429Y-117355952D01*
X126817381Y-113831666D02*
X126341190Y-114165000D01*
X126817381Y-114403095D02*
X125817381Y-114403095D01*
X125817381Y-114022142D01*
X125865000Y-113926904D01*
X125912619Y-113879285D01*
X126007857Y-113831666D01*
X126150714Y-113831666D01*
X126245952Y-113879285D01*
X126293571Y-113926904D01*
X126341190Y-114022142D01*
X126341190Y-114403095D01*
X125817381Y-112926904D02*
X125817381Y-113403095D01*
X126293571Y-113450714D01*
X126245952Y-113403095D01*
X126198333Y-113307857D01*
X126198333Y-113069761D01*
X126245952Y-112974523D01*
X126293571Y-112926904D01*
X126388810Y-112879285D01*
X126626905Y-112879285D01*
X126722143Y-112926904D01*
X126769762Y-112974523D01*
X126817381Y-113069761D01*
X126817381Y-113307857D01*
X126769762Y-113403095D01*
X126722143Y-113450714D01*
X128301905Y-113212619D02*
X128349524Y-113165000D01*
X128444762Y-113117381D01*
X128682858Y-113117381D01*
X128778096Y-113165000D01*
X128825715Y-113212619D01*
X128873334Y-113307857D01*
X128873334Y-113403095D01*
X128825715Y-113545952D01*
X128254286Y-114117381D01*
X128873334Y-114117381D01*
X129254286Y-113212619D02*
X129301905Y-113165000D01*
X129397143Y-113117381D01*
X129635239Y-113117381D01*
X129730477Y-113165000D01*
X129778096Y-113212619D01*
X129825715Y-113307857D01*
X129825715Y-113403095D01*
X129778096Y-113545952D01*
X129206667Y-114117381D01*
X129825715Y-114117381D01*
X130444762Y-113117381D02*
X130540001Y-113117381D01*
X130635239Y-113165000D01*
X130682858Y-113212619D01*
X130730477Y-113307857D01*
X130778096Y-113498333D01*
X130778096Y-113736429D01*
X130730477Y-113926905D01*
X130682858Y-114022143D01*
X130635239Y-114069762D01*
X130540001Y-114117381D01*
X130444762Y-114117381D01*
X130349524Y-114069762D01*
X130301905Y-114022143D01*
X130254286Y-113926905D01*
X130206667Y-113736429D01*
X130206667Y-113498333D01*
X130254286Y-113307857D01*
X130301905Y-113212619D01*
X130349524Y-113165000D01*
X130444762Y-113117381D01*
X139517381Y-98591666D02*
X139041190Y-98925000D01*
X139517381Y-99163095D02*
X138517381Y-99163095D01*
X138517381Y-98782142D01*
X138565000Y-98686904D01*
X138612619Y-98639285D01*
X138707857Y-98591666D01*
X138850714Y-98591666D01*
X138945952Y-98639285D01*
X138993571Y-98686904D01*
X139041190Y-98782142D01*
X139041190Y-99163095D01*
X138517381Y-97734523D02*
X138517381Y-97925000D01*
X138565000Y-98020238D01*
X138612619Y-98067857D01*
X138755476Y-98163095D01*
X138945952Y-98210714D01*
X139326905Y-98210714D01*
X139422143Y-98163095D01*
X139469762Y-98115476D01*
X139517381Y-98020238D01*
X139517381Y-97829761D01*
X139469762Y-97734523D01*
X139422143Y-97686904D01*
X139326905Y-97639285D01*
X139088810Y-97639285D01*
X138993571Y-97686904D01*
X138945952Y-97734523D01*
X138898333Y-97829761D01*
X138898333Y-98020238D01*
X138945952Y-98115476D01*
X138993571Y-98163095D01*
X139088810Y-98210714D01*
X141478096Y-98210714D02*
X141478096Y-98877381D01*
X141240000Y-97829762D02*
X141001905Y-98544048D01*
X141620953Y-98544048D01*
X141906667Y-97877381D02*
X142573334Y-97877381D01*
X142144762Y-98877381D01*
X143144762Y-97877381D02*
X143240001Y-97877381D01*
X143335239Y-97925000D01*
X143382858Y-97972619D01*
X143430477Y-98067857D01*
X143478096Y-98258333D01*
X143478096Y-98496429D01*
X143430477Y-98686905D01*
X143382858Y-98782143D01*
X143335239Y-98829762D01*
X143240001Y-98877381D01*
X143144762Y-98877381D01*
X143049524Y-98829762D01*
X143001905Y-98782143D01*
X142954286Y-98686905D01*
X142906667Y-98496429D01*
X142906667Y-98258333D01*
X142954286Y-98067857D01*
X143001905Y-97972619D01*
X143049524Y-97925000D01*
X143144762Y-97877381D01*
X139517381Y-117641666D02*
X139041190Y-117975000D01*
X139517381Y-118213095D02*
X138517381Y-118213095D01*
X138517381Y-117832142D01*
X138565000Y-117736904D01*
X138612619Y-117689285D01*
X138707857Y-117641666D01*
X138850714Y-117641666D01*
X138945952Y-117689285D01*
X138993571Y-117736904D01*
X139041190Y-117832142D01*
X139041190Y-118213095D01*
X138517381Y-117308333D02*
X138517381Y-116641666D01*
X139517381Y-117070238D01*
X141573334Y-117927381D02*
X141001905Y-117927381D01*
X141287619Y-117927381D02*
X141287619Y-116927381D01*
X141192381Y-117070238D01*
X141097143Y-117165476D01*
X141001905Y-117213095D01*
X142478096Y-116927381D02*
X142001905Y-116927381D01*
X141954286Y-117403571D01*
X142001905Y-117355952D01*
X142097143Y-117308333D01*
X142335239Y-117308333D01*
X142430477Y-117355952D01*
X142478096Y-117403571D01*
X142525715Y-117498810D01*
X142525715Y-117736905D01*
X142478096Y-117832143D01*
X142430477Y-117879762D01*
X142335239Y-117927381D01*
X142097143Y-117927381D01*
X142001905Y-117879762D01*
X141954286Y-117832143D01*
X143144762Y-116927381D02*
X143240001Y-116927381D01*
X143335239Y-116975000D01*
X143382858Y-117022619D01*
X143430477Y-117117857D01*
X143478096Y-117308333D01*
X143478096Y-117546429D01*
X143430477Y-117736905D01*
X143382858Y-117832143D01*
X143335239Y-117879762D01*
X143240001Y-117927381D01*
X143144762Y-117927381D01*
X143049524Y-117879762D01*
X143001905Y-117832143D01*
X142954286Y-117736905D01*
X142906667Y-117546429D01*
X142906667Y-117308333D01*
X142954286Y-117117857D01*
X143001905Y-117022619D01*
X143049524Y-116975000D01*
X143144762Y-116927381D01*
X139517381Y-106211666D02*
X139041190Y-106545000D01*
X139517381Y-106783095D02*
X138517381Y-106783095D01*
X138517381Y-106402142D01*
X138565000Y-106306904D01*
X138612619Y-106259285D01*
X138707857Y-106211666D01*
X138850714Y-106211666D01*
X138945952Y-106259285D01*
X138993571Y-106306904D01*
X139041190Y-106402142D01*
X139041190Y-106783095D01*
X138945952Y-105640238D02*
X138898333Y-105735476D01*
X138850714Y-105783095D01*
X138755476Y-105830714D01*
X138707857Y-105830714D01*
X138612619Y-105783095D01*
X138565000Y-105735476D01*
X138517381Y-105640238D01*
X138517381Y-105449761D01*
X138565000Y-105354523D01*
X138612619Y-105306904D01*
X138707857Y-105259285D01*
X138755476Y-105259285D01*
X138850714Y-105306904D01*
X138898333Y-105354523D01*
X138945952Y-105449761D01*
X138945952Y-105640238D01*
X138993571Y-105735476D01*
X139041190Y-105783095D01*
X139136429Y-105830714D01*
X139326905Y-105830714D01*
X139422143Y-105783095D01*
X139469762Y-105735476D01*
X139517381Y-105640238D01*
X139517381Y-105449761D01*
X139469762Y-105354523D01*
X139422143Y-105306904D01*
X139326905Y-105259285D01*
X139136429Y-105259285D01*
X139041190Y-105306904D01*
X138993571Y-105354523D01*
X138945952Y-105449761D01*
X141573334Y-106497381D02*
X141001905Y-106497381D01*
X141287619Y-106497381D02*
X141287619Y-105497381D01*
X141192381Y-105640238D01*
X141097143Y-105735476D01*
X141001905Y-105783095D01*
X142478096Y-105497381D02*
X142001905Y-105497381D01*
X141954286Y-105973571D01*
X142001905Y-105925952D01*
X142097143Y-105878333D01*
X142335239Y-105878333D01*
X142430477Y-105925952D01*
X142478096Y-105973571D01*
X142525715Y-106068810D01*
X142525715Y-106306905D01*
X142478096Y-106402143D01*
X142430477Y-106449762D01*
X142335239Y-106497381D01*
X142097143Y-106497381D01*
X142001905Y-106449762D01*
X141954286Y-106402143D01*
X143144762Y-105497381D02*
X143240001Y-105497381D01*
X143335239Y-105545000D01*
X143382858Y-105592619D01*
X143430477Y-105687857D01*
X143478096Y-105878333D01*
X143478096Y-106116429D01*
X143430477Y-106306905D01*
X143382858Y-106402143D01*
X143335239Y-106449762D01*
X143240001Y-106497381D01*
X143144762Y-106497381D01*
X143049524Y-106449762D01*
X143001905Y-106402143D01*
X142954286Y-106306905D01*
X142906667Y-106116429D01*
X142906667Y-105878333D01*
X142954286Y-105687857D01*
X143001905Y-105592619D01*
X143049524Y-105545000D01*
X143144762Y-105497381D01*
X139517381Y-110497857D02*
X139041190Y-110831191D01*
X139517381Y-111069286D02*
X138517381Y-111069286D01*
X138517381Y-110688333D01*
X138565000Y-110593095D01*
X138612619Y-110545476D01*
X138707857Y-110497857D01*
X138850714Y-110497857D01*
X138945952Y-110545476D01*
X138993571Y-110593095D01*
X139041190Y-110688333D01*
X139041190Y-111069286D01*
X139517381Y-109545476D02*
X139517381Y-110116905D01*
X139517381Y-109831191D02*
X138517381Y-109831191D01*
X138660238Y-109926429D01*
X138755476Y-110021667D01*
X138803095Y-110116905D01*
X139517381Y-108593095D02*
X139517381Y-109164524D01*
X139517381Y-108878810D02*
X138517381Y-108878810D01*
X138660238Y-108974048D01*
X138755476Y-109069286D01*
X138803095Y-109164524D01*
X141573334Y-110307381D02*
X141001905Y-110307381D01*
X141287619Y-110307381D02*
X141287619Y-109307381D01*
X141192381Y-109450238D01*
X141097143Y-109545476D01*
X141001905Y-109593095D01*
X142478096Y-109307381D02*
X142001905Y-109307381D01*
X141954286Y-109783571D01*
X142001905Y-109735952D01*
X142097143Y-109688333D01*
X142335239Y-109688333D01*
X142430477Y-109735952D01*
X142478096Y-109783571D01*
X142525715Y-109878810D01*
X142525715Y-110116905D01*
X142478096Y-110212143D01*
X142430477Y-110259762D01*
X142335239Y-110307381D01*
X142097143Y-110307381D01*
X142001905Y-110259762D01*
X141954286Y-110212143D01*
X143144762Y-109307381D02*
X143240001Y-109307381D01*
X143335239Y-109355000D01*
X143382858Y-109402619D01*
X143430477Y-109497857D01*
X143478096Y-109688333D01*
X143478096Y-109926429D01*
X143430477Y-110116905D01*
X143382858Y-110212143D01*
X143335239Y-110259762D01*
X143240001Y-110307381D01*
X143144762Y-110307381D01*
X143049524Y-110259762D01*
X143001905Y-110212143D01*
X142954286Y-110116905D01*
X142906667Y-109926429D01*
X142906667Y-109688333D01*
X142954286Y-109497857D01*
X143001905Y-109402619D01*
X143049524Y-109355000D01*
X143144762Y-109307381D01*
X139517381Y-114307857D02*
X139041190Y-114641191D01*
X139517381Y-114879286D02*
X138517381Y-114879286D01*
X138517381Y-114498333D01*
X138565000Y-114403095D01*
X138612619Y-114355476D01*
X138707857Y-114307857D01*
X138850714Y-114307857D01*
X138945952Y-114355476D01*
X138993571Y-114403095D01*
X139041190Y-114498333D01*
X139041190Y-114879286D01*
X139517381Y-113355476D02*
X139517381Y-113926905D01*
X139517381Y-113641191D02*
X138517381Y-113641191D01*
X138660238Y-113736429D01*
X138755476Y-113831667D01*
X138803095Y-113926905D01*
X138612619Y-112974524D02*
X138565000Y-112926905D01*
X138517381Y-112831667D01*
X138517381Y-112593571D01*
X138565000Y-112498333D01*
X138612619Y-112450714D01*
X138707857Y-112403095D01*
X138803095Y-112403095D01*
X138945952Y-112450714D01*
X139517381Y-113022143D01*
X139517381Y-112403095D01*
X141573334Y-114117381D02*
X141001905Y-114117381D01*
X141287619Y-114117381D02*
X141287619Y-113117381D01*
X141192381Y-113260238D01*
X141097143Y-113355476D01*
X141001905Y-113403095D01*
X142478096Y-113117381D02*
X142001905Y-113117381D01*
X141954286Y-113593571D01*
X142001905Y-113545952D01*
X142097143Y-113498333D01*
X142335239Y-113498333D01*
X142430477Y-113545952D01*
X142478096Y-113593571D01*
X142525715Y-113688810D01*
X142525715Y-113926905D01*
X142478096Y-114022143D01*
X142430477Y-114069762D01*
X142335239Y-114117381D01*
X142097143Y-114117381D01*
X142001905Y-114069762D01*
X141954286Y-114022143D01*
X143144762Y-113117381D02*
X143240001Y-113117381D01*
X143335239Y-113165000D01*
X143382858Y-113212619D01*
X143430477Y-113307857D01*
X143478096Y-113498333D01*
X143478096Y-113736429D01*
X143430477Y-113926905D01*
X143382858Y-114022143D01*
X143335239Y-114069762D01*
X143240001Y-114117381D01*
X143144762Y-114117381D01*
X143049524Y-114069762D01*
X143001905Y-114022143D01*
X142954286Y-113926905D01*
X142906667Y-113736429D01*
X142906667Y-113498333D01*
X142954286Y-113307857D01*
X143001905Y-113212619D01*
X143049524Y-113165000D01*
X143144762Y-113117381D01*
X123094762Y-96432619D02*
X122999524Y-96385000D01*
X122904286Y-96289762D01*
X122761429Y-96146905D01*
X122666190Y-96099286D01*
X122570952Y-96099286D01*
X122618571Y-96337381D02*
X122523333Y-96289762D01*
X122428095Y-96194524D01*
X122380476Y-96004048D01*
X122380476Y-95670714D01*
X122428095Y-95480238D01*
X122523333Y-95385000D01*
X122618571Y-95337381D01*
X122809048Y-95337381D01*
X122904286Y-95385000D01*
X122999524Y-95480238D01*
X123047143Y-95670714D01*
X123047143Y-96004048D01*
X122999524Y-96194524D01*
X122904286Y-96289762D01*
X122809048Y-96337381D01*
X122618571Y-96337381D01*
X123999524Y-96337381D02*
X123428095Y-96337381D01*
X123713809Y-96337381D02*
X123713809Y-95337381D01*
X123618571Y-95480238D01*
X123523333Y-95575476D01*
X123428095Y-95623095D01*
X119943571Y-102187142D02*
X119991190Y-102044285D01*
X120038810Y-101996666D01*
X120134048Y-101949047D01*
X120276905Y-101949047D01*
X120372143Y-101996666D01*
X120419762Y-102044285D01*
X120467381Y-102139523D01*
X120467381Y-102520476D01*
X119467381Y-102520476D01*
X119467381Y-102187142D01*
X119515000Y-102091904D01*
X119562619Y-102044285D01*
X119657857Y-101996666D01*
X119753095Y-101996666D01*
X119848333Y-102044285D01*
X119895952Y-102091904D01*
X119943571Y-102187142D01*
X119943571Y-102520476D01*
X120372143Y-100949047D02*
X120419762Y-100996666D01*
X120467381Y-101139523D01*
X120467381Y-101234761D01*
X120419762Y-101377619D01*
X120324524Y-101472857D01*
X120229286Y-101520476D01*
X120038810Y-101568095D01*
X119895952Y-101568095D01*
X119705476Y-101520476D01*
X119610238Y-101472857D01*
X119515000Y-101377619D01*
X119467381Y-101234761D01*
X119467381Y-101139523D01*
X119515000Y-100996666D01*
X119562619Y-100949047D01*
X119467381Y-100044285D02*
X119467381Y-100520476D01*
X119943571Y-100568095D01*
X119895952Y-100520476D01*
X119848333Y-100425238D01*
X119848333Y-100187142D01*
X119895952Y-100091904D01*
X119943571Y-100044285D01*
X120038810Y-99996666D01*
X120276905Y-99996666D01*
X120372143Y-100044285D01*
X120419762Y-100091904D01*
X120467381Y-100187142D01*
X120467381Y-100425238D01*
X120419762Y-100520476D01*
X120372143Y-100568095D01*
X119800714Y-99139523D02*
X120467381Y-99139523D01*
X119419762Y-99377619D02*
X120134048Y-99615714D01*
X120134048Y-98996666D01*
X120467381Y-98568095D02*
X120467381Y-98377619D01*
X120419762Y-98282380D01*
X120372143Y-98234761D01*
X120229286Y-98139523D01*
X120038810Y-98091904D01*
X119657857Y-98091904D01*
X119562619Y-98139523D01*
X119515000Y-98187142D01*
X119467381Y-98282380D01*
X119467381Y-98472857D01*
X119515000Y-98568095D01*
X119562619Y-98615714D01*
X119657857Y-98663333D01*
X119895952Y-98663333D01*
X119991190Y-98615714D01*
X120038810Y-98568095D01*
X120086429Y-98472857D01*
X120086429Y-98282380D01*
X120038810Y-98187142D01*
X119991190Y-98139523D01*
X119895952Y-98091904D01*
X130079762Y-96432619D02*
X129984524Y-96385000D01*
X129889286Y-96289762D01*
X129746429Y-96146905D01*
X129651190Y-96099286D01*
X129555952Y-96099286D01*
X129603571Y-96337381D02*
X129508333Y-96289762D01*
X129413095Y-96194524D01*
X129365476Y-96004048D01*
X129365476Y-95670714D01*
X129413095Y-95480238D01*
X129508333Y-95385000D01*
X129603571Y-95337381D01*
X129794048Y-95337381D01*
X129889286Y-95385000D01*
X129984524Y-95480238D01*
X130032143Y-95670714D01*
X130032143Y-96004048D01*
X129984524Y-96194524D01*
X129889286Y-96289762D01*
X129794048Y-96337381D01*
X129603571Y-96337381D01*
X130413095Y-95432619D02*
X130460714Y-95385000D01*
X130555952Y-95337381D01*
X130794048Y-95337381D01*
X130889286Y-95385000D01*
X130936905Y-95432619D01*
X130984524Y-95527857D01*
X130984524Y-95623095D01*
X130936905Y-95765952D01*
X130365476Y-96337381D01*
X130984524Y-96337381D01*
X127313571Y-102187142D02*
X127361190Y-102044285D01*
X127408810Y-101996666D01*
X127504048Y-101949047D01*
X127646905Y-101949047D01*
X127742143Y-101996666D01*
X127789762Y-102044285D01*
X127837381Y-102139523D01*
X127837381Y-102520476D01*
X126837381Y-102520476D01*
X126837381Y-102187142D01*
X126885000Y-102091904D01*
X126932619Y-102044285D01*
X127027857Y-101996666D01*
X127123095Y-101996666D01*
X127218333Y-102044285D01*
X127265952Y-102091904D01*
X127313571Y-102187142D01*
X127313571Y-102520476D01*
X127742143Y-100949047D02*
X127789762Y-100996666D01*
X127837381Y-101139523D01*
X127837381Y-101234761D01*
X127789762Y-101377619D01*
X127694524Y-101472857D01*
X127599286Y-101520476D01*
X127408810Y-101568095D01*
X127265952Y-101568095D01*
X127075476Y-101520476D01*
X126980238Y-101472857D01*
X126885000Y-101377619D01*
X126837381Y-101234761D01*
X126837381Y-101139523D01*
X126885000Y-100996666D01*
X126932619Y-100949047D01*
X126837381Y-100044285D02*
X126837381Y-100520476D01*
X127313571Y-100568095D01*
X127265952Y-100520476D01*
X127218333Y-100425238D01*
X127218333Y-100187142D01*
X127265952Y-100091904D01*
X127313571Y-100044285D01*
X127408810Y-99996666D01*
X127646905Y-99996666D01*
X127742143Y-100044285D01*
X127789762Y-100091904D01*
X127837381Y-100187142D01*
X127837381Y-100425238D01*
X127789762Y-100520476D01*
X127742143Y-100568095D01*
X127170714Y-99139523D02*
X127837381Y-99139523D01*
X126789762Y-99377619D02*
X127504048Y-99615714D01*
X127504048Y-98996666D01*
X127837381Y-98568095D02*
X127837381Y-98377619D01*
X127789762Y-98282380D01*
X127742143Y-98234761D01*
X127599286Y-98139523D01*
X127408810Y-98091904D01*
X127027857Y-98091904D01*
X126932619Y-98139523D01*
X126885000Y-98187142D01*
X126837381Y-98282380D01*
X126837381Y-98472857D01*
X126885000Y-98568095D01*
X126932619Y-98615714D01*
X127027857Y-98663333D01*
X127265952Y-98663333D01*
X127361190Y-98615714D01*
X127408810Y-98568095D01*
X127456429Y-98472857D01*
X127456429Y-98282380D01*
X127408810Y-98187142D01*
X127361190Y-98139523D01*
X127265952Y-98091904D01*
X173712143Y-77636666D02*
X173759762Y-77684285D01*
X173807381Y-77827142D01*
X173807381Y-77922380D01*
X173759762Y-78065238D01*
X173664524Y-78160476D01*
X173569286Y-78208095D01*
X173378810Y-78255714D01*
X173235952Y-78255714D01*
X173045476Y-78208095D01*
X172950238Y-78160476D01*
X172855000Y-78065238D01*
X172807381Y-77922380D01*
X172807381Y-77827142D01*
X172855000Y-77684285D01*
X172902619Y-77636666D01*
X172807381Y-76731904D02*
X172807381Y-77208095D01*
X173283571Y-77255714D01*
X173235952Y-77208095D01*
X173188333Y-77112857D01*
X173188333Y-76874761D01*
X173235952Y-76779523D01*
X173283571Y-76731904D01*
X173378810Y-76684285D01*
X173616905Y-76684285D01*
X173712143Y-76731904D01*
X173759762Y-76779523D01*
X173807381Y-76874761D01*
X173807381Y-77112857D01*
X173759762Y-77208095D01*
X173712143Y-77255714D01*
X180062143Y-70651666D02*
X180109762Y-70699285D01*
X180157381Y-70842142D01*
X180157381Y-70937380D01*
X180109762Y-71080238D01*
X180014524Y-71175476D01*
X179919286Y-71223095D01*
X179728810Y-71270714D01*
X179585952Y-71270714D01*
X179395476Y-71223095D01*
X179300238Y-71175476D01*
X179205000Y-71080238D01*
X179157381Y-70937380D01*
X179157381Y-70842142D01*
X179205000Y-70699285D01*
X179252619Y-70651666D01*
X179157381Y-70318333D02*
X179157381Y-69651666D01*
X180157381Y-70080238D01*
X152955715Y-118892143D02*
X152908096Y-118939762D01*
X152765239Y-118987381D01*
X152670001Y-118987381D01*
X152527143Y-118939762D01*
X152431905Y-118844524D01*
X152384286Y-118749286D01*
X152336667Y-118558810D01*
X152336667Y-118415952D01*
X152384286Y-118225476D01*
X152431905Y-118130238D01*
X152527143Y-118035000D01*
X152670001Y-117987381D01*
X152765239Y-117987381D01*
X152908096Y-118035000D01*
X152955715Y-118082619D01*
X153384286Y-118987381D02*
X153384286Y-117987381D01*
X153384286Y-118463571D02*
X153955715Y-118463571D01*
X153955715Y-118987381D02*
X153955715Y-117987381D01*
X155003334Y-118987381D02*
X154670000Y-118511190D01*
X154431905Y-118987381D02*
X154431905Y-117987381D01*
X154812858Y-117987381D01*
X154908096Y-118035000D01*
X154955715Y-118082619D01*
X155003334Y-118177857D01*
X155003334Y-118320714D01*
X154955715Y-118415952D01*
X154908096Y-118463571D01*
X154812858Y-118511190D01*
X154431905Y-118511190D01*
X149074286Y-118987381D02*
X148598095Y-118987381D01*
X148598095Y-117987381D01*
X149407619Y-117987381D02*
X149407619Y-118796905D01*
X149455238Y-118892143D01*
X149502857Y-118939762D01*
X149598095Y-118987381D01*
X149788572Y-118987381D01*
X149883810Y-118939762D01*
X149931429Y-118892143D01*
X149979048Y-118796905D01*
X149979048Y-117987381D01*
X150455238Y-118987381D02*
X150455238Y-117987381D01*
X150788572Y-118701667D01*
X151121905Y-117987381D01*
X151121905Y-118987381D01*
X169418095Y-85177381D02*
X169418095Y-85986905D01*
X169465714Y-86082143D01*
X169513333Y-86129762D01*
X169608571Y-86177381D01*
X169799048Y-86177381D01*
X169894286Y-86129762D01*
X169941905Y-86082143D01*
X169989524Y-85986905D01*
X169989524Y-85177381D01*
X170989524Y-86177381D02*
X170418095Y-86177381D01*
X170703809Y-86177381D02*
X170703809Y-85177381D01*
X170608571Y-85320238D01*
X170513333Y-85415476D01*
X170418095Y-85463095D01*
X168013334Y-88082381D02*
X167537143Y-88082381D01*
X167537143Y-87082381D01*
X168346667Y-88082381D02*
X168346667Y-87082381D01*
X168680001Y-87796667D01*
X169013334Y-87082381D01*
X169013334Y-88082381D01*
X169394286Y-87082381D02*
X170060953Y-87082381D01*
X169632381Y-88082381D01*
X170584762Y-87510952D02*
X170489524Y-87463333D01*
X170441905Y-87415714D01*
X170394286Y-87320476D01*
X170394286Y-87272857D01*
X170441905Y-87177619D01*
X170489524Y-87130000D01*
X170584762Y-87082381D01*
X170775239Y-87082381D01*
X170870477Y-87130000D01*
X170918096Y-87177619D01*
X170965715Y-87272857D01*
X170965715Y-87320476D01*
X170918096Y-87415714D01*
X170870477Y-87463333D01*
X170775239Y-87510952D01*
X170584762Y-87510952D01*
X170489524Y-87558571D01*
X170441905Y-87606190D01*
X170394286Y-87701429D01*
X170394286Y-87891905D01*
X170441905Y-87987143D01*
X170489524Y-88034762D01*
X170584762Y-88082381D01*
X170775239Y-88082381D01*
X170870477Y-88034762D01*
X170918096Y-87987143D01*
X170965715Y-87891905D01*
X170965715Y-87701429D01*
X170918096Y-87606190D01*
X170870477Y-87558571D01*
X170775239Y-87510952D01*
X171584762Y-87082381D02*
X171680001Y-87082381D01*
X171775239Y-87130000D01*
X171822858Y-87177619D01*
X171870477Y-87272857D01*
X171918096Y-87463333D01*
X171918096Y-87701429D01*
X171870477Y-87891905D01*
X171822858Y-87987143D01*
X171775239Y-88034762D01*
X171680001Y-88082381D01*
X171584762Y-88082381D01*
X171489524Y-88034762D01*
X171441905Y-87987143D01*
X171394286Y-87891905D01*
X171346667Y-87701429D01*
X171346667Y-87463333D01*
X171394286Y-87272857D01*
X171441905Y-87177619D01*
X171489524Y-87130000D01*
X171584762Y-87082381D01*
X172822858Y-87082381D02*
X172346667Y-87082381D01*
X172299048Y-87558571D01*
X172346667Y-87510952D01*
X172441905Y-87463333D01*
X172680001Y-87463333D01*
X172775239Y-87510952D01*
X172822858Y-87558571D01*
X172870477Y-87653810D01*
X172870477Y-87891905D01*
X172822858Y-87987143D01*
X172775239Y-88034762D01*
X172680001Y-88082381D01*
X172441905Y-88082381D01*
X172346667Y-88034762D01*
X172299048Y-87987143D01*
X157297381Y-87098095D02*
X156297381Y-87098095D01*
X156297381Y-86860000D01*
X156345000Y-86717142D01*
X156440238Y-86621904D01*
X156535476Y-86574285D01*
X156725952Y-86526666D01*
X156868810Y-86526666D01*
X157059286Y-86574285D01*
X157154524Y-86621904D01*
X157249762Y-86717142D01*
X157297381Y-86860000D01*
X157297381Y-87098095D01*
X157297381Y-85574285D02*
X157297381Y-86145714D01*
X157297381Y-85860000D02*
X156297381Y-85860000D01*
X156440238Y-85955238D01*
X156535476Y-86050476D01*
X156583095Y-86145714D01*
X173712143Y-95416666D02*
X173759762Y-95464285D01*
X173807381Y-95607142D01*
X173807381Y-95702380D01*
X173759762Y-95845238D01*
X173664524Y-95940476D01*
X173569286Y-95988095D01*
X173378810Y-96035714D01*
X173235952Y-96035714D01*
X173045476Y-95988095D01*
X172950238Y-95940476D01*
X172855000Y-95845238D01*
X172807381Y-95702380D01*
X172807381Y-95607142D01*
X172855000Y-95464285D01*
X172902619Y-95416666D01*
X173140714Y-94559523D02*
X173807381Y-94559523D01*
X172759762Y-94797619D02*
X173474048Y-95035714D01*
X173474048Y-94416666D01*
M02*
