G04 #@! TF.FileFunction,Copper,L1,Top,Signal*
%FSLAX46Y46*%
G04 Gerber Fmt 4.6, Leading zero omitted, Abs format (unit mm)*
G04 Created by KiCad (PCBNEW 4.0.7) date 08/08/19 02:09:58*
%MOMM*%
%LPD*%
G01*
G04 APERTURE LIST*
%ADD10C,0.100000*%
%ADD11O,1.998980X3.197860*%
%ADD12O,3.197860X1.998980*%
%ADD13C,1.600000*%
%ADD14R,1.600000X1.600000*%
%ADD15O,1.600000X1.600000*%
%ADD16R,1.700000X1.700000*%
%ADD17O,1.700000X1.700000*%
%ADD18R,3.500000X2.500000*%
%ADD19O,1.750000X3.500000*%
%ADD20C,1.524000*%
%ADD21C,1.520000*%
%ADD22R,1.520000X1.520000*%
%ADD23R,1.200000X1.200000*%
%ADD24C,1.200000*%
%ADD25R,1.800000X1.800000*%
%ADD26O,1.800000X1.800000*%
%ADD27C,0.600000*%
%ADD28C,0.250000*%
%ADD29C,0.500000*%
G04 APERTURE END LIST*
D10*
D11*
X133350000Y-71120000D03*
D12*
X138160000Y-68580000D03*
D11*
X140970000Y-71120000D03*
D13*
X149225000Y-102235000D03*
X154225000Y-102235000D03*
X149225000Y-98425000D03*
X154225000Y-98425000D03*
X149225000Y-106045000D03*
X154225000Y-106045000D03*
X128270000Y-109855000D03*
X133270000Y-109855000D03*
D14*
X166370000Y-109855000D03*
D15*
X158750000Y-109855000D03*
D16*
X138515000Y-121400000D03*
D17*
X135975000Y-121400000D03*
X133435000Y-121400000D03*
X130895000Y-121400000D03*
D16*
X170115000Y-121400000D03*
D17*
X167575000Y-121400000D03*
X165035000Y-121400000D03*
X162495000Y-121400000D03*
D16*
X123190000Y-91440000D03*
D18*
X164830000Y-66349000D03*
D19*
X169830000Y-71355000D03*
X159830000Y-71355000D03*
X167330000Y-71355000D03*
X162330000Y-71355000D03*
D16*
X162290000Y-76835000D03*
D17*
X164830000Y-76835000D03*
X167370000Y-76835000D03*
D13*
X167640000Y-102235000D03*
D15*
X157480000Y-102235000D03*
D13*
X146050000Y-102235000D03*
D15*
X135890000Y-102235000D03*
D13*
X167640000Y-106045000D03*
D15*
X157480000Y-106045000D03*
D13*
X157480000Y-94615000D03*
D15*
X167640000Y-94615000D03*
D13*
X157480000Y-98425000D03*
D15*
X167640000Y-98425000D03*
D13*
X133350000Y-117475000D03*
D15*
X123190000Y-117475000D03*
D13*
X133350000Y-113665000D03*
D15*
X123190000Y-113665000D03*
D13*
X135890000Y-98425000D03*
D15*
X146050000Y-98425000D03*
D13*
X135890000Y-117475000D03*
D15*
X146050000Y-117475000D03*
D13*
X135890000Y-106045000D03*
D15*
X146050000Y-106045000D03*
D13*
X135890000Y-109855000D03*
D15*
X146050000Y-109855000D03*
D13*
X135890000Y-113665000D03*
D15*
X146050000Y-113665000D03*
D20*
X135915000Y-124400000D03*
X181015000Y-108892000D03*
X165115000Y-63500000D03*
X181015000Y-79400000D03*
X165015000Y-124400000D03*
X120015000Y-108892000D03*
X135315000Y-63500000D03*
D21*
X123190000Y-100330000D03*
X123190000Y-102870000D03*
D22*
X123190000Y-97790000D03*
D21*
X130175000Y-100330000D03*
X130175000Y-102870000D03*
D22*
X130175000Y-97790000D03*
D23*
X175895000Y-95250000D03*
D24*
X177895000Y-95250000D03*
D14*
X175895000Y-76835000D03*
D13*
X178395000Y-76835000D03*
X175895000Y-71755000D03*
X180895000Y-71755000D03*
D16*
X153670000Y-113665000D03*
D17*
X153670000Y-116205000D03*
D16*
X149860000Y-113665000D03*
D17*
X149860000Y-116205000D03*
D25*
X175895000Y-88900000D03*
D26*
X175895000Y-86360000D03*
X175895000Y-83820000D03*
D27*
X131445000Y-95250000D03*
X125730000Y-95885000D03*
X169545000Y-118745000D03*
X170815000Y-82550000D03*
X170815000Y-85090000D03*
X163830000Y-117475000D03*
X165735000Y-117475000D03*
D28*
X148590000Y-95250000D02*
X149225000Y-95250000D01*
X149225000Y-95885000D02*
X149225000Y-95250000D01*
X149225000Y-95250000D02*
X149860000Y-94615000D01*
X157480000Y-94615000D02*
X149860000Y-94615000D01*
X131445000Y-95250000D02*
X148590000Y-95250000D01*
X157480000Y-98425000D02*
X157480000Y-95885000D01*
X157480000Y-95885000D02*
X157480000Y-94615000D01*
X125730000Y-95885000D02*
X125730000Y-95885000D01*
X123190000Y-100330000D02*
X125095000Y-100330000D01*
X149225000Y-95885000D02*
X149225000Y-98425000D01*
X125730000Y-99695000D02*
X125730000Y-95885000D01*
X125095000Y-100330000D02*
X125730000Y-99695000D01*
X149225000Y-102235000D02*
X149225000Y-98425000D01*
X154225000Y-102235000D02*
X157480000Y-102235000D01*
X146050000Y-102235000D02*
X146050000Y-106045000D01*
X146050000Y-106045000D02*
X149225000Y-106045000D01*
X128270000Y-109855000D02*
X128270000Y-116205000D01*
X127000000Y-117475000D02*
X128270000Y-116205000D01*
X127000000Y-117475000D02*
X123190000Y-117475000D01*
X123190000Y-102870000D02*
X123190000Y-104775000D01*
X123190000Y-104775000D02*
X128270000Y-109855000D01*
D29*
X133350000Y-71120000D02*
X132715000Y-71120000D01*
X132715000Y-71120000D02*
X127000000Y-76835000D01*
X133350000Y-71120000D02*
X140970000Y-71120000D01*
X127000000Y-76835000D02*
X127000000Y-102235000D01*
X127000000Y-102235000D02*
X127000000Y-104775000D01*
X128270000Y-106045000D02*
X130810000Y-106045000D01*
X127000000Y-104775000D02*
X128270000Y-106045000D01*
X133270000Y-106045000D02*
X130810000Y-106045000D01*
X133270000Y-106045000D02*
X135890000Y-106045000D01*
X135890000Y-109855000D02*
X137795000Y-109855000D01*
X138515000Y-110575000D02*
X138515000Y-112480000D01*
X137795000Y-109855000D02*
X138515000Y-110575000D01*
X133270000Y-109855000D02*
X135890000Y-109855000D01*
X135890000Y-109855000D02*
X135890000Y-106045000D01*
X138515000Y-121400000D02*
X138515000Y-112480000D01*
X165100000Y-92710000D02*
X167640000Y-92710000D01*
X175895000Y-83820000D02*
X168910000Y-83820000D01*
X168910000Y-83820000D02*
X167640000Y-85090000D01*
X167640000Y-85090000D02*
X167640000Y-92710000D01*
X167640000Y-92710000D02*
X167640000Y-94615000D01*
X175895000Y-76835000D02*
X175895000Y-71755000D01*
X175895000Y-83820000D02*
X175895000Y-76835000D01*
X165100000Y-92710000D02*
X158750000Y-92710000D01*
X158750000Y-92710000D02*
X130810000Y-92710000D01*
X130810000Y-92710000D02*
X130175000Y-93345000D01*
X130175000Y-93980000D02*
X130175000Y-97790000D01*
X130175000Y-93345000D02*
X130175000Y-93980000D01*
X167640000Y-94615000D02*
X167005000Y-94615000D01*
X130175000Y-97790000D02*
X135255000Y-97790000D01*
X135255000Y-97790000D02*
X135890000Y-98425000D01*
D28*
X149860000Y-113665000D02*
X149860000Y-112395000D01*
X166370000Y-111125000D02*
X166370000Y-109855000D01*
X165735000Y-111760000D02*
X166370000Y-111125000D01*
X150495000Y-111760000D02*
X165735000Y-111760000D01*
X149860000Y-112395000D02*
X150495000Y-111760000D01*
X154305000Y-107950000D02*
X155575000Y-107950000D01*
X155575000Y-107950000D02*
X157480000Y-109855000D01*
X158750000Y-109855000D02*
X157480000Y-109855000D01*
X144145000Y-106680000D02*
X145415000Y-107950000D01*
X144145000Y-106680000D02*
X144145000Y-100330000D01*
X154305000Y-107950000D02*
X145415000Y-107950000D01*
X130175000Y-100330000D02*
X144145000Y-100330000D01*
X144145000Y-100330000D02*
X146050000Y-98425000D01*
X135975000Y-121400000D02*
X135975000Y-117560000D01*
X135975000Y-117560000D02*
X135890000Y-117475000D01*
X135890000Y-113665000D02*
X135890000Y-117475000D01*
X133350000Y-117475000D02*
X133350000Y-113665000D01*
X133435000Y-121400000D02*
X133435000Y-117560000D01*
X133435000Y-117560000D02*
X133350000Y-117475000D01*
X167640000Y-106045000D02*
X168910000Y-106045000D01*
X168910000Y-106045000D02*
X169545000Y-106680000D01*
X169545000Y-106680000D02*
X169545000Y-102870000D01*
X168910000Y-102235000D02*
X167640000Y-102235000D01*
X169545000Y-102870000D02*
X168910000Y-102235000D01*
X167640000Y-113665000D02*
X168910000Y-113665000D01*
X169545000Y-113030000D02*
X169545000Y-106680000D01*
X168910000Y-113665000D02*
X169545000Y-113030000D01*
X167640000Y-113665000D02*
X167005000Y-113665000D01*
X153670000Y-113665000D02*
X167005000Y-113665000D01*
D29*
X170815000Y-97790000D02*
X170815000Y-85090000D01*
X170815000Y-97790000D02*
X170815000Y-117475000D01*
X169545000Y-118745000D02*
X170815000Y-117475000D01*
X162290000Y-77835000D02*
X162290000Y-76835000D01*
X163195000Y-78740000D02*
X162290000Y-77835000D01*
X169545000Y-78740000D02*
X163195000Y-78740000D01*
X170815000Y-80010000D02*
X169545000Y-78740000D01*
X170815000Y-82550000D02*
X170815000Y-80010000D01*
X159830000Y-71355000D02*
X159830000Y-74375000D01*
X159830000Y-74375000D02*
X162290000Y-76835000D01*
X170180000Y-68580000D02*
X171450000Y-68580000D01*
X132080000Y-66675000D02*
X123190000Y-75565000D01*
X143510000Y-66675000D02*
X144145000Y-66675000D01*
X144145000Y-66675000D02*
X146050000Y-68580000D01*
X140970000Y-66675000D02*
X143510000Y-66675000D01*
X123190000Y-91440000D02*
X123190000Y-75565000D01*
X140970000Y-66675000D02*
X132715000Y-66675000D01*
X170180000Y-68580000D02*
X156210000Y-68580000D01*
X156210000Y-68580000D02*
X146050000Y-68580000D01*
X132080000Y-66675000D02*
X132715000Y-66675000D01*
X171450000Y-76835000D02*
X167370000Y-76835000D01*
X172720000Y-75565000D02*
X171450000Y-76835000D01*
X172720000Y-69850000D02*
X172720000Y-75565000D01*
X171450000Y-68580000D02*
X172720000Y-69850000D01*
X169830000Y-71355000D02*
X169830000Y-74010000D01*
X164830000Y-75835000D02*
X164830000Y-76835000D01*
X165735000Y-74930000D02*
X164830000Y-75835000D01*
X168910000Y-74930000D02*
X165735000Y-74930000D01*
X169830000Y-74010000D02*
X168910000Y-74930000D01*
D28*
X135890000Y-102235000D02*
X130810000Y-102235000D01*
X130810000Y-102235000D02*
X130175000Y-102870000D01*
X138430000Y-102235000D02*
X140335000Y-102235000D01*
X141605000Y-116205000D02*
X142875000Y-117475000D01*
X141605000Y-103505000D02*
X141605000Y-116205000D01*
X140335000Y-102235000D02*
X141605000Y-103505000D01*
X146050000Y-117475000D02*
X142875000Y-117475000D01*
X138430000Y-102235000D02*
X135890000Y-102235000D01*
D29*
X175895000Y-95250000D02*
X175895000Y-120015000D01*
X174510000Y-121400000D02*
X170115000Y-121400000D01*
X175895000Y-120015000D02*
X174510000Y-121400000D01*
X175895000Y-95250000D02*
X175895000Y-88900000D01*
D28*
X167575000Y-120015000D02*
X167575000Y-118045000D01*
X149860000Y-118110000D02*
X150495000Y-118745000D01*
X149860000Y-118110000D02*
X149860000Y-116205000D01*
X154940000Y-118745000D02*
X150495000Y-118745000D01*
X156210000Y-117475000D02*
X154940000Y-118745000D01*
X163830000Y-117475000D02*
X156210000Y-117475000D01*
X167005000Y-117475000D02*
X165735000Y-117475000D01*
X167575000Y-118045000D02*
X167005000Y-117475000D01*
X167575000Y-119950000D02*
X167575000Y-120015000D01*
X167575000Y-120015000D02*
X167575000Y-121400000D01*
X153670000Y-116205000D02*
X163830000Y-116205000D01*
X165035000Y-117410000D02*
X165035000Y-121400000D01*
X163830000Y-116205000D02*
X165035000Y-117410000D01*
X165100000Y-121335000D02*
X165035000Y-121400000D01*
M02*
