G04 #@! TF.FileFunction,Copper,L2,Bot,Signal*
%FSLAX46Y46*%
G04 Gerber Fmt 4.6, Leading zero omitted, Abs format (unit mm)*
G04 Created by KiCad (PCBNEW 4.0.7) date 06/26/19 17:19:32*
%MOMM*%
%LPD*%
G01*
G04 APERTURE LIST*
%ADD10C,0.100000*%
%ADD11O,1.998980X3.197860*%
%ADD12O,3.197860X1.998980*%
%ADD13C,1.600000*%
%ADD14R,1.600000X1.600000*%
%ADD15O,1.600000X1.600000*%
%ADD16R,1.700000X1.700000*%
%ADD17O,1.700000X1.700000*%
%ADD18R,3.500000X2.500000*%
%ADD19O,1.750000X3.500000*%
%ADD20C,1.524000*%
%ADD21C,1.520000*%
%ADD22R,1.520000X1.520000*%
%ADD23C,0.600000*%
%ADD24C,0.250000*%
%ADD25C,0.500000*%
%ADD26C,0.254000*%
G04 APERTURE END LIST*
D10*
D11*
X133350000Y-71120000D03*
D12*
X137160000Y-68580000D03*
D11*
X140970000Y-71120000D03*
D13*
X149225000Y-102235000D03*
X154225000Y-102235000D03*
X149225000Y-98425000D03*
X154225000Y-98425000D03*
X149225000Y-106045000D03*
X154225000Y-106045000D03*
X128270000Y-109855000D03*
X133270000Y-109855000D03*
D14*
X158750000Y-90805000D03*
D15*
X166370000Y-90805000D03*
D14*
X166370000Y-109855000D03*
D15*
X158750000Y-109855000D03*
D16*
X178435000Y-121515000D03*
D17*
X175895000Y-121400000D03*
D16*
X138515000Y-121400000D03*
D17*
X135975000Y-121400000D03*
X133435000Y-121400000D03*
X130895000Y-121400000D03*
D16*
X170115000Y-121400000D03*
D17*
X167575000Y-121400000D03*
X165035000Y-121400000D03*
X162495000Y-121400000D03*
D16*
X174625000Y-76835000D03*
D18*
X163830000Y-66349000D03*
D19*
X168830000Y-71355000D03*
X158830000Y-71355000D03*
X166330000Y-71355000D03*
X161330000Y-71355000D03*
D16*
X162560000Y-83185000D03*
D17*
X165100000Y-83185000D03*
D16*
X161290000Y-76835000D03*
D17*
X163830000Y-76835000D03*
X166370000Y-76835000D03*
D13*
X167640000Y-102235000D03*
D15*
X157480000Y-102235000D03*
D13*
X146050000Y-102235000D03*
D15*
X135890000Y-102235000D03*
D13*
X167640000Y-106045000D03*
D15*
X157480000Y-106045000D03*
D13*
X157480000Y-94615000D03*
D15*
X167640000Y-94615000D03*
D13*
X157480000Y-98425000D03*
D15*
X167640000Y-98425000D03*
D13*
X133350000Y-117475000D03*
D15*
X123190000Y-117475000D03*
D13*
X133350000Y-113665000D03*
D15*
X123190000Y-113665000D03*
D13*
X135890000Y-98425000D03*
D15*
X146050000Y-98425000D03*
D13*
X135890000Y-117475000D03*
D15*
X146050000Y-117475000D03*
D13*
X135890000Y-106045000D03*
D15*
X146050000Y-106045000D03*
D13*
X135890000Y-109855000D03*
D15*
X146050000Y-109855000D03*
D13*
X135890000Y-113665000D03*
D15*
X146050000Y-113665000D03*
D20*
X120015000Y-79400000D03*
X135915000Y-124400000D03*
X181015000Y-108892000D03*
X165115000Y-63500000D03*
X181015000Y-79400000D03*
X165015000Y-124400000D03*
X120015000Y-108892000D03*
X135315000Y-63500000D03*
D21*
X123190000Y-100330000D03*
X123190000Y-102870000D03*
D22*
X123190000Y-97790000D03*
D21*
X130175000Y-100330000D03*
X130175000Y-102870000D03*
D22*
X130175000Y-97790000D03*
D23*
X131445000Y-95250000D03*
X125730000Y-95885000D03*
X175895000Y-116840000D03*
X169545000Y-118110000D03*
D24*
X125730000Y-95885000D02*
X126365000Y-95250000D01*
X126365000Y-95250000D02*
X131445000Y-95250000D01*
D25*
X123190000Y-97790000D02*
X130175000Y-97790000D01*
X175895000Y-121400000D02*
X175895000Y-116840000D01*
X162495000Y-119445000D02*
X163830000Y-118110000D01*
X163830000Y-118110000D02*
X169545000Y-118110000D01*
X162495000Y-121400000D02*
X162495000Y-119445000D01*
D26*
G36*
X133905856Y-63292302D02*
X133933638Y-63847368D01*
X134092603Y-64231143D01*
X134334787Y-64300608D01*
X135135395Y-63500000D01*
X135121253Y-63485858D01*
X135300858Y-63306253D01*
X135315000Y-63320395D01*
X135329143Y-63306253D01*
X135508748Y-63485858D01*
X135494605Y-63500000D01*
X136295213Y-64300608D01*
X136537397Y-64231143D01*
X136724144Y-63707698D01*
X136696362Y-63152632D01*
X136608287Y-62940000D01*
X163831545Y-62940000D01*
X163705856Y-63292302D01*
X163733638Y-63847368D01*
X163892603Y-64231143D01*
X164134785Y-64300607D01*
X164019774Y-64415618D01*
X164091953Y-64487797D01*
X163957000Y-64622750D01*
X163957000Y-66222000D01*
X166056250Y-66222000D01*
X166215000Y-66063250D01*
X166215000Y-64972690D01*
X166118327Y-64739301D01*
X165939698Y-64560673D01*
X165897539Y-64543210D01*
X165915608Y-64480213D01*
X165115000Y-63679605D01*
X165100858Y-63693748D01*
X164921253Y-63514143D01*
X164935395Y-63500000D01*
X164921253Y-63485858D01*
X165100858Y-63306253D01*
X165115000Y-63320395D01*
X165129143Y-63306253D01*
X165308748Y-63485858D01*
X165294605Y-63500000D01*
X166095213Y-64300608D01*
X166337397Y-64231143D01*
X166524144Y-63707698D01*
X166496362Y-63152632D01*
X166408287Y-62940000D01*
X180945070Y-62940000D01*
X181223979Y-62995478D01*
X181401145Y-63113856D01*
X181519521Y-63291019D01*
X181575000Y-63569931D01*
X181575000Y-78116545D01*
X181222698Y-77990856D01*
X180667632Y-78018638D01*
X180283857Y-78177603D01*
X180214392Y-78419787D01*
X181015000Y-79220395D01*
X181029143Y-79206253D01*
X181208748Y-79385858D01*
X181194605Y-79400000D01*
X181208748Y-79414143D01*
X181029143Y-79593748D01*
X181015000Y-79579605D01*
X180214392Y-80380213D01*
X180283857Y-80622397D01*
X180807302Y-80809144D01*
X181362368Y-80781362D01*
X181575000Y-80693287D01*
X181575000Y-107608545D01*
X181222698Y-107482856D01*
X180667632Y-107510638D01*
X180283857Y-107669603D01*
X180214392Y-107911787D01*
X181015000Y-108712395D01*
X181029143Y-108698253D01*
X181208748Y-108877858D01*
X181194605Y-108892000D01*
X181208748Y-108906143D01*
X181029143Y-109085748D01*
X181015000Y-109071605D01*
X180214392Y-109872213D01*
X180283857Y-110114397D01*
X180807302Y-110301144D01*
X181362368Y-110273362D01*
X181575000Y-110185287D01*
X181575000Y-124330069D01*
X181519521Y-124608981D01*
X181401145Y-124786144D01*
X181223979Y-124904522D01*
X180945070Y-124960000D01*
X166298455Y-124960000D01*
X166424144Y-124607698D01*
X166396362Y-124052632D01*
X166237397Y-123668857D01*
X165995213Y-123599392D01*
X165194605Y-124400000D01*
X165208748Y-124414143D01*
X165029143Y-124593748D01*
X165015000Y-124579605D01*
X165000858Y-124593748D01*
X164821253Y-124414143D01*
X164835395Y-124400000D01*
X164034787Y-123599392D01*
X163792603Y-123668857D01*
X163605856Y-124192302D01*
X163633638Y-124747368D01*
X163721713Y-124960000D01*
X137198455Y-124960000D01*
X137324144Y-124607698D01*
X137296362Y-124052632D01*
X137137397Y-123668857D01*
X136895213Y-123599392D01*
X136094605Y-124400000D01*
X136108748Y-124414143D01*
X135929143Y-124593748D01*
X135915000Y-124579605D01*
X135900858Y-124593748D01*
X135721253Y-124414143D01*
X135735395Y-124400000D01*
X134934787Y-123599392D01*
X134692603Y-123668857D01*
X134505856Y-124192302D01*
X134533638Y-124747368D01*
X134621713Y-124960000D01*
X120084931Y-124960000D01*
X119806019Y-124904521D01*
X119628856Y-124786145D01*
X119510478Y-124608979D01*
X119455000Y-124330070D01*
X119455000Y-123419787D01*
X135114392Y-123419787D01*
X135915000Y-124220395D01*
X136715608Y-123419787D01*
X164214392Y-123419787D01*
X165015000Y-124220395D01*
X165815608Y-123419787D01*
X165746143Y-123177603D01*
X165222698Y-122990856D01*
X164667632Y-123018638D01*
X164283857Y-123177603D01*
X164214392Y-123419787D01*
X136715608Y-123419787D01*
X136646143Y-123177603D01*
X136122698Y-122990856D01*
X135567632Y-123018638D01*
X135183857Y-123177603D01*
X135114392Y-123419787D01*
X119455000Y-123419787D01*
X119455000Y-121756892D01*
X129453514Y-121756892D01*
X129699817Y-122281358D01*
X130128076Y-122671645D01*
X130538110Y-122841476D01*
X130768000Y-122720155D01*
X130768000Y-121527000D01*
X129574181Y-121527000D01*
X129453514Y-121756892D01*
X119455000Y-121756892D01*
X119455000Y-121043108D01*
X129453514Y-121043108D01*
X129574181Y-121273000D01*
X130768000Y-121273000D01*
X130768000Y-120079845D01*
X131022000Y-120079845D01*
X131022000Y-121273000D01*
X131042000Y-121273000D01*
X131042000Y-121527000D01*
X131022000Y-121527000D01*
X131022000Y-122720155D01*
X131251890Y-122841476D01*
X131661924Y-122671645D01*
X132090183Y-122281358D01*
X132157298Y-122138447D01*
X132384946Y-122479147D01*
X132866715Y-122801054D01*
X133435000Y-122914093D01*
X134003285Y-122801054D01*
X134485054Y-122479147D01*
X134705000Y-122149974D01*
X134924946Y-122479147D01*
X135406715Y-122801054D01*
X135975000Y-122914093D01*
X136543285Y-122801054D01*
X137025054Y-122479147D01*
X137052850Y-122437548D01*
X137061838Y-122485317D01*
X137200910Y-122701441D01*
X137413110Y-122846431D01*
X137665000Y-122897440D01*
X139365000Y-122897440D01*
X139600317Y-122853162D01*
X139816441Y-122714090D01*
X139961431Y-122501890D01*
X140012440Y-122250000D01*
X140012440Y-121370907D01*
X161010000Y-121370907D01*
X161010000Y-121429093D01*
X161123039Y-121997378D01*
X161444946Y-122479147D01*
X161926715Y-122801054D01*
X162495000Y-122914093D01*
X163063285Y-122801054D01*
X163545054Y-122479147D01*
X163765000Y-122149974D01*
X163984946Y-122479147D01*
X164466715Y-122801054D01*
X165035000Y-122914093D01*
X165603285Y-122801054D01*
X166085054Y-122479147D01*
X166305000Y-122149974D01*
X166524946Y-122479147D01*
X167006715Y-122801054D01*
X167575000Y-122914093D01*
X168143285Y-122801054D01*
X168625054Y-122479147D01*
X168652850Y-122437548D01*
X168661838Y-122485317D01*
X168800910Y-122701441D01*
X169013110Y-122846431D01*
X169265000Y-122897440D01*
X170965000Y-122897440D01*
X171200317Y-122853162D01*
X171416441Y-122714090D01*
X171561431Y-122501890D01*
X171612440Y-122250000D01*
X171612440Y-121370907D01*
X174410000Y-121370907D01*
X174410000Y-121429093D01*
X174523039Y-121997378D01*
X174844946Y-122479147D01*
X175326715Y-122801054D01*
X175895000Y-122914093D01*
X176463285Y-122801054D01*
X176945054Y-122479147D01*
X176950000Y-122471745D01*
X176950000Y-122491309D01*
X177046673Y-122724698D01*
X177225301Y-122903327D01*
X177458690Y-123000000D01*
X178149250Y-123000000D01*
X178308000Y-122841250D01*
X178308000Y-121642000D01*
X178562000Y-121642000D01*
X178562000Y-122841250D01*
X178720750Y-123000000D01*
X179411310Y-123000000D01*
X179644699Y-122903327D01*
X179823327Y-122724698D01*
X179920000Y-122491309D01*
X179920000Y-121800750D01*
X179761250Y-121642000D01*
X178562000Y-121642000D01*
X178308000Y-121642000D01*
X178288000Y-121642000D01*
X178288000Y-121388000D01*
X178308000Y-121388000D01*
X178308000Y-120188750D01*
X178562000Y-120188750D01*
X178562000Y-121388000D01*
X179761250Y-121388000D01*
X179920000Y-121229250D01*
X179920000Y-120538691D01*
X179823327Y-120305302D01*
X179644699Y-120126673D01*
X179411310Y-120030000D01*
X178720750Y-120030000D01*
X178562000Y-120188750D01*
X178308000Y-120188750D01*
X178149250Y-120030000D01*
X177458690Y-120030000D01*
X177225301Y-120126673D01*
X177046673Y-120305302D01*
X177003809Y-120408786D01*
X176945054Y-120320853D01*
X176780000Y-120210568D01*
X176780000Y-117146822D01*
X176829838Y-117026799D01*
X176830162Y-116654833D01*
X176688117Y-116311057D01*
X176425327Y-116047808D01*
X176081799Y-115905162D01*
X175709833Y-115904838D01*
X175366057Y-116046883D01*
X175102808Y-116309673D01*
X174960162Y-116653201D01*
X174959838Y-117025167D01*
X175010000Y-117146569D01*
X175010000Y-120210568D01*
X174844946Y-120320853D01*
X174523039Y-120802622D01*
X174410000Y-121370907D01*
X171612440Y-121370907D01*
X171612440Y-120550000D01*
X171568162Y-120314683D01*
X171429090Y-120098559D01*
X171216890Y-119953569D01*
X170965000Y-119902560D01*
X169265000Y-119902560D01*
X169029683Y-119946838D01*
X168813559Y-120085910D01*
X168668569Y-120298110D01*
X168654914Y-120365541D01*
X168625054Y-120320853D01*
X168143285Y-119998946D01*
X167575000Y-119885907D01*
X167006715Y-119998946D01*
X166524946Y-120320853D01*
X166305000Y-120650026D01*
X166085054Y-120320853D01*
X165603285Y-119998946D01*
X165035000Y-119885907D01*
X164466715Y-119998946D01*
X163984946Y-120320853D01*
X163765000Y-120650026D01*
X163545054Y-120320853D01*
X163380000Y-120210568D01*
X163380000Y-119811580D01*
X164196579Y-118995000D01*
X169238178Y-118995000D01*
X169358201Y-119044838D01*
X169730167Y-119045162D01*
X170073943Y-118903117D01*
X170337192Y-118640327D01*
X170479838Y-118296799D01*
X170480162Y-117924833D01*
X170338117Y-117581057D01*
X170075327Y-117317808D01*
X169731799Y-117175162D01*
X169359833Y-117174838D01*
X169238431Y-117225000D01*
X163830005Y-117225000D01*
X163830000Y-117224999D01*
X163491325Y-117292367D01*
X163204210Y-117484210D01*
X163204208Y-117484213D01*
X161869210Y-118819210D01*
X161677367Y-119106325D01*
X161677367Y-119106326D01*
X161609999Y-119445000D01*
X161610000Y-119445005D01*
X161610000Y-120210568D01*
X161444946Y-120320853D01*
X161123039Y-120802622D01*
X161010000Y-121370907D01*
X140012440Y-121370907D01*
X140012440Y-120550000D01*
X139968162Y-120314683D01*
X139829090Y-120098559D01*
X139616890Y-119953569D01*
X139365000Y-119902560D01*
X137665000Y-119902560D01*
X137429683Y-119946838D01*
X137213559Y-120085910D01*
X137068569Y-120298110D01*
X137054914Y-120365541D01*
X137025054Y-120320853D01*
X136543285Y-119998946D01*
X135975000Y-119885907D01*
X135406715Y-119998946D01*
X134924946Y-120320853D01*
X134705000Y-120650026D01*
X134485054Y-120320853D01*
X134003285Y-119998946D01*
X133435000Y-119885907D01*
X132866715Y-119998946D01*
X132384946Y-120320853D01*
X132157298Y-120661553D01*
X132090183Y-120518642D01*
X131661924Y-120128355D01*
X131251890Y-119958524D01*
X131022000Y-120079845D01*
X130768000Y-120079845D01*
X130538110Y-119958524D01*
X130128076Y-120128355D01*
X129699817Y-120518642D01*
X129453514Y-121043108D01*
X119455000Y-121043108D01*
X119455000Y-117475000D01*
X121726887Y-117475000D01*
X121836120Y-118024151D01*
X122147189Y-118489698D01*
X122612736Y-118800767D01*
X123161887Y-118910000D01*
X123218113Y-118910000D01*
X123767264Y-118800767D01*
X124232811Y-118489698D01*
X124543880Y-118024151D01*
X124596584Y-117759187D01*
X131914752Y-117759187D01*
X132132757Y-118286800D01*
X132536077Y-118690824D01*
X133063309Y-118909750D01*
X133634187Y-118910248D01*
X134161800Y-118692243D01*
X134565824Y-118288923D01*
X134619862Y-118158785D01*
X134672757Y-118286800D01*
X135076077Y-118690824D01*
X135603309Y-118909750D01*
X136174187Y-118910248D01*
X136701800Y-118692243D01*
X137105824Y-118288923D01*
X137324750Y-117761691D01*
X137325000Y-117475000D01*
X144586887Y-117475000D01*
X144696120Y-118024151D01*
X145007189Y-118489698D01*
X145472736Y-118800767D01*
X146021887Y-118910000D01*
X146078113Y-118910000D01*
X146627264Y-118800767D01*
X147092811Y-118489698D01*
X147403880Y-118024151D01*
X147513113Y-117475000D01*
X147403880Y-116925849D01*
X147092811Y-116460302D01*
X146627264Y-116149233D01*
X146078113Y-116040000D01*
X146021887Y-116040000D01*
X145472736Y-116149233D01*
X145007189Y-116460302D01*
X144696120Y-116925849D01*
X144586887Y-117475000D01*
X137325000Y-117475000D01*
X137325248Y-117190813D01*
X137107243Y-116663200D01*
X136703923Y-116259176D01*
X136176691Y-116040250D01*
X135605813Y-116039752D01*
X135078200Y-116257757D01*
X134674176Y-116661077D01*
X134620138Y-116791215D01*
X134567243Y-116663200D01*
X134163923Y-116259176D01*
X133636691Y-116040250D01*
X133065813Y-116039752D01*
X132538200Y-116257757D01*
X132134176Y-116661077D01*
X131915250Y-117188309D01*
X131914752Y-117759187D01*
X124596584Y-117759187D01*
X124653113Y-117475000D01*
X124543880Y-116925849D01*
X124232811Y-116460302D01*
X123767264Y-116149233D01*
X123218113Y-116040000D01*
X123161887Y-116040000D01*
X122612736Y-116149233D01*
X122147189Y-116460302D01*
X121836120Y-116925849D01*
X121726887Y-117475000D01*
X119455000Y-117475000D01*
X119455000Y-114014039D01*
X121798096Y-114014039D01*
X121958959Y-114402423D01*
X122334866Y-114817389D01*
X122840959Y-115056914D01*
X123063000Y-114935629D01*
X123063000Y-113792000D01*
X123317000Y-113792000D01*
X123317000Y-114935629D01*
X123539041Y-115056914D01*
X124045134Y-114817389D01*
X124421041Y-114402423D01*
X124581904Y-114014039D01*
X124546275Y-113949187D01*
X131914752Y-113949187D01*
X132132757Y-114476800D01*
X132536077Y-114880824D01*
X133063309Y-115099750D01*
X133634187Y-115100248D01*
X134161800Y-114882243D01*
X134565824Y-114478923D01*
X134619862Y-114348785D01*
X134672757Y-114476800D01*
X135076077Y-114880824D01*
X135603309Y-115099750D01*
X136174187Y-115100248D01*
X136701800Y-114882243D01*
X137105824Y-114478923D01*
X137298860Y-114014039D01*
X144658096Y-114014039D01*
X144818959Y-114402423D01*
X145194866Y-114817389D01*
X145700959Y-115056914D01*
X145923000Y-114935629D01*
X145923000Y-113792000D01*
X146177000Y-113792000D01*
X146177000Y-114935629D01*
X146399041Y-115056914D01*
X146905134Y-114817389D01*
X147281041Y-114402423D01*
X147441904Y-114014039D01*
X147319915Y-113792000D01*
X146177000Y-113792000D01*
X145923000Y-113792000D01*
X144780085Y-113792000D01*
X144658096Y-114014039D01*
X137298860Y-114014039D01*
X137324750Y-113951691D01*
X137325248Y-113380813D01*
X137298452Y-113315961D01*
X144658096Y-113315961D01*
X144780085Y-113538000D01*
X145923000Y-113538000D01*
X145923000Y-112394371D01*
X146177000Y-112394371D01*
X146177000Y-113538000D01*
X147319915Y-113538000D01*
X147441904Y-113315961D01*
X147281041Y-112927577D01*
X146905134Y-112512611D01*
X146399041Y-112273086D01*
X146177000Y-112394371D01*
X145923000Y-112394371D01*
X145700959Y-112273086D01*
X145194866Y-112512611D01*
X144818959Y-112927577D01*
X144658096Y-113315961D01*
X137298452Y-113315961D01*
X137107243Y-112853200D01*
X136703923Y-112449176D01*
X136176691Y-112230250D01*
X135605813Y-112229752D01*
X135078200Y-112447757D01*
X134674176Y-112851077D01*
X134620138Y-112981215D01*
X134567243Y-112853200D01*
X134163923Y-112449176D01*
X133636691Y-112230250D01*
X133065813Y-112229752D01*
X132538200Y-112447757D01*
X132134176Y-112851077D01*
X131915250Y-113378309D01*
X131914752Y-113949187D01*
X124546275Y-113949187D01*
X124459915Y-113792000D01*
X123317000Y-113792000D01*
X123063000Y-113792000D01*
X121920085Y-113792000D01*
X121798096Y-114014039D01*
X119455000Y-114014039D01*
X119455000Y-113315961D01*
X121798096Y-113315961D01*
X121920085Y-113538000D01*
X123063000Y-113538000D01*
X123063000Y-112394371D01*
X123317000Y-112394371D01*
X123317000Y-113538000D01*
X124459915Y-113538000D01*
X124581904Y-113315961D01*
X124421041Y-112927577D01*
X124045134Y-112512611D01*
X123539041Y-112273086D01*
X123317000Y-112394371D01*
X123063000Y-112394371D01*
X122840959Y-112273086D01*
X122334866Y-112512611D01*
X121958959Y-112927577D01*
X121798096Y-113315961D01*
X119455000Y-113315961D01*
X119455000Y-110175455D01*
X119807302Y-110301144D01*
X120362368Y-110273362D01*
X120686294Y-110139187D01*
X126834752Y-110139187D01*
X127052757Y-110666800D01*
X127456077Y-111070824D01*
X127983309Y-111289750D01*
X128554187Y-111290248D01*
X129081800Y-111072243D01*
X129485824Y-110668923D01*
X129704750Y-110141691D01*
X129704752Y-110139187D01*
X131834752Y-110139187D01*
X132052757Y-110666800D01*
X132456077Y-111070824D01*
X132983309Y-111289750D01*
X133554187Y-111290248D01*
X134081800Y-111072243D01*
X134485824Y-110668923D01*
X134579961Y-110442216D01*
X134672757Y-110666800D01*
X135076077Y-111070824D01*
X135603309Y-111289750D01*
X136174187Y-111290248D01*
X136701800Y-111072243D01*
X137105824Y-110668923D01*
X137298860Y-110204039D01*
X144658096Y-110204039D01*
X144818959Y-110592423D01*
X145194866Y-111007389D01*
X145700959Y-111246914D01*
X145923000Y-111125629D01*
X145923000Y-109982000D01*
X146177000Y-109982000D01*
X146177000Y-111125629D01*
X146399041Y-111246914D01*
X146905134Y-111007389D01*
X147281041Y-110592423D01*
X147441904Y-110204039D01*
X147319915Y-109982000D01*
X146177000Y-109982000D01*
X145923000Y-109982000D01*
X144780085Y-109982000D01*
X144658096Y-110204039D01*
X137298860Y-110204039D01*
X137324750Y-110141691D01*
X137325000Y-109855000D01*
X157286887Y-109855000D01*
X157396120Y-110404151D01*
X157707189Y-110869698D01*
X158172736Y-111180767D01*
X158721887Y-111290000D01*
X158778113Y-111290000D01*
X159327264Y-111180767D01*
X159792811Y-110869698D01*
X160103880Y-110404151D01*
X160213113Y-109855000D01*
X160103880Y-109305849D01*
X159936268Y-109055000D01*
X164922560Y-109055000D01*
X164922560Y-110655000D01*
X164966838Y-110890317D01*
X165105910Y-111106441D01*
X165318110Y-111251431D01*
X165570000Y-111302440D01*
X167170000Y-111302440D01*
X167405317Y-111258162D01*
X167621441Y-111119090D01*
X167766431Y-110906890D01*
X167817440Y-110655000D01*
X167817440Y-109055000D01*
X167773162Y-108819683D01*
X167686047Y-108684302D01*
X179605856Y-108684302D01*
X179633638Y-109239368D01*
X179792603Y-109623143D01*
X180034787Y-109692608D01*
X180835395Y-108892000D01*
X180034787Y-108091392D01*
X179792603Y-108160857D01*
X179605856Y-108684302D01*
X167686047Y-108684302D01*
X167634090Y-108603559D01*
X167421890Y-108458569D01*
X167170000Y-108407560D01*
X165570000Y-108407560D01*
X165334683Y-108451838D01*
X165118559Y-108590910D01*
X164973569Y-108803110D01*
X164922560Y-109055000D01*
X159936268Y-109055000D01*
X159792811Y-108840302D01*
X159327264Y-108529233D01*
X158778113Y-108420000D01*
X158721887Y-108420000D01*
X158172736Y-108529233D01*
X157707189Y-108840302D01*
X157396120Y-109305849D01*
X157286887Y-109855000D01*
X137325000Y-109855000D01*
X137325248Y-109570813D01*
X137298452Y-109505961D01*
X144658096Y-109505961D01*
X144780085Y-109728000D01*
X145923000Y-109728000D01*
X145923000Y-108584371D01*
X146177000Y-108584371D01*
X146177000Y-109728000D01*
X147319915Y-109728000D01*
X147441904Y-109505961D01*
X147281041Y-109117577D01*
X146905134Y-108702611D01*
X146399041Y-108463086D01*
X146177000Y-108584371D01*
X145923000Y-108584371D01*
X145700959Y-108463086D01*
X145194866Y-108702611D01*
X144818959Y-109117577D01*
X144658096Y-109505961D01*
X137298452Y-109505961D01*
X137107243Y-109043200D01*
X136703923Y-108639176D01*
X136176691Y-108420250D01*
X135605813Y-108419752D01*
X135078200Y-108637757D01*
X134674176Y-109041077D01*
X134580039Y-109267784D01*
X134487243Y-109043200D01*
X134083923Y-108639176D01*
X133556691Y-108420250D01*
X132985813Y-108419752D01*
X132458200Y-108637757D01*
X132054176Y-109041077D01*
X131835250Y-109568309D01*
X131834752Y-110139187D01*
X129704752Y-110139187D01*
X129705248Y-109570813D01*
X129487243Y-109043200D01*
X129083923Y-108639176D01*
X128556691Y-108420250D01*
X127985813Y-108419752D01*
X127458200Y-108637757D01*
X127054176Y-109041077D01*
X126835250Y-109568309D01*
X126834752Y-110139187D01*
X120686294Y-110139187D01*
X120746143Y-110114397D01*
X120815608Y-109872213D01*
X120015000Y-109071605D01*
X120000858Y-109085748D01*
X119821253Y-108906143D01*
X119835395Y-108892000D01*
X120194605Y-108892000D01*
X120995213Y-109692608D01*
X121237397Y-109623143D01*
X121424144Y-109099698D01*
X121396362Y-108544632D01*
X121237397Y-108160857D01*
X120995213Y-108091392D01*
X120194605Y-108892000D01*
X119835395Y-108892000D01*
X119821253Y-108877858D01*
X120000858Y-108698253D01*
X120015000Y-108712395D01*
X120815608Y-107911787D01*
X120746143Y-107669603D01*
X120222698Y-107482856D01*
X119667632Y-107510638D01*
X119455000Y-107598713D01*
X119455000Y-106329187D01*
X134454752Y-106329187D01*
X134672757Y-106856800D01*
X135076077Y-107260824D01*
X135603309Y-107479750D01*
X136174187Y-107480248D01*
X136701800Y-107262243D01*
X137105824Y-106858923D01*
X137324750Y-106331691D01*
X137325000Y-106045000D01*
X144586887Y-106045000D01*
X144696120Y-106594151D01*
X145007189Y-107059698D01*
X145472736Y-107370767D01*
X146021887Y-107480000D01*
X146078113Y-107480000D01*
X146627264Y-107370767D01*
X147092811Y-107059698D01*
X147403880Y-106594151D01*
X147456584Y-106329187D01*
X147789752Y-106329187D01*
X148007757Y-106856800D01*
X148411077Y-107260824D01*
X148938309Y-107479750D01*
X149509187Y-107480248D01*
X150036800Y-107262243D01*
X150246663Y-107052745D01*
X153396861Y-107052745D01*
X153470995Y-107298864D01*
X154008223Y-107491965D01*
X154578454Y-107464778D01*
X154979005Y-107298864D01*
X155053139Y-107052745D01*
X154225000Y-106224605D01*
X153396861Y-107052745D01*
X150246663Y-107052745D01*
X150440824Y-106858923D01*
X150659750Y-106331691D01*
X150660189Y-105828223D01*
X152778035Y-105828223D01*
X152805222Y-106398454D01*
X152971136Y-106799005D01*
X153217255Y-106873139D01*
X154045395Y-106045000D01*
X154404605Y-106045000D01*
X155232745Y-106873139D01*
X155478864Y-106799005D01*
X155624424Y-106394039D01*
X156088096Y-106394039D01*
X156248959Y-106782423D01*
X156624866Y-107197389D01*
X157130959Y-107436914D01*
X157353000Y-107315629D01*
X157353000Y-106172000D01*
X157607000Y-106172000D01*
X157607000Y-107315629D01*
X157829041Y-107436914D01*
X158335134Y-107197389D01*
X158711041Y-106782423D01*
X158871904Y-106394039D01*
X158836275Y-106329187D01*
X166204752Y-106329187D01*
X166422757Y-106856800D01*
X166826077Y-107260824D01*
X167353309Y-107479750D01*
X167924187Y-107480248D01*
X168451800Y-107262243D01*
X168855824Y-106858923D01*
X169074750Y-106331691D01*
X169075248Y-105760813D01*
X168857243Y-105233200D01*
X168453923Y-104829176D01*
X167926691Y-104610250D01*
X167355813Y-104609752D01*
X166828200Y-104827757D01*
X166424176Y-105231077D01*
X166205250Y-105758309D01*
X166204752Y-106329187D01*
X158836275Y-106329187D01*
X158749915Y-106172000D01*
X157607000Y-106172000D01*
X157353000Y-106172000D01*
X156210085Y-106172000D01*
X156088096Y-106394039D01*
X155624424Y-106394039D01*
X155671965Y-106261777D01*
X155644989Y-105695961D01*
X156088096Y-105695961D01*
X156210085Y-105918000D01*
X157353000Y-105918000D01*
X157353000Y-104774371D01*
X157607000Y-104774371D01*
X157607000Y-105918000D01*
X158749915Y-105918000D01*
X158871904Y-105695961D01*
X158711041Y-105307577D01*
X158335134Y-104892611D01*
X157829041Y-104653086D01*
X157607000Y-104774371D01*
X157353000Y-104774371D01*
X157130959Y-104653086D01*
X156624866Y-104892611D01*
X156248959Y-105307577D01*
X156088096Y-105695961D01*
X155644989Y-105695961D01*
X155644778Y-105691546D01*
X155478864Y-105290995D01*
X155232745Y-105216861D01*
X154404605Y-106045000D01*
X154045395Y-106045000D01*
X153217255Y-105216861D01*
X152971136Y-105290995D01*
X152778035Y-105828223D01*
X150660189Y-105828223D01*
X150660248Y-105760813D01*
X150442243Y-105233200D01*
X150246640Y-105037255D01*
X153396861Y-105037255D01*
X154225000Y-105865395D01*
X155053139Y-105037255D01*
X154979005Y-104791136D01*
X154441777Y-104598035D01*
X153871546Y-104625222D01*
X153470995Y-104791136D01*
X153396861Y-105037255D01*
X150246640Y-105037255D01*
X150038923Y-104829176D01*
X149511691Y-104610250D01*
X148940813Y-104609752D01*
X148413200Y-104827757D01*
X148009176Y-105231077D01*
X147790250Y-105758309D01*
X147789752Y-106329187D01*
X147456584Y-106329187D01*
X147513113Y-106045000D01*
X147403880Y-105495849D01*
X147092811Y-105030302D01*
X146627264Y-104719233D01*
X146078113Y-104610000D01*
X146021887Y-104610000D01*
X145472736Y-104719233D01*
X145007189Y-105030302D01*
X144696120Y-105495849D01*
X144586887Y-106045000D01*
X137325000Y-106045000D01*
X137325248Y-105760813D01*
X137107243Y-105233200D01*
X136703923Y-104829176D01*
X136176691Y-104610250D01*
X135605813Y-104609752D01*
X135078200Y-104827757D01*
X134674176Y-105231077D01*
X134455250Y-105758309D01*
X134454752Y-106329187D01*
X119455000Y-106329187D01*
X119455000Y-97030000D01*
X121782560Y-97030000D01*
X121782560Y-98550000D01*
X121826838Y-98785317D01*
X121965910Y-99001441D01*
X122178110Y-99146431D01*
X122363480Y-99183969D01*
X122008066Y-99538764D01*
X121795242Y-100051300D01*
X121794758Y-100606265D01*
X122006687Y-101119172D01*
X122398764Y-101511934D01*
X122610738Y-101599954D01*
X122400828Y-101686687D01*
X122008066Y-102078764D01*
X121795242Y-102591300D01*
X121794758Y-103146265D01*
X122006687Y-103659172D01*
X122398764Y-104051934D01*
X122911300Y-104264758D01*
X123466265Y-104265242D01*
X123979172Y-104053313D01*
X124371934Y-103661236D01*
X124584758Y-103148700D01*
X124585242Y-102593735D01*
X124373313Y-102080828D01*
X123981236Y-101688066D01*
X123769262Y-101600046D01*
X123979172Y-101513313D01*
X124371934Y-101121236D01*
X124584758Y-100608700D01*
X124585242Y-100053735D01*
X124373313Y-99540828D01*
X124017790Y-99184684D01*
X124185317Y-99153162D01*
X124401441Y-99014090D01*
X124546431Y-98801890D01*
X124572127Y-98675000D01*
X128791080Y-98675000D01*
X128811838Y-98785317D01*
X128950910Y-99001441D01*
X129163110Y-99146431D01*
X129348480Y-99183969D01*
X128993066Y-99538764D01*
X128780242Y-100051300D01*
X128779758Y-100606265D01*
X128991687Y-101119172D01*
X129383764Y-101511934D01*
X129595738Y-101599954D01*
X129385828Y-101686687D01*
X128993066Y-102078764D01*
X128780242Y-102591300D01*
X128779758Y-103146265D01*
X128991687Y-103659172D01*
X129383764Y-104051934D01*
X129896300Y-104264758D01*
X130451265Y-104265242D01*
X130964172Y-104053313D01*
X131356934Y-103661236D01*
X131569758Y-103148700D01*
X131570242Y-102593735D01*
X131422016Y-102235000D01*
X134426887Y-102235000D01*
X134536120Y-102784151D01*
X134847189Y-103249698D01*
X135312736Y-103560767D01*
X135861887Y-103670000D01*
X135918113Y-103670000D01*
X136467264Y-103560767D01*
X136932811Y-103249698D01*
X137243880Y-102784151D01*
X137296584Y-102519187D01*
X144614752Y-102519187D01*
X144832757Y-103046800D01*
X145236077Y-103450824D01*
X145763309Y-103669750D01*
X146334187Y-103670248D01*
X146861800Y-103452243D01*
X147265824Y-103048923D01*
X147484750Y-102521691D01*
X147484752Y-102519187D01*
X147789752Y-102519187D01*
X148007757Y-103046800D01*
X148411077Y-103450824D01*
X148938309Y-103669750D01*
X149509187Y-103670248D01*
X150036800Y-103452243D01*
X150440824Y-103048923D01*
X150659750Y-102521691D01*
X150659752Y-102519187D01*
X152789752Y-102519187D01*
X153007757Y-103046800D01*
X153411077Y-103450824D01*
X153938309Y-103669750D01*
X154509187Y-103670248D01*
X155036800Y-103452243D01*
X155440824Y-103048923D01*
X155659750Y-102521691D01*
X155660000Y-102235000D01*
X156016887Y-102235000D01*
X156126120Y-102784151D01*
X156437189Y-103249698D01*
X156902736Y-103560767D01*
X157451887Y-103670000D01*
X157508113Y-103670000D01*
X158057264Y-103560767D01*
X158522811Y-103249698D01*
X158833880Y-102784151D01*
X158886584Y-102519187D01*
X166204752Y-102519187D01*
X166422757Y-103046800D01*
X166826077Y-103450824D01*
X167353309Y-103669750D01*
X167924187Y-103670248D01*
X168451800Y-103452243D01*
X168855824Y-103048923D01*
X169074750Y-102521691D01*
X169075248Y-101950813D01*
X168857243Y-101423200D01*
X168453923Y-101019176D01*
X167926691Y-100800250D01*
X167355813Y-100799752D01*
X166828200Y-101017757D01*
X166424176Y-101421077D01*
X166205250Y-101948309D01*
X166204752Y-102519187D01*
X158886584Y-102519187D01*
X158943113Y-102235000D01*
X158833880Y-101685849D01*
X158522811Y-101220302D01*
X158057264Y-100909233D01*
X157508113Y-100800000D01*
X157451887Y-100800000D01*
X156902736Y-100909233D01*
X156437189Y-101220302D01*
X156126120Y-101685849D01*
X156016887Y-102235000D01*
X155660000Y-102235000D01*
X155660248Y-101950813D01*
X155442243Y-101423200D01*
X155038923Y-101019176D01*
X154511691Y-100800250D01*
X153940813Y-100799752D01*
X153413200Y-101017757D01*
X153009176Y-101421077D01*
X152790250Y-101948309D01*
X152789752Y-102519187D01*
X150659752Y-102519187D01*
X150660248Y-101950813D01*
X150442243Y-101423200D01*
X150038923Y-101019176D01*
X149511691Y-100800250D01*
X148940813Y-100799752D01*
X148413200Y-101017757D01*
X148009176Y-101421077D01*
X147790250Y-101948309D01*
X147789752Y-102519187D01*
X147484752Y-102519187D01*
X147485248Y-101950813D01*
X147267243Y-101423200D01*
X146863923Y-101019176D01*
X146336691Y-100800250D01*
X145765813Y-100799752D01*
X145238200Y-101017757D01*
X144834176Y-101421077D01*
X144615250Y-101948309D01*
X144614752Y-102519187D01*
X137296584Y-102519187D01*
X137353113Y-102235000D01*
X137243880Y-101685849D01*
X136932811Y-101220302D01*
X136467264Y-100909233D01*
X135918113Y-100800000D01*
X135861887Y-100800000D01*
X135312736Y-100909233D01*
X134847189Y-101220302D01*
X134536120Y-101685849D01*
X134426887Y-102235000D01*
X131422016Y-102235000D01*
X131358313Y-102080828D01*
X130966236Y-101688066D01*
X130754262Y-101600046D01*
X130964172Y-101513313D01*
X131356934Y-101121236D01*
X131569758Y-100608700D01*
X131570242Y-100053735D01*
X131358313Y-99540828D01*
X131002790Y-99184684D01*
X131170317Y-99153162D01*
X131386441Y-99014090D01*
X131531431Y-98801890D01*
X131550203Y-98709187D01*
X134454752Y-98709187D01*
X134672757Y-99236800D01*
X135076077Y-99640824D01*
X135603309Y-99859750D01*
X136174187Y-99860248D01*
X136701800Y-99642243D01*
X137105824Y-99238923D01*
X137324750Y-98711691D01*
X137325000Y-98425000D01*
X144586887Y-98425000D01*
X144696120Y-98974151D01*
X145007189Y-99439698D01*
X145472736Y-99750767D01*
X146021887Y-99860000D01*
X146078113Y-99860000D01*
X146627264Y-99750767D01*
X147092811Y-99439698D01*
X147403880Y-98974151D01*
X147456584Y-98709187D01*
X147789752Y-98709187D01*
X148007757Y-99236800D01*
X148411077Y-99640824D01*
X148938309Y-99859750D01*
X149509187Y-99860248D01*
X150036800Y-99642243D01*
X150246663Y-99432745D01*
X153396861Y-99432745D01*
X153470995Y-99678864D01*
X154008223Y-99871965D01*
X154578454Y-99844778D01*
X154979005Y-99678864D01*
X155053139Y-99432745D01*
X154225000Y-98604605D01*
X153396861Y-99432745D01*
X150246663Y-99432745D01*
X150440824Y-99238923D01*
X150659750Y-98711691D01*
X150660189Y-98208223D01*
X152778035Y-98208223D01*
X152805222Y-98778454D01*
X152971136Y-99179005D01*
X153217255Y-99253139D01*
X154045395Y-98425000D01*
X154404605Y-98425000D01*
X155232745Y-99253139D01*
X155478864Y-99179005D01*
X155647735Y-98709187D01*
X156044752Y-98709187D01*
X156262757Y-99236800D01*
X156666077Y-99640824D01*
X157193309Y-99859750D01*
X157764187Y-99860248D01*
X158291800Y-99642243D01*
X158695824Y-99238923D01*
X158888860Y-98774039D01*
X166248096Y-98774039D01*
X166408959Y-99162423D01*
X166784866Y-99577389D01*
X167290959Y-99816914D01*
X167513000Y-99695629D01*
X167513000Y-98552000D01*
X167767000Y-98552000D01*
X167767000Y-99695629D01*
X167989041Y-99816914D01*
X168495134Y-99577389D01*
X168871041Y-99162423D01*
X169031904Y-98774039D01*
X168909915Y-98552000D01*
X167767000Y-98552000D01*
X167513000Y-98552000D01*
X166370085Y-98552000D01*
X166248096Y-98774039D01*
X158888860Y-98774039D01*
X158914750Y-98711691D01*
X158915248Y-98140813D01*
X158888452Y-98075961D01*
X166248096Y-98075961D01*
X166370085Y-98298000D01*
X167513000Y-98298000D01*
X167513000Y-97154371D01*
X167767000Y-97154371D01*
X167767000Y-98298000D01*
X168909915Y-98298000D01*
X169031904Y-98075961D01*
X168871041Y-97687577D01*
X168495134Y-97272611D01*
X167989041Y-97033086D01*
X167767000Y-97154371D01*
X167513000Y-97154371D01*
X167290959Y-97033086D01*
X166784866Y-97272611D01*
X166408959Y-97687577D01*
X166248096Y-98075961D01*
X158888452Y-98075961D01*
X158697243Y-97613200D01*
X158293923Y-97209176D01*
X157766691Y-96990250D01*
X157195813Y-96989752D01*
X156668200Y-97207757D01*
X156264176Y-97611077D01*
X156045250Y-98138309D01*
X156044752Y-98709187D01*
X155647735Y-98709187D01*
X155671965Y-98641777D01*
X155644778Y-98071546D01*
X155478864Y-97670995D01*
X155232745Y-97596861D01*
X154404605Y-98425000D01*
X154045395Y-98425000D01*
X153217255Y-97596861D01*
X152971136Y-97670995D01*
X152778035Y-98208223D01*
X150660189Y-98208223D01*
X150660248Y-98140813D01*
X150442243Y-97613200D01*
X150246640Y-97417255D01*
X153396861Y-97417255D01*
X154225000Y-98245395D01*
X155053139Y-97417255D01*
X154979005Y-97171136D01*
X154441777Y-96978035D01*
X153871546Y-97005222D01*
X153470995Y-97171136D01*
X153396861Y-97417255D01*
X150246640Y-97417255D01*
X150038923Y-97209176D01*
X149511691Y-96990250D01*
X148940813Y-96989752D01*
X148413200Y-97207757D01*
X148009176Y-97611077D01*
X147790250Y-98138309D01*
X147789752Y-98709187D01*
X147456584Y-98709187D01*
X147513113Y-98425000D01*
X147403880Y-97875849D01*
X147092811Y-97410302D01*
X146627264Y-97099233D01*
X146078113Y-96990000D01*
X146021887Y-96990000D01*
X145472736Y-97099233D01*
X145007189Y-97410302D01*
X144696120Y-97875849D01*
X144586887Y-98425000D01*
X137325000Y-98425000D01*
X137325248Y-98140813D01*
X137107243Y-97613200D01*
X136703923Y-97209176D01*
X136176691Y-96990250D01*
X135605813Y-96989752D01*
X135078200Y-97207757D01*
X134674176Y-97611077D01*
X134455250Y-98138309D01*
X134454752Y-98709187D01*
X131550203Y-98709187D01*
X131582440Y-98550000D01*
X131582440Y-97030000D01*
X131538162Y-96794683D01*
X131399090Y-96578559D01*
X131186890Y-96433569D01*
X130935000Y-96382560D01*
X129415000Y-96382560D01*
X129179683Y-96426838D01*
X128963559Y-96565910D01*
X128818569Y-96778110D01*
X128792873Y-96905000D01*
X124573920Y-96905000D01*
X124553162Y-96794683D01*
X124414090Y-96578559D01*
X124201890Y-96433569D01*
X123950000Y-96382560D01*
X122430000Y-96382560D01*
X122194683Y-96426838D01*
X121978559Y-96565910D01*
X121833569Y-96778110D01*
X121782560Y-97030000D01*
X119455000Y-97030000D01*
X119455000Y-96070167D01*
X124794838Y-96070167D01*
X124936883Y-96413943D01*
X125199673Y-96677192D01*
X125543201Y-96819838D01*
X125915167Y-96820162D01*
X126258943Y-96678117D01*
X126522192Y-96415327D01*
X126664838Y-96071799D01*
X126664879Y-96024923D01*
X126679802Y-96010000D01*
X130882537Y-96010000D01*
X130914673Y-96042192D01*
X131258201Y-96184838D01*
X131630167Y-96185162D01*
X131973943Y-96043117D01*
X132237192Y-95780327D01*
X132379838Y-95436799D01*
X132380162Y-95064833D01*
X132311719Y-94899187D01*
X156044752Y-94899187D01*
X156262757Y-95426800D01*
X156666077Y-95830824D01*
X157193309Y-96049750D01*
X157764187Y-96050248D01*
X158291800Y-95832243D01*
X158695824Y-95428923D01*
X158914750Y-94901691D01*
X158915000Y-94615000D01*
X166176887Y-94615000D01*
X166286120Y-95164151D01*
X166597189Y-95629698D01*
X167062736Y-95940767D01*
X167611887Y-96050000D01*
X167668113Y-96050000D01*
X168217264Y-95940767D01*
X168682811Y-95629698D01*
X168993880Y-95164151D01*
X169103113Y-94615000D01*
X168993880Y-94065849D01*
X168682811Y-93600302D01*
X168217264Y-93289233D01*
X167668113Y-93180000D01*
X167611887Y-93180000D01*
X167062736Y-93289233D01*
X166597189Y-93600302D01*
X166286120Y-94065849D01*
X166176887Y-94615000D01*
X158915000Y-94615000D01*
X158915248Y-94330813D01*
X158697243Y-93803200D01*
X158293923Y-93399176D01*
X157766691Y-93180250D01*
X157195813Y-93179752D01*
X156668200Y-93397757D01*
X156264176Y-93801077D01*
X156045250Y-94328309D01*
X156044752Y-94899187D01*
X132311719Y-94899187D01*
X132238117Y-94721057D01*
X131975327Y-94457808D01*
X131631799Y-94315162D01*
X131259833Y-94314838D01*
X130916057Y-94456883D01*
X130882882Y-94490000D01*
X126365000Y-94490000D01*
X126074161Y-94547852D01*
X125827599Y-94712599D01*
X125590320Y-94949878D01*
X125544833Y-94949838D01*
X125201057Y-95091883D01*
X124937808Y-95354673D01*
X124795162Y-95698201D01*
X124794838Y-96070167D01*
X119455000Y-96070167D01*
X119455000Y-90005000D01*
X157302560Y-90005000D01*
X157302560Y-91605000D01*
X157346838Y-91840317D01*
X157485910Y-92056441D01*
X157698110Y-92201431D01*
X157950000Y-92252440D01*
X159550000Y-92252440D01*
X159785317Y-92208162D01*
X160001441Y-92069090D01*
X160146431Y-91856890D01*
X160197440Y-91605000D01*
X160197440Y-90805000D01*
X164906887Y-90805000D01*
X165016120Y-91354151D01*
X165327189Y-91819698D01*
X165792736Y-92130767D01*
X166341887Y-92240000D01*
X166398113Y-92240000D01*
X166947264Y-92130767D01*
X167412811Y-91819698D01*
X167723880Y-91354151D01*
X167833113Y-90805000D01*
X167723880Y-90255849D01*
X167412811Y-89790302D01*
X166947264Y-89479233D01*
X166398113Y-89370000D01*
X166341887Y-89370000D01*
X165792736Y-89479233D01*
X165327189Y-89790302D01*
X165016120Y-90255849D01*
X164906887Y-90805000D01*
X160197440Y-90805000D01*
X160197440Y-90005000D01*
X160153162Y-89769683D01*
X160014090Y-89553559D01*
X159801890Y-89408569D01*
X159550000Y-89357560D01*
X157950000Y-89357560D01*
X157714683Y-89401838D01*
X157498559Y-89540910D01*
X157353569Y-89753110D01*
X157302560Y-90005000D01*
X119455000Y-90005000D01*
X119455000Y-82335000D01*
X161062560Y-82335000D01*
X161062560Y-84035000D01*
X161106838Y-84270317D01*
X161245910Y-84486441D01*
X161458110Y-84631431D01*
X161710000Y-84682440D01*
X163410000Y-84682440D01*
X163645317Y-84638162D01*
X163861441Y-84499090D01*
X164006431Y-84286890D01*
X164020086Y-84219459D01*
X164049946Y-84264147D01*
X164531715Y-84586054D01*
X165100000Y-84699093D01*
X165668285Y-84586054D01*
X166150054Y-84264147D01*
X166471961Y-83782378D01*
X166585000Y-83214093D01*
X166585000Y-83155907D01*
X166471961Y-82587622D01*
X166150054Y-82105853D01*
X165668285Y-81783946D01*
X165100000Y-81670907D01*
X164531715Y-81783946D01*
X164049946Y-82105853D01*
X164022150Y-82147452D01*
X164013162Y-82099683D01*
X163874090Y-81883559D01*
X163661890Y-81738569D01*
X163410000Y-81687560D01*
X161710000Y-81687560D01*
X161474683Y-81731838D01*
X161258559Y-81870910D01*
X161113569Y-82083110D01*
X161062560Y-82335000D01*
X119455000Y-82335000D01*
X119455000Y-80683455D01*
X119807302Y-80809144D01*
X120362368Y-80781362D01*
X120746143Y-80622397D01*
X120815608Y-80380213D01*
X120015000Y-79579605D01*
X120000858Y-79593748D01*
X119821253Y-79414143D01*
X119835395Y-79400000D01*
X120194605Y-79400000D01*
X120995213Y-80200608D01*
X121237397Y-80131143D01*
X121424144Y-79607698D01*
X121403353Y-79192302D01*
X179605856Y-79192302D01*
X179633638Y-79747368D01*
X179792603Y-80131143D01*
X180034787Y-80200608D01*
X180835395Y-79400000D01*
X180034787Y-78599392D01*
X179792603Y-78668857D01*
X179605856Y-79192302D01*
X121403353Y-79192302D01*
X121396362Y-79052632D01*
X121237397Y-78668857D01*
X120995213Y-78599392D01*
X120194605Y-79400000D01*
X119835395Y-79400000D01*
X119821253Y-79385858D01*
X120000858Y-79206253D01*
X120015000Y-79220395D01*
X120815608Y-78419787D01*
X120746143Y-78177603D01*
X120222698Y-77990856D01*
X119667632Y-78018638D01*
X119455000Y-78106713D01*
X119455000Y-75985000D01*
X159792560Y-75985000D01*
X159792560Y-77685000D01*
X159836838Y-77920317D01*
X159975910Y-78136441D01*
X160188110Y-78281431D01*
X160440000Y-78332440D01*
X162140000Y-78332440D01*
X162375317Y-78288162D01*
X162591441Y-78149090D01*
X162736431Y-77936890D01*
X162750086Y-77869459D01*
X162779946Y-77914147D01*
X163261715Y-78236054D01*
X163830000Y-78349093D01*
X164398285Y-78236054D01*
X164880054Y-77914147D01*
X165100000Y-77584974D01*
X165319946Y-77914147D01*
X165801715Y-78236054D01*
X166370000Y-78349093D01*
X166938285Y-78236054D01*
X167420054Y-77914147D01*
X167741961Y-77432378D01*
X167855000Y-76864093D01*
X167855000Y-76805907D01*
X167741961Y-76237622D01*
X167573165Y-75985000D01*
X173127560Y-75985000D01*
X173127560Y-77685000D01*
X173171838Y-77920317D01*
X173310910Y-78136441D01*
X173523110Y-78281431D01*
X173775000Y-78332440D01*
X175475000Y-78332440D01*
X175710317Y-78288162D01*
X175926441Y-78149090D01*
X176071431Y-77936890D01*
X176122440Y-77685000D01*
X176122440Y-75985000D01*
X176078162Y-75749683D01*
X175939090Y-75533559D01*
X175726890Y-75388569D01*
X175475000Y-75337560D01*
X173775000Y-75337560D01*
X173539683Y-75381838D01*
X173323559Y-75520910D01*
X173178569Y-75733110D01*
X173127560Y-75985000D01*
X167573165Y-75985000D01*
X167420054Y-75755853D01*
X166938285Y-75433946D01*
X166370000Y-75320907D01*
X165801715Y-75433946D01*
X165319946Y-75755853D01*
X165100000Y-76085026D01*
X164880054Y-75755853D01*
X164398285Y-75433946D01*
X163830000Y-75320907D01*
X163261715Y-75433946D01*
X162779946Y-75755853D01*
X162752150Y-75797452D01*
X162743162Y-75749683D01*
X162604090Y-75533559D01*
X162391890Y-75388569D01*
X162140000Y-75337560D01*
X160440000Y-75337560D01*
X160204683Y-75381838D01*
X159988559Y-75520910D01*
X159843569Y-75733110D01*
X159792560Y-75985000D01*
X119455000Y-75985000D01*
X119455000Y-70476795D01*
X131715510Y-70476795D01*
X131715510Y-71763205D01*
X131839928Y-72388697D01*
X132194241Y-72918964D01*
X132724508Y-73273277D01*
X133350000Y-73397695D01*
X133975492Y-73273277D01*
X134505759Y-72918964D01*
X134860072Y-72388697D01*
X134984490Y-71763205D01*
X134984490Y-70476795D01*
X139335510Y-70476795D01*
X139335510Y-71763205D01*
X139459928Y-72388697D01*
X139814241Y-72918964D01*
X140344508Y-73273277D01*
X140970000Y-73397695D01*
X141595492Y-73273277D01*
X142125759Y-72918964D01*
X142480072Y-72388697D01*
X142604490Y-71763205D01*
X142604490Y-70476795D01*
X142595834Y-70433275D01*
X157320000Y-70433275D01*
X157320000Y-72276725D01*
X157434942Y-72854577D01*
X157762269Y-73344456D01*
X158252148Y-73671783D01*
X158830000Y-73786725D01*
X159407852Y-73671783D01*
X159897731Y-73344456D01*
X160080000Y-73071671D01*
X160262269Y-73344456D01*
X160752148Y-73671783D01*
X161330000Y-73786725D01*
X161907852Y-73671783D01*
X162397731Y-73344456D01*
X162725058Y-72854577D01*
X162840000Y-72276725D01*
X162840000Y-70433275D01*
X164820000Y-70433275D01*
X164820000Y-72276725D01*
X164934942Y-72854577D01*
X165262269Y-73344456D01*
X165752148Y-73671783D01*
X166330000Y-73786725D01*
X166907852Y-73671783D01*
X167397731Y-73344456D01*
X167580000Y-73071671D01*
X167762269Y-73344456D01*
X168252148Y-73671783D01*
X168830000Y-73786725D01*
X169407852Y-73671783D01*
X169897731Y-73344456D01*
X170225058Y-72854577D01*
X170340000Y-72276725D01*
X170340000Y-70433275D01*
X170225058Y-69855423D01*
X169897731Y-69365544D01*
X169407852Y-69038217D01*
X168830000Y-68923275D01*
X168252148Y-69038217D01*
X167762269Y-69365544D01*
X167580000Y-69638329D01*
X167397731Y-69365544D01*
X166907852Y-69038217D01*
X166330000Y-68923275D01*
X165752148Y-69038217D01*
X165262269Y-69365544D01*
X164934942Y-69855423D01*
X164820000Y-70433275D01*
X162840000Y-70433275D01*
X162725058Y-69855423D01*
X162397731Y-69365544D01*
X161907852Y-69038217D01*
X161330000Y-68923275D01*
X160752148Y-69038217D01*
X160262269Y-69365544D01*
X160080000Y-69638329D01*
X159897731Y-69365544D01*
X159407852Y-69038217D01*
X158830000Y-68923275D01*
X158252148Y-69038217D01*
X157762269Y-69365544D01*
X157434942Y-69855423D01*
X157320000Y-70433275D01*
X142595834Y-70433275D01*
X142480072Y-69851303D01*
X142125759Y-69321036D01*
X141595492Y-68966723D01*
X140970000Y-68842305D01*
X140344508Y-68966723D01*
X139814241Y-69321036D01*
X139459928Y-69851303D01*
X139335510Y-70476795D01*
X134984490Y-70476795D01*
X134860072Y-69851303D01*
X134505759Y-69321036D01*
X133975492Y-68966723D01*
X133943473Y-68960354D01*
X134970941Y-68960354D01*
X135001887Y-69088159D01*
X135314998Y-69645956D01*
X135817735Y-70041471D01*
X136433560Y-70214490D01*
X137033000Y-70214490D01*
X137033000Y-68707000D01*
X137287000Y-68707000D01*
X137287000Y-70214490D01*
X137886440Y-70214490D01*
X138502265Y-70041471D01*
X139005002Y-69645956D01*
X139318113Y-69088159D01*
X139349059Y-68960354D01*
X139229705Y-68707000D01*
X137287000Y-68707000D01*
X137033000Y-68707000D01*
X135090295Y-68707000D01*
X134970941Y-68960354D01*
X133943473Y-68960354D01*
X133350000Y-68842305D01*
X132724508Y-68966723D01*
X132194241Y-69321036D01*
X131839928Y-69851303D01*
X131715510Y-70476795D01*
X119455000Y-70476795D01*
X119455000Y-68199646D01*
X134970941Y-68199646D01*
X135090295Y-68453000D01*
X137033000Y-68453000D01*
X137033000Y-66945510D01*
X137287000Y-66945510D01*
X137287000Y-68453000D01*
X139229705Y-68453000D01*
X139349059Y-68199646D01*
X139318113Y-68071841D01*
X139005002Y-67514044D01*
X138502265Y-67118529D01*
X137886440Y-66945510D01*
X137287000Y-66945510D01*
X137033000Y-66945510D01*
X136433560Y-66945510D01*
X135817735Y-67118529D01*
X135314998Y-67514044D01*
X135001887Y-68071841D01*
X134970941Y-68199646D01*
X119455000Y-68199646D01*
X119455000Y-66634750D01*
X161445000Y-66634750D01*
X161445000Y-67725310D01*
X161541673Y-67958699D01*
X161720302Y-68137327D01*
X161953691Y-68234000D01*
X163544250Y-68234000D01*
X163703000Y-68075250D01*
X163703000Y-66476000D01*
X163957000Y-66476000D01*
X163957000Y-68075250D01*
X164115750Y-68234000D01*
X165706309Y-68234000D01*
X165939698Y-68137327D01*
X166118327Y-67958699D01*
X166215000Y-67725310D01*
X166215000Y-66634750D01*
X166056250Y-66476000D01*
X163957000Y-66476000D01*
X163703000Y-66476000D01*
X161603750Y-66476000D01*
X161445000Y-66634750D01*
X119455000Y-66634750D01*
X119455000Y-64972690D01*
X161445000Y-64972690D01*
X161445000Y-66063250D01*
X161603750Y-66222000D01*
X163703000Y-66222000D01*
X163703000Y-64622750D01*
X163544250Y-64464000D01*
X161953691Y-64464000D01*
X161720302Y-64560673D01*
X161541673Y-64739301D01*
X161445000Y-64972690D01*
X119455000Y-64972690D01*
X119455000Y-64480213D01*
X134514392Y-64480213D01*
X134583857Y-64722397D01*
X135107302Y-64909144D01*
X135662368Y-64881362D01*
X136046143Y-64722397D01*
X136115608Y-64480213D01*
X135315000Y-63679605D01*
X134514392Y-64480213D01*
X119455000Y-64480213D01*
X119455000Y-63569930D01*
X119510478Y-63291021D01*
X119628856Y-63113855D01*
X119806019Y-62995479D01*
X120084931Y-62940000D01*
X134031545Y-62940000D01*
X133905856Y-63292302D01*
X133905856Y-63292302D01*
G37*
X133905856Y-63292302D02*
X133933638Y-63847368D01*
X134092603Y-64231143D01*
X134334787Y-64300608D01*
X135135395Y-63500000D01*
X135121253Y-63485858D01*
X135300858Y-63306253D01*
X135315000Y-63320395D01*
X135329143Y-63306253D01*
X135508748Y-63485858D01*
X135494605Y-63500000D01*
X136295213Y-64300608D01*
X136537397Y-64231143D01*
X136724144Y-63707698D01*
X136696362Y-63152632D01*
X136608287Y-62940000D01*
X163831545Y-62940000D01*
X163705856Y-63292302D01*
X163733638Y-63847368D01*
X163892603Y-64231143D01*
X164134785Y-64300607D01*
X164019774Y-64415618D01*
X164091953Y-64487797D01*
X163957000Y-64622750D01*
X163957000Y-66222000D01*
X166056250Y-66222000D01*
X166215000Y-66063250D01*
X166215000Y-64972690D01*
X166118327Y-64739301D01*
X165939698Y-64560673D01*
X165897539Y-64543210D01*
X165915608Y-64480213D01*
X165115000Y-63679605D01*
X165100858Y-63693748D01*
X164921253Y-63514143D01*
X164935395Y-63500000D01*
X164921253Y-63485858D01*
X165100858Y-63306253D01*
X165115000Y-63320395D01*
X165129143Y-63306253D01*
X165308748Y-63485858D01*
X165294605Y-63500000D01*
X166095213Y-64300608D01*
X166337397Y-64231143D01*
X166524144Y-63707698D01*
X166496362Y-63152632D01*
X166408287Y-62940000D01*
X180945070Y-62940000D01*
X181223979Y-62995478D01*
X181401145Y-63113856D01*
X181519521Y-63291019D01*
X181575000Y-63569931D01*
X181575000Y-78116545D01*
X181222698Y-77990856D01*
X180667632Y-78018638D01*
X180283857Y-78177603D01*
X180214392Y-78419787D01*
X181015000Y-79220395D01*
X181029143Y-79206253D01*
X181208748Y-79385858D01*
X181194605Y-79400000D01*
X181208748Y-79414143D01*
X181029143Y-79593748D01*
X181015000Y-79579605D01*
X180214392Y-80380213D01*
X180283857Y-80622397D01*
X180807302Y-80809144D01*
X181362368Y-80781362D01*
X181575000Y-80693287D01*
X181575000Y-107608545D01*
X181222698Y-107482856D01*
X180667632Y-107510638D01*
X180283857Y-107669603D01*
X180214392Y-107911787D01*
X181015000Y-108712395D01*
X181029143Y-108698253D01*
X181208748Y-108877858D01*
X181194605Y-108892000D01*
X181208748Y-108906143D01*
X181029143Y-109085748D01*
X181015000Y-109071605D01*
X180214392Y-109872213D01*
X180283857Y-110114397D01*
X180807302Y-110301144D01*
X181362368Y-110273362D01*
X181575000Y-110185287D01*
X181575000Y-124330069D01*
X181519521Y-124608981D01*
X181401145Y-124786144D01*
X181223979Y-124904522D01*
X180945070Y-124960000D01*
X166298455Y-124960000D01*
X166424144Y-124607698D01*
X166396362Y-124052632D01*
X166237397Y-123668857D01*
X165995213Y-123599392D01*
X165194605Y-124400000D01*
X165208748Y-124414143D01*
X165029143Y-124593748D01*
X165015000Y-124579605D01*
X165000858Y-124593748D01*
X164821253Y-124414143D01*
X164835395Y-124400000D01*
X164034787Y-123599392D01*
X163792603Y-123668857D01*
X163605856Y-124192302D01*
X163633638Y-124747368D01*
X163721713Y-124960000D01*
X137198455Y-124960000D01*
X137324144Y-124607698D01*
X137296362Y-124052632D01*
X137137397Y-123668857D01*
X136895213Y-123599392D01*
X136094605Y-124400000D01*
X136108748Y-124414143D01*
X135929143Y-124593748D01*
X135915000Y-124579605D01*
X135900858Y-124593748D01*
X135721253Y-124414143D01*
X135735395Y-124400000D01*
X134934787Y-123599392D01*
X134692603Y-123668857D01*
X134505856Y-124192302D01*
X134533638Y-124747368D01*
X134621713Y-124960000D01*
X120084931Y-124960000D01*
X119806019Y-124904521D01*
X119628856Y-124786145D01*
X119510478Y-124608979D01*
X119455000Y-124330070D01*
X119455000Y-123419787D01*
X135114392Y-123419787D01*
X135915000Y-124220395D01*
X136715608Y-123419787D01*
X164214392Y-123419787D01*
X165015000Y-124220395D01*
X165815608Y-123419787D01*
X165746143Y-123177603D01*
X165222698Y-122990856D01*
X164667632Y-123018638D01*
X164283857Y-123177603D01*
X164214392Y-123419787D01*
X136715608Y-123419787D01*
X136646143Y-123177603D01*
X136122698Y-122990856D01*
X135567632Y-123018638D01*
X135183857Y-123177603D01*
X135114392Y-123419787D01*
X119455000Y-123419787D01*
X119455000Y-121756892D01*
X129453514Y-121756892D01*
X129699817Y-122281358D01*
X130128076Y-122671645D01*
X130538110Y-122841476D01*
X130768000Y-122720155D01*
X130768000Y-121527000D01*
X129574181Y-121527000D01*
X129453514Y-121756892D01*
X119455000Y-121756892D01*
X119455000Y-121043108D01*
X129453514Y-121043108D01*
X129574181Y-121273000D01*
X130768000Y-121273000D01*
X130768000Y-120079845D01*
X131022000Y-120079845D01*
X131022000Y-121273000D01*
X131042000Y-121273000D01*
X131042000Y-121527000D01*
X131022000Y-121527000D01*
X131022000Y-122720155D01*
X131251890Y-122841476D01*
X131661924Y-122671645D01*
X132090183Y-122281358D01*
X132157298Y-122138447D01*
X132384946Y-122479147D01*
X132866715Y-122801054D01*
X133435000Y-122914093D01*
X134003285Y-122801054D01*
X134485054Y-122479147D01*
X134705000Y-122149974D01*
X134924946Y-122479147D01*
X135406715Y-122801054D01*
X135975000Y-122914093D01*
X136543285Y-122801054D01*
X137025054Y-122479147D01*
X137052850Y-122437548D01*
X137061838Y-122485317D01*
X137200910Y-122701441D01*
X137413110Y-122846431D01*
X137665000Y-122897440D01*
X139365000Y-122897440D01*
X139600317Y-122853162D01*
X139816441Y-122714090D01*
X139961431Y-122501890D01*
X140012440Y-122250000D01*
X140012440Y-121370907D01*
X161010000Y-121370907D01*
X161010000Y-121429093D01*
X161123039Y-121997378D01*
X161444946Y-122479147D01*
X161926715Y-122801054D01*
X162495000Y-122914093D01*
X163063285Y-122801054D01*
X163545054Y-122479147D01*
X163765000Y-122149974D01*
X163984946Y-122479147D01*
X164466715Y-122801054D01*
X165035000Y-122914093D01*
X165603285Y-122801054D01*
X166085054Y-122479147D01*
X166305000Y-122149974D01*
X166524946Y-122479147D01*
X167006715Y-122801054D01*
X167575000Y-122914093D01*
X168143285Y-122801054D01*
X168625054Y-122479147D01*
X168652850Y-122437548D01*
X168661838Y-122485317D01*
X168800910Y-122701441D01*
X169013110Y-122846431D01*
X169265000Y-122897440D01*
X170965000Y-122897440D01*
X171200317Y-122853162D01*
X171416441Y-122714090D01*
X171561431Y-122501890D01*
X171612440Y-122250000D01*
X171612440Y-121370907D01*
X174410000Y-121370907D01*
X174410000Y-121429093D01*
X174523039Y-121997378D01*
X174844946Y-122479147D01*
X175326715Y-122801054D01*
X175895000Y-122914093D01*
X176463285Y-122801054D01*
X176945054Y-122479147D01*
X176950000Y-122471745D01*
X176950000Y-122491309D01*
X177046673Y-122724698D01*
X177225301Y-122903327D01*
X177458690Y-123000000D01*
X178149250Y-123000000D01*
X178308000Y-122841250D01*
X178308000Y-121642000D01*
X178562000Y-121642000D01*
X178562000Y-122841250D01*
X178720750Y-123000000D01*
X179411310Y-123000000D01*
X179644699Y-122903327D01*
X179823327Y-122724698D01*
X179920000Y-122491309D01*
X179920000Y-121800750D01*
X179761250Y-121642000D01*
X178562000Y-121642000D01*
X178308000Y-121642000D01*
X178288000Y-121642000D01*
X178288000Y-121388000D01*
X178308000Y-121388000D01*
X178308000Y-120188750D01*
X178562000Y-120188750D01*
X178562000Y-121388000D01*
X179761250Y-121388000D01*
X179920000Y-121229250D01*
X179920000Y-120538691D01*
X179823327Y-120305302D01*
X179644699Y-120126673D01*
X179411310Y-120030000D01*
X178720750Y-120030000D01*
X178562000Y-120188750D01*
X178308000Y-120188750D01*
X178149250Y-120030000D01*
X177458690Y-120030000D01*
X177225301Y-120126673D01*
X177046673Y-120305302D01*
X177003809Y-120408786D01*
X176945054Y-120320853D01*
X176780000Y-120210568D01*
X176780000Y-117146822D01*
X176829838Y-117026799D01*
X176830162Y-116654833D01*
X176688117Y-116311057D01*
X176425327Y-116047808D01*
X176081799Y-115905162D01*
X175709833Y-115904838D01*
X175366057Y-116046883D01*
X175102808Y-116309673D01*
X174960162Y-116653201D01*
X174959838Y-117025167D01*
X175010000Y-117146569D01*
X175010000Y-120210568D01*
X174844946Y-120320853D01*
X174523039Y-120802622D01*
X174410000Y-121370907D01*
X171612440Y-121370907D01*
X171612440Y-120550000D01*
X171568162Y-120314683D01*
X171429090Y-120098559D01*
X171216890Y-119953569D01*
X170965000Y-119902560D01*
X169265000Y-119902560D01*
X169029683Y-119946838D01*
X168813559Y-120085910D01*
X168668569Y-120298110D01*
X168654914Y-120365541D01*
X168625054Y-120320853D01*
X168143285Y-119998946D01*
X167575000Y-119885907D01*
X167006715Y-119998946D01*
X166524946Y-120320853D01*
X166305000Y-120650026D01*
X166085054Y-120320853D01*
X165603285Y-119998946D01*
X165035000Y-119885907D01*
X164466715Y-119998946D01*
X163984946Y-120320853D01*
X163765000Y-120650026D01*
X163545054Y-120320853D01*
X163380000Y-120210568D01*
X163380000Y-119811580D01*
X164196579Y-118995000D01*
X169238178Y-118995000D01*
X169358201Y-119044838D01*
X169730167Y-119045162D01*
X170073943Y-118903117D01*
X170337192Y-118640327D01*
X170479838Y-118296799D01*
X170480162Y-117924833D01*
X170338117Y-117581057D01*
X170075327Y-117317808D01*
X169731799Y-117175162D01*
X169359833Y-117174838D01*
X169238431Y-117225000D01*
X163830005Y-117225000D01*
X163830000Y-117224999D01*
X163491325Y-117292367D01*
X163204210Y-117484210D01*
X163204208Y-117484213D01*
X161869210Y-118819210D01*
X161677367Y-119106325D01*
X161677367Y-119106326D01*
X161609999Y-119445000D01*
X161610000Y-119445005D01*
X161610000Y-120210568D01*
X161444946Y-120320853D01*
X161123039Y-120802622D01*
X161010000Y-121370907D01*
X140012440Y-121370907D01*
X140012440Y-120550000D01*
X139968162Y-120314683D01*
X139829090Y-120098559D01*
X139616890Y-119953569D01*
X139365000Y-119902560D01*
X137665000Y-119902560D01*
X137429683Y-119946838D01*
X137213559Y-120085910D01*
X137068569Y-120298110D01*
X137054914Y-120365541D01*
X137025054Y-120320853D01*
X136543285Y-119998946D01*
X135975000Y-119885907D01*
X135406715Y-119998946D01*
X134924946Y-120320853D01*
X134705000Y-120650026D01*
X134485054Y-120320853D01*
X134003285Y-119998946D01*
X133435000Y-119885907D01*
X132866715Y-119998946D01*
X132384946Y-120320853D01*
X132157298Y-120661553D01*
X132090183Y-120518642D01*
X131661924Y-120128355D01*
X131251890Y-119958524D01*
X131022000Y-120079845D01*
X130768000Y-120079845D01*
X130538110Y-119958524D01*
X130128076Y-120128355D01*
X129699817Y-120518642D01*
X129453514Y-121043108D01*
X119455000Y-121043108D01*
X119455000Y-117475000D01*
X121726887Y-117475000D01*
X121836120Y-118024151D01*
X122147189Y-118489698D01*
X122612736Y-118800767D01*
X123161887Y-118910000D01*
X123218113Y-118910000D01*
X123767264Y-118800767D01*
X124232811Y-118489698D01*
X124543880Y-118024151D01*
X124596584Y-117759187D01*
X131914752Y-117759187D01*
X132132757Y-118286800D01*
X132536077Y-118690824D01*
X133063309Y-118909750D01*
X133634187Y-118910248D01*
X134161800Y-118692243D01*
X134565824Y-118288923D01*
X134619862Y-118158785D01*
X134672757Y-118286800D01*
X135076077Y-118690824D01*
X135603309Y-118909750D01*
X136174187Y-118910248D01*
X136701800Y-118692243D01*
X137105824Y-118288923D01*
X137324750Y-117761691D01*
X137325000Y-117475000D01*
X144586887Y-117475000D01*
X144696120Y-118024151D01*
X145007189Y-118489698D01*
X145472736Y-118800767D01*
X146021887Y-118910000D01*
X146078113Y-118910000D01*
X146627264Y-118800767D01*
X147092811Y-118489698D01*
X147403880Y-118024151D01*
X147513113Y-117475000D01*
X147403880Y-116925849D01*
X147092811Y-116460302D01*
X146627264Y-116149233D01*
X146078113Y-116040000D01*
X146021887Y-116040000D01*
X145472736Y-116149233D01*
X145007189Y-116460302D01*
X144696120Y-116925849D01*
X144586887Y-117475000D01*
X137325000Y-117475000D01*
X137325248Y-117190813D01*
X137107243Y-116663200D01*
X136703923Y-116259176D01*
X136176691Y-116040250D01*
X135605813Y-116039752D01*
X135078200Y-116257757D01*
X134674176Y-116661077D01*
X134620138Y-116791215D01*
X134567243Y-116663200D01*
X134163923Y-116259176D01*
X133636691Y-116040250D01*
X133065813Y-116039752D01*
X132538200Y-116257757D01*
X132134176Y-116661077D01*
X131915250Y-117188309D01*
X131914752Y-117759187D01*
X124596584Y-117759187D01*
X124653113Y-117475000D01*
X124543880Y-116925849D01*
X124232811Y-116460302D01*
X123767264Y-116149233D01*
X123218113Y-116040000D01*
X123161887Y-116040000D01*
X122612736Y-116149233D01*
X122147189Y-116460302D01*
X121836120Y-116925849D01*
X121726887Y-117475000D01*
X119455000Y-117475000D01*
X119455000Y-114014039D01*
X121798096Y-114014039D01*
X121958959Y-114402423D01*
X122334866Y-114817389D01*
X122840959Y-115056914D01*
X123063000Y-114935629D01*
X123063000Y-113792000D01*
X123317000Y-113792000D01*
X123317000Y-114935629D01*
X123539041Y-115056914D01*
X124045134Y-114817389D01*
X124421041Y-114402423D01*
X124581904Y-114014039D01*
X124546275Y-113949187D01*
X131914752Y-113949187D01*
X132132757Y-114476800D01*
X132536077Y-114880824D01*
X133063309Y-115099750D01*
X133634187Y-115100248D01*
X134161800Y-114882243D01*
X134565824Y-114478923D01*
X134619862Y-114348785D01*
X134672757Y-114476800D01*
X135076077Y-114880824D01*
X135603309Y-115099750D01*
X136174187Y-115100248D01*
X136701800Y-114882243D01*
X137105824Y-114478923D01*
X137298860Y-114014039D01*
X144658096Y-114014039D01*
X144818959Y-114402423D01*
X145194866Y-114817389D01*
X145700959Y-115056914D01*
X145923000Y-114935629D01*
X145923000Y-113792000D01*
X146177000Y-113792000D01*
X146177000Y-114935629D01*
X146399041Y-115056914D01*
X146905134Y-114817389D01*
X147281041Y-114402423D01*
X147441904Y-114014039D01*
X147319915Y-113792000D01*
X146177000Y-113792000D01*
X145923000Y-113792000D01*
X144780085Y-113792000D01*
X144658096Y-114014039D01*
X137298860Y-114014039D01*
X137324750Y-113951691D01*
X137325248Y-113380813D01*
X137298452Y-113315961D01*
X144658096Y-113315961D01*
X144780085Y-113538000D01*
X145923000Y-113538000D01*
X145923000Y-112394371D01*
X146177000Y-112394371D01*
X146177000Y-113538000D01*
X147319915Y-113538000D01*
X147441904Y-113315961D01*
X147281041Y-112927577D01*
X146905134Y-112512611D01*
X146399041Y-112273086D01*
X146177000Y-112394371D01*
X145923000Y-112394371D01*
X145700959Y-112273086D01*
X145194866Y-112512611D01*
X144818959Y-112927577D01*
X144658096Y-113315961D01*
X137298452Y-113315961D01*
X137107243Y-112853200D01*
X136703923Y-112449176D01*
X136176691Y-112230250D01*
X135605813Y-112229752D01*
X135078200Y-112447757D01*
X134674176Y-112851077D01*
X134620138Y-112981215D01*
X134567243Y-112853200D01*
X134163923Y-112449176D01*
X133636691Y-112230250D01*
X133065813Y-112229752D01*
X132538200Y-112447757D01*
X132134176Y-112851077D01*
X131915250Y-113378309D01*
X131914752Y-113949187D01*
X124546275Y-113949187D01*
X124459915Y-113792000D01*
X123317000Y-113792000D01*
X123063000Y-113792000D01*
X121920085Y-113792000D01*
X121798096Y-114014039D01*
X119455000Y-114014039D01*
X119455000Y-113315961D01*
X121798096Y-113315961D01*
X121920085Y-113538000D01*
X123063000Y-113538000D01*
X123063000Y-112394371D01*
X123317000Y-112394371D01*
X123317000Y-113538000D01*
X124459915Y-113538000D01*
X124581904Y-113315961D01*
X124421041Y-112927577D01*
X124045134Y-112512611D01*
X123539041Y-112273086D01*
X123317000Y-112394371D01*
X123063000Y-112394371D01*
X122840959Y-112273086D01*
X122334866Y-112512611D01*
X121958959Y-112927577D01*
X121798096Y-113315961D01*
X119455000Y-113315961D01*
X119455000Y-110175455D01*
X119807302Y-110301144D01*
X120362368Y-110273362D01*
X120686294Y-110139187D01*
X126834752Y-110139187D01*
X127052757Y-110666800D01*
X127456077Y-111070824D01*
X127983309Y-111289750D01*
X128554187Y-111290248D01*
X129081800Y-111072243D01*
X129485824Y-110668923D01*
X129704750Y-110141691D01*
X129704752Y-110139187D01*
X131834752Y-110139187D01*
X132052757Y-110666800D01*
X132456077Y-111070824D01*
X132983309Y-111289750D01*
X133554187Y-111290248D01*
X134081800Y-111072243D01*
X134485824Y-110668923D01*
X134579961Y-110442216D01*
X134672757Y-110666800D01*
X135076077Y-111070824D01*
X135603309Y-111289750D01*
X136174187Y-111290248D01*
X136701800Y-111072243D01*
X137105824Y-110668923D01*
X137298860Y-110204039D01*
X144658096Y-110204039D01*
X144818959Y-110592423D01*
X145194866Y-111007389D01*
X145700959Y-111246914D01*
X145923000Y-111125629D01*
X145923000Y-109982000D01*
X146177000Y-109982000D01*
X146177000Y-111125629D01*
X146399041Y-111246914D01*
X146905134Y-111007389D01*
X147281041Y-110592423D01*
X147441904Y-110204039D01*
X147319915Y-109982000D01*
X146177000Y-109982000D01*
X145923000Y-109982000D01*
X144780085Y-109982000D01*
X144658096Y-110204039D01*
X137298860Y-110204039D01*
X137324750Y-110141691D01*
X137325000Y-109855000D01*
X157286887Y-109855000D01*
X157396120Y-110404151D01*
X157707189Y-110869698D01*
X158172736Y-111180767D01*
X158721887Y-111290000D01*
X158778113Y-111290000D01*
X159327264Y-111180767D01*
X159792811Y-110869698D01*
X160103880Y-110404151D01*
X160213113Y-109855000D01*
X160103880Y-109305849D01*
X159936268Y-109055000D01*
X164922560Y-109055000D01*
X164922560Y-110655000D01*
X164966838Y-110890317D01*
X165105910Y-111106441D01*
X165318110Y-111251431D01*
X165570000Y-111302440D01*
X167170000Y-111302440D01*
X167405317Y-111258162D01*
X167621441Y-111119090D01*
X167766431Y-110906890D01*
X167817440Y-110655000D01*
X167817440Y-109055000D01*
X167773162Y-108819683D01*
X167686047Y-108684302D01*
X179605856Y-108684302D01*
X179633638Y-109239368D01*
X179792603Y-109623143D01*
X180034787Y-109692608D01*
X180835395Y-108892000D01*
X180034787Y-108091392D01*
X179792603Y-108160857D01*
X179605856Y-108684302D01*
X167686047Y-108684302D01*
X167634090Y-108603559D01*
X167421890Y-108458569D01*
X167170000Y-108407560D01*
X165570000Y-108407560D01*
X165334683Y-108451838D01*
X165118559Y-108590910D01*
X164973569Y-108803110D01*
X164922560Y-109055000D01*
X159936268Y-109055000D01*
X159792811Y-108840302D01*
X159327264Y-108529233D01*
X158778113Y-108420000D01*
X158721887Y-108420000D01*
X158172736Y-108529233D01*
X157707189Y-108840302D01*
X157396120Y-109305849D01*
X157286887Y-109855000D01*
X137325000Y-109855000D01*
X137325248Y-109570813D01*
X137298452Y-109505961D01*
X144658096Y-109505961D01*
X144780085Y-109728000D01*
X145923000Y-109728000D01*
X145923000Y-108584371D01*
X146177000Y-108584371D01*
X146177000Y-109728000D01*
X147319915Y-109728000D01*
X147441904Y-109505961D01*
X147281041Y-109117577D01*
X146905134Y-108702611D01*
X146399041Y-108463086D01*
X146177000Y-108584371D01*
X145923000Y-108584371D01*
X145700959Y-108463086D01*
X145194866Y-108702611D01*
X144818959Y-109117577D01*
X144658096Y-109505961D01*
X137298452Y-109505961D01*
X137107243Y-109043200D01*
X136703923Y-108639176D01*
X136176691Y-108420250D01*
X135605813Y-108419752D01*
X135078200Y-108637757D01*
X134674176Y-109041077D01*
X134580039Y-109267784D01*
X134487243Y-109043200D01*
X134083923Y-108639176D01*
X133556691Y-108420250D01*
X132985813Y-108419752D01*
X132458200Y-108637757D01*
X132054176Y-109041077D01*
X131835250Y-109568309D01*
X131834752Y-110139187D01*
X129704752Y-110139187D01*
X129705248Y-109570813D01*
X129487243Y-109043200D01*
X129083923Y-108639176D01*
X128556691Y-108420250D01*
X127985813Y-108419752D01*
X127458200Y-108637757D01*
X127054176Y-109041077D01*
X126835250Y-109568309D01*
X126834752Y-110139187D01*
X120686294Y-110139187D01*
X120746143Y-110114397D01*
X120815608Y-109872213D01*
X120015000Y-109071605D01*
X120000858Y-109085748D01*
X119821253Y-108906143D01*
X119835395Y-108892000D01*
X120194605Y-108892000D01*
X120995213Y-109692608D01*
X121237397Y-109623143D01*
X121424144Y-109099698D01*
X121396362Y-108544632D01*
X121237397Y-108160857D01*
X120995213Y-108091392D01*
X120194605Y-108892000D01*
X119835395Y-108892000D01*
X119821253Y-108877858D01*
X120000858Y-108698253D01*
X120015000Y-108712395D01*
X120815608Y-107911787D01*
X120746143Y-107669603D01*
X120222698Y-107482856D01*
X119667632Y-107510638D01*
X119455000Y-107598713D01*
X119455000Y-106329187D01*
X134454752Y-106329187D01*
X134672757Y-106856800D01*
X135076077Y-107260824D01*
X135603309Y-107479750D01*
X136174187Y-107480248D01*
X136701800Y-107262243D01*
X137105824Y-106858923D01*
X137324750Y-106331691D01*
X137325000Y-106045000D01*
X144586887Y-106045000D01*
X144696120Y-106594151D01*
X145007189Y-107059698D01*
X145472736Y-107370767D01*
X146021887Y-107480000D01*
X146078113Y-107480000D01*
X146627264Y-107370767D01*
X147092811Y-107059698D01*
X147403880Y-106594151D01*
X147456584Y-106329187D01*
X147789752Y-106329187D01*
X148007757Y-106856800D01*
X148411077Y-107260824D01*
X148938309Y-107479750D01*
X149509187Y-107480248D01*
X150036800Y-107262243D01*
X150246663Y-107052745D01*
X153396861Y-107052745D01*
X153470995Y-107298864D01*
X154008223Y-107491965D01*
X154578454Y-107464778D01*
X154979005Y-107298864D01*
X155053139Y-107052745D01*
X154225000Y-106224605D01*
X153396861Y-107052745D01*
X150246663Y-107052745D01*
X150440824Y-106858923D01*
X150659750Y-106331691D01*
X150660189Y-105828223D01*
X152778035Y-105828223D01*
X152805222Y-106398454D01*
X152971136Y-106799005D01*
X153217255Y-106873139D01*
X154045395Y-106045000D01*
X154404605Y-106045000D01*
X155232745Y-106873139D01*
X155478864Y-106799005D01*
X155624424Y-106394039D01*
X156088096Y-106394039D01*
X156248959Y-106782423D01*
X156624866Y-107197389D01*
X157130959Y-107436914D01*
X157353000Y-107315629D01*
X157353000Y-106172000D01*
X157607000Y-106172000D01*
X157607000Y-107315629D01*
X157829041Y-107436914D01*
X158335134Y-107197389D01*
X158711041Y-106782423D01*
X158871904Y-106394039D01*
X158836275Y-106329187D01*
X166204752Y-106329187D01*
X166422757Y-106856800D01*
X166826077Y-107260824D01*
X167353309Y-107479750D01*
X167924187Y-107480248D01*
X168451800Y-107262243D01*
X168855824Y-106858923D01*
X169074750Y-106331691D01*
X169075248Y-105760813D01*
X168857243Y-105233200D01*
X168453923Y-104829176D01*
X167926691Y-104610250D01*
X167355813Y-104609752D01*
X166828200Y-104827757D01*
X166424176Y-105231077D01*
X166205250Y-105758309D01*
X166204752Y-106329187D01*
X158836275Y-106329187D01*
X158749915Y-106172000D01*
X157607000Y-106172000D01*
X157353000Y-106172000D01*
X156210085Y-106172000D01*
X156088096Y-106394039D01*
X155624424Y-106394039D01*
X155671965Y-106261777D01*
X155644989Y-105695961D01*
X156088096Y-105695961D01*
X156210085Y-105918000D01*
X157353000Y-105918000D01*
X157353000Y-104774371D01*
X157607000Y-104774371D01*
X157607000Y-105918000D01*
X158749915Y-105918000D01*
X158871904Y-105695961D01*
X158711041Y-105307577D01*
X158335134Y-104892611D01*
X157829041Y-104653086D01*
X157607000Y-104774371D01*
X157353000Y-104774371D01*
X157130959Y-104653086D01*
X156624866Y-104892611D01*
X156248959Y-105307577D01*
X156088096Y-105695961D01*
X155644989Y-105695961D01*
X155644778Y-105691546D01*
X155478864Y-105290995D01*
X155232745Y-105216861D01*
X154404605Y-106045000D01*
X154045395Y-106045000D01*
X153217255Y-105216861D01*
X152971136Y-105290995D01*
X152778035Y-105828223D01*
X150660189Y-105828223D01*
X150660248Y-105760813D01*
X150442243Y-105233200D01*
X150246640Y-105037255D01*
X153396861Y-105037255D01*
X154225000Y-105865395D01*
X155053139Y-105037255D01*
X154979005Y-104791136D01*
X154441777Y-104598035D01*
X153871546Y-104625222D01*
X153470995Y-104791136D01*
X153396861Y-105037255D01*
X150246640Y-105037255D01*
X150038923Y-104829176D01*
X149511691Y-104610250D01*
X148940813Y-104609752D01*
X148413200Y-104827757D01*
X148009176Y-105231077D01*
X147790250Y-105758309D01*
X147789752Y-106329187D01*
X147456584Y-106329187D01*
X147513113Y-106045000D01*
X147403880Y-105495849D01*
X147092811Y-105030302D01*
X146627264Y-104719233D01*
X146078113Y-104610000D01*
X146021887Y-104610000D01*
X145472736Y-104719233D01*
X145007189Y-105030302D01*
X144696120Y-105495849D01*
X144586887Y-106045000D01*
X137325000Y-106045000D01*
X137325248Y-105760813D01*
X137107243Y-105233200D01*
X136703923Y-104829176D01*
X136176691Y-104610250D01*
X135605813Y-104609752D01*
X135078200Y-104827757D01*
X134674176Y-105231077D01*
X134455250Y-105758309D01*
X134454752Y-106329187D01*
X119455000Y-106329187D01*
X119455000Y-97030000D01*
X121782560Y-97030000D01*
X121782560Y-98550000D01*
X121826838Y-98785317D01*
X121965910Y-99001441D01*
X122178110Y-99146431D01*
X122363480Y-99183969D01*
X122008066Y-99538764D01*
X121795242Y-100051300D01*
X121794758Y-100606265D01*
X122006687Y-101119172D01*
X122398764Y-101511934D01*
X122610738Y-101599954D01*
X122400828Y-101686687D01*
X122008066Y-102078764D01*
X121795242Y-102591300D01*
X121794758Y-103146265D01*
X122006687Y-103659172D01*
X122398764Y-104051934D01*
X122911300Y-104264758D01*
X123466265Y-104265242D01*
X123979172Y-104053313D01*
X124371934Y-103661236D01*
X124584758Y-103148700D01*
X124585242Y-102593735D01*
X124373313Y-102080828D01*
X123981236Y-101688066D01*
X123769262Y-101600046D01*
X123979172Y-101513313D01*
X124371934Y-101121236D01*
X124584758Y-100608700D01*
X124585242Y-100053735D01*
X124373313Y-99540828D01*
X124017790Y-99184684D01*
X124185317Y-99153162D01*
X124401441Y-99014090D01*
X124546431Y-98801890D01*
X124572127Y-98675000D01*
X128791080Y-98675000D01*
X128811838Y-98785317D01*
X128950910Y-99001441D01*
X129163110Y-99146431D01*
X129348480Y-99183969D01*
X128993066Y-99538764D01*
X128780242Y-100051300D01*
X128779758Y-100606265D01*
X128991687Y-101119172D01*
X129383764Y-101511934D01*
X129595738Y-101599954D01*
X129385828Y-101686687D01*
X128993066Y-102078764D01*
X128780242Y-102591300D01*
X128779758Y-103146265D01*
X128991687Y-103659172D01*
X129383764Y-104051934D01*
X129896300Y-104264758D01*
X130451265Y-104265242D01*
X130964172Y-104053313D01*
X131356934Y-103661236D01*
X131569758Y-103148700D01*
X131570242Y-102593735D01*
X131422016Y-102235000D01*
X134426887Y-102235000D01*
X134536120Y-102784151D01*
X134847189Y-103249698D01*
X135312736Y-103560767D01*
X135861887Y-103670000D01*
X135918113Y-103670000D01*
X136467264Y-103560767D01*
X136932811Y-103249698D01*
X137243880Y-102784151D01*
X137296584Y-102519187D01*
X144614752Y-102519187D01*
X144832757Y-103046800D01*
X145236077Y-103450824D01*
X145763309Y-103669750D01*
X146334187Y-103670248D01*
X146861800Y-103452243D01*
X147265824Y-103048923D01*
X147484750Y-102521691D01*
X147484752Y-102519187D01*
X147789752Y-102519187D01*
X148007757Y-103046800D01*
X148411077Y-103450824D01*
X148938309Y-103669750D01*
X149509187Y-103670248D01*
X150036800Y-103452243D01*
X150440824Y-103048923D01*
X150659750Y-102521691D01*
X150659752Y-102519187D01*
X152789752Y-102519187D01*
X153007757Y-103046800D01*
X153411077Y-103450824D01*
X153938309Y-103669750D01*
X154509187Y-103670248D01*
X155036800Y-103452243D01*
X155440824Y-103048923D01*
X155659750Y-102521691D01*
X155660000Y-102235000D01*
X156016887Y-102235000D01*
X156126120Y-102784151D01*
X156437189Y-103249698D01*
X156902736Y-103560767D01*
X157451887Y-103670000D01*
X157508113Y-103670000D01*
X158057264Y-103560767D01*
X158522811Y-103249698D01*
X158833880Y-102784151D01*
X158886584Y-102519187D01*
X166204752Y-102519187D01*
X166422757Y-103046800D01*
X166826077Y-103450824D01*
X167353309Y-103669750D01*
X167924187Y-103670248D01*
X168451800Y-103452243D01*
X168855824Y-103048923D01*
X169074750Y-102521691D01*
X169075248Y-101950813D01*
X168857243Y-101423200D01*
X168453923Y-101019176D01*
X167926691Y-100800250D01*
X167355813Y-100799752D01*
X166828200Y-101017757D01*
X166424176Y-101421077D01*
X166205250Y-101948309D01*
X166204752Y-102519187D01*
X158886584Y-102519187D01*
X158943113Y-102235000D01*
X158833880Y-101685849D01*
X158522811Y-101220302D01*
X158057264Y-100909233D01*
X157508113Y-100800000D01*
X157451887Y-100800000D01*
X156902736Y-100909233D01*
X156437189Y-101220302D01*
X156126120Y-101685849D01*
X156016887Y-102235000D01*
X155660000Y-102235000D01*
X155660248Y-101950813D01*
X155442243Y-101423200D01*
X155038923Y-101019176D01*
X154511691Y-100800250D01*
X153940813Y-100799752D01*
X153413200Y-101017757D01*
X153009176Y-101421077D01*
X152790250Y-101948309D01*
X152789752Y-102519187D01*
X150659752Y-102519187D01*
X150660248Y-101950813D01*
X150442243Y-101423200D01*
X150038923Y-101019176D01*
X149511691Y-100800250D01*
X148940813Y-100799752D01*
X148413200Y-101017757D01*
X148009176Y-101421077D01*
X147790250Y-101948309D01*
X147789752Y-102519187D01*
X147484752Y-102519187D01*
X147485248Y-101950813D01*
X147267243Y-101423200D01*
X146863923Y-101019176D01*
X146336691Y-100800250D01*
X145765813Y-100799752D01*
X145238200Y-101017757D01*
X144834176Y-101421077D01*
X144615250Y-101948309D01*
X144614752Y-102519187D01*
X137296584Y-102519187D01*
X137353113Y-102235000D01*
X137243880Y-101685849D01*
X136932811Y-101220302D01*
X136467264Y-100909233D01*
X135918113Y-100800000D01*
X135861887Y-100800000D01*
X135312736Y-100909233D01*
X134847189Y-101220302D01*
X134536120Y-101685849D01*
X134426887Y-102235000D01*
X131422016Y-102235000D01*
X131358313Y-102080828D01*
X130966236Y-101688066D01*
X130754262Y-101600046D01*
X130964172Y-101513313D01*
X131356934Y-101121236D01*
X131569758Y-100608700D01*
X131570242Y-100053735D01*
X131358313Y-99540828D01*
X131002790Y-99184684D01*
X131170317Y-99153162D01*
X131386441Y-99014090D01*
X131531431Y-98801890D01*
X131550203Y-98709187D01*
X134454752Y-98709187D01*
X134672757Y-99236800D01*
X135076077Y-99640824D01*
X135603309Y-99859750D01*
X136174187Y-99860248D01*
X136701800Y-99642243D01*
X137105824Y-99238923D01*
X137324750Y-98711691D01*
X137325000Y-98425000D01*
X144586887Y-98425000D01*
X144696120Y-98974151D01*
X145007189Y-99439698D01*
X145472736Y-99750767D01*
X146021887Y-99860000D01*
X146078113Y-99860000D01*
X146627264Y-99750767D01*
X147092811Y-99439698D01*
X147403880Y-98974151D01*
X147456584Y-98709187D01*
X147789752Y-98709187D01*
X148007757Y-99236800D01*
X148411077Y-99640824D01*
X148938309Y-99859750D01*
X149509187Y-99860248D01*
X150036800Y-99642243D01*
X150246663Y-99432745D01*
X153396861Y-99432745D01*
X153470995Y-99678864D01*
X154008223Y-99871965D01*
X154578454Y-99844778D01*
X154979005Y-99678864D01*
X155053139Y-99432745D01*
X154225000Y-98604605D01*
X153396861Y-99432745D01*
X150246663Y-99432745D01*
X150440824Y-99238923D01*
X150659750Y-98711691D01*
X150660189Y-98208223D01*
X152778035Y-98208223D01*
X152805222Y-98778454D01*
X152971136Y-99179005D01*
X153217255Y-99253139D01*
X154045395Y-98425000D01*
X154404605Y-98425000D01*
X155232745Y-99253139D01*
X155478864Y-99179005D01*
X155647735Y-98709187D01*
X156044752Y-98709187D01*
X156262757Y-99236800D01*
X156666077Y-99640824D01*
X157193309Y-99859750D01*
X157764187Y-99860248D01*
X158291800Y-99642243D01*
X158695824Y-99238923D01*
X158888860Y-98774039D01*
X166248096Y-98774039D01*
X166408959Y-99162423D01*
X166784866Y-99577389D01*
X167290959Y-99816914D01*
X167513000Y-99695629D01*
X167513000Y-98552000D01*
X167767000Y-98552000D01*
X167767000Y-99695629D01*
X167989041Y-99816914D01*
X168495134Y-99577389D01*
X168871041Y-99162423D01*
X169031904Y-98774039D01*
X168909915Y-98552000D01*
X167767000Y-98552000D01*
X167513000Y-98552000D01*
X166370085Y-98552000D01*
X166248096Y-98774039D01*
X158888860Y-98774039D01*
X158914750Y-98711691D01*
X158915248Y-98140813D01*
X158888452Y-98075961D01*
X166248096Y-98075961D01*
X166370085Y-98298000D01*
X167513000Y-98298000D01*
X167513000Y-97154371D01*
X167767000Y-97154371D01*
X167767000Y-98298000D01*
X168909915Y-98298000D01*
X169031904Y-98075961D01*
X168871041Y-97687577D01*
X168495134Y-97272611D01*
X167989041Y-97033086D01*
X167767000Y-97154371D01*
X167513000Y-97154371D01*
X167290959Y-97033086D01*
X166784866Y-97272611D01*
X166408959Y-97687577D01*
X166248096Y-98075961D01*
X158888452Y-98075961D01*
X158697243Y-97613200D01*
X158293923Y-97209176D01*
X157766691Y-96990250D01*
X157195813Y-96989752D01*
X156668200Y-97207757D01*
X156264176Y-97611077D01*
X156045250Y-98138309D01*
X156044752Y-98709187D01*
X155647735Y-98709187D01*
X155671965Y-98641777D01*
X155644778Y-98071546D01*
X155478864Y-97670995D01*
X155232745Y-97596861D01*
X154404605Y-98425000D01*
X154045395Y-98425000D01*
X153217255Y-97596861D01*
X152971136Y-97670995D01*
X152778035Y-98208223D01*
X150660189Y-98208223D01*
X150660248Y-98140813D01*
X150442243Y-97613200D01*
X150246640Y-97417255D01*
X153396861Y-97417255D01*
X154225000Y-98245395D01*
X155053139Y-97417255D01*
X154979005Y-97171136D01*
X154441777Y-96978035D01*
X153871546Y-97005222D01*
X153470995Y-97171136D01*
X153396861Y-97417255D01*
X150246640Y-97417255D01*
X150038923Y-97209176D01*
X149511691Y-96990250D01*
X148940813Y-96989752D01*
X148413200Y-97207757D01*
X148009176Y-97611077D01*
X147790250Y-98138309D01*
X147789752Y-98709187D01*
X147456584Y-98709187D01*
X147513113Y-98425000D01*
X147403880Y-97875849D01*
X147092811Y-97410302D01*
X146627264Y-97099233D01*
X146078113Y-96990000D01*
X146021887Y-96990000D01*
X145472736Y-97099233D01*
X145007189Y-97410302D01*
X144696120Y-97875849D01*
X144586887Y-98425000D01*
X137325000Y-98425000D01*
X137325248Y-98140813D01*
X137107243Y-97613200D01*
X136703923Y-97209176D01*
X136176691Y-96990250D01*
X135605813Y-96989752D01*
X135078200Y-97207757D01*
X134674176Y-97611077D01*
X134455250Y-98138309D01*
X134454752Y-98709187D01*
X131550203Y-98709187D01*
X131582440Y-98550000D01*
X131582440Y-97030000D01*
X131538162Y-96794683D01*
X131399090Y-96578559D01*
X131186890Y-96433569D01*
X130935000Y-96382560D01*
X129415000Y-96382560D01*
X129179683Y-96426838D01*
X128963559Y-96565910D01*
X128818569Y-96778110D01*
X128792873Y-96905000D01*
X124573920Y-96905000D01*
X124553162Y-96794683D01*
X124414090Y-96578559D01*
X124201890Y-96433569D01*
X123950000Y-96382560D01*
X122430000Y-96382560D01*
X122194683Y-96426838D01*
X121978559Y-96565910D01*
X121833569Y-96778110D01*
X121782560Y-97030000D01*
X119455000Y-97030000D01*
X119455000Y-96070167D01*
X124794838Y-96070167D01*
X124936883Y-96413943D01*
X125199673Y-96677192D01*
X125543201Y-96819838D01*
X125915167Y-96820162D01*
X126258943Y-96678117D01*
X126522192Y-96415327D01*
X126664838Y-96071799D01*
X126664879Y-96024923D01*
X126679802Y-96010000D01*
X130882537Y-96010000D01*
X130914673Y-96042192D01*
X131258201Y-96184838D01*
X131630167Y-96185162D01*
X131973943Y-96043117D01*
X132237192Y-95780327D01*
X132379838Y-95436799D01*
X132380162Y-95064833D01*
X132311719Y-94899187D01*
X156044752Y-94899187D01*
X156262757Y-95426800D01*
X156666077Y-95830824D01*
X157193309Y-96049750D01*
X157764187Y-96050248D01*
X158291800Y-95832243D01*
X158695824Y-95428923D01*
X158914750Y-94901691D01*
X158915000Y-94615000D01*
X166176887Y-94615000D01*
X166286120Y-95164151D01*
X166597189Y-95629698D01*
X167062736Y-95940767D01*
X167611887Y-96050000D01*
X167668113Y-96050000D01*
X168217264Y-95940767D01*
X168682811Y-95629698D01*
X168993880Y-95164151D01*
X169103113Y-94615000D01*
X168993880Y-94065849D01*
X168682811Y-93600302D01*
X168217264Y-93289233D01*
X167668113Y-93180000D01*
X167611887Y-93180000D01*
X167062736Y-93289233D01*
X166597189Y-93600302D01*
X166286120Y-94065849D01*
X166176887Y-94615000D01*
X158915000Y-94615000D01*
X158915248Y-94330813D01*
X158697243Y-93803200D01*
X158293923Y-93399176D01*
X157766691Y-93180250D01*
X157195813Y-93179752D01*
X156668200Y-93397757D01*
X156264176Y-93801077D01*
X156045250Y-94328309D01*
X156044752Y-94899187D01*
X132311719Y-94899187D01*
X132238117Y-94721057D01*
X131975327Y-94457808D01*
X131631799Y-94315162D01*
X131259833Y-94314838D01*
X130916057Y-94456883D01*
X130882882Y-94490000D01*
X126365000Y-94490000D01*
X126074161Y-94547852D01*
X125827599Y-94712599D01*
X125590320Y-94949878D01*
X125544833Y-94949838D01*
X125201057Y-95091883D01*
X124937808Y-95354673D01*
X124795162Y-95698201D01*
X124794838Y-96070167D01*
X119455000Y-96070167D01*
X119455000Y-90005000D01*
X157302560Y-90005000D01*
X157302560Y-91605000D01*
X157346838Y-91840317D01*
X157485910Y-92056441D01*
X157698110Y-92201431D01*
X157950000Y-92252440D01*
X159550000Y-92252440D01*
X159785317Y-92208162D01*
X160001441Y-92069090D01*
X160146431Y-91856890D01*
X160197440Y-91605000D01*
X160197440Y-90805000D01*
X164906887Y-90805000D01*
X165016120Y-91354151D01*
X165327189Y-91819698D01*
X165792736Y-92130767D01*
X166341887Y-92240000D01*
X166398113Y-92240000D01*
X166947264Y-92130767D01*
X167412811Y-91819698D01*
X167723880Y-91354151D01*
X167833113Y-90805000D01*
X167723880Y-90255849D01*
X167412811Y-89790302D01*
X166947264Y-89479233D01*
X166398113Y-89370000D01*
X166341887Y-89370000D01*
X165792736Y-89479233D01*
X165327189Y-89790302D01*
X165016120Y-90255849D01*
X164906887Y-90805000D01*
X160197440Y-90805000D01*
X160197440Y-90005000D01*
X160153162Y-89769683D01*
X160014090Y-89553559D01*
X159801890Y-89408569D01*
X159550000Y-89357560D01*
X157950000Y-89357560D01*
X157714683Y-89401838D01*
X157498559Y-89540910D01*
X157353569Y-89753110D01*
X157302560Y-90005000D01*
X119455000Y-90005000D01*
X119455000Y-82335000D01*
X161062560Y-82335000D01*
X161062560Y-84035000D01*
X161106838Y-84270317D01*
X161245910Y-84486441D01*
X161458110Y-84631431D01*
X161710000Y-84682440D01*
X163410000Y-84682440D01*
X163645317Y-84638162D01*
X163861441Y-84499090D01*
X164006431Y-84286890D01*
X164020086Y-84219459D01*
X164049946Y-84264147D01*
X164531715Y-84586054D01*
X165100000Y-84699093D01*
X165668285Y-84586054D01*
X166150054Y-84264147D01*
X166471961Y-83782378D01*
X166585000Y-83214093D01*
X166585000Y-83155907D01*
X166471961Y-82587622D01*
X166150054Y-82105853D01*
X165668285Y-81783946D01*
X165100000Y-81670907D01*
X164531715Y-81783946D01*
X164049946Y-82105853D01*
X164022150Y-82147452D01*
X164013162Y-82099683D01*
X163874090Y-81883559D01*
X163661890Y-81738569D01*
X163410000Y-81687560D01*
X161710000Y-81687560D01*
X161474683Y-81731838D01*
X161258559Y-81870910D01*
X161113569Y-82083110D01*
X161062560Y-82335000D01*
X119455000Y-82335000D01*
X119455000Y-80683455D01*
X119807302Y-80809144D01*
X120362368Y-80781362D01*
X120746143Y-80622397D01*
X120815608Y-80380213D01*
X120015000Y-79579605D01*
X120000858Y-79593748D01*
X119821253Y-79414143D01*
X119835395Y-79400000D01*
X120194605Y-79400000D01*
X120995213Y-80200608D01*
X121237397Y-80131143D01*
X121424144Y-79607698D01*
X121403353Y-79192302D01*
X179605856Y-79192302D01*
X179633638Y-79747368D01*
X179792603Y-80131143D01*
X180034787Y-80200608D01*
X180835395Y-79400000D01*
X180034787Y-78599392D01*
X179792603Y-78668857D01*
X179605856Y-79192302D01*
X121403353Y-79192302D01*
X121396362Y-79052632D01*
X121237397Y-78668857D01*
X120995213Y-78599392D01*
X120194605Y-79400000D01*
X119835395Y-79400000D01*
X119821253Y-79385858D01*
X120000858Y-79206253D01*
X120015000Y-79220395D01*
X120815608Y-78419787D01*
X120746143Y-78177603D01*
X120222698Y-77990856D01*
X119667632Y-78018638D01*
X119455000Y-78106713D01*
X119455000Y-75985000D01*
X159792560Y-75985000D01*
X159792560Y-77685000D01*
X159836838Y-77920317D01*
X159975910Y-78136441D01*
X160188110Y-78281431D01*
X160440000Y-78332440D01*
X162140000Y-78332440D01*
X162375317Y-78288162D01*
X162591441Y-78149090D01*
X162736431Y-77936890D01*
X162750086Y-77869459D01*
X162779946Y-77914147D01*
X163261715Y-78236054D01*
X163830000Y-78349093D01*
X164398285Y-78236054D01*
X164880054Y-77914147D01*
X165100000Y-77584974D01*
X165319946Y-77914147D01*
X165801715Y-78236054D01*
X166370000Y-78349093D01*
X166938285Y-78236054D01*
X167420054Y-77914147D01*
X167741961Y-77432378D01*
X167855000Y-76864093D01*
X167855000Y-76805907D01*
X167741961Y-76237622D01*
X167573165Y-75985000D01*
X173127560Y-75985000D01*
X173127560Y-77685000D01*
X173171838Y-77920317D01*
X173310910Y-78136441D01*
X173523110Y-78281431D01*
X173775000Y-78332440D01*
X175475000Y-78332440D01*
X175710317Y-78288162D01*
X175926441Y-78149090D01*
X176071431Y-77936890D01*
X176122440Y-77685000D01*
X176122440Y-75985000D01*
X176078162Y-75749683D01*
X175939090Y-75533559D01*
X175726890Y-75388569D01*
X175475000Y-75337560D01*
X173775000Y-75337560D01*
X173539683Y-75381838D01*
X173323559Y-75520910D01*
X173178569Y-75733110D01*
X173127560Y-75985000D01*
X167573165Y-75985000D01*
X167420054Y-75755853D01*
X166938285Y-75433946D01*
X166370000Y-75320907D01*
X165801715Y-75433946D01*
X165319946Y-75755853D01*
X165100000Y-76085026D01*
X164880054Y-75755853D01*
X164398285Y-75433946D01*
X163830000Y-75320907D01*
X163261715Y-75433946D01*
X162779946Y-75755853D01*
X162752150Y-75797452D01*
X162743162Y-75749683D01*
X162604090Y-75533559D01*
X162391890Y-75388569D01*
X162140000Y-75337560D01*
X160440000Y-75337560D01*
X160204683Y-75381838D01*
X159988559Y-75520910D01*
X159843569Y-75733110D01*
X159792560Y-75985000D01*
X119455000Y-75985000D01*
X119455000Y-70476795D01*
X131715510Y-70476795D01*
X131715510Y-71763205D01*
X131839928Y-72388697D01*
X132194241Y-72918964D01*
X132724508Y-73273277D01*
X133350000Y-73397695D01*
X133975492Y-73273277D01*
X134505759Y-72918964D01*
X134860072Y-72388697D01*
X134984490Y-71763205D01*
X134984490Y-70476795D01*
X139335510Y-70476795D01*
X139335510Y-71763205D01*
X139459928Y-72388697D01*
X139814241Y-72918964D01*
X140344508Y-73273277D01*
X140970000Y-73397695D01*
X141595492Y-73273277D01*
X142125759Y-72918964D01*
X142480072Y-72388697D01*
X142604490Y-71763205D01*
X142604490Y-70476795D01*
X142595834Y-70433275D01*
X157320000Y-70433275D01*
X157320000Y-72276725D01*
X157434942Y-72854577D01*
X157762269Y-73344456D01*
X158252148Y-73671783D01*
X158830000Y-73786725D01*
X159407852Y-73671783D01*
X159897731Y-73344456D01*
X160080000Y-73071671D01*
X160262269Y-73344456D01*
X160752148Y-73671783D01*
X161330000Y-73786725D01*
X161907852Y-73671783D01*
X162397731Y-73344456D01*
X162725058Y-72854577D01*
X162840000Y-72276725D01*
X162840000Y-70433275D01*
X164820000Y-70433275D01*
X164820000Y-72276725D01*
X164934942Y-72854577D01*
X165262269Y-73344456D01*
X165752148Y-73671783D01*
X166330000Y-73786725D01*
X166907852Y-73671783D01*
X167397731Y-73344456D01*
X167580000Y-73071671D01*
X167762269Y-73344456D01*
X168252148Y-73671783D01*
X168830000Y-73786725D01*
X169407852Y-73671783D01*
X169897731Y-73344456D01*
X170225058Y-72854577D01*
X170340000Y-72276725D01*
X170340000Y-70433275D01*
X170225058Y-69855423D01*
X169897731Y-69365544D01*
X169407852Y-69038217D01*
X168830000Y-68923275D01*
X168252148Y-69038217D01*
X167762269Y-69365544D01*
X167580000Y-69638329D01*
X167397731Y-69365544D01*
X166907852Y-69038217D01*
X166330000Y-68923275D01*
X165752148Y-69038217D01*
X165262269Y-69365544D01*
X164934942Y-69855423D01*
X164820000Y-70433275D01*
X162840000Y-70433275D01*
X162725058Y-69855423D01*
X162397731Y-69365544D01*
X161907852Y-69038217D01*
X161330000Y-68923275D01*
X160752148Y-69038217D01*
X160262269Y-69365544D01*
X160080000Y-69638329D01*
X159897731Y-69365544D01*
X159407852Y-69038217D01*
X158830000Y-68923275D01*
X158252148Y-69038217D01*
X157762269Y-69365544D01*
X157434942Y-69855423D01*
X157320000Y-70433275D01*
X142595834Y-70433275D01*
X142480072Y-69851303D01*
X142125759Y-69321036D01*
X141595492Y-68966723D01*
X140970000Y-68842305D01*
X140344508Y-68966723D01*
X139814241Y-69321036D01*
X139459928Y-69851303D01*
X139335510Y-70476795D01*
X134984490Y-70476795D01*
X134860072Y-69851303D01*
X134505759Y-69321036D01*
X133975492Y-68966723D01*
X133943473Y-68960354D01*
X134970941Y-68960354D01*
X135001887Y-69088159D01*
X135314998Y-69645956D01*
X135817735Y-70041471D01*
X136433560Y-70214490D01*
X137033000Y-70214490D01*
X137033000Y-68707000D01*
X137287000Y-68707000D01*
X137287000Y-70214490D01*
X137886440Y-70214490D01*
X138502265Y-70041471D01*
X139005002Y-69645956D01*
X139318113Y-69088159D01*
X139349059Y-68960354D01*
X139229705Y-68707000D01*
X137287000Y-68707000D01*
X137033000Y-68707000D01*
X135090295Y-68707000D01*
X134970941Y-68960354D01*
X133943473Y-68960354D01*
X133350000Y-68842305D01*
X132724508Y-68966723D01*
X132194241Y-69321036D01*
X131839928Y-69851303D01*
X131715510Y-70476795D01*
X119455000Y-70476795D01*
X119455000Y-68199646D01*
X134970941Y-68199646D01*
X135090295Y-68453000D01*
X137033000Y-68453000D01*
X137033000Y-66945510D01*
X137287000Y-66945510D01*
X137287000Y-68453000D01*
X139229705Y-68453000D01*
X139349059Y-68199646D01*
X139318113Y-68071841D01*
X139005002Y-67514044D01*
X138502265Y-67118529D01*
X137886440Y-66945510D01*
X137287000Y-66945510D01*
X137033000Y-66945510D01*
X136433560Y-66945510D01*
X135817735Y-67118529D01*
X135314998Y-67514044D01*
X135001887Y-68071841D01*
X134970941Y-68199646D01*
X119455000Y-68199646D01*
X119455000Y-66634750D01*
X161445000Y-66634750D01*
X161445000Y-67725310D01*
X161541673Y-67958699D01*
X161720302Y-68137327D01*
X161953691Y-68234000D01*
X163544250Y-68234000D01*
X163703000Y-68075250D01*
X163703000Y-66476000D01*
X163957000Y-66476000D01*
X163957000Y-68075250D01*
X164115750Y-68234000D01*
X165706309Y-68234000D01*
X165939698Y-68137327D01*
X166118327Y-67958699D01*
X166215000Y-67725310D01*
X166215000Y-66634750D01*
X166056250Y-66476000D01*
X163957000Y-66476000D01*
X163703000Y-66476000D01*
X161603750Y-66476000D01*
X161445000Y-66634750D01*
X119455000Y-66634750D01*
X119455000Y-64972690D01*
X161445000Y-64972690D01*
X161445000Y-66063250D01*
X161603750Y-66222000D01*
X163703000Y-66222000D01*
X163703000Y-64622750D01*
X163544250Y-64464000D01*
X161953691Y-64464000D01*
X161720302Y-64560673D01*
X161541673Y-64739301D01*
X161445000Y-64972690D01*
X119455000Y-64972690D01*
X119455000Y-64480213D01*
X134514392Y-64480213D01*
X134583857Y-64722397D01*
X135107302Y-64909144D01*
X135662368Y-64881362D01*
X136046143Y-64722397D01*
X136115608Y-64480213D01*
X135315000Y-63679605D01*
X134514392Y-64480213D01*
X119455000Y-64480213D01*
X119455000Y-63569930D01*
X119510478Y-63291021D01*
X119628856Y-63113855D01*
X119806019Y-62995479D01*
X120084931Y-62940000D01*
X134031545Y-62940000D01*
X133905856Y-63292302D01*
M02*
