G04 #@! TF.FileFunction,Legend,Top*
%FSLAX46Y46*%
G04 Gerber Fmt 4.6, Leading zero omitted, Abs format (unit mm)*
G04 Created by KiCad (PCBNEW 4.0.7) date 08/08/19 12:55:23*
%MOMM*%
%LPD*%
G01*
G04 APERTURE LIST*
%ADD10C,0.100000*%
%ADD11C,0.150000*%
%ADD12C,0.381000*%
%ADD13C,0.120000*%
%ADD14C,0.304800*%
G04 APERTURE END LIST*
D10*
D11*
X173998334Y-63952381D02*
X173665000Y-63476190D01*
X173426905Y-63952381D02*
X173426905Y-62952381D01*
X173807858Y-62952381D01*
X173903096Y-63000000D01*
X173950715Y-63047619D01*
X173998334Y-63142857D01*
X173998334Y-63285714D01*
X173950715Y-63380952D01*
X173903096Y-63428571D01*
X173807858Y-63476190D01*
X173426905Y-63476190D01*
X174807858Y-63904762D02*
X174712620Y-63952381D01*
X174522143Y-63952381D01*
X174426905Y-63904762D01*
X174379286Y-63809524D01*
X174379286Y-63428571D01*
X174426905Y-63333333D01*
X174522143Y-63285714D01*
X174712620Y-63285714D01*
X174807858Y-63333333D01*
X174855477Y-63428571D01*
X174855477Y-63523810D01*
X174379286Y-63619048D01*
X175188810Y-63285714D02*
X175426905Y-63952381D01*
X175665001Y-63285714D01*
X176045953Y-63952381D02*
X176045953Y-63285714D01*
X176045953Y-62952381D02*
X175998334Y-63000000D01*
X176045953Y-63047619D01*
X176093572Y-63000000D01*
X176045953Y-62952381D01*
X176045953Y-63047619D01*
X176474524Y-63904762D02*
X176569762Y-63952381D01*
X176760238Y-63952381D01*
X176855477Y-63904762D01*
X176903096Y-63809524D01*
X176903096Y-63761905D01*
X176855477Y-63666667D01*
X176760238Y-63619048D01*
X176617381Y-63619048D01*
X176522143Y-63571429D01*
X176474524Y-63476190D01*
X176474524Y-63428571D01*
X176522143Y-63333333D01*
X176617381Y-63285714D01*
X176760238Y-63285714D01*
X176855477Y-63333333D01*
X177331667Y-63952381D02*
X177331667Y-63285714D01*
X177331667Y-62952381D02*
X177284048Y-63000000D01*
X177331667Y-63047619D01*
X177379286Y-63000000D01*
X177331667Y-62952381D01*
X177331667Y-63047619D01*
X177950714Y-63952381D02*
X177855476Y-63904762D01*
X177807857Y-63857143D01*
X177760238Y-63761905D01*
X177760238Y-63476190D01*
X177807857Y-63380952D01*
X177855476Y-63333333D01*
X177950714Y-63285714D01*
X178093572Y-63285714D01*
X178188810Y-63333333D01*
X178236429Y-63380952D01*
X178284048Y-63476190D01*
X178284048Y-63761905D01*
X178236429Y-63857143D01*
X178188810Y-63904762D01*
X178093572Y-63952381D01*
X177950714Y-63952381D01*
X178712619Y-63285714D02*
X178712619Y-63952381D01*
X178712619Y-63380952D02*
X178760238Y-63333333D01*
X178855476Y-63285714D01*
X178998334Y-63285714D01*
X179093572Y-63333333D01*
X179141191Y-63428571D01*
X179141191Y-63952381D01*
X180712620Y-63428571D02*
X180855477Y-63476190D01*
X180903096Y-63523810D01*
X180950715Y-63619048D01*
X180950715Y-63761905D01*
X180903096Y-63857143D01*
X180855477Y-63904762D01*
X180760239Y-63952381D01*
X180379286Y-63952381D01*
X180379286Y-62952381D01*
X180712620Y-62952381D01*
X180807858Y-63000000D01*
X180855477Y-63047619D01*
X180903096Y-63142857D01*
X180903096Y-63238095D01*
X180855477Y-63333333D01*
X180807858Y-63380952D01*
X180712620Y-63428571D01*
X180379286Y-63428571D01*
X131755238Y-84240714D02*
X131755238Y-85050238D01*
X131707619Y-85145476D01*
X131660000Y-85193095D01*
X131564761Y-85240714D01*
X131421904Y-85240714D01*
X131326666Y-85193095D01*
X131755238Y-84859762D02*
X131660000Y-84907381D01*
X131469523Y-84907381D01*
X131374285Y-84859762D01*
X131326666Y-84812143D01*
X131279047Y-84716905D01*
X131279047Y-84431190D01*
X131326666Y-84335952D01*
X131374285Y-84288333D01*
X131469523Y-84240714D01*
X131660000Y-84240714D01*
X131755238Y-84288333D01*
X132231428Y-84907381D02*
X132231428Y-84240714D01*
X132231428Y-83907381D02*
X132183809Y-83955000D01*
X132231428Y-84002619D01*
X132279047Y-83955000D01*
X132231428Y-83907381D01*
X132231428Y-84002619D01*
X132564761Y-84240714D02*
X132945713Y-84240714D01*
X132707618Y-83907381D02*
X132707618Y-84764524D01*
X132755237Y-84859762D01*
X132850475Y-84907381D01*
X132945713Y-84907381D01*
X133279047Y-84907381D02*
X133279047Y-83907381D01*
X133707619Y-84907381D02*
X133707619Y-84383571D01*
X133660000Y-84288333D01*
X133564762Y-84240714D01*
X133421904Y-84240714D01*
X133326666Y-84288333D01*
X133279047Y-84335952D01*
X134612381Y-84240714D02*
X134612381Y-84907381D01*
X134183809Y-84240714D02*
X134183809Y-84764524D01*
X134231428Y-84859762D01*
X134326666Y-84907381D01*
X134469524Y-84907381D01*
X134564762Y-84859762D01*
X134612381Y-84812143D01*
X135088571Y-84907381D02*
X135088571Y-83907381D01*
X135088571Y-84288333D02*
X135183809Y-84240714D01*
X135374286Y-84240714D01*
X135469524Y-84288333D01*
X135517143Y-84335952D01*
X135564762Y-84431190D01*
X135564762Y-84716905D01*
X135517143Y-84812143D01*
X135469524Y-84859762D01*
X135374286Y-84907381D01*
X135183809Y-84907381D01*
X135088571Y-84859762D01*
X135993333Y-84812143D02*
X136040952Y-84859762D01*
X135993333Y-84907381D01*
X135945714Y-84859762D01*
X135993333Y-84812143D01*
X135993333Y-84907381D01*
X136898095Y-84859762D02*
X136802857Y-84907381D01*
X136612380Y-84907381D01*
X136517142Y-84859762D01*
X136469523Y-84812143D01*
X136421904Y-84716905D01*
X136421904Y-84431190D01*
X136469523Y-84335952D01*
X136517142Y-84288333D01*
X136612380Y-84240714D01*
X136802857Y-84240714D01*
X136898095Y-84288333D01*
X137469523Y-84907381D02*
X137374285Y-84859762D01*
X137326666Y-84812143D01*
X137279047Y-84716905D01*
X137279047Y-84431190D01*
X137326666Y-84335952D01*
X137374285Y-84288333D01*
X137469523Y-84240714D01*
X137612381Y-84240714D01*
X137707619Y-84288333D01*
X137755238Y-84335952D01*
X137802857Y-84431190D01*
X137802857Y-84716905D01*
X137755238Y-84812143D01*
X137707619Y-84859762D01*
X137612381Y-84907381D01*
X137469523Y-84907381D01*
X138231428Y-84907381D02*
X138231428Y-84240714D01*
X138231428Y-84335952D02*
X138279047Y-84288333D01*
X138374285Y-84240714D01*
X138517143Y-84240714D01*
X138612381Y-84288333D01*
X138660000Y-84383571D01*
X138660000Y-84907381D01*
X138660000Y-84383571D02*
X138707619Y-84288333D01*
X138802857Y-84240714D01*
X138945714Y-84240714D01*
X139040952Y-84288333D01*
X139088571Y-84383571D01*
X139088571Y-84907381D01*
X140279047Y-83859762D02*
X139421904Y-85145476D01*
X140469523Y-84240714D02*
X140850475Y-84240714D01*
X140612380Y-83907381D02*
X140612380Y-84764524D01*
X140659999Y-84859762D01*
X140755237Y-84907381D01*
X140850475Y-84907381D01*
X141564762Y-84859762D02*
X141469524Y-84907381D01*
X141279047Y-84907381D01*
X141183809Y-84859762D01*
X141136190Y-84764524D01*
X141136190Y-84383571D01*
X141183809Y-84288333D01*
X141279047Y-84240714D01*
X141469524Y-84240714D01*
X141564762Y-84288333D01*
X141612381Y-84383571D01*
X141612381Y-84478810D01*
X141136190Y-84574048D01*
X142040952Y-84907381D02*
X142040952Y-83907381D01*
X142040952Y-84288333D02*
X142136190Y-84240714D01*
X142326667Y-84240714D01*
X142421905Y-84288333D01*
X142469524Y-84335952D01*
X142517143Y-84431190D01*
X142517143Y-84716905D01*
X142469524Y-84812143D01*
X142421905Y-84859762D01*
X142326667Y-84907381D01*
X142136190Y-84907381D01*
X142040952Y-84859762D01*
X143088571Y-84907381D02*
X142993333Y-84859762D01*
X142945714Y-84764524D01*
X142945714Y-83907381D01*
X167187619Y-124110714D02*
X167140000Y-124063095D01*
X167092381Y-123967857D01*
X167092381Y-123729761D01*
X167140000Y-123634523D01*
X167187619Y-123586904D01*
X167282857Y-123539285D01*
X167378095Y-123539285D01*
X167520952Y-123586904D01*
X168092381Y-124158333D01*
X168092381Y-123539285D01*
X132802381Y-124158333D02*
X132802381Y-123491666D01*
X133802381Y-123920238D01*
X130690952Y-123920238D02*
X130643333Y-124015476D01*
X130595714Y-124063095D01*
X130500476Y-124110714D01*
X130452857Y-124110714D01*
X130357619Y-124063095D01*
X130310000Y-124015476D01*
X130262381Y-123920238D01*
X130262381Y-123729761D01*
X130310000Y-123634523D01*
X130357619Y-123586904D01*
X130452857Y-123539285D01*
X130500476Y-123539285D01*
X130595714Y-123586904D01*
X130643333Y-123634523D01*
X130690952Y-123729761D01*
X130690952Y-123920238D01*
X130738571Y-124015476D01*
X130786190Y-124063095D01*
X130881429Y-124110714D01*
X131071905Y-124110714D01*
X131167143Y-124063095D01*
X131214762Y-124015476D01*
X131262381Y-123920238D01*
X131262381Y-123729761D01*
X131214762Y-123634523D01*
X131167143Y-123586904D01*
X131071905Y-123539285D01*
X130881429Y-123539285D01*
X130786190Y-123586904D01*
X130738571Y-123634523D01*
X130690952Y-123729761D01*
X137882381Y-123586904D02*
X137882381Y-124063095D01*
X138358571Y-124110714D01*
X138310952Y-124063095D01*
X138263333Y-123967857D01*
X138263333Y-123729761D01*
X138310952Y-123634523D01*
X138358571Y-123586904D01*
X138453810Y-123539285D01*
X138691905Y-123539285D01*
X138787143Y-123586904D01*
X138834762Y-123634523D01*
X138882381Y-123729761D01*
X138882381Y-123967857D01*
X138834762Y-124063095D01*
X138787143Y-124110714D01*
X162345714Y-123634523D02*
X163012381Y-123634523D01*
X161964762Y-123872619D02*
X162679048Y-124110714D01*
X162679048Y-123491666D01*
X170632381Y-123539285D02*
X170632381Y-124110714D01*
X170632381Y-123825000D02*
X169632381Y-123825000D01*
X169775238Y-123920238D01*
X169870476Y-124015476D01*
X169918095Y-124110714D01*
X157646667Y-68508333D02*
X157646667Y-68032142D01*
X157932381Y-68603571D02*
X156932381Y-68270238D01*
X157932381Y-67936904D01*
X157265714Y-67174999D02*
X157932381Y-67174999D01*
X157265714Y-67603571D02*
X157789524Y-67603571D01*
X157884762Y-67555952D01*
X157932381Y-67460714D01*
X157932381Y-67317856D01*
X157884762Y-67222618D01*
X157837143Y-67174999D01*
X157932381Y-66270237D02*
X156932381Y-66270237D01*
X157884762Y-66270237D02*
X157932381Y-66365475D01*
X157932381Y-66555952D01*
X157884762Y-66651190D01*
X157837143Y-66698809D01*
X157741905Y-66746428D01*
X157456190Y-66746428D01*
X157360952Y-66698809D01*
X157313333Y-66651190D01*
X157265714Y-66555952D01*
X157265714Y-66365475D01*
X157313333Y-66270237D01*
X157932381Y-65794047D02*
X157265714Y-65794047D01*
X156932381Y-65794047D02*
X156980000Y-65841666D01*
X157027619Y-65794047D01*
X156980000Y-65746428D01*
X156932381Y-65794047D01*
X157027619Y-65794047D01*
X157932381Y-65175000D02*
X157884762Y-65270238D01*
X157837143Y-65317857D01*
X157741905Y-65365476D01*
X157456190Y-65365476D01*
X157360952Y-65317857D01*
X157313333Y-65270238D01*
X157265714Y-65175000D01*
X157265714Y-65032142D01*
X157313333Y-64936904D01*
X157360952Y-64889285D01*
X157456190Y-64841666D01*
X157741905Y-64841666D01*
X157837143Y-64889285D01*
X157884762Y-64936904D01*
X157932381Y-65032142D01*
X157932381Y-65175000D01*
X131167143Y-69746428D02*
X131214762Y-69794047D01*
X131262381Y-69936904D01*
X131262381Y-70032142D01*
X131214762Y-70175000D01*
X131119524Y-70270238D01*
X131024286Y-70317857D01*
X130833810Y-70365476D01*
X130690952Y-70365476D01*
X130500476Y-70317857D01*
X130405238Y-70270238D01*
X130310000Y-70175000D01*
X130262381Y-70032142D01*
X130262381Y-69936904D01*
X130310000Y-69794047D01*
X130357619Y-69746428D01*
X131262381Y-69175000D02*
X131214762Y-69270238D01*
X131167143Y-69317857D01*
X131071905Y-69365476D01*
X130786190Y-69365476D01*
X130690952Y-69317857D01*
X130643333Y-69270238D01*
X130595714Y-69175000D01*
X130595714Y-69032142D01*
X130643333Y-68936904D01*
X130690952Y-68889285D01*
X130786190Y-68841666D01*
X131071905Y-68841666D01*
X131167143Y-68889285D01*
X131214762Y-68936904D01*
X131262381Y-69032142D01*
X131262381Y-69175000D01*
X131262381Y-68413095D02*
X130595714Y-68413095D01*
X130690952Y-68413095D02*
X130643333Y-68365476D01*
X130595714Y-68270238D01*
X130595714Y-68127380D01*
X130643333Y-68032142D01*
X130738571Y-67984523D01*
X131262381Y-67984523D01*
X130738571Y-67984523D02*
X130643333Y-67936904D01*
X130595714Y-67841666D01*
X130595714Y-67698809D01*
X130643333Y-67603571D01*
X130738571Y-67555952D01*
X131262381Y-67555952D01*
X130595714Y-67079762D02*
X131595714Y-67079762D01*
X130643333Y-67079762D02*
X130595714Y-66984524D01*
X130595714Y-66794047D01*
X130643333Y-66698809D01*
X130690952Y-66651190D01*
X130786190Y-66603571D01*
X131071905Y-66603571D01*
X131167143Y-66651190D01*
X131214762Y-66698809D01*
X131262381Y-66794047D01*
X131262381Y-66984524D01*
X131214762Y-67079762D01*
X131262381Y-66032143D02*
X131214762Y-66127381D01*
X131167143Y-66175000D01*
X131071905Y-66222619D01*
X130786190Y-66222619D01*
X130690952Y-66175000D01*
X130643333Y-66127381D01*
X130595714Y-66032143D01*
X130595714Y-65889285D01*
X130643333Y-65794047D01*
X130690952Y-65746428D01*
X130786190Y-65698809D01*
X131071905Y-65698809D01*
X131167143Y-65746428D01*
X131214762Y-65794047D01*
X131262381Y-65889285D01*
X131262381Y-66032143D01*
X131214762Y-65317857D02*
X131262381Y-65222619D01*
X131262381Y-65032143D01*
X131214762Y-64936904D01*
X131119524Y-64889285D01*
X131071905Y-64889285D01*
X130976667Y-64936904D01*
X130929048Y-65032143D01*
X130929048Y-65175000D01*
X130881429Y-65270238D01*
X130786190Y-65317857D01*
X130738571Y-65317857D01*
X130643333Y-65270238D01*
X130595714Y-65175000D01*
X130595714Y-65032143D01*
X130643333Y-64936904D01*
X131262381Y-64460714D02*
X130595714Y-64460714D01*
X130262381Y-64460714D02*
X130310000Y-64508333D01*
X130357619Y-64460714D01*
X130310000Y-64413095D01*
X130262381Y-64460714D01*
X130357619Y-64460714D01*
X130595714Y-64127381D02*
X130595714Y-63746429D01*
X130262381Y-63984524D02*
X131119524Y-63984524D01*
X131214762Y-63936905D01*
X131262381Y-63841667D01*
X131262381Y-63746429D01*
X131214762Y-63032142D02*
X131262381Y-63127380D01*
X131262381Y-63317857D01*
X131214762Y-63413095D01*
X131119524Y-63460714D01*
X130738571Y-63460714D01*
X130643333Y-63413095D01*
X130595714Y-63317857D01*
X130595714Y-63127380D01*
X130643333Y-63032142D01*
X130738571Y-62984523D01*
X130833810Y-62984523D01*
X130929048Y-63460714D01*
X129802858Y-77510714D02*
X129731429Y-77582143D01*
X129517143Y-77653571D01*
X129374286Y-77653571D01*
X129160001Y-77582143D01*
X129017143Y-77439286D01*
X128945715Y-77296429D01*
X128874286Y-77010714D01*
X128874286Y-76796429D01*
X128945715Y-76510714D01*
X129017143Y-76367857D01*
X129160001Y-76225000D01*
X129374286Y-76153571D01*
X129517143Y-76153571D01*
X129731429Y-76225000D01*
X129802858Y-76296429D01*
X130660001Y-77653571D02*
X130517143Y-77582143D01*
X130445715Y-77510714D01*
X130374286Y-77367857D01*
X130374286Y-76939286D01*
X130445715Y-76796429D01*
X130517143Y-76725000D01*
X130660001Y-76653571D01*
X130874286Y-76653571D01*
X131017143Y-76725000D01*
X131088572Y-76796429D01*
X131160001Y-76939286D01*
X131160001Y-77367857D01*
X131088572Y-77510714D01*
X131017143Y-77582143D01*
X130874286Y-77653571D01*
X130660001Y-77653571D01*
X131802858Y-77653571D02*
X131802858Y-76653571D01*
X131802858Y-76796429D02*
X131874286Y-76725000D01*
X132017144Y-76653571D01*
X132231429Y-76653571D01*
X132374286Y-76725000D01*
X132445715Y-76867857D01*
X132445715Y-77653571D01*
X132445715Y-76867857D02*
X132517144Y-76725000D01*
X132660001Y-76653571D01*
X132874286Y-76653571D01*
X133017144Y-76725000D01*
X133088572Y-76867857D01*
X133088572Y-77653571D01*
X133802858Y-77653571D02*
X133802858Y-76653571D01*
X133802858Y-76796429D02*
X133874286Y-76725000D01*
X134017144Y-76653571D01*
X134231429Y-76653571D01*
X134374286Y-76725000D01*
X134445715Y-76867857D01*
X134445715Y-77653571D01*
X134445715Y-76867857D02*
X134517144Y-76725000D01*
X134660001Y-76653571D01*
X134874286Y-76653571D01*
X135017144Y-76725000D01*
X135088572Y-76867857D01*
X135088572Y-77653571D01*
X136017144Y-77653571D02*
X135874286Y-77582143D01*
X135802858Y-77510714D01*
X135731429Y-77367857D01*
X135731429Y-76939286D01*
X135802858Y-76796429D01*
X135874286Y-76725000D01*
X136017144Y-76653571D01*
X136231429Y-76653571D01*
X136374286Y-76725000D01*
X136445715Y-76796429D01*
X136517144Y-76939286D01*
X136517144Y-77367857D01*
X136445715Y-77510714D01*
X136374286Y-77582143D01*
X136231429Y-77653571D01*
X136017144Y-77653571D01*
X137802858Y-77653571D02*
X137802858Y-76153571D01*
X137802858Y-77582143D02*
X137660001Y-77653571D01*
X137374287Y-77653571D01*
X137231429Y-77582143D01*
X137160001Y-77510714D01*
X137088572Y-77367857D01*
X137088572Y-76939286D01*
X137160001Y-76796429D01*
X137231429Y-76725000D01*
X137374287Y-76653571D01*
X137660001Y-76653571D01*
X137802858Y-76725000D01*
X138731430Y-77653571D02*
X138588572Y-77582143D01*
X138517144Y-77510714D01*
X138445715Y-77367857D01*
X138445715Y-76939286D01*
X138517144Y-76796429D01*
X138588572Y-76725000D01*
X138731430Y-76653571D01*
X138945715Y-76653571D01*
X139088572Y-76725000D01*
X139160001Y-76796429D01*
X139231430Y-76939286D01*
X139231430Y-77367857D01*
X139160001Y-77510714D01*
X139088572Y-77582143D01*
X138945715Y-77653571D01*
X138731430Y-77653571D01*
X139874287Y-77653571D02*
X139874287Y-76653571D01*
X139874287Y-76939286D02*
X139945715Y-76796429D01*
X140017144Y-76725000D01*
X140160001Y-76653571D01*
X140302858Y-76653571D01*
X141374286Y-77582143D02*
X141231429Y-77653571D01*
X140945715Y-77653571D01*
X140802858Y-77582143D01*
X140731429Y-77439286D01*
X140731429Y-76867857D01*
X140802858Y-76725000D01*
X140945715Y-76653571D01*
X141231429Y-76653571D01*
X141374286Y-76725000D01*
X141445715Y-76867857D01*
X141445715Y-77010714D01*
X140731429Y-77153571D01*
X143874286Y-76153571D02*
X143588572Y-76153571D01*
X143445715Y-76225000D01*
X143374286Y-76296429D01*
X143231429Y-76510714D01*
X143160000Y-76796429D01*
X143160000Y-77367857D01*
X143231429Y-77510714D01*
X143302857Y-77582143D01*
X143445715Y-77653571D01*
X143731429Y-77653571D01*
X143874286Y-77582143D01*
X143945715Y-77510714D01*
X144017143Y-77367857D01*
X144017143Y-77010714D01*
X143945715Y-76867857D01*
X143874286Y-76796429D01*
X143731429Y-76725000D01*
X143445715Y-76725000D01*
X143302857Y-76796429D01*
X143231429Y-76867857D01*
X143160000Y-77010714D01*
X145302857Y-76653571D02*
X145302857Y-77653571D01*
X144945714Y-76082143D02*
X144588571Y-77153571D01*
X145517143Y-77153571D01*
X124231429Y-80053571D02*
X124231429Y-78553571D01*
X124731429Y-79625000D01*
X125231429Y-78553571D01*
X125231429Y-80053571D01*
X126160001Y-80053571D02*
X126017143Y-79982143D01*
X125945715Y-79910714D01*
X125874286Y-79767857D01*
X125874286Y-79339286D01*
X125945715Y-79196429D01*
X126017143Y-79125000D01*
X126160001Y-79053571D01*
X126374286Y-79053571D01*
X126517143Y-79125000D01*
X126588572Y-79196429D01*
X126660001Y-79339286D01*
X126660001Y-79767857D01*
X126588572Y-79910714D01*
X126517143Y-79982143D01*
X126374286Y-80053571D01*
X126160001Y-80053571D01*
X127945715Y-80053571D02*
X127945715Y-78553571D01*
X127945715Y-79982143D02*
X127802858Y-80053571D01*
X127517144Y-80053571D01*
X127374286Y-79982143D01*
X127302858Y-79910714D01*
X127231429Y-79767857D01*
X127231429Y-79339286D01*
X127302858Y-79196429D01*
X127374286Y-79125000D01*
X127517144Y-79053571D01*
X127802858Y-79053571D01*
X127945715Y-79125000D01*
X129302858Y-79053571D02*
X129302858Y-80053571D01*
X128660001Y-79053571D02*
X128660001Y-79839286D01*
X128731429Y-79982143D01*
X128874287Y-80053571D01*
X129088572Y-80053571D01*
X129231429Y-79982143D01*
X129302858Y-79910714D01*
X130231430Y-80053571D02*
X130088572Y-79982143D01*
X130017144Y-79839286D01*
X130017144Y-78553571D01*
X131445715Y-80053571D02*
X131445715Y-79267857D01*
X131374286Y-79125000D01*
X131231429Y-79053571D01*
X130945715Y-79053571D01*
X130802858Y-79125000D01*
X131445715Y-79982143D02*
X131302858Y-80053571D01*
X130945715Y-80053571D01*
X130802858Y-79982143D01*
X130731429Y-79839286D01*
X130731429Y-79696429D01*
X130802858Y-79553571D01*
X130945715Y-79482143D01*
X131302858Y-79482143D01*
X131445715Y-79410714D01*
X131945715Y-79053571D02*
X132517144Y-79053571D01*
X132160001Y-78553571D02*
X132160001Y-79839286D01*
X132231429Y-79982143D01*
X132374287Y-80053571D01*
X132517144Y-80053571D01*
X133231430Y-80053571D02*
X133088572Y-79982143D01*
X133017144Y-79910714D01*
X132945715Y-79767857D01*
X132945715Y-79339286D01*
X133017144Y-79196429D01*
X133088572Y-79125000D01*
X133231430Y-79053571D01*
X133445715Y-79053571D01*
X133588572Y-79125000D01*
X133660001Y-79196429D01*
X133731430Y-79339286D01*
X133731430Y-79767857D01*
X133660001Y-79910714D01*
X133588572Y-79982143D01*
X133445715Y-80053571D01*
X133231430Y-80053571D01*
X134374287Y-80053571D02*
X134374287Y-79053571D01*
X134374287Y-79339286D02*
X134445715Y-79196429D01*
X134517144Y-79125000D01*
X134660001Y-79053571D01*
X134802858Y-79053571D01*
X137302858Y-80053571D02*
X136802858Y-79339286D01*
X136445715Y-80053571D02*
X136445715Y-78553571D01*
X137017143Y-78553571D01*
X137160001Y-78625000D01*
X137231429Y-78696429D01*
X137302858Y-78839286D01*
X137302858Y-79053571D01*
X137231429Y-79196429D01*
X137160001Y-79267857D01*
X137017143Y-79339286D01*
X136445715Y-79339286D01*
X138517143Y-79982143D02*
X138374286Y-80053571D01*
X138088572Y-80053571D01*
X137945715Y-79982143D01*
X137874286Y-79839286D01*
X137874286Y-79267857D01*
X137945715Y-79125000D01*
X138088572Y-79053571D01*
X138374286Y-79053571D01*
X138517143Y-79125000D01*
X138588572Y-79267857D01*
X138588572Y-79410714D01*
X137874286Y-79553571D01*
X139231429Y-79053571D02*
X139231429Y-80553571D01*
X139231429Y-79125000D02*
X139374286Y-79053571D01*
X139660000Y-79053571D01*
X139802857Y-79125000D01*
X139874286Y-79196429D01*
X139945715Y-79339286D01*
X139945715Y-79767857D01*
X139874286Y-79910714D01*
X139802857Y-79982143D01*
X139660000Y-80053571D01*
X139374286Y-80053571D01*
X139231429Y-79982143D01*
X140802858Y-80053571D02*
X140660000Y-79982143D01*
X140588572Y-79839286D01*
X140588572Y-78553571D01*
X142017143Y-80053571D02*
X142017143Y-79267857D01*
X141945714Y-79125000D01*
X141802857Y-79053571D01*
X141517143Y-79053571D01*
X141374286Y-79125000D01*
X142017143Y-79982143D02*
X141874286Y-80053571D01*
X141517143Y-80053571D01*
X141374286Y-79982143D01*
X141302857Y-79839286D01*
X141302857Y-79696429D01*
X141374286Y-79553571D01*
X141517143Y-79482143D01*
X141874286Y-79482143D01*
X142017143Y-79410714D01*
X143374286Y-79982143D02*
X143231429Y-80053571D01*
X142945715Y-80053571D01*
X142802857Y-79982143D01*
X142731429Y-79910714D01*
X142660000Y-79767857D01*
X142660000Y-79339286D01*
X142731429Y-79196429D01*
X142802857Y-79125000D01*
X142945715Y-79053571D01*
X143231429Y-79053571D01*
X143374286Y-79125000D01*
X144588571Y-79982143D02*
X144445714Y-80053571D01*
X144160000Y-80053571D01*
X144017143Y-79982143D01*
X143945714Y-79839286D01*
X143945714Y-79267857D01*
X144017143Y-79125000D01*
X144160000Y-79053571D01*
X144445714Y-79053571D01*
X144588571Y-79125000D01*
X144660000Y-79267857D01*
X144660000Y-79410714D01*
X143945714Y-79553571D01*
X145302857Y-80053571D02*
X145302857Y-79053571D01*
X145302857Y-79196429D02*
X145374285Y-79125000D01*
X145517143Y-79053571D01*
X145731428Y-79053571D01*
X145874285Y-79125000D01*
X145945714Y-79267857D01*
X145945714Y-80053571D01*
X145945714Y-79267857D02*
X146017143Y-79125000D01*
X146160000Y-79053571D01*
X146374285Y-79053571D01*
X146517143Y-79125000D01*
X146588571Y-79267857D01*
X146588571Y-80053571D01*
X147874285Y-79982143D02*
X147731428Y-80053571D01*
X147445714Y-80053571D01*
X147302857Y-79982143D01*
X147231428Y-79839286D01*
X147231428Y-79267857D01*
X147302857Y-79125000D01*
X147445714Y-79053571D01*
X147731428Y-79053571D01*
X147874285Y-79125000D01*
X147945714Y-79267857D01*
X147945714Y-79410714D01*
X147231428Y-79553571D01*
X148588571Y-79053571D02*
X148588571Y-80053571D01*
X148588571Y-79196429D02*
X148659999Y-79125000D01*
X148802857Y-79053571D01*
X149017142Y-79053571D01*
X149159999Y-79125000D01*
X149231428Y-79267857D01*
X149231428Y-80053571D01*
X149731428Y-79053571D02*
X150302857Y-79053571D01*
X149945714Y-78553571D02*
X149945714Y-79839286D01*
X150017142Y-79982143D01*
X150160000Y-80053571D01*
X150302857Y-80053571D01*
X125588571Y-83025000D02*
X125517143Y-82953571D01*
X125374286Y-82739286D01*
X125302857Y-82596429D01*
X125231428Y-82382143D01*
X125160000Y-82025000D01*
X125160000Y-81739286D01*
X125231428Y-81382143D01*
X125302857Y-81167857D01*
X125374286Y-81025000D01*
X125517143Y-80810714D01*
X125588571Y-80739286D01*
X126088571Y-80953571D02*
X126088571Y-81239286D01*
X126660000Y-80953571D02*
X126660000Y-81239286D01*
X128017143Y-82453571D02*
X127302857Y-82453571D01*
X127302857Y-80953571D01*
X128731429Y-82453571D02*
X128588571Y-82382143D01*
X128517143Y-82310714D01*
X128445714Y-82167857D01*
X128445714Y-81739286D01*
X128517143Y-81596429D01*
X128588571Y-81525000D01*
X128731429Y-81453571D01*
X128945714Y-81453571D01*
X129088571Y-81525000D01*
X129160000Y-81596429D01*
X129231429Y-81739286D01*
X129231429Y-82167857D01*
X129160000Y-82310714D01*
X129088571Y-82382143D01*
X128945714Y-82453571D01*
X128731429Y-82453571D01*
X129874286Y-81453571D02*
X129874286Y-82453571D01*
X129874286Y-81596429D02*
X129945714Y-81525000D01*
X130088572Y-81453571D01*
X130302857Y-81453571D01*
X130445714Y-81525000D01*
X130517143Y-81667857D01*
X130517143Y-82453571D01*
X131874286Y-81453571D02*
X131874286Y-82667857D01*
X131802857Y-82810714D01*
X131731429Y-82882143D01*
X131588572Y-82953571D01*
X131374286Y-82953571D01*
X131231429Y-82882143D01*
X131874286Y-82382143D02*
X131731429Y-82453571D01*
X131445715Y-82453571D01*
X131302857Y-82382143D01*
X131231429Y-82310714D01*
X131160000Y-82167857D01*
X131160000Y-81739286D01*
X131231429Y-81596429D01*
X131302857Y-81525000D01*
X131445715Y-81453571D01*
X131731429Y-81453571D01*
X131874286Y-81525000D01*
X132588572Y-82453571D02*
X132588572Y-80953571D01*
X132588572Y-81525000D02*
X132731429Y-81453571D01*
X133017143Y-81453571D01*
X133160000Y-81525000D01*
X133231429Y-81596429D01*
X133302858Y-81739286D01*
X133302858Y-82167857D01*
X133231429Y-82310714D01*
X133160000Y-82382143D01*
X133017143Y-82453571D01*
X132731429Y-82453571D01*
X132588572Y-82382143D01*
X134160001Y-82453571D02*
X134017143Y-82382143D01*
X133945715Y-82310714D01*
X133874286Y-82167857D01*
X133874286Y-81739286D01*
X133945715Y-81596429D01*
X134017143Y-81525000D01*
X134160001Y-81453571D01*
X134374286Y-81453571D01*
X134517143Y-81525000D01*
X134588572Y-81596429D01*
X134660001Y-81739286D01*
X134660001Y-82167857D01*
X134588572Y-82310714D01*
X134517143Y-82382143D01*
X134374286Y-82453571D01*
X134160001Y-82453571D01*
X135945715Y-82453571D02*
X135945715Y-81667857D01*
X135874286Y-81525000D01*
X135731429Y-81453571D01*
X135445715Y-81453571D01*
X135302858Y-81525000D01*
X135945715Y-82382143D02*
X135802858Y-82453571D01*
X135445715Y-82453571D01*
X135302858Y-82382143D01*
X135231429Y-82239286D01*
X135231429Y-82096429D01*
X135302858Y-81953571D01*
X135445715Y-81882143D01*
X135802858Y-81882143D01*
X135945715Y-81810714D01*
X136660001Y-82453571D02*
X136660001Y-81453571D01*
X136660001Y-81739286D02*
X136731429Y-81596429D01*
X136802858Y-81525000D01*
X136945715Y-81453571D01*
X137088572Y-81453571D01*
X138231429Y-82453571D02*
X138231429Y-80953571D01*
X138231429Y-82382143D02*
X138088572Y-82453571D01*
X137802858Y-82453571D01*
X137660000Y-82382143D01*
X137588572Y-82310714D01*
X137517143Y-82167857D01*
X137517143Y-81739286D01*
X137588572Y-81596429D01*
X137660000Y-81525000D01*
X137802858Y-81453571D01*
X138088572Y-81453571D01*
X138231429Y-81525000D01*
X138874286Y-80953571D02*
X138874286Y-81239286D01*
X139445715Y-80953571D02*
X139445715Y-81239286D01*
X141802857Y-82382143D02*
X141660000Y-82453571D01*
X141374286Y-82453571D01*
X141231429Y-82382143D01*
X141160000Y-82239286D01*
X141160000Y-81667857D01*
X141231429Y-81525000D01*
X141374286Y-81453571D01*
X141660000Y-81453571D01*
X141802857Y-81525000D01*
X141874286Y-81667857D01*
X141874286Y-81810714D01*
X141160000Y-81953571D01*
X143160000Y-82453571D02*
X143160000Y-80953571D01*
X143160000Y-82382143D02*
X143017143Y-82453571D01*
X142731429Y-82453571D01*
X142588571Y-82382143D01*
X142517143Y-82310714D01*
X142445714Y-82167857D01*
X142445714Y-81739286D01*
X142517143Y-81596429D01*
X142588571Y-81525000D01*
X142731429Y-81453571D01*
X143017143Y-81453571D01*
X143160000Y-81525000D01*
X143874286Y-82453571D02*
X143874286Y-81453571D01*
X143874286Y-80953571D02*
X143802857Y-81025000D01*
X143874286Y-81096429D01*
X143945714Y-81025000D01*
X143874286Y-80953571D01*
X143874286Y-81096429D01*
X144374286Y-81453571D02*
X144945715Y-81453571D01*
X144588572Y-80953571D02*
X144588572Y-82239286D01*
X144660000Y-82382143D01*
X144802858Y-82453571D01*
X144945715Y-82453571D01*
X145445715Y-82453571D02*
X145445715Y-81453571D01*
X145445715Y-80953571D02*
X145374286Y-81025000D01*
X145445715Y-81096429D01*
X145517143Y-81025000D01*
X145445715Y-80953571D01*
X145445715Y-81096429D01*
X146374287Y-82453571D02*
X146231429Y-82382143D01*
X146160001Y-82310714D01*
X146088572Y-82167857D01*
X146088572Y-81739286D01*
X146160001Y-81596429D01*
X146231429Y-81525000D01*
X146374287Y-81453571D01*
X146588572Y-81453571D01*
X146731429Y-81525000D01*
X146802858Y-81596429D01*
X146874287Y-81739286D01*
X146874287Y-82167857D01*
X146802858Y-82310714D01*
X146731429Y-82382143D01*
X146588572Y-82453571D01*
X146374287Y-82453571D01*
X147517144Y-81453571D02*
X147517144Y-82453571D01*
X147517144Y-81596429D02*
X147588572Y-81525000D01*
X147731430Y-81453571D01*
X147945715Y-81453571D01*
X148088572Y-81525000D01*
X148160001Y-81667857D01*
X148160001Y-82453571D01*
X148731430Y-83025000D02*
X148802858Y-82953571D01*
X148945715Y-82739286D01*
X149017144Y-82596429D01*
X149088573Y-82382143D01*
X149160001Y-82025000D01*
X149160001Y-81739286D01*
X149088573Y-81382143D01*
X149017144Y-81167857D01*
X148945715Y-81025000D01*
X148802858Y-80810714D01*
X148731430Y-80739286D01*
X120467381Y-95201904D02*
X119991190Y-95535238D01*
X120467381Y-95773333D02*
X119467381Y-95773333D01*
X119467381Y-95392380D01*
X119515000Y-95297142D01*
X119562619Y-95249523D01*
X119657857Y-95201904D01*
X119800714Y-95201904D01*
X119895952Y-95249523D01*
X119943571Y-95297142D01*
X119991190Y-95392380D01*
X119991190Y-95773333D01*
X120467381Y-94773333D02*
X119800714Y-94773333D01*
X119467381Y-94773333D02*
X119515000Y-94820952D01*
X119562619Y-94773333D01*
X119515000Y-94725714D01*
X119467381Y-94773333D01*
X119562619Y-94773333D01*
X119800714Y-93868571D02*
X120610238Y-93868571D01*
X120705476Y-93916190D01*
X120753095Y-93963809D01*
X120800714Y-94059048D01*
X120800714Y-94201905D01*
X120753095Y-94297143D01*
X120419762Y-93868571D02*
X120467381Y-93963809D01*
X120467381Y-94154286D01*
X120419762Y-94249524D01*
X120372143Y-94297143D01*
X120276905Y-94344762D01*
X119991190Y-94344762D01*
X119895952Y-94297143D01*
X119848333Y-94249524D01*
X119800714Y-94154286D01*
X119800714Y-93963809D01*
X119848333Y-93868571D01*
X120467381Y-93392381D02*
X119467381Y-93392381D01*
X120467381Y-92963809D02*
X119943571Y-92963809D01*
X119848333Y-93011428D01*
X119800714Y-93106666D01*
X119800714Y-93249524D01*
X119848333Y-93344762D01*
X119895952Y-93392381D01*
X119800714Y-92630476D02*
X119800714Y-92249524D01*
X119467381Y-92487619D02*
X120324524Y-92487619D01*
X120419762Y-92440000D01*
X120467381Y-92344762D01*
X120467381Y-92249524D01*
X120419762Y-90725713D02*
X120467381Y-90820951D01*
X120467381Y-91011428D01*
X120419762Y-91106666D01*
X120372143Y-91154285D01*
X120276905Y-91201904D01*
X119991190Y-91201904D01*
X119895952Y-91154285D01*
X119848333Y-91106666D01*
X119800714Y-91011428D01*
X119800714Y-90820951D01*
X119848333Y-90725713D01*
X120467381Y-90297142D02*
X119467381Y-90297142D01*
X120467381Y-89868570D02*
X119943571Y-89868570D01*
X119848333Y-89916189D01*
X119800714Y-90011427D01*
X119800714Y-90154285D01*
X119848333Y-90249523D01*
X119895952Y-90297142D01*
X120372143Y-89392380D02*
X120419762Y-89344761D01*
X120467381Y-89392380D01*
X120419762Y-89439999D01*
X120372143Y-89392380D01*
X120467381Y-89392380D01*
X120467381Y-88154285D02*
X119467381Y-88154285D01*
X120467381Y-87678095D02*
X119467381Y-87678095D01*
X120467381Y-87106666D01*
X119467381Y-87106666D01*
X159234761Y-79827381D02*
X159234761Y-78827381D01*
X159568095Y-79541667D01*
X159901428Y-78827381D01*
X159901428Y-79827381D01*
X160520475Y-79827381D02*
X160425237Y-79779762D01*
X160377618Y-79732143D01*
X160329999Y-79636905D01*
X160329999Y-79351190D01*
X160377618Y-79255952D01*
X160425237Y-79208333D01*
X160520475Y-79160714D01*
X160663333Y-79160714D01*
X160758571Y-79208333D01*
X160806190Y-79255952D01*
X160853809Y-79351190D01*
X160853809Y-79636905D01*
X160806190Y-79732143D01*
X160758571Y-79779762D01*
X160663333Y-79827381D01*
X160520475Y-79827381D01*
X161282380Y-79160714D02*
X161282380Y-79827381D01*
X161282380Y-79255952D02*
X161329999Y-79208333D01*
X161425237Y-79160714D01*
X161568095Y-79160714D01*
X161663333Y-79208333D01*
X161710952Y-79303571D01*
X161710952Y-79827381D01*
X162329999Y-79827381D02*
X162234761Y-79779762D01*
X162187142Y-79732143D01*
X162139523Y-79636905D01*
X162139523Y-79351190D01*
X162187142Y-79255952D01*
X162234761Y-79208333D01*
X162329999Y-79160714D01*
X162472857Y-79160714D01*
X162568095Y-79208333D01*
X162615714Y-79255952D01*
X162663333Y-79351190D01*
X162663333Y-79636905D01*
X162615714Y-79732143D01*
X162568095Y-79779762D01*
X162472857Y-79827381D01*
X162329999Y-79827381D01*
X163806190Y-78779762D02*
X162949047Y-80065476D01*
X164091904Y-79779762D02*
X164234761Y-79827381D01*
X164472857Y-79827381D01*
X164568095Y-79779762D01*
X164615714Y-79732143D01*
X164663333Y-79636905D01*
X164663333Y-79541667D01*
X164615714Y-79446429D01*
X164568095Y-79398810D01*
X164472857Y-79351190D01*
X164282380Y-79303571D01*
X164187142Y-79255952D01*
X164139523Y-79208333D01*
X164091904Y-79113095D01*
X164091904Y-79017857D01*
X164139523Y-78922619D01*
X164187142Y-78875000D01*
X164282380Y-78827381D01*
X164520476Y-78827381D01*
X164663333Y-78875000D01*
X164949047Y-79160714D02*
X165329999Y-79160714D01*
X165091904Y-78827381D02*
X165091904Y-79684524D01*
X165139523Y-79779762D01*
X165234761Y-79827381D01*
X165329999Y-79827381D01*
X166044286Y-79779762D02*
X165949048Y-79827381D01*
X165758571Y-79827381D01*
X165663333Y-79779762D01*
X165615714Y-79684524D01*
X165615714Y-79303571D01*
X165663333Y-79208333D01*
X165758571Y-79160714D01*
X165949048Y-79160714D01*
X166044286Y-79208333D01*
X166091905Y-79303571D01*
X166091905Y-79398810D01*
X165615714Y-79494048D01*
X166520476Y-79827381D02*
X166520476Y-79160714D01*
X166520476Y-79351190D02*
X166568095Y-79255952D01*
X166615714Y-79208333D01*
X166710952Y-79160714D01*
X166806191Y-79160714D01*
X167520477Y-79779762D02*
X167425239Y-79827381D01*
X167234762Y-79827381D01*
X167139524Y-79779762D01*
X167091905Y-79684524D01*
X167091905Y-79303571D01*
X167139524Y-79208333D01*
X167234762Y-79160714D01*
X167425239Y-79160714D01*
X167520477Y-79208333D01*
X167568096Y-79303571D01*
X167568096Y-79398810D01*
X167091905Y-79494048D01*
X168139524Y-79827381D02*
X168044286Y-79779762D01*
X167996667Y-79732143D01*
X167949048Y-79636905D01*
X167949048Y-79351190D01*
X167996667Y-79255952D01*
X168044286Y-79208333D01*
X168139524Y-79160714D01*
X168282382Y-79160714D01*
X168377620Y-79208333D01*
X168425239Y-79255952D01*
X168472858Y-79351190D01*
X168472858Y-79636905D01*
X168425239Y-79732143D01*
X168377620Y-79779762D01*
X168282382Y-79827381D01*
X168139524Y-79827381D01*
D12*
X140959840Y-73108820D02*
G75*
G03X140959840Y-73108820I-548640J0D01*
G01*
X134462316Y-73108820D02*
G75*
G03X134462316Y-73108820I-553516J0D01*
G01*
X134462089Y-63309500D02*
G75*
G03X134462089Y-63309500I-553289J0D01*
G01*
X140962187Y-63309500D02*
G75*
G03X140962187Y-63309500I-550987J0D01*
G01*
X140959840Y-67310000D02*
G75*
G03X140959840Y-67310000I-548640J0D01*
G01*
X134462316Y-67310000D02*
G75*
G03X134462316Y-67310000I-553516J0D01*
G01*
X141460220Y-62308740D02*
X141460220Y-53309520D01*
X141460220Y-53309520D02*
X132859780Y-53309520D01*
X132859780Y-53309520D02*
X132859780Y-62308740D01*
X132359400Y-72209660D02*
X131759960Y-72209660D01*
X131759960Y-72209660D02*
X131759960Y-70408800D01*
X131759960Y-70408800D02*
X132359400Y-70408800D01*
X142560040Y-72209660D02*
X141960600Y-72209660D01*
X141960600Y-70408800D02*
X142560040Y-70408800D01*
X142560040Y-70408800D02*
X142560040Y-72209660D01*
X141960600Y-74109580D02*
X138960860Y-74109580D01*
X138960860Y-74109580D02*
X138960860Y-73309480D01*
X138960860Y-73309480D02*
X135359140Y-73309480D01*
X135359140Y-73309480D02*
X135359140Y-74109580D01*
X135359140Y-74109580D02*
X132359400Y-74109580D01*
X132359400Y-62308740D02*
X141960600Y-62308740D01*
X141960600Y-62311280D02*
X141960600Y-74112120D01*
X132359400Y-74109580D02*
X132359400Y-62308740D01*
D13*
X149315000Y-100925000D02*
X154135000Y-100925000D01*
X149315000Y-103545000D02*
X154135000Y-103545000D01*
X149315000Y-100925000D02*
X149315000Y-101239000D01*
X149315000Y-103231000D02*
X149315000Y-103545000D01*
X154135000Y-100925000D02*
X154135000Y-101239000D01*
X154135000Y-103231000D02*
X154135000Y-103545000D01*
X149315000Y-97115000D02*
X154135000Y-97115000D01*
X149315000Y-99735000D02*
X154135000Y-99735000D01*
X149315000Y-97115000D02*
X149315000Y-97429000D01*
X149315000Y-99421000D02*
X149315000Y-99735000D01*
X154135000Y-97115000D02*
X154135000Y-97429000D01*
X154135000Y-99421000D02*
X154135000Y-99735000D01*
X149315000Y-104735000D02*
X154135000Y-104735000D01*
X149315000Y-107355000D02*
X154135000Y-107355000D01*
X149315000Y-104735000D02*
X149315000Y-105049000D01*
X149315000Y-107041000D02*
X149315000Y-107355000D01*
X154135000Y-104735000D02*
X154135000Y-105049000D01*
X154135000Y-107041000D02*
X154135000Y-107355000D01*
X128360000Y-108545000D02*
X133180000Y-108545000D01*
X128360000Y-111165000D02*
X133180000Y-111165000D01*
X128360000Y-108545000D02*
X128360000Y-108859000D01*
X128360000Y-110851000D02*
X128360000Y-111165000D01*
X133180000Y-108545000D02*
X133180000Y-108859000D01*
X133180000Y-110851000D02*
X133180000Y-111165000D01*
X164620000Y-110915000D02*
X164620000Y-108795000D01*
X164620000Y-108795000D02*
X160500000Y-108795000D01*
X160500000Y-108795000D02*
X160500000Y-110915000D01*
X160500000Y-110915000D02*
X164620000Y-110915000D01*
X165390000Y-109855000D02*
X164620000Y-109855000D01*
X159730000Y-109855000D02*
X160500000Y-109855000D01*
X163960000Y-110915000D02*
X163960000Y-108795000D01*
X129565000Y-120070000D02*
X129565000Y-122730000D01*
X137245000Y-120070000D02*
X129565000Y-120070000D01*
X137245000Y-122730000D02*
X129565000Y-122730000D01*
X137245000Y-120070000D02*
X137245000Y-122730000D01*
X138515000Y-120070000D02*
X139845000Y-120070000D01*
X139845000Y-120070000D02*
X139845000Y-121400000D01*
X161165000Y-120070000D02*
X161165000Y-122730000D01*
X168845000Y-120070000D02*
X161165000Y-120070000D01*
X168845000Y-122730000D02*
X161165000Y-122730000D01*
X168845000Y-120070000D02*
X168845000Y-122730000D01*
X170115000Y-120070000D02*
X171445000Y-120070000D01*
X171445000Y-120070000D02*
X171445000Y-121400000D01*
X121860000Y-92770000D02*
X124520000Y-92770000D01*
X121860000Y-92710000D02*
X121860000Y-92770000D01*
X124520000Y-92710000D02*
X124520000Y-92770000D01*
X121860000Y-92710000D02*
X124520000Y-92710000D01*
X121860000Y-91440000D02*
X121860000Y-90110000D01*
X121860000Y-90110000D02*
X123190000Y-90110000D01*
D11*
X163052000Y-66421000D02*
X161020000Y-66421000D01*
X161020000Y-66421000D02*
X161020000Y-62865000D01*
X161020000Y-62865000D02*
X168640000Y-62865000D01*
X168640000Y-62865000D02*
X168640000Y-66421000D01*
X168640000Y-66421000D02*
X166608000Y-66421000D01*
X159750000Y-61849000D02*
X158734000Y-61849000D01*
X170926000Y-61849000D02*
X169910000Y-61849000D01*
X162290000Y-59817000D02*
X162290000Y-61341000D01*
X167370000Y-61341000D02*
X167370000Y-59817000D01*
X162290000Y-60579000D02*
X167370000Y-60579000D01*
X159750000Y-61849000D02*
X159750000Y-61595000D01*
X159750000Y-61595000D02*
X159750000Y-61341000D01*
X159750000Y-61341000D02*
X169910000Y-61341000D01*
X169910000Y-61341000D02*
X169910000Y-61849000D01*
X162290000Y-59817000D02*
X167370000Y-59817000D01*
X158734000Y-74041000D02*
X158734000Y-61849000D01*
X170926000Y-61849000D02*
X170926000Y-74041000D01*
X170926000Y-74041000D02*
X158734000Y-74041000D01*
D13*
X168700000Y-78165000D02*
X168700000Y-75505000D01*
X163560000Y-78165000D02*
X168700000Y-78165000D01*
X163560000Y-75505000D02*
X168700000Y-75505000D01*
X163560000Y-78165000D02*
X163560000Y-75505000D01*
X162290000Y-78165000D02*
X160960000Y-78165000D01*
X160960000Y-78165000D02*
X160960000Y-76835000D01*
X165920000Y-103645000D02*
X165920000Y-100825000D01*
X165920000Y-100825000D02*
X159200000Y-100825000D01*
X159200000Y-100825000D02*
X159200000Y-103645000D01*
X159200000Y-103645000D02*
X165920000Y-103645000D01*
X166660000Y-102235000D02*
X165920000Y-102235000D01*
X158460000Y-102235000D02*
X159200000Y-102235000D01*
X144330000Y-103645000D02*
X144330000Y-100825000D01*
X144330000Y-100825000D02*
X137610000Y-100825000D01*
X137610000Y-100825000D02*
X137610000Y-103645000D01*
X137610000Y-103645000D02*
X144330000Y-103645000D01*
X145070000Y-102235000D02*
X144330000Y-102235000D01*
X136870000Y-102235000D02*
X137610000Y-102235000D01*
X165770000Y-107355000D02*
X165770000Y-104735000D01*
X165770000Y-104735000D02*
X159350000Y-104735000D01*
X159350000Y-104735000D02*
X159350000Y-107355000D01*
X159350000Y-107355000D02*
X165770000Y-107355000D01*
X166660000Y-106045000D02*
X165770000Y-106045000D01*
X158460000Y-106045000D02*
X159350000Y-106045000D01*
X159350000Y-93305000D02*
X159350000Y-95925000D01*
X159350000Y-95925000D02*
X165770000Y-95925000D01*
X165770000Y-95925000D02*
X165770000Y-93305000D01*
X165770000Y-93305000D02*
X159350000Y-93305000D01*
X158460000Y-94615000D02*
X159350000Y-94615000D01*
X166660000Y-94615000D02*
X165770000Y-94615000D01*
X159350000Y-97115000D02*
X159350000Y-99735000D01*
X159350000Y-99735000D02*
X165770000Y-99735000D01*
X165770000Y-99735000D02*
X165770000Y-97115000D01*
X165770000Y-97115000D02*
X159350000Y-97115000D01*
X158460000Y-98425000D02*
X159350000Y-98425000D01*
X166660000Y-98425000D02*
X165770000Y-98425000D01*
X131480000Y-118785000D02*
X131480000Y-116165000D01*
X131480000Y-116165000D02*
X125060000Y-116165000D01*
X125060000Y-116165000D02*
X125060000Y-118785000D01*
X125060000Y-118785000D02*
X131480000Y-118785000D01*
X132370000Y-117475000D02*
X131480000Y-117475000D01*
X124170000Y-117475000D02*
X125060000Y-117475000D01*
X131480000Y-114975000D02*
X131480000Y-112355000D01*
X131480000Y-112355000D02*
X125060000Y-112355000D01*
X125060000Y-112355000D02*
X125060000Y-114975000D01*
X125060000Y-114975000D02*
X131480000Y-114975000D01*
X132370000Y-113665000D02*
X131480000Y-113665000D01*
X124170000Y-113665000D02*
X125060000Y-113665000D01*
X137760000Y-97115000D02*
X137760000Y-99735000D01*
X137760000Y-99735000D02*
X144180000Y-99735000D01*
X144180000Y-99735000D02*
X144180000Y-97115000D01*
X144180000Y-97115000D02*
X137760000Y-97115000D01*
X136870000Y-98425000D02*
X137760000Y-98425000D01*
X145070000Y-98425000D02*
X144180000Y-98425000D01*
X137760000Y-116165000D02*
X137760000Y-118785000D01*
X137760000Y-118785000D02*
X144180000Y-118785000D01*
X144180000Y-118785000D02*
X144180000Y-116165000D01*
X144180000Y-116165000D02*
X137760000Y-116165000D01*
X136870000Y-117475000D02*
X137760000Y-117475000D01*
X145070000Y-117475000D02*
X144180000Y-117475000D01*
X137760000Y-104735000D02*
X137760000Y-107355000D01*
X137760000Y-107355000D02*
X144180000Y-107355000D01*
X144180000Y-107355000D02*
X144180000Y-104735000D01*
X144180000Y-104735000D02*
X137760000Y-104735000D01*
X136870000Y-106045000D02*
X137760000Y-106045000D01*
X145070000Y-106045000D02*
X144180000Y-106045000D01*
X137760000Y-108545000D02*
X137760000Y-111165000D01*
X137760000Y-111165000D02*
X144180000Y-111165000D01*
X144180000Y-111165000D02*
X144180000Y-108545000D01*
X144180000Y-108545000D02*
X137760000Y-108545000D01*
X136870000Y-109855000D02*
X137760000Y-109855000D01*
X145070000Y-109855000D02*
X144180000Y-109855000D01*
X137760000Y-112355000D02*
X137760000Y-114975000D01*
X137760000Y-114975000D02*
X144180000Y-114975000D01*
X144180000Y-114975000D02*
X144180000Y-112355000D01*
X144180000Y-112355000D02*
X137760000Y-112355000D01*
X136870000Y-113665000D02*
X137760000Y-113665000D01*
X145070000Y-113665000D02*
X144180000Y-113665000D01*
X121340000Y-98530000D02*
X121340000Y-102130000D01*
X122067205Y-98005816D02*
G75*
G03X121340000Y-98530000I1122795J-2324184D01*
G01*
X124288807Y-97973600D02*
G75*
G02X125790000Y-100330000I-1098807J-2356400D01*
G01*
X124288807Y-102686400D02*
G75*
G03X125790000Y-100330000I-1098807J2356400D01*
G01*
X122067205Y-102654184D02*
G75*
G02X121340000Y-102130000I1122795J2324184D01*
G01*
X128325000Y-98530000D02*
X128325000Y-102130000D01*
X129052205Y-98005816D02*
G75*
G03X128325000Y-98530000I1122795J-2324184D01*
G01*
X131273807Y-97973600D02*
G75*
G02X132775000Y-100330000I-1098807J-2356400D01*
G01*
X131273807Y-102686400D02*
G75*
G03X132775000Y-100330000I-1098807J2356400D01*
G01*
X129052205Y-102654184D02*
G75*
G02X128325000Y-102130000I1122795J2324184D01*
G01*
X178741436Y-94270830D02*
G75*
G03X175049004Y-94270000I-1846436J-979170D01*
G01*
X178741436Y-96229170D02*
G75*
G02X175049004Y-96230000I-1846436J979170D01*
G01*
X178741436Y-96229170D02*
G75*
G03X178740996Y-94270000I-1846436J979170D01*
G01*
X176895000Y-93200000D02*
X176895000Y-97300000D01*
X176935000Y-93200000D02*
X176935000Y-97300000D01*
X176975000Y-93201000D02*
X176975000Y-97299000D01*
X177015000Y-93203000D02*
X177015000Y-97297000D01*
X177055000Y-93206000D02*
X177055000Y-97294000D01*
X177095000Y-93209000D02*
X177095000Y-97291000D01*
X177135000Y-93213000D02*
X177135000Y-94470000D01*
X177135000Y-96030000D02*
X177135000Y-97287000D01*
X177175000Y-93218000D02*
X177175000Y-94470000D01*
X177175000Y-96030000D02*
X177175000Y-97282000D01*
X177215000Y-93224000D02*
X177215000Y-94470000D01*
X177215000Y-96030000D02*
X177215000Y-97276000D01*
X177255000Y-93231000D02*
X177255000Y-94470000D01*
X177255000Y-96030000D02*
X177255000Y-97269000D01*
X177295000Y-93238000D02*
X177295000Y-94470000D01*
X177295000Y-96030000D02*
X177295000Y-97262000D01*
X177335000Y-93246000D02*
X177335000Y-94470000D01*
X177335000Y-96030000D02*
X177335000Y-97254000D01*
X177375000Y-93255000D02*
X177375000Y-94470000D01*
X177375000Y-96030000D02*
X177375000Y-97245000D01*
X177415000Y-93265000D02*
X177415000Y-94470000D01*
X177415000Y-96030000D02*
X177415000Y-97235000D01*
X177455000Y-93276000D02*
X177455000Y-94470000D01*
X177455000Y-96030000D02*
X177455000Y-97224000D01*
X177495000Y-93287000D02*
X177495000Y-94470000D01*
X177495000Y-96030000D02*
X177495000Y-97213000D01*
X177535000Y-93300000D02*
X177535000Y-94470000D01*
X177535000Y-96030000D02*
X177535000Y-97200000D01*
X177575000Y-93313000D02*
X177575000Y-94470000D01*
X177575000Y-96030000D02*
X177575000Y-97187000D01*
X177616000Y-93327000D02*
X177616000Y-94470000D01*
X177616000Y-96030000D02*
X177616000Y-97173000D01*
X177656000Y-93343000D02*
X177656000Y-94470000D01*
X177656000Y-96030000D02*
X177656000Y-97157000D01*
X177696000Y-93359000D02*
X177696000Y-94470000D01*
X177696000Y-96030000D02*
X177696000Y-97141000D01*
X177736000Y-93376000D02*
X177736000Y-94470000D01*
X177736000Y-96030000D02*
X177736000Y-97124000D01*
X177776000Y-93394000D02*
X177776000Y-94470000D01*
X177776000Y-96030000D02*
X177776000Y-97106000D01*
X177816000Y-93413000D02*
X177816000Y-94470000D01*
X177816000Y-96030000D02*
X177816000Y-97087000D01*
X177856000Y-93433000D02*
X177856000Y-94470000D01*
X177856000Y-96030000D02*
X177856000Y-97067000D01*
X177896000Y-93454000D02*
X177896000Y-94470000D01*
X177896000Y-96030000D02*
X177896000Y-97046000D01*
X177936000Y-93477000D02*
X177936000Y-94470000D01*
X177936000Y-96030000D02*
X177936000Y-97023000D01*
X177976000Y-93500000D02*
X177976000Y-94470000D01*
X177976000Y-96030000D02*
X177976000Y-97000000D01*
X178016000Y-93525000D02*
X178016000Y-94470000D01*
X178016000Y-96030000D02*
X178016000Y-96975000D01*
X178056000Y-93551000D02*
X178056000Y-94470000D01*
X178056000Y-96030000D02*
X178056000Y-96949000D01*
X178096000Y-93578000D02*
X178096000Y-94470000D01*
X178096000Y-96030000D02*
X178096000Y-96922000D01*
X178136000Y-93607000D02*
X178136000Y-94470000D01*
X178136000Y-96030000D02*
X178136000Y-96893000D01*
X178176000Y-93637000D02*
X178176000Y-94470000D01*
X178176000Y-96030000D02*
X178176000Y-96863000D01*
X178216000Y-93669000D02*
X178216000Y-94470000D01*
X178216000Y-96030000D02*
X178216000Y-96831000D01*
X178256000Y-93703000D02*
X178256000Y-94470000D01*
X178256000Y-96030000D02*
X178256000Y-96797000D01*
X178296000Y-93738000D02*
X178296000Y-94470000D01*
X178296000Y-96030000D02*
X178296000Y-96762000D01*
X178336000Y-93775000D02*
X178336000Y-94470000D01*
X178336000Y-96030000D02*
X178336000Y-96725000D01*
X178376000Y-93814000D02*
X178376000Y-94470000D01*
X178376000Y-96030000D02*
X178376000Y-96686000D01*
X178416000Y-93855000D02*
X178416000Y-94470000D01*
X178416000Y-96030000D02*
X178416000Y-96645000D01*
X178456000Y-93899000D02*
X178456000Y-94470000D01*
X178456000Y-96030000D02*
X178456000Y-96601000D01*
X178496000Y-93945000D02*
X178496000Y-94470000D01*
X178496000Y-96030000D02*
X178496000Y-96555000D01*
X178536000Y-93994000D02*
X178536000Y-94470000D01*
X178536000Y-96030000D02*
X178536000Y-96506000D01*
X178576000Y-94046000D02*
X178576000Y-94470000D01*
X178576000Y-96030000D02*
X178576000Y-96454000D01*
X178616000Y-94102000D02*
X178616000Y-94470000D01*
X178616000Y-96030000D02*
X178616000Y-96398000D01*
X178656000Y-94162000D02*
X178656000Y-94470000D01*
X178656000Y-96030000D02*
X178656000Y-96338000D01*
X178696000Y-94227000D02*
X178696000Y-96273000D01*
X178736000Y-94298000D02*
X178736000Y-96202000D01*
X178776000Y-94376000D02*
X178776000Y-96124000D01*
X178816000Y-94464000D02*
X178816000Y-96036000D01*
X178856000Y-94564000D02*
X178856000Y-95936000D01*
X178896000Y-94683000D02*
X178896000Y-95817000D01*
X178936000Y-94835000D02*
X178936000Y-95665000D01*
X178976000Y-95085000D02*
X178976000Y-95415000D01*
X174195000Y-95250000D02*
X175095000Y-95250000D01*
X174645000Y-94800000D02*
X174645000Y-95700000D01*
X179450722Y-75655277D02*
G75*
G03X174839420Y-75655000I-2305722J-1179723D01*
G01*
X179450722Y-78014723D02*
G75*
G02X174839420Y-78015000I-2305722J1179723D01*
G01*
X179450722Y-78014723D02*
G75*
G03X179450580Y-75655000I-2305722J1179723D01*
G01*
X177145000Y-74285000D02*
X177145000Y-79385000D01*
X177185000Y-74285000D02*
X177185000Y-79385000D01*
X177225000Y-74286000D02*
X177225000Y-79384000D01*
X177265000Y-74287000D02*
X177265000Y-79383000D01*
X177305000Y-74289000D02*
X177305000Y-79381000D01*
X177345000Y-74292000D02*
X177345000Y-79378000D01*
X177385000Y-74296000D02*
X177385000Y-79374000D01*
X177425000Y-74300000D02*
X177425000Y-75855000D01*
X177425000Y-77815000D02*
X177425000Y-79370000D01*
X177465000Y-74304000D02*
X177465000Y-75855000D01*
X177465000Y-77815000D02*
X177465000Y-79366000D01*
X177505000Y-74310000D02*
X177505000Y-75855000D01*
X177505000Y-77815000D02*
X177505000Y-79360000D01*
X177545000Y-74316000D02*
X177545000Y-75855000D01*
X177545000Y-77815000D02*
X177545000Y-79354000D01*
X177585000Y-74322000D02*
X177585000Y-75855000D01*
X177585000Y-77815000D02*
X177585000Y-79348000D01*
X177625000Y-74329000D02*
X177625000Y-75855000D01*
X177625000Y-77815000D02*
X177625000Y-79341000D01*
X177665000Y-74337000D02*
X177665000Y-75855000D01*
X177665000Y-77815000D02*
X177665000Y-79333000D01*
X177705000Y-74346000D02*
X177705000Y-75855000D01*
X177705000Y-77815000D02*
X177705000Y-79324000D01*
X177745000Y-74355000D02*
X177745000Y-75855000D01*
X177745000Y-77815000D02*
X177745000Y-79315000D01*
X177785000Y-74365000D02*
X177785000Y-75855000D01*
X177785000Y-77815000D02*
X177785000Y-79305000D01*
X177825000Y-74375000D02*
X177825000Y-75855000D01*
X177825000Y-77815000D02*
X177825000Y-79295000D01*
X177866000Y-74387000D02*
X177866000Y-75855000D01*
X177866000Y-77815000D02*
X177866000Y-79283000D01*
X177906000Y-74399000D02*
X177906000Y-75855000D01*
X177906000Y-77815000D02*
X177906000Y-79271000D01*
X177946000Y-74411000D02*
X177946000Y-75855000D01*
X177946000Y-77815000D02*
X177946000Y-79259000D01*
X177986000Y-74425000D02*
X177986000Y-75855000D01*
X177986000Y-77815000D02*
X177986000Y-79245000D01*
X178026000Y-74439000D02*
X178026000Y-75855000D01*
X178026000Y-77815000D02*
X178026000Y-79231000D01*
X178066000Y-74453000D02*
X178066000Y-75855000D01*
X178066000Y-77815000D02*
X178066000Y-79217000D01*
X178106000Y-74469000D02*
X178106000Y-75855000D01*
X178106000Y-77815000D02*
X178106000Y-79201000D01*
X178146000Y-74485000D02*
X178146000Y-75855000D01*
X178146000Y-77815000D02*
X178146000Y-79185000D01*
X178186000Y-74502000D02*
X178186000Y-75855000D01*
X178186000Y-77815000D02*
X178186000Y-79168000D01*
X178226000Y-74520000D02*
X178226000Y-75855000D01*
X178226000Y-77815000D02*
X178226000Y-79150000D01*
X178266000Y-74539000D02*
X178266000Y-75855000D01*
X178266000Y-77815000D02*
X178266000Y-79131000D01*
X178306000Y-74559000D02*
X178306000Y-75855000D01*
X178306000Y-77815000D02*
X178306000Y-79111000D01*
X178346000Y-74579000D02*
X178346000Y-75855000D01*
X178346000Y-77815000D02*
X178346000Y-79091000D01*
X178386000Y-74601000D02*
X178386000Y-75855000D01*
X178386000Y-77815000D02*
X178386000Y-79069000D01*
X178426000Y-74623000D02*
X178426000Y-75855000D01*
X178426000Y-77815000D02*
X178426000Y-79047000D01*
X178466000Y-74646000D02*
X178466000Y-75855000D01*
X178466000Y-77815000D02*
X178466000Y-79024000D01*
X178506000Y-74670000D02*
X178506000Y-75855000D01*
X178506000Y-77815000D02*
X178506000Y-79000000D01*
X178546000Y-74695000D02*
X178546000Y-75855000D01*
X178546000Y-77815000D02*
X178546000Y-78975000D01*
X178586000Y-74722000D02*
X178586000Y-75855000D01*
X178586000Y-77815000D02*
X178586000Y-78948000D01*
X178626000Y-74749000D02*
X178626000Y-75855000D01*
X178626000Y-77815000D02*
X178626000Y-78921000D01*
X178666000Y-74777000D02*
X178666000Y-75855000D01*
X178666000Y-77815000D02*
X178666000Y-78893000D01*
X178706000Y-74807000D02*
X178706000Y-75855000D01*
X178706000Y-77815000D02*
X178706000Y-78863000D01*
X178746000Y-74838000D02*
X178746000Y-75855000D01*
X178746000Y-77815000D02*
X178746000Y-78832000D01*
X178786000Y-74870000D02*
X178786000Y-75855000D01*
X178786000Y-77815000D02*
X178786000Y-78800000D01*
X178826000Y-74903000D02*
X178826000Y-75855000D01*
X178826000Y-77815000D02*
X178826000Y-78767000D01*
X178866000Y-74938000D02*
X178866000Y-75855000D01*
X178866000Y-77815000D02*
X178866000Y-78732000D01*
X178906000Y-74974000D02*
X178906000Y-75855000D01*
X178906000Y-77815000D02*
X178906000Y-78696000D01*
X178946000Y-75012000D02*
X178946000Y-75855000D01*
X178946000Y-77815000D02*
X178946000Y-78658000D01*
X178986000Y-75052000D02*
X178986000Y-75855000D01*
X178986000Y-77815000D02*
X178986000Y-78618000D01*
X179026000Y-75093000D02*
X179026000Y-75855000D01*
X179026000Y-77815000D02*
X179026000Y-78577000D01*
X179066000Y-75136000D02*
X179066000Y-75855000D01*
X179066000Y-77815000D02*
X179066000Y-78534000D01*
X179106000Y-75181000D02*
X179106000Y-75855000D01*
X179106000Y-77815000D02*
X179106000Y-78489000D01*
X179146000Y-75229000D02*
X179146000Y-75855000D01*
X179146000Y-77815000D02*
X179146000Y-78441000D01*
X179186000Y-75279000D02*
X179186000Y-75855000D01*
X179186000Y-77815000D02*
X179186000Y-78391000D01*
X179226000Y-75331000D02*
X179226000Y-75855000D01*
X179226000Y-77815000D02*
X179226000Y-78339000D01*
X179266000Y-75387000D02*
X179266000Y-75855000D01*
X179266000Y-77815000D02*
X179266000Y-78283000D01*
X179306000Y-75445000D02*
X179306000Y-75855000D01*
X179306000Y-77815000D02*
X179306000Y-78225000D01*
X179346000Y-75508000D02*
X179346000Y-75855000D01*
X179346000Y-77815000D02*
X179346000Y-78162000D01*
X179386000Y-75574000D02*
X179386000Y-78096000D01*
X179426000Y-75646000D02*
X179426000Y-78024000D01*
X179466000Y-75723000D02*
X179466000Y-77947000D01*
X179506000Y-75807000D02*
X179506000Y-77863000D01*
X179546000Y-75901000D02*
X179546000Y-77769000D01*
X179586000Y-76006000D02*
X179586000Y-77664000D01*
X179626000Y-76128000D02*
X179626000Y-77542000D01*
X179666000Y-76276000D02*
X179666000Y-77394000D01*
X179706000Y-76481000D02*
X179706000Y-77189000D01*
X173695000Y-76835000D02*
X174895000Y-76835000D01*
X174295000Y-76185000D02*
X174295000Y-77485000D01*
X175985000Y-70445000D02*
X180805000Y-70445000D01*
X175985000Y-73065000D02*
X180805000Y-73065000D01*
X175985000Y-70445000D02*
X175985000Y-70759000D01*
X175985000Y-72751000D02*
X175985000Y-73065000D01*
X180805000Y-70445000D02*
X180805000Y-70759000D01*
X180805000Y-72751000D02*
X180805000Y-73065000D01*
X152340000Y-117535000D02*
X155000000Y-117535000D01*
X152340000Y-114935000D02*
X152340000Y-117535000D01*
X155000000Y-114935000D02*
X155000000Y-117535000D01*
X152340000Y-114935000D02*
X155000000Y-114935000D01*
X152340000Y-113665000D02*
X152340000Y-112335000D01*
X152340000Y-112335000D02*
X153670000Y-112335000D01*
X148530000Y-117535000D02*
X151190000Y-117535000D01*
X148530000Y-114935000D02*
X148530000Y-117535000D01*
X151190000Y-114935000D02*
X151190000Y-117535000D01*
X148530000Y-114935000D02*
X151190000Y-114935000D01*
X148530000Y-113665000D02*
X148530000Y-112335000D01*
X148530000Y-112335000D02*
X149860000Y-112335000D01*
X172205000Y-91480000D02*
X172205000Y-81240000D01*
X156315000Y-91480000D02*
X156315000Y-81240000D01*
X156315000Y-91480000D02*
X172205000Y-91480000D01*
X156315000Y-81240000D02*
X172205000Y-81240000D01*
X172205000Y-88900000D02*
X174845000Y-88900000D01*
X172205000Y-86360000D02*
X174829000Y-86360000D01*
X172205000Y-83820000D02*
X174829000Y-83820000D01*
X153880000Y-88420000D02*
X156000000Y-88420000D01*
X156000000Y-88420000D02*
X156000000Y-84300000D01*
X156000000Y-84300000D02*
X153880000Y-84300000D01*
X153880000Y-84300000D02*
X153880000Y-88420000D01*
X154940000Y-89190000D02*
X154940000Y-88420000D01*
X154940000Y-83530000D02*
X154940000Y-84300000D01*
X153880000Y-87760000D02*
X156000000Y-87760000D01*
D14*
X136652000Y-50676629D02*
X136652000Y-51765200D01*
X136579428Y-51982914D01*
X136434285Y-52128057D01*
X136216571Y-52200629D01*
X136071428Y-52200629D01*
X138030857Y-50676629D02*
X137740571Y-50676629D01*
X137595428Y-50749200D01*
X137522857Y-50821771D01*
X137377714Y-51039486D01*
X137305143Y-51329771D01*
X137305143Y-51910343D01*
X137377714Y-52055486D01*
X137450286Y-52128057D01*
X137595428Y-52200629D01*
X137885714Y-52200629D01*
X138030857Y-52128057D01*
X138103428Y-52055486D01*
X138176000Y-51910343D01*
X138176000Y-51547486D01*
X138103428Y-51402343D01*
X138030857Y-51329771D01*
X137885714Y-51257200D01*
X137595428Y-51257200D01*
X137450286Y-51329771D01*
X137377714Y-51402343D01*
X137305143Y-51547486D01*
D11*
X151598334Y-102592143D02*
X151550715Y-102639762D01*
X151407858Y-102687381D01*
X151312620Y-102687381D01*
X151169762Y-102639762D01*
X151074524Y-102544524D01*
X151026905Y-102449286D01*
X150979286Y-102258810D01*
X150979286Y-102115952D01*
X151026905Y-101925476D01*
X151074524Y-101830238D01*
X151169762Y-101735000D01*
X151312620Y-101687381D01*
X151407858Y-101687381D01*
X151550715Y-101735000D01*
X151598334Y-101782619D01*
X152550715Y-102687381D02*
X151979286Y-102687381D01*
X152265000Y-102687381D02*
X152265000Y-101687381D01*
X152169762Y-101830238D01*
X152074524Y-101925476D01*
X151979286Y-101973095D01*
X151598334Y-98782143D02*
X151550715Y-98829762D01*
X151407858Y-98877381D01*
X151312620Y-98877381D01*
X151169762Y-98829762D01*
X151074524Y-98734524D01*
X151026905Y-98639286D01*
X150979286Y-98448810D01*
X150979286Y-98305952D01*
X151026905Y-98115476D01*
X151074524Y-98020238D01*
X151169762Y-97925000D01*
X151312620Y-97877381D01*
X151407858Y-97877381D01*
X151550715Y-97925000D01*
X151598334Y-97972619D01*
X151979286Y-97972619D02*
X152026905Y-97925000D01*
X152122143Y-97877381D01*
X152360239Y-97877381D01*
X152455477Y-97925000D01*
X152503096Y-97972619D01*
X152550715Y-98067857D01*
X152550715Y-98163095D01*
X152503096Y-98305952D01*
X151931667Y-98877381D01*
X152550715Y-98877381D01*
X151598334Y-106402143D02*
X151550715Y-106449762D01*
X151407858Y-106497381D01*
X151312620Y-106497381D01*
X151169762Y-106449762D01*
X151074524Y-106354524D01*
X151026905Y-106259286D01*
X150979286Y-106068810D01*
X150979286Y-105925952D01*
X151026905Y-105735476D01*
X151074524Y-105640238D01*
X151169762Y-105545000D01*
X151312620Y-105497381D01*
X151407858Y-105497381D01*
X151550715Y-105545000D01*
X151598334Y-105592619D01*
X151931667Y-105497381D02*
X152550715Y-105497381D01*
X152217381Y-105878333D01*
X152360239Y-105878333D01*
X152455477Y-105925952D01*
X152503096Y-105973571D01*
X152550715Y-106068810D01*
X152550715Y-106306905D01*
X152503096Y-106402143D01*
X152455477Y-106449762D01*
X152360239Y-106497381D01*
X152074524Y-106497381D01*
X151979286Y-106449762D01*
X151931667Y-106402143D01*
X130643334Y-110212143D02*
X130595715Y-110259762D01*
X130452858Y-110307381D01*
X130357620Y-110307381D01*
X130214762Y-110259762D01*
X130119524Y-110164524D01*
X130071905Y-110069286D01*
X130024286Y-109878810D01*
X130024286Y-109735952D01*
X130071905Y-109545476D01*
X130119524Y-109450238D01*
X130214762Y-109355000D01*
X130357620Y-109307381D01*
X130452858Y-109307381D01*
X130595715Y-109355000D01*
X130643334Y-109402619D01*
X131500477Y-109307381D02*
X131310000Y-109307381D01*
X131214762Y-109355000D01*
X131167143Y-109402619D01*
X131071905Y-109545476D01*
X131024286Y-109735952D01*
X131024286Y-110116905D01*
X131071905Y-110212143D01*
X131119524Y-110259762D01*
X131214762Y-110307381D01*
X131405239Y-110307381D01*
X131500477Y-110259762D01*
X131548096Y-110212143D01*
X131595715Y-110116905D01*
X131595715Y-109878810D01*
X131548096Y-109783571D01*
X131500477Y-109735952D01*
X131405239Y-109688333D01*
X131214762Y-109688333D01*
X131119524Y-109735952D01*
X131071905Y-109783571D01*
X131024286Y-109878810D01*
X161821905Y-110307381D02*
X161821905Y-109307381D01*
X162060000Y-109307381D01*
X162202858Y-109355000D01*
X162298096Y-109450238D01*
X162345715Y-109545476D01*
X162393334Y-109735952D01*
X162393334Y-109878810D01*
X162345715Y-110069286D01*
X162298096Y-110164524D01*
X162202858Y-110259762D01*
X162060000Y-110307381D01*
X161821905Y-110307381D01*
X162774286Y-109402619D02*
X162821905Y-109355000D01*
X162917143Y-109307381D01*
X163155239Y-109307381D01*
X163250477Y-109355000D01*
X163298096Y-109402619D01*
X163345715Y-109497857D01*
X163345715Y-109593095D01*
X163298096Y-109735952D01*
X162726667Y-110307381D01*
X163345715Y-110307381D01*
D10*
X162330000Y-58726429D02*
X162672857Y-58726429D01*
X162501428Y-59326429D02*
X162501428Y-58726429D01*
X163215714Y-59326429D02*
X163015714Y-59040714D01*
X162872857Y-59326429D02*
X162872857Y-58726429D01*
X163101429Y-58726429D01*
X163158571Y-58755000D01*
X163187143Y-58783571D01*
X163215714Y-58840714D01*
X163215714Y-58926429D01*
X163187143Y-58983571D01*
X163158571Y-59012143D01*
X163101429Y-59040714D01*
X162872857Y-59040714D01*
X163444286Y-59297857D02*
X163530000Y-59326429D01*
X163672857Y-59326429D01*
X163730000Y-59297857D01*
X163758571Y-59269286D01*
X163787143Y-59212143D01*
X163787143Y-59155000D01*
X163758571Y-59097857D01*
X163730000Y-59069286D01*
X163672857Y-59040714D01*
X163558571Y-59012143D01*
X163501429Y-58983571D01*
X163472857Y-58955000D01*
X163444286Y-58897857D01*
X163444286Y-58840714D01*
X163472857Y-58783571D01*
X163501429Y-58755000D01*
X163558571Y-58726429D01*
X163701429Y-58726429D01*
X163787143Y-58755000D01*
X163901429Y-59383571D02*
X164358572Y-59383571D01*
X164444286Y-58726429D02*
X164815715Y-58726429D01*
X164615715Y-58955000D01*
X164701429Y-58955000D01*
X164758572Y-58983571D01*
X164787143Y-59012143D01*
X164815715Y-59069286D01*
X164815715Y-59212143D01*
X164787143Y-59269286D01*
X164758572Y-59297857D01*
X164701429Y-59326429D01*
X164530001Y-59326429D01*
X164472858Y-59297857D01*
X164444286Y-59269286D01*
X165072858Y-59269286D02*
X165101430Y-59297857D01*
X165072858Y-59326429D01*
X165044287Y-59297857D01*
X165072858Y-59269286D01*
X165072858Y-59326429D01*
X165644286Y-58726429D02*
X165358572Y-58726429D01*
X165330001Y-59012143D01*
X165358572Y-58983571D01*
X165415715Y-58955000D01*
X165558572Y-58955000D01*
X165615715Y-58983571D01*
X165644286Y-59012143D01*
X165672858Y-59069286D01*
X165672858Y-59212143D01*
X165644286Y-59269286D01*
X165615715Y-59297857D01*
X165558572Y-59326429D01*
X165415715Y-59326429D01*
X165358572Y-59297857D01*
X165330001Y-59269286D01*
X165930001Y-59326429D02*
X165930001Y-58926429D01*
X165930001Y-58983571D02*
X165958573Y-58955000D01*
X166015715Y-58926429D01*
X166101430Y-58926429D01*
X166158573Y-58955000D01*
X166187144Y-59012143D01*
X166187144Y-59326429D01*
X166187144Y-59012143D02*
X166215715Y-58955000D01*
X166272858Y-58926429D01*
X166358573Y-58926429D01*
X166415715Y-58955000D01*
X166444287Y-59012143D01*
X166444287Y-59326429D01*
X166730001Y-59326429D02*
X166730001Y-58926429D01*
X166730001Y-58983571D02*
X166758573Y-58955000D01*
X166815715Y-58926429D01*
X166901430Y-58926429D01*
X166958573Y-58955000D01*
X166987144Y-59012143D01*
X166987144Y-59326429D01*
X166987144Y-59012143D02*
X167015715Y-58955000D01*
X167072858Y-58926429D01*
X167158573Y-58926429D01*
X167215715Y-58955000D01*
X167244287Y-59012143D01*
X167244287Y-59326429D01*
D11*
X161107381Y-102401666D02*
X161107381Y-102877857D01*
X160107381Y-102877857D01*
X161107381Y-101544523D02*
X161107381Y-102115952D01*
X161107381Y-101830238D02*
X160107381Y-101830238D01*
X160250238Y-101925476D01*
X160345476Y-102020714D01*
X160393095Y-102115952D01*
X162091905Y-101782619D02*
X162139524Y-101735000D01*
X162234762Y-101687381D01*
X162472858Y-101687381D01*
X162568096Y-101735000D01*
X162615715Y-101782619D01*
X162663334Y-101877857D01*
X162663334Y-101973095D01*
X162615715Y-102115952D01*
X162044286Y-102687381D01*
X162663334Y-102687381D01*
X163044286Y-101782619D02*
X163091905Y-101735000D01*
X163187143Y-101687381D01*
X163425239Y-101687381D01*
X163520477Y-101735000D01*
X163568096Y-101782619D01*
X163615715Y-101877857D01*
X163615715Y-101973095D01*
X163568096Y-102115952D01*
X162996667Y-102687381D01*
X163615715Y-102687381D01*
X164472858Y-102020714D02*
X164472858Y-102687381D01*
X164044286Y-102020714D02*
X164044286Y-102544524D01*
X164091905Y-102639762D01*
X164187143Y-102687381D01*
X164330001Y-102687381D01*
X164425239Y-102639762D01*
X164472858Y-102592143D01*
X164949048Y-102687381D02*
X164949048Y-101687381D01*
X164949048Y-102163571D02*
X165520477Y-102163571D01*
X165520477Y-102687381D02*
X165520477Y-101687381D01*
X139517381Y-102401666D02*
X139517381Y-102877857D01*
X138517381Y-102877857D01*
X138612619Y-102115952D02*
X138565000Y-102068333D01*
X138517381Y-101973095D01*
X138517381Y-101734999D01*
X138565000Y-101639761D01*
X138612619Y-101592142D01*
X138707857Y-101544523D01*
X138803095Y-101544523D01*
X138945952Y-101592142D01*
X139517381Y-102163571D01*
X139517381Y-101544523D01*
X141073334Y-102687381D02*
X140501905Y-102687381D01*
X140787619Y-102687381D02*
X140787619Y-101687381D01*
X140692381Y-101830238D01*
X140597143Y-101925476D01*
X140501905Y-101973095D01*
X141692381Y-101687381D02*
X141787620Y-101687381D01*
X141882858Y-101735000D01*
X141930477Y-101782619D01*
X141978096Y-101877857D01*
X142025715Y-102068333D01*
X142025715Y-102306429D01*
X141978096Y-102496905D01*
X141930477Y-102592143D01*
X141882858Y-102639762D01*
X141787620Y-102687381D01*
X141692381Y-102687381D01*
X141597143Y-102639762D01*
X141549524Y-102592143D01*
X141501905Y-102496905D01*
X141454286Y-102306429D01*
X141454286Y-102068333D01*
X141501905Y-101877857D01*
X141549524Y-101782619D01*
X141597143Y-101735000D01*
X141692381Y-101687381D01*
X142882858Y-102020714D02*
X142882858Y-102687381D01*
X142454286Y-102020714D02*
X142454286Y-102544524D01*
X142501905Y-102639762D01*
X142597143Y-102687381D01*
X142740001Y-102687381D01*
X142835239Y-102639762D01*
X142882858Y-102592143D01*
X143359048Y-102687381D02*
X143359048Y-101687381D01*
X143359048Y-102163571D02*
X143930477Y-102163571D01*
X143930477Y-102687381D02*
X143930477Y-101687381D01*
X161107381Y-106211666D02*
X160631190Y-106545000D01*
X161107381Y-106783095D02*
X160107381Y-106783095D01*
X160107381Y-106402142D01*
X160155000Y-106306904D01*
X160202619Y-106259285D01*
X160297857Y-106211666D01*
X160440714Y-106211666D01*
X160535952Y-106259285D01*
X160583571Y-106306904D01*
X160631190Y-106402142D01*
X160631190Y-106783095D01*
X161107381Y-105259285D02*
X161107381Y-105830714D01*
X161107381Y-105545000D02*
X160107381Y-105545000D01*
X160250238Y-105640238D01*
X160345476Y-105735476D01*
X160393095Y-105830714D01*
X163710953Y-106497381D02*
X163139524Y-106497381D01*
X163425238Y-106497381D02*
X163425238Y-105497381D01*
X163330000Y-105640238D01*
X163234762Y-105735476D01*
X163139524Y-105783095D01*
X164139524Y-106497381D02*
X164139524Y-105497381D01*
X164234762Y-106116429D02*
X164520477Y-106497381D01*
X164520477Y-105830714D02*
X164139524Y-106211667D01*
X161107381Y-94781666D02*
X160631190Y-95115000D01*
X161107381Y-95353095D02*
X160107381Y-95353095D01*
X160107381Y-94972142D01*
X160155000Y-94876904D01*
X160202619Y-94829285D01*
X160297857Y-94781666D01*
X160440714Y-94781666D01*
X160535952Y-94829285D01*
X160583571Y-94876904D01*
X160631190Y-94972142D01*
X160631190Y-95353095D01*
X160202619Y-94400714D02*
X160155000Y-94353095D01*
X160107381Y-94257857D01*
X160107381Y-94019761D01*
X160155000Y-93924523D01*
X160202619Y-93876904D01*
X160297857Y-93829285D01*
X160393095Y-93829285D01*
X160535952Y-93876904D01*
X161107381Y-94448333D01*
X161107381Y-93829285D01*
X162615714Y-94067381D02*
X163234762Y-94067381D01*
X162901428Y-94448333D01*
X163044286Y-94448333D01*
X163139524Y-94495952D01*
X163187143Y-94543571D01*
X163234762Y-94638810D01*
X163234762Y-94876905D01*
X163187143Y-94972143D01*
X163139524Y-95019762D01*
X163044286Y-95067381D01*
X162758571Y-95067381D01*
X162663333Y-95019762D01*
X162615714Y-94972143D01*
X163663333Y-95067381D02*
X163663333Y-94067381D01*
X163758571Y-94686429D02*
X164044286Y-95067381D01*
X164044286Y-94400714D02*
X163663333Y-94781667D01*
X164377619Y-94067381D02*
X164996667Y-94067381D01*
X164663333Y-94448333D01*
X164806191Y-94448333D01*
X164901429Y-94495952D01*
X164949048Y-94543571D01*
X164996667Y-94638810D01*
X164996667Y-94876905D01*
X164949048Y-94972143D01*
X164901429Y-95019762D01*
X164806191Y-95067381D01*
X164520476Y-95067381D01*
X164425238Y-95019762D01*
X164377619Y-94972143D01*
X161107381Y-98591666D02*
X160631190Y-98925000D01*
X161107381Y-99163095D02*
X160107381Y-99163095D01*
X160107381Y-98782142D01*
X160155000Y-98686904D01*
X160202619Y-98639285D01*
X160297857Y-98591666D01*
X160440714Y-98591666D01*
X160535952Y-98639285D01*
X160583571Y-98686904D01*
X160631190Y-98782142D01*
X160631190Y-99163095D01*
X160107381Y-98258333D02*
X160107381Y-97639285D01*
X160488333Y-97972619D01*
X160488333Y-97829761D01*
X160535952Y-97734523D01*
X160583571Y-97686904D01*
X160678810Y-97639285D01*
X160916905Y-97639285D01*
X161012143Y-97686904D01*
X161059762Y-97734523D01*
X161107381Y-97829761D01*
X161107381Y-98115476D01*
X161059762Y-98210714D01*
X161012143Y-98258333D01*
X163187143Y-97877381D02*
X162710952Y-97877381D01*
X162663333Y-98353571D01*
X162710952Y-98305952D01*
X162806190Y-98258333D01*
X163044286Y-98258333D01*
X163139524Y-98305952D01*
X163187143Y-98353571D01*
X163234762Y-98448810D01*
X163234762Y-98686905D01*
X163187143Y-98782143D01*
X163139524Y-98829762D01*
X163044286Y-98877381D01*
X162806190Y-98877381D01*
X162710952Y-98829762D01*
X162663333Y-98782143D01*
X163663333Y-98877381D02*
X163663333Y-97877381D01*
X163758571Y-98496429D02*
X164044286Y-98877381D01*
X164044286Y-98210714D02*
X163663333Y-98591667D01*
X164901429Y-97877381D02*
X164710952Y-97877381D01*
X164615714Y-97925000D01*
X164568095Y-97972619D01*
X164472857Y-98115476D01*
X164425238Y-98305952D01*
X164425238Y-98686905D01*
X164472857Y-98782143D01*
X164520476Y-98829762D01*
X164615714Y-98877381D01*
X164806191Y-98877381D01*
X164901429Y-98829762D01*
X164949048Y-98782143D01*
X164996667Y-98686905D01*
X164996667Y-98448810D01*
X164949048Y-98353571D01*
X164901429Y-98305952D01*
X164806191Y-98258333D01*
X164615714Y-98258333D01*
X164520476Y-98305952D01*
X164472857Y-98353571D01*
X164425238Y-98448810D01*
X126817381Y-117641666D02*
X126341190Y-117975000D01*
X126817381Y-118213095D02*
X125817381Y-118213095D01*
X125817381Y-117832142D01*
X125865000Y-117736904D01*
X125912619Y-117689285D01*
X126007857Y-117641666D01*
X126150714Y-117641666D01*
X126245952Y-117689285D01*
X126293571Y-117736904D01*
X126341190Y-117832142D01*
X126341190Y-118213095D01*
X126150714Y-116784523D02*
X126817381Y-116784523D01*
X125769762Y-117022619D02*
X126484048Y-117260714D01*
X126484048Y-116641666D01*
X129254286Y-116927381D02*
X129063809Y-116927381D01*
X128968571Y-116975000D01*
X128920952Y-117022619D01*
X128825714Y-117165476D01*
X128778095Y-117355952D01*
X128778095Y-117736905D01*
X128825714Y-117832143D01*
X128873333Y-117879762D01*
X128968571Y-117927381D01*
X129159048Y-117927381D01*
X129254286Y-117879762D01*
X129301905Y-117832143D01*
X129349524Y-117736905D01*
X129349524Y-117498810D01*
X129301905Y-117403571D01*
X129254286Y-117355952D01*
X129159048Y-117308333D01*
X128968571Y-117308333D01*
X128873333Y-117355952D01*
X128825714Y-117403571D01*
X128778095Y-117498810D01*
X129920952Y-117355952D02*
X129825714Y-117308333D01*
X129778095Y-117260714D01*
X129730476Y-117165476D01*
X129730476Y-117117857D01*
X129778095Y-117022619D01*
X129825714Y-116975000D01*
X129920952Y-116927381D01*
X130111429Y-116927381D01*
X130206667Y-116975000D01*
X130254286Y-117022619D01*
X130301905Y-117117857D01*
X130301905Y-117165476D01*
X130254286Y-117260714D01*
X130206667Y-117308333D01*
X130111429Y-117355952D01*
X129920952Y-117355952D01*
X129825714Y-117403571D01*
X129778095Y-117451190D01*
X129730476Y-117546429D01*
X129730476Y-117736905D01*
X129778095Y-117832143D01*
X129825714Y-117879762D01*
X129920952Y-117927381D01*
X130111429Y-117927381D01*
X130206667Y-117879762D01*
X130254286Y-117832143D01*
X130301905Y-117736905D01*
X130301905Y-117546429D01*
X130254286Y-117451190D01*
X130206667Y-117403571D01*
X130111429Y-117355952D01*
X126817381Y-113831666D02*
X126341190Y-114165000D01*
X126817381Y-114403095D02*
X125817381Y-114403095D01*
X125817381Y-114022142D01*
X125865000Y-113926904D01*
X125912619Y-113879285D01*
X126007857Y-113831666D01*
X126150714Y-113831666D01*
X126245952Y-113879285D01*
X126293571Y-113926904D01*
X126341190Y-114022142D01*
X126341190Y-114403095D01*
X125817381Y-112926904D02*
X125817381Y-113403095D01*
X126293571Y-113450714D01*
X126245952Y-113403095D01*
X126198333Y-113307857D01*
X126198333Y-113069761D01*
X126245952Y-112974523D01*
X126293571Y-112926904D01*
X126388810Y-112879285D01*
X126626905Y-112879285D01*
X126722143Y-112926904D01*
X126769762Y-112974523D01*
X126817381Y-113069761D01*
X126817381Y-113307857D01*
X126769762Y-113403095D01*
X126722143Y-113450714D01*
X128301905Y-113212619D02*
X128349524Y-113165000D01*
X128444762Y-113117381D01*
X128682858Y-113117381D01*
X128778096Y-113165000D01*
X128825715Y-113212619D01*
X128873334Y-113307857D01*
X128873334Y-113403095D01*
X128825715Y-113545952D01*
X128254286Y-114117381D01*
X128873334Y-114117381D01*
X129254286Y-113212619D02*
X129301905Y-113165000D01*
X129397143Y-113117381D01*
X129635239Y-113117381D01*
X129730477Y-113165000D01*
X129778096Y-113212619D01*
X129825715Y-113307857D01*
X129825715Y-113403095D01*
X129778096Y-113545952D01*
X129206667Y-114117381D01*
X129825715Y-114117381D01*
X130444762Y-113117381D02*
X130540001Y-113117381D01*
X130635239Y-113165000D01*
X130682858Y-113212619D01*
X130730477Y-113307857D01*
X130778096Y-113498333D01*
X130778096Y-113736429D01*
X130730477Y-113926905D01*
X130682858Y-114022143D01*
X130635239Y-114069762D01*
X130540001Y-114117381D01*
X130444762Y-114117381D01*
X130349524Y-114069762D01*
X130301905Y-114022143D01*
X130254286Y-113926905D01*
X130206667Y-113736429D01*
X130206667Y-113498333D01*
X130254286Y-113307857D01*
X130301905Y-113212619D01*
X130349524Y-113165000D01*
X130444762Y-113117381D01*
X139517381Y-98591666D02*
X139041190Y-98925000D01*
X139517381Y-99163095D02*
X138517381Y-99163095D01*
X138517381Y-98782142D01*
X138565000Y-98686904D01*
X138612619Y-98639285D01*
X138707857Y-98591666D01*
X138850714Y-98591666D01*
X138945952Y-98639285D01*
X138993571Y-98686904D01*
X139041190Y-98782142D01*
X139041190Y-99163095D01*
X138517381Y-97734523D02*
X138517381Y-97925000D01*
X138565000Y-98020238D01*
X138612619Y-98067857D01*
X138755476Y-98163095D01*
X138945952Y-98210714D01*
X139326905Y-98210714D01*
X139422143Y-98163095D01*
X139469762Y-98115476D01*
X139517381Y-98020238D01*
X139517381Y-97829761D01*
X139469762Y-97734523D01*
X139422143Y-97686904D01*
X139326905Y-97639285D01*
X139088810Y-97639285D01*
X138993571Y-97686904D01*
X138945952Y-97734523D01*
X138898333Y-97829761D01*
X138898333Y-98020238D01*
X138945952Y-98115476D01*
X138993571Y-98163095D01*
X139088810Y-98210714D01*
X141478096Y-98210714D02*
X141478096Y-98877381D01*
X141240000Y-97829762D02*
X141001905Y-98544048D01*
X141620953Y-98544048D01*
X141906667Y-97877381D02*
X142573334Y-97877381D01*
X142144762Y-98877381D01*
X143144762Y-97877381D02*
X143240001Y-97877381D01*
X143335239Y-97925000D01*
X143382858Y-97972619D01*
X143430477Y-98067857D01*
X143478096Y-98258333D01*
X143478096Y-98496429D01*
X143430477Y-98686905D01*
X143382858Y-98782143D01*
X143335239Y-98829762D01*
X143240001Y-98877381D01*
X143144762Y-98877381D01*
X143049524Y-98829762D01*
X143001905Y-98782143D01*
X142954286Y-98686905D01*
X142906667Y-98496429D01*
X142906667Y-98258333D01*
X142954286Y-98067857D01*
X143001905Y-97972619D01*
X143049524Y-97925000D01*
X143144762Y-97877381D01*
X139517381Y-117641666D02*
X139041190Y-117975000D01*
X139517381Y-118213095D02*
X138517381Y-118213095D01*
X138517381Y-117832142D01*
X138565000Y-117736904D01*
X138612619Y-117689285D01*
X138707857Y-117641666D01*
X138850714Y-117641666D01*
X138945952Y-117689285D01*
X138993571Y-117736904D01*
X139041190Y-117832142D01*
X139041190Y-118213095D01*
X138517381Y-117308333D02*
X138517381Y-116641666D01*
X139517381Y-117070238D01*
X141573334Y-117927381D02*
X141001905Y-117927381D01*
X141287619Y-117927381D02*
X141287619Y-116927381D01*
X141192381Y-117070238D01*
X141097143Y-117165476D01*
X141001905Y-117213095D01*
X142478096Y-116927381D02*
X142001905Y-116927381D01*
X141954286Y-117403571D01*
X142001905Y-117355952D01*
X142097143Y-117308333D01*
X142335239Y-117308333D01*
X142430477Y-117355952D01*
X142478096Y-117403571D01*
X142525715Y-117498810D01*
X142525715Y-117736905D01*
X142478096Y-117832143D01*
X142430477Y-117879762D01*
X142335239Y-117927381D01*
X142097143Y-117927381D01*
X142001905Y-117879762D01*
X141954286Y-117832143D01*
X143144762Y-116927381D02*
X143240001Y-116927381D01*
X143335239Y-116975000D01*
X143382858Y-117022619D01*
X143430477Y-117117857D01*
X143478096Y-117308333D01*
X143478096Y-117546429D01*
X143430477Y-117736905D01*
X143382858Y-117832143D01*
X143335239Y-117879762D01*
X143240001Y-117927381D01*
X143144762Y-117927381D01*
X143049524Y-117879762D01*
X143001905Y-117832143D01*
X142954286Y-117736905D01*
X142906667Y-117546429D01*
X142906667Y-117308333D01*
X142954286Y-117117857D01*
X143001905Y-117022619D01*
X143049524Y-116975000D01*
X143144762Y-116927381D01*
X139517381Y-106211666D02*
X139041190Y-106545000D01*
X139517381Y-106783095D02*
X138517381Y-106783095D01*
X138517381Y-106402142D01*
X138565000Y-106306904D01*
X138612619Y-106259285D01*
X138707857Y-106211666D01*
X138850714Y-106211666D01*
X138945952Y-106259285D01*
X138993571Y-106306904D01*
X139041190Y-106402142D01*
X139041190Y-106783095D01*
X138945952Y-105640238D02*
X138898333Y-105735476D01*
X138850714Y-105783095D01*
X138755476Y-105830714D01*
X138707857Y-105830714D01*
X138612619Y-105783095D01*
X138565000Y-105735476D01*
X138517381Y-105640238D01*
X138517381Y-105449761D01*
X138565000Y-105354523D01*
X138612619Y-105306904D01*
X138707857Y-105259285D01*
X138755476Y-105259285D01*
X138850714Y-105306904D01*
X138898333Y-105354523D01*
X138945952Y-105449761D01*
X138945952Y-105640238D01*
X138993571Y-105735476D01*
X139041190Y-105783095D01*
X139136429Y-105830714D01*
X139326905Y-105830714D01*
X139422143Y-105783095D01*
X139469762Y-105735476D01*
X139517381Y-105640238D01*
X139517381Y-105449761D01*
X139469762Y-105354523D01*
X139422143Y-105306904D01*
X139326905Y-105259285D01*
X139136429Y-105259285D01*
X139041190Y-105306904D01*
X138993571Y-105354523D01*
X138945952Y-105449761D01*
X141573334Y-106497381D02*
X141001905Y-106497381D01*
X141287619Y-106497381D02*
X141287619Y-105497381D01*
X141192381Y-105640238D01*
X141097143Y-105735476D01*
X141001905Y-105783095D01*
X142478096Y-105497381D02*
X142001905Y-105497381D01*
X141954286Y-105973571D01*
X142001905Y-105925952D01*
X142097143Y-105878333D01*
X142335239Y-105878333D01*
X142430477Y-105925952D01*
X142478096Y-105973571D01*
X142525715Y-106068810D01*
X142525715Y-106306905D01*
X142478096Y-106402143D01*
X142430477Y-106449762D01*
X142335239Y-106497381D01*
X142097143Y-106497381D01*
X142001905Y-106449762D01*
X141954286Y-106402143D01*
X143144762Y-105497381D02*
X143240001Y-105497381D01*
X143335239Y-105545000D01*
X143382858Y-105592619D01*
X143430477Y-105687857D01*
X143478096Y-105878333D01*
X143478096Y-106116429D01*
X143430477Y-106306905D01*
X143382858Y-106402143D01*
X143335239Y-106449762D01*
X143240001Y-106497381D01*
X143144762Y-106497381D01*
X143049524Y-106449762D01*
X143001905Y-106402143D01*
X142954286Y-106306905D01*
X142906667Y-106116429D01*
X142906667Y-105878333D01*
X142954286Y-105687857D01*
X143001905Y-105592619D01*
X143049524Y-105545000D01*
X143144762Y-105497381D01*
X139517381Y-110497857D02*
X139041190Y-110831191D01*
X139517381Y-111069286D02*
X138517381Y-111069286D01*
X138517381Y-110688333D01*
X138565000Y-110593095D01*
X138612619Y-110545476D01*
X138707857Y-110497857D01*
X138850714Y-110497857D01*
X138945952Y-110545476D01*
X138993571Y-110593095D01*
X139041190Y-110688333D01*
X139041190Y-111069286D01*
X139517381Y-109545476D02*
X139517381Y-110116905D01*
X139517381Y-109831191D02*
X138517381Y-109831191D01*
X138660238Y-109926429D01*
X138755476Y-110021667D01*
X138803095Y-110116905D01*
X139517381Y-108593095D02*
X139517381Y-109164524D01*
X139517381Y-108878810D02*
X138517381Y-108878810D01*
X138660238Y-108974048D01*
X138755476Y-109069286D01*
X138803095Y-109164524D01*
X141573334Y-110307381D02*
X141001905Y-110307381D01*
X141287619Y-110307381D02*
X141287619Y-109307381D01*
X141192381Y-109450238D01*
X141097143Y-109545476D01*
X141001905Y-109593095D01*
X142478096Y-109307381D02*
X142001905Y-109307381D01*
X141954286Y-109783571D01*
X142001905Y-109735952D01*
X142097143Y-109688333D01*
X142335239Y-109688333D01*
X142430477Y-109735952D01*
X142478096Y-109783571D01*
X142525715Y-109878810D01*
X142525715Y-110116905D01*
X142478096Y-110212143D01*
X142430477Y-110259762D01*
X142335239Y-110307381D01*
X142097143Y-110307381D01*
X142001905Y-110259762D01*
X141954286Y-110212143D01*
X143144762Y-109307381D02*
X143240001Y-109307381D01*
X143335239Y-109355000D01*
X143382858Y-109402619D01*
X143430477Y-109497857D01*
X143478096Y-109688333D01*
X143478096Y-109926429D01*
X143430477Y-110116905D01*
X143382858Y-110212143D01*
X143335239Y-110259762D01*
X143240001Y-110307381D01*
X143144762Y-110307381D01*
X143049524Y-110259762D01*
X143001905Y-110212143D01*
X142954286Y-110116905D01*
X142906667Y-109926429D01*
X142906667Y-109688333D01*
X142954286Y-109497857D01*
X143001905Y-109402619D01*
X143049524Y-109355000D01*
X143144762Y-109307381D01*
X139517381Y-114307857D02*
X139041190Y-114641191D01*
X139517381Y-114879286D02*
X138517381Y-114879286D01*
X138517381Y-114498333D01*
X138565000Y-114403095D01*
X138612619Y-114355476D01*
X138707857Y-114307857D01*
X138850714Y-114307857D01*
X138945952Y-114355476D01*
X138993571Y-114403095D01*
X139041190Y-114498333D01*
X139041190Y-114879286D01*
X139517381Y-113355476D02*
X139517381Y-113926905D01*
X139517381Y-113641191D02*
X138517381Y-113641191D01*
X138660238Y-113736429D01*
X138755476Y-113831667D01*
X138803095Y-113926905D01*
X138612619Y-112974524D02*
X138565000Y-112926905D01*
X138517381Y-112831667D01*
X138517381Y-112593571D01*
X138565000Y-112498333D01*
X138612619Y-112450714D01*
X138707857Y-112403095D01*
X138803095Y-112403095D01*
X138945952Y-112450714D01*
X139517381Y-113022143D01*
X139517381Y-112403095D01*
X141573334Y-114117381D02*
X141001905Y-114117381D01*
X141287619Y-114117381D02*
X141287619Y-113117381D01*
X141192381Y-113260238D01*
X141097143Y-113355476D01*
X141001905Y-113403095D01*
X142478096Y-113117381D02*
X142001905Y-113117381D01*
X141954286Y-113593571D01*
X142001905Y-113545952D01*
X142097143Y-113498333D01*
X142335239Y-113498333D01*
X142430477Y-113545952D01*
X142478096Y-113593571D01*
X142525715Y-113688810D01*
X142525715Y-113926905D01*
X142478096Y-114022143D01*
X142430477Y-114069762D01*
X142335239Y-114117381D01*
X142097143Y-114117381D01*
X142001905Y-114069762D01*
X141954286Y-114022143D01*
X143144762Y-113117381D02*
X143240001Y-113117381D01*
X143335239Y-113165000D01*
X143382858Y-113212619D01*
X143430477Y-113307857D01*
X143478096Y-113498333D01*
X143478096Y-113736429D01*
X143430477Y-113926905D01*
X143382858Y-114022143D01*
X143335239Y-114069762D01*
X143240001Y-114117381D01*
X143144762Y-114117381D01*
X143049524Y-114069762D01*
X143001905Y-114022143D01*
X142954286Y-113926905D01*
X142906667Y-113736429D01*
X142906667Y-113498333D01*
X142954286Y-113307857D01*
X143001905Y-113212619D01*
X143049524Y-113165000D01*
X143144762Y-113117381D01*
X123094762Y-96432619D02*
X122999524Y-96385000D01*
X122904286Y-96289762D01*
X122761429Y-96146905D01*
X122666190Y-96099286D01*
X122570952Y-96099286D01*
X122618571Y-96337381D02*
X122523333Y-96289762D01*
X122428095Y-96194524D01*
X122380476Y-96004048D01*
X122380476Y-95670714D01*
X122428095Y-95480238D01*
X122523333Y-95385000D01*
X122618571Y-95337381D01*
X122809048Y-95337381D01*
X122904286Y-95385000D01*
X122999524Y-95480238D01*
X123047143Y-95670714D01*
X123047143Y-96004048D01*
X122999524Y-96194524D01*
X122904286Y-96289762D01*
X122809048Y-96337381D01*
X122618571Y-96337381D01*
X123999524Y-96337381D02*
X123428095Y-96337381D01*
X123713809Y-96337381D02*
X123713809Y-95337381D01*
X123618571Y-95480238D01*
X123523333Y-95575476D01*
X123428095Y-95623095D01*
X119943571Y-102187142D02*
X119991190Y-102044285D01*
X120038810Y-101996666D01*
X120134048Y-101949047D01*
X120276905Y-101949047D01*
X120372143Y-101996666D01*
X120419762Y-102044285D01*
X120467381Y-102139523D01*
X120467381Y-102520476D01*
X119467381Y-102520476D01*
X119467381Y-102187142D01*
X119515000Y-102091904D01*
X119562619Y-102044285D01*
X119657857Y-101996666D01*
X119753095Y-101996666D01*
X119848333Y-102044285D01*
X119895952Y-102091904D01*
X119943571Y-102187142D01*
X119943571Y-102520476D01*
X120372143Y-100949047D02*
X120419762Y-100996666D01*
X120467381Y-101139523D01*
X120467381Y-101234761D01*
X120419762Y-101377619D01*
X120324524Y-101472857D01*
X120229286Y-101520476D01*
X120038810Y-101568095D01*
X119895952Y-101568095D01*
X119705476Y-101520476D01*
X119610238Y-101472857D01*
X119515000Y-101377619D01*
X119467381Y-101234761D01*
X119467381Y-101139523D01*
X119515000Y-100996666D01*
X119562619Y-100949047D01*
X119467381Y-100044285D02*
X119467381Y-100520476D01*
X119943571Y-100568095D01*
X119895952Y-100520476D01*
X119848333Y-100425238D01*
X119848333Y-100187142D01*
X119895952Y-100091904D01*
X119943571Y-100044285D01*
X120038810Y-99996666D01*
X120276905Y-99996666D01*
X120372143Y-100044285D01*
X120419762Y-100091904D01*
X120467381Y-100187142D01*
X120467381Y-100425238D01*
X120419762Y-100520476D01*
X120372143Y-100568095D01*
X119800714Y-99139523D02*
X120467381Y-99139523D01*
X119419762Y-99377619D02*
X120134048Y-99615714D01*
X120134048Y-98996666D01*
X120467381Y-98568095D02*
X120467381Y-98377619D01*
X120419762Y-98282380D01*
X120372143Y-98234761D01*
X120229286Y-98139523D01*
X120038810Y-98091904D01*
X119657857Y-98091904D01*
X119562619Y-98139523D01*
X119515000Y-98187142D01*
X119467381Y-98282380D01*
X119467381Y-98472857D01*
X119515000Y-98568095D01*
X119562619Y-98615714D01*
X119657857Y-98663333D01*
X119895952Y-98663333D01*
X119991190Y-98615714D01*
X120038810Y-98568095D01*
X120086429Y-98472857D01*
X120086429Y-98282380D01*
X120038810Y-98187142D01*
X119991190Y-98139523D01*
X119895952Y-98091904D01*
X130079762Y-96432619D02*
X129984524Y-96385000D01*
X129889286Y-96289762D01*
X129746429Y-96146905D01*
X129651190Y-96099286D01*
X129555952Y-96099286D01*
X129603571Y-96337381D02*
X129508333Y-96289762D01*
X129413095Y-96194524D01*
X129365476Y-96004048D01*
X129365476Y-95670714D01*
X129413095Y-95480238D01*
X129508333Y-95385000D01*
X129603571Y-95337381D01*
X129794048Y-95337381D01*
X129889286Y-95385000D01*
X129984524Y-95480238D01*
X130032143Y-95670714D01*
X130032143Y-96004048D01*
X129984524Y-96194524D01*
X129889286Y-96289762D01*
X129794048Y-96337381D01*
X129603571Y-96337381D01*
X130413095Y-95432619D02*
X130460714Y-95385000D01*
X130555952Y-95337381D01*
X130794048Y-95337381D01*
X130889286Y-95385000D01*
X130936905Y-95432619D01*
X130984524Y-95527857D01*
X130984524Y-95623095D01*
X130936905Y-95765952D01*
X130365476Y-96337381D01*
X130984524Y-96337381D01*
X127313571Y-102187142D02*
X127361190Y-102044285D01*
X127408810Y-101996666D01*
X127504048Y-101949047D01*
X127646905Y-101949047D01*
X127742143Y-101996666D01*
X127789762Y-102044285D01*
X127837381Y-102139523D01*
X127837381Y-102520476D01*
X126837381Y-102520476D01*
X126837381Y-102187142D01*
X126885000Y-102091904D01*
X126932619Y-102044285D01*
X127027857Y-101996666D01*
X127123095Y-101996666D01*
X127218333Y-102044285D01*
X127265952Y-102091904D01*
X127313571Y-102187142D01*
X127313571Y-102520476D01*
X127742143Y-100949047D02*
X127789762Y-100996666D01*
X127837381Y-101139523D01*
X127837381Y-101234761D01*
X127789762Y-101377619D01*
X127694524Y-101472857D01*
X127599286Y-101520476D01*
X127408810Y-101568095D01*
X127265952Y-101568095D01*
X127075476Y-101520476D01*
X126980238Y-101472857D01*
X126885000Y-101377619D01*
X126837381Y-101234761D01*
X126837381Y-101139523D01*
X126885000Y-100996666D01*
X126932619Y-100949047D01*
X126837381Y-100044285D02*
X126837381Y-100520476D01*
X127313571Y-100568095D01*
X127265952Y-100520476D01*
X127218333Y-100425238D01*
X127218333Y-100187142D01*
X127265952Y-100091904D01*
X127313571Y-100044285D01*
X127408810Y-99996666D01*
X127646905Y-99996666D01*
X127742143Y-100044285D01*
X127789762Y-100091904D01*
X127837381Y-100187142D01*
X127837381Y-100425238D01*
X127789762Y-100520476D01*
X127742143Y-100568095D01*
X127170714Y-99139523D02*
X127837381Y-99139523D01*
X126789762Y-99377619D02*
X127504048Y-99615714D01*
X127504048Y-98996666D01*
X127837381Y-98568095D02*
X127837381Y-98377619D01*
X127789762Y-98282380D01*
X127742143Y-98234761D01*
X127599286Y-98139523D01*
X127408810Y-98091904D01*
X127027857Y-98091904D01*
X126932619Y-98139523D01*
X126885000Y-98187142D01*
X126837381Y-98282380D01*
X126837381Y-98472857D01*
X126885000Y-98568095D01*
X126932619Y-98615714D01*
X127027857Y-98663333D01*
X127265952Y-98663333D01*
X127361190Y-98615714D01*
X127408810Y-98568095D01*
X127456429Y-98472857D01*
X127456429Y-98282380D01*
X127408810Y-98187142D01*
X127361190Y-98139523D01*
X127265952Y-98091904D01*
X173712143Y-95416666D02*
X173759762Y-95464285D01*
X173807381Y-95607142D01*
X173807381Y-95702380D01*
X173759762Y-95845238D01*
X173664524Y-95940476D01*
X173569286Y-95988095D01*
X173378810Y-96035714D01*
X173235952Y-96035714D01*
X173045476Y-95988095D01*
X172950238Y-95940476D01*
X172855000Y-95845238D01*
X172807381Y-95702380D01*
X172807381Y-95607142D01*
X172855000Y-95464285D01*
X172902619Y-95416666D01*
X173140714Y-94559523D02*
X173807381Y-94559523D01*
X172759762Y-94797619D02*
X173474048Y-95035714D01*
X173474048Y-94416666D01*
X173712143Y-77001666D02*
X173759762Y-77049285D01*
X173807381Y-77192142D01*
X173807381Y-77287380D01*
X173759762Y-77430238D01*
X173664524Y-77525476D01*
X173569286Y-77573095D01*
X173378810Y-77620714D01*
X173235952Y-77620714D01*
X173045476Y-77573095D01*
X172950238Y-77525476D01*
X172855000Y-77430238D01*
X172807381Y-77287380D01*
X172807381Y-77192142D01*
X172855000Y-77049285D01*
X172902619Y-77001666D01*
X172807381Y-76096904D02*
X172807381Y-76573095D01*
X173283571Y-76620714D01*
X173235952Y-76573095D01*
X173188333Y-76477857D01*
X173188333Y-76239761D01*
X173235952Y-76144523D01*
X173283571Y-76096904D01*
X173378810Y-76049285D01*
X173616905Y-76049285D01*
X173712143Y-76096904D01*
X173759762Y-76144523D01*
X173807381Y-76239761D01*
X173807381Y-76477857D01*
X173759762Y-76573095D01*
X173712143Y-76620714D01*
X178268334Y-72112143D02*
X178220715Y-72159762D01*
X178077858Y-72207381D01*
X177982620Y-72207381D01*
X177839762Y-72159762D01*
X177744524Y-72064524D01*
X177696905Y-71969286D01*
X177649286Y-71778810D01*
X177649286Y-71635952D01*
X177696905Y-71445476D01*
X177744524Y-71350238D01*
X177839762Y-71255000D01*
X177982620Y-71207381D01*
X178077858Y-71207381D01*
X178220715Y-71255000D01*
X178268334Y-71302619D01*
X178601667Y-71207381D02*
X179268334Y-71207381D01*
X178839762Y-72207381D01*
X152955715Y-118892143D02*
X152908096Y-118939762D01*
X152765239Y-118987381D01*
X152670001Y-118987381D01*
X152527143Y-118939762D01*
X152431905Y-118844524D01*
X152384286Y-118749286D01*
X152336667Y-118558810D01*
X152336667Y-118415952D01*
X152384286Y-118225476D01*
X152431905Y-118130238D01*
X152527143Y-118035000D01*
X152670001Y-117987381D01*
X152765239Y-117987381D01*
X152908096Y-118035000D01*
X152955715Y-118082619D01*
X153384286Y-118987381D02*
X153384286Y-117987381D01*
X153384286Y-118463571D02*
X153955715Y-118463571D01*
X153955715Y-118987381D02*
X153955715Y-117987381D01*
X155003334Y-118987381D02*
X154670000Y-118511190D01*
X154431905Y-118987381D02*
X154431905Y-117987381D01*
X154812858Y-117987381D01*
X154908096Y-118035000D01*
X154955715Y-118082619D01*
X155003334Y-118177857D01*
X155003334Y-118320714D01*
X154955715Y-118415952D01*
X154908096Y-118463571D01*
X154812858Y-118511190D01*
X154431905Y-118511190D01*
X149074286Y-118987381D02*
X148598095Y-118987381D01*
X148598095Y-117987381D01*
X149407619Y-117987381D02*
X149407619Y-118796905D01*
X149455238Y-118892143D01*
X149502857Y-118939762D01*
X149598095Y-118987381D01*
X149788572Y-118987381D01*
X149883810Y-118939762D01*
X149931429Y-118892143D01*
X149979048Y-118796905D01*
X149979048Y-117987381D01*
X150455238Y-118987381D02*
X150455238Y-117987381D01*
X150788572Y-118701667D01*
X151121905Y-117987381D01*
X151121905Y-118987381D01*
X166878095Y-85812381D02*
X166878095Y-86621905D01*
X166925714Y-86717143D01*
X166973333Y-86764762D01*
X167068571Y-86812381D01*
X167259048Y-86812381D01*
X167354286Y-86764762D01*
X167401905Y-86717143D01*
X167449524Y-86621905D01*
X167449524Y-85812381D01*
X168449524Y-86812381D02*
X167878095Y-86812381D01*
X168163809Y-86812381D02*
X168163809Y-85812381D01*
X168068571Y-85955238D01*
X167973333Y-86050476D01*
X167878095Y-86098095D01*
X165473334Y-89352381D02*
X164997143Y-89352381D01*
X164997143Y-88352381D01*
X165806667Y-89352381D02*
X165806667Y-88352381D01*
X166140001Y-89066667D01*
X166473334Y-88352381D01*
X166473334Y-89352381D01*
X166854286Y-88352381D02*
X167520953Y-88352381D01*
X167092381Y-89352381D01*
X168044762Y-88780952D02*
X167949524Y-88733333D01*
X167901905Y-88685714D01*
X167854286Y-88590476D01*
X167854286Y-88542857D01*
X167901905Y-88447619D01*
X167949524Y-88400000D01*
X168044762Y-88352381D01*
X168235239Y-88352381D01*
X168330477Y-88400000D01*
X168378096Y-88447619D01*
X168425715Y-88542857D01*
X168425715Y-88590476D01*
X168378096Y-88685714D01*
X168330477Y-88733333D01*
X168235239Y-88780952D01*
X168044762Y-88780952D01*
X167949524Y-88828571D01*
X167901905Y-88876190D01*
X167854286Y-88971429D01*
X167854286Y-89161905D01*
X167901905Y-89257143D01*
X167949524Y-89304762D01*
X168044762Y-89352381D01*
X168235239Y-89352381D01*
X168330477Y-89304762D01*
X168378096Y-89257143D01*
X168425715Y-89161905D01*
X168425715Y-88971429D01*
X168378096Y-88876190D01*
X168330477Y-88828571D01*
X168235239Y-88780952D01*
X169044762Y-88352381D02*
X169140001Y-88352381D01*
X169235239Y-88400000D01*
X169282858Y-88447619D01*
X169330477Y-88542857D01*
X169378096Y-88733333D01*
X169378096Y-88971429D01*
X169330477Y-89161905D01*
X169282858Y-89257143D01*
X169235239Y-89304762D01*
X169140001Y-89352381D01*
X169044762Y-89352381D01*
X168949524Y-89304762D01*
X168901905Y-89257143D01*
X168854286Y-89161905D01*
X168806667Y-88971429D01*
X168806667Y-88733333D01*
X168854286Y-88542857D01*
X168901905Y-88447619D01*
X168949524Y-88400000D01*
X169044762Y-88352381D01*
X170282858Y-88352381D02*
X169806667Y-88352381D01*
X169759048Y-88828571D01*
X169806667Y-88780952D01*
X169901905Y-88733333D01*
X170140001Y-88733333D01*
X170235239Y-88780952D01*
X170282858Y-88828571D01*
X170330477Y-88923810D01*
X170330477Y-89161905D01*
X170282858Y-89257143D01*
X170235239Y-89304762D01*
X170140001Y-89352381D01*
X169901905Y-89352381D01*
X169806667Y-89304762D01*
X169759048Y-89257143D01*
X155392381Y-87098095D02*
X154392381Y-87098095D01*
X154392381Y-86860000D01*
X154440000Y-86717142D01*
X154535238Y-86621904D01*
X154630476Y-86574285D01*
X154820952Y-86526666D01*
X154963810Y-86526666D01*
X155154286Y-86574285D01*
X155249524Y-86621904D01*
X155344762Y-86717142D01*
X155392381Y-86860000D01*
X155392381Y-87098095D01*
X155392381Y-85574285D02*
X155392381Y-86145714D01*
X155392381Y-85860000D02*
X154392381Y-85860000D01*
X154535238Y-85955238D01*
X154630476Y-86050476D01*
X154678095Y-86145714D01*
M02*
